<?xml version="1.0" encoding="utf-8"?>
<!-- Generator: Adobe Illustrator 21.0.2, SVG Export Plug-In . SVG Version: 6.00 Build 0)  -->
<svg version="1.1" id="header-laptop" xmlns="http://www.w3.org/2000/svg" xmlns:xlink="http://www.w3.org/1999/xlink" x="0px" y="0px"
	 viewBox="0 0 450 300" style="enable-background:new 0 0 450 300;" xml:space="preserve">
<style type="text/css">
	.st0{display:none;}
	.st1{display:inline;opacity:0.5;}
	.st2{fill:#3221D4;}
	.st3{fill:none;stroke:#3221D4;stroke-width:0.5;stroke-linecap:round;stroke-miterlimit:10;}
	.st4{fill:none;stroke:#3221D4;stroke-width:0.51;stroke-linecap:round;stroke-miterlimit:10;}
	.st5{fill:none;stroke:#3221D4;stroke-width:0.4146;stroke-linecap:round;stroke-miterlimit:10;}
</style>
<g id="header-pattern-background" class="st0">
	<g class="st1">
		<g>
			<path class="st2" d="M94.6,28.9c0,0.1,0.1,0.2,0.2,0.2S95,29,95,28.9c0-0.6,0.2-0.8,0.4-1.1c0.2-0.3,0.5-0.7,0.4-1.3
				c0-0.7-0.2-1-0.4-1.3c-0.2-0.3-0.4-0.5-0.4-1.1s0.2-0.8,0.4-1.1c0.2-0.3,0.5-0.7,0.4-1.3c0-0.7-0.2-1-0.4-1.3
				c-0.2-0.3-0.4-0.5-0.4-1.1s0.2-0.8,0.4-1.1c0.2-0.3,0.5-0.7,0.4-1.3c0-0.1-0.1-0.2-0.2-0.2s-0.2,0.1-0.2,0.2l0,0
				c0,0.6-0.2,0.8-0.4,1.1c-0.2,0.3-0.5,0.7-0.4,1.3c0,0.7,0.2,1,0.4,1.3c0.2,0.3,0.4,0.5,0.4,1.1s-0.2,0.8-0.4,1.1
				c-0.2,0.3-0.5,0.7-0.4,1.3c0,0.7,0.2,1,0.4,1.3c0.2,0.3,0.4,0.5,0.4,1.1s-0.2,0.8-0.4,1.1C94.8,27.8,94.6,28.2,94.6,28.9z"/>
			<path class="st2" d="M100.7,28.9c0,0.1,0.1,0.2,0.2,0.2s0.2-0.1,0.2-0.2c0-0.6,0.2-0.8,0.4-1.1c0.2-0.3,0.5-0.7,0.4-1.3
				c0-0.7-0.2-1-0.4-1.3c-0.2-0.3-0.4-0.5-0.4-1.1s0.2-0.8,0.4-1.1c0.2-0.3,0.5-0.7,0.4-1.3c0-0.7-0.2-1-0.4-1.3
				c-0.2-0.3-0.4-0.5-0.4-1.1s0.2-0.8,0.4-1.1c0.2-0.3,0.5-0.7,0.4-1.3c0-0.1-0.1-0.2-0.2-0.2s-0.2,0.1-0.2,0.2l0,0
				c0,0.6-0.2,0.8-0.4,1.1c-0.2,0.3-0.5,0.7-0.4,1.3c0,0.7,0.2,1,0.4,1.3c0.2,0.3,0.4,0.5,0.4,1.1s-0.2,0.8-0.4,1.1
				c-0.2,0.3-0.5,0.7-0.4,1.3c0,0.7,0.2,1,0.4,1.3c0.2,0.3,0.4,0.5,0.4,1.1s-0.2,0.8-0.4,1.1C101,27.8,100.7,28.2,100.7,28.9z"/>
			<path class="st2" d="M106.9,28.9c0,0.1,0.1,0.2,0.2,0.2s0.2-0.1,0.2-0.2c0-0.6,0.2-0.8,0.4-1.1s0.5-0.7,0.4-1.3
				c0-0.7-0.2-1-0.4-1.3s-0.4-0.5-0.4-1.1s0.2-0.8,0.4-1.1c0.2-0.3,0.5-0.7,0.4-1.3c0-0.7-0.2-1-0.4-1.3s-0.4-0.5-0.4-1.1
				s0.2-0.8,0.4-1.1s0.5-0.7,0.4-1.3c0-0.1-0.1-0.2-0.2-0.2s-0.2,0.1-0.2,0.2l0,0c0,0.6-0.2,0.8-0.4,1.1c-0.2,0.3-0.5,0.7-0.4,1.3
				c0,0.7,0.2,1,0.4,1.3c0.2,0.3,0.4,0.5,0.4,1.1s-0.2,0.8-0.4,1.1c-0.2,0.2-0.4,0.6-0.4,1.2c0,0.7,0.2,1,0.4,1.3s0.4,0.5,0.4,1.1
				s-0.2,0.8-0.4,1.1C107.1,27.8,106.9,28.2,106.9,28.9z"/>
			<path class="st2" d="M117.3,34.8c0-0.1,0-0.2,0-0.3c0-0.4-0.2-0.7-0.4-0.9c-0.4-0.3-0.8-0.5-1.3-0.6c-0.5,0-0.9,0-1.1,0l0,0v-1.9
				l0,0c0-0.1,0-0.1-0.1-0.2s-0.1-0.1-0.1-0.1h-0.1c-0.1,0-0.1,0-0.2,0c-0.8,0-3.3,0-6.5,0c-7.8,0-19.6,0.1-19.6,0.1h-0.2V33h-0.1
				c-0.3,0-0.9,0-1.5,0.2c-0.3,0.1-0.6,0.2-0.8,0.5c-0.2,0.2-0.4,0.5-0.4,0.9c0,0.1,0,0.2,0,0.3s0,0.2,0,0.2c0,0.2,0,0.4,0,0.6
				c0,0.8,0.1,1.4,0.3,1.9c0.1,0.2,0.3,0.4,0.5,0.5s0.5,0.2,0.7,0.2c0.3,0,0.7,0,1.2,0c0.1,0,0.2,0,0.2,0v9.8c0,2.4,1.9,4.3,4.3,4.3
				h18.2c2.4,0,4.3-1.9,4.3-4.3v-9.7v-0.1c0.1,0,0.1,0,0.2,0c0.5,0,0.9,0,1.2,0c0.3,0,0.5-0.1,0.7-0.2c0.3-0.2,0.5-0.5,0.6-0.9
				s0.1-0.9,0.1-1.5c0-0.2,0-0.4,0-0.6C117.3,35,117.3,34.9,117.3,34.8z M114.5,33.5c0.3,0,0.9,0,1.4,0.2c0.3,0.1,0.5,0.2,0.7,0.4
				c0.1,0.1,0.2,0.3,0.3,0.5l0,0c0,0.2,0,0.4,0,0.5c0,0.2-0.1,0.3-0.1,0.4c-0.1,0.2-0.3,0.4-0.6,0.5c-0.4,0-0.7,0-0.9,0
				s-0.5,0-0.9,0L114.5,33.5C114.4,33.5,114.4,33.5,114.5,33.5z M86.5,33.6c0.4-0.1,0.8-0.1,1-0.1c0.1,0,0.1,0,0.1,0l0,0V36
				c-0.4,0-0.8,0-1,0c-0.3,0-0.7,0-1-0.2c-0.1-0.1-0.3-0.2-0.3-0.3c-0.1-0.1-0.1-0.2-0.1-0.4s0-0.4,0-0.5l0,0c0-0.2,0.1-0.3,0.3-0.5
				C85.7,33.8,86.1,33.6,86.5,33.6z M86.2,37.8c-0.2,0-0.4-0.1-0.5-0.1c-0.2-0.1-0.3-0.3-0.4-0.6c-0.1-0.2-0.1-0.6-0.1-1
				c0.2,0.1,0.4,0.3,0.6,0.3c0.3,0.1,0.7,0.1,1,0.1s0.7,0,1.2,0l0,0l0,0c0.9,0,1.9,0,1.9,0l0,0l0,0l0,0c0.1,0,0.2,0,0.3,0.1
				c0.1,0,0.1,0.1,0.1,0.1c0,0.1,0.1,0.2,0.1,0.3l0,0c0,0.3-0.1,0.5-0.2,0.5c-0.1,0.1-0.2,0.1-0.5,0.1s-1,0-1.8,0h-0.1h-0.1
				c-0.1,0-0.3,0-0.4,0C86.9,37.8,86.5,37.8,86.2,37.8z M113.9,38.4L113.9,38.4v9.7c0,1-0.4,2-1.1,2.7s-1.6,1.1-2.7,1.1H91.9
				c-1,0-2-0.4-2.7-1.1s-1.1-1.6-1.1-2.7v-9.8c0.7,0,1.3,0,1.6,0c0.3,0,0.6-0.1,0.8-0.3c0.2-0.2,0.3-0.5,0.3-0.9l0,0V37
				c0-0.2,0-0.4-0.1-0.6c-0.1-0.2-0.3-0.3-0.5-0.4c-0.2,0-0.3,0-0.4,0l0,0l0,0c0,0-0.8,0-1.7,0v-4.7c0.3,0,0.9,0,1.7,0
				c3.7,0,11.8-0.1,17.6-0.1c1.9,0,3.6,0,4.8,0c0.6,0,1.1,0,1.4,0c0.1,0,0.2,0,0.3,0V36c-0.9,0-1.8,0-1.8,0l0,0l0,0
				c-0.1,0-0.3,0-0.6,0.2c-0.1,0.1-0.2,0.2-0.3,0.3s-0.1,0.3-0.1,0.6v0.1l0,0c0,0.4,0.1,0.7,0.3,0.9c0.2,0.2,0.5,0.3,0.8,0.3
				s1,0,1.8,0C114,38.3,113.9,38.3,113.9,38.4z M116.6,37.3c-0.1,0.2-0.2,0.3-0.3,0.3c-0.1,0.1-0.3,0.1-0.5,0.1c-0.3,0-0.7,0-1.2,0
				c-0.9,0-2,0-2.4,0c-0.3,0-0.4-0.1-0.5-0.1c-0.1-0.1-0.1-0.2-0.2-0.5l0,0l0,0c0-0.2,0-0.2,0.1-0.3s0.1-0.2,0.2-0.2s0.2,0,0.2,0
				l0,0l0,0l0,0l0,0c0,0,2.4,0,3.1,0c0.4,0,0.9,0,1.3-0.3c0.1,0,0.2-0.1,0.2-0.2C116.8,36.6,116.7,37,116.6,37.3z"/>
			<path class="st2" d="M111.7,33.9c0-0.1-0.1-0.2-0.2-0.2H90.2c-0.1,0-0.2,0.1-0.2,0.2c0,0.1,0.1,0.2,0.2,0.2h21.2
				C111.6,34.2,111.7,34.1,111.7,33.9z"/>
			<path class="st2" d="M109.4,48.8H93c-0.1,0-0.2,0.1-0.2,0.2s0.1,0.2,0.2,0.2h16.5c0.1,0,0.2-0.1,0.2-0.2S109.6,48.8,109.4,48.8z"
				/>
		</g>
		<g>
			<path class="st2" d="M110,113.7c-3.2-2.3-8.4-0.2-8.6-0.1c-0.1,0.1-0.2,0.2-0.1,0.3s0.2,0.2,0.3,0.1c0.1,0,5.1-2.1,8.1,0.1
				c2.2,1.6,3.3,5.4,3.3,11.1c0,3.9-3.8,9.5-12.1,9.6h-0.2c-0.4,0-0.8,0-1.2-0.1c-0.1,0-0.1,0-0.2,0l0,0c-7.2-0.6-10.2-5.2-10.7-9.5
				c-0.3-2.5,0.2-8.8,3.3-11c2.7-1.9,7-0.5,7.9-0.2c0.1,0.7,0.2,1.2,0.2,1.3s0.1,0.2,0.2,0.2c0,0,0,0,0.1,0s0.2-0.2,0.2-0.3
				c0,0-0.1-0.5-0.2-1.2c0-0.1,0-0.2,0-0.2c-0.1-0.8-0.1-1.7,0-2.5c0.2-1.1,0.5-1.8,0.6-2.2c0.3,0.3,0.7,0.6,1.1,0.7
				c0.1,0,0.3,0,0.3-0.2c0-0.1,0-0.3-0.2-0.3c-0.4-0.1-0.9-0.6-1.1-0.8l-0.2-0.3l-0.2,0.3c0,0-0.6,1-0.9,2.7c-0.1,0.7-0.1,1.6,0,2.4
				c-1.3-0.4-5.4-1.6-8.1,0.4c-3.3,2.4-3.8,8.9-3.5,11.5c0.7,6.6,6.1,9.4,11.1,9.9c0.2,0.3,0.6,0.8,1.3,0.8c0.1,0,0.2-0.1,0.2-0.2
				s-0.1-0.2-0.2-0.2c-0.3,0-0.5-0.1-0.6-0.3c0.3,0,0.5,0,0.8,0h0.2c8.7-0.1,12.6-6,12.6-10.1C113.5,119.4,112.3,115.4,110,113.7z"
				/>
			<path class="st2" d="M91.3,120c0,0.1,0.1,0.3,0.2,0.3l0,0c0.1,0,0.2-0.1,0.2-0.2c0-3.9,2.7-4.2,2.8-4.3c0.1,0,0.2-0.1,0.2-0.3
				c0-0.1-0.1-0.2-0.3-0.2C94.5,115.2,91.3,115.6,91.3,120z"/>
			<path class="st2" d="M108.2,129.7c-0.1,0.1-0.1,0.2,0,0.4c0,0.1,0.1,0.1,0.2,0.1s0.1,0,0.2-0.1c3-2.5,2.2-6.4,2.2-6.6
				c0-0.1-0.2-0.2-0.3-0.2c-0.1,0-0.2,0.2-0.2,0.3C110.2,123.6,110.9,127.4,108.2,129.7z"/>
		</g>
		<g>
			<path class="st2" d="M100.1,252.2c-6.8,0-12.2,5.5-12.2,12.2c0,6.8,5.5,12.2,12.2,12.2c6.8,0,12.2-5.5,12.2-12.2
				C112.3,257.7,106.8,252.2,100.1,252.2z M108.4,272.8c-2.1,2.1-5.1,3.5-8.3,3.5c-3.3,0-6.2-1.3-8.3-3.5c-2.1-2.1-3.5-5.1-3.5-8.3
				c0-3.3,1.3-6.2,3.5-8.3c2.1-2.1,5.1-3.5,8.3-3.5c3.3,0,6.2,1.3,8.3,3.5c2.1,2.1,3.5,5.1,3.5,8.3
				C111.9,267.7,110.5,270.7,108.4,272.8z"/>
			<path class="st2" d="M100.1,255.8c-4.8,0-8.7,3.9-8.7,8.7s3.9,8.7,8.7,8.7c4.8,0,8.7-3.9,8.7-8.7
				C108.7,259.7,104.8,255.8,100.1,255.8z M105.9,270.3c-1.5,1.5-3.5,2.4-5.8,2.4s-4.3-0.9-5.8-2.4s-2.4-3.5-2.4-5.8
				s0.9-4.3,2.4-5.8s3.5-2.4,5.8-2.4s4.3,0.9,5.8,2.4s2.4,3.5,2.4,5.8C108.3,266.7,107.4,268.8,105.9,270.3z"/>
			<path class="st2" d="M86.8,252h-0.2h-0.4h-0.6h-0.1h-0.4h-0.6h-0.2h-0.4h-0.6h-0.4v0.4v6.1c0,0.5,0.3,1.1,1.1,1.2
				c0.3,0.5,0.7,3,0.5,4.9c-0.2,1.7-0.8,8.6-0.7,9.4c0.1,0.9,0.7,1.4,1.6,1.4h0.1c0.9,0,1.5-0.5,1.6-1.4c0.1-0.8-0.6-7.6-0.7-9.4
				c-0.2-1.9,0.2-4.3,0.5-4.9c0.8-0.1,1.1-0.7,1.1-1.2v-6.1V252h-0.4H86.8z M87.3,258.5c0,0,0,0.7-0.8,0.7c-0.5,0-1,3.3-0.8,5.3
				c0.2,2.1,0.8,8.6,0.7,9.3c-0.1,0.7-0.4,1-1.2,1h-0.1c-0.7,0-1.1-0.4-1.2-1c-0.1-0.7,0.5-7.2,0.7-9.3c0.2-2.1-0.3-5.3-0.8-5.3
				c-0.7,0-0.8-0.7-0.8-0.7v-6.1h0.6v4.7h0.6v-4.7h0.6v4.7h0.6v-4.7H86v4.7h0.6v-4.7h0.6L87.3,258.5L87.3,258.5z"/>
			<path class="st2" d="M116.5,255.3L116.5,255.3c0-0.2,0-1.1-0.6-2.1c-0.2-0.4-0.6-0.6-0.8-0.8c-0.3-0.1-0.6-0.2-0.8-0.2
				s-0.3,0-0.3,0h-0.2l0.2,9.9c-0.1,1.9-0.5,9.7-0.5,11.5c0,0.2,0,0.3,0,0.3c0,0.4,0.2,0.7,0.4,0.9c0.2,0.2,0.6,0.3,1,0.3h0.1
				c0.4,0,0.7-0.1,1-0.3c0.2-0.2,0.4-0.5,0.4-0.9c0-0.1,0-0.2,0-0.4c0-1.8-0.3-8.6-0.3-10.5l0,0l-0.1-0.1l-0.4-0.4l0.7-1
				L116.5,255.3L116.5,255.3L116.5,255.3L116.5,255.3L116.5,255.3z M116,255.2L116,255.2l-0.1,6.2l-0.8,1.2l0.6,0.5
				c0,2,0.3,8.6,0.3,10.4c0,0.2,0,0.3,0,0.4c0,0.3-0.1,0.5-0.3,0.6c-0.1,0.1-0.4,0.2-0.7,0.2h-0.1c-0.3,0-0.6-0.1-0.7-0.2
				s-0.2-0.3-0.3-0.6c0,0,0-0.1,0-0.3c0-1.8,0.4-9.6,0.5-11.5l0,0l-0.1-9.5c0,0,0,0,0.1,0c0.2,0,0.4,0,0.6,0.1s0.4,0.3,0.7,0.6
				C116,254.3,116,255.1,116,255.2L116,255.2z"/>
			<path class="st2" d="M91.7,258.6L91.7,258.6c1.8-2.7,4.9-4.4,8.4-4.4c2.7,0,5.2,1.1,7.1,2.8c0.1,0.1,0.2,0.1,0.3,0
				c0.1-0.1,0.1-0.2,0-0.3c-1.9-1.8-4.5-3-7.4-3c-3.6,0-6.8,1.8-8.7,4.6c-0.1,0.1,0,0.2,0.1,0.3C91.5,258.7,91.7,258.7,91.7,258.6z"
				/>
			<path class="st2" d="M108.5,270.6L108.5,270.6c-1.5,2.2-3.9,3.8-6.7,4.2c-0.1,0-0.2,0.1-0.2,0.3c0,0.1,0.1,0.2,0.3,0.2
				c2.9-0.5,5.4-2.1,7-4.4c0.1-0.1,0-0.2-0.1-0.3C108.7,270.5,108.5,270.5,108.5,270.6z"/>
			<path class="st2" d="M115.2,254.5v6.3c0,0.1,0.1,0.2,0.2,0.2s0.2-0.1,0.2-0.2v-6.3c0-0.1-0.1-0.2-0.2-0.2
				C115.3,254.2,115.2,254.3,115.2,254.5z"/>
			<path class="st2" d="M85.4,267.1c-0.1,0-0.2,0.1-0.2,0.2l0,0c0,0,0,0.3,0.1,0.8c0.1,0.8,0.1,1.9,0.2,3c0.1,1,0.1,1.9,0.1,2.1
				c0,0.3,0,0.5-0.1,0.6c0,0,0,0.1-0.1,0.1c0,0-0.1,0-0.2,0S85,274,85,274.1s0.1,0.2,0.2,0.2s0.3,0,0.4-0.1c0.2-0.1,0.3-0.3,0.3-0.4
				c0-0.2,0.1-0.4,0.1-0.6s0-0.6-0.1-1.2c-0.1-1.8-0.3-4.8-0.3-4.8S85.5,267.1,85.4,267.1z"/>
			<path class="st2" d="M114.9,267.3L114.9,267.3c0,0,0,1.1,0.1,2.4c0,1.3,0.1,2.7,0.1,3.3c0,0.1,0,0.2,0,0.3c0,0.3,0,0.5-0.1,0.5
				c0,0,0,0.1-0.1,0.1h-0.1l0,0c-0.1,0-0.2,0.1-0.2,0.2s0.1,0.2,0.2,0.2l0,0c0.1,0,0.3,0,0.4-0.1c0.2-0.1,0.3-0.3,0.3-0.4
				c0-0.2,0.1-0.4,0.1-0.6c0-0.1,0-0.1,0-0.3c0-1.2-0.1-5.7-0.1-5.7c0-0.1-0.1-0.2-0.2-0.2C115,267.1,114.9,267.2,114.9,267.3z"/>
		</g>
		<g>
			<path class="st2" d="M400.5,273.6v-6.1c0-1.7-1.4-3.1-3.1-3.1h-33.1c-1.7,0-3.1,1.4-3.1,3.1v6.1c0,1.7,1.4,3.1,3.1,3.1h33.1
				C399.1,276.6,400.5,275.2,400.5,273.6z M361.6,273.6v-6.1c0-1.4,1.2-2.6,2.6-2.6h33.1c1.4,0,2.6,1.2,2.6,2.6v6.1
				c0,1.4-1.2,2.6-2.6,2.6h-33.1C362.9,276.1,361.6,275,361.6,273.6z"/>
			<path class="st2" d="M366.6,277.9c-1.1,0-1.9,0.9-1.9,1.9c0,1.1,0.9,1.9,1.9,1.9c1.1,0,1.9-0.9,1.9-1.9
				C368.6,278.8,367.8,277.9,366.6,277.9z M366.6,281.3c-0.8,0-1.4-0.6-1.4-1.4s0.6-1.4,1.4-1.4s1.4,0.6,1.4,1.4
				C368.1,280.6,367.5,281.3,366.6,281.3z"/>
			<path class="st2" d="M371,277.9c-1.1,0-1.9,0.9-1.9,1.9c0,1.1,0.9,1.9,1.9,1.9c1.1,0,1.9-0.9,1.9-1.9S372,277.9,371,277.9z
				 M371,281.3c-0.8,0-1.4-0.6-1.4-1.4s0.6-1.4,1.4-1.4s1.4,0.6,1.4,1.4C372.4,280.6,371.8,281.3,371,281.3z"/>
			<path class="st2" d="M420.5,277.9c-1.1,0-1.9,0.9-1.9,1.9c0,1.1,0.9,1.9,1.9,1.9c1.1,0,1.9-0.9,1.9-1.9
				C422.5,278.8,421.6,277.9,420.5,277.9z M420.5,281.3c-0.8,0-1.4-0.6-1.4-1.4s0.6-1.4,1.4-1.4s1.4,0.6,1.4,1.4
				C422,280.6,421.2,281.3,420.5,281.3z"/>
			<path class="st2" d="M396,277.9c-1.1,0-1.9,0.9-1.9,1.9c0,1.1,0.9,1.9,1.9,1.9c1.1,0,1.9-0.9,1.9-1.9S397,277.9,396,277.9z
				 M396,281.3c-0.8,0-1.4-0.6-1.4-1.4s0.6-1.4,1.4-1.4s1.4,0.6,1.4,1.4C397.4,280.6,396.8,281.3,396,281.3z"/>
			<path class="st2" d="M400.1,277.9c-1.1,0-1.9,0.9-1.9,1.9c0,1.1,0.9,1.9,1.9,1.9c1.1,0,1.9-0.9,1.9-1.9
				C402.1,278.8,401.1,277.9,400.1,277.9z M400.1,281.3c-0.8,0-1.4-0.6-1.4-1.4s0.6-1.4,1.4-1.4s1.4,0.6,1.4,1.4
				C401.6,280.6,401,281.3,400.1,281.3z"/>
			<path class="st2" d="M379.4,277.1h-3.6c-0.9,0-1.6,0.7-1.6,1.6s0.7,1.6,1.6,1.6h3.6c0.9,0,1.6-0.7,1.6-1.6
				S380.2,277.1,379.4,277.1z M379.4,279.8h-3.6c-0.6,0-1.1-0.5-1.1-1.1s0.5-1.1,1.1-1.1h3.6c0.6,0,1.1,0.5,1.1,1.1
				S380,279.8,379.4,279.8z"/>
			<path class="st2" d="M417.9,280.1h-15c-0.1,0-0.2,0.1-0.2,0.2s0.1,0.2,0.2,0.2h15c0.1,0,0.2-0.1,0.2-0.2S418,280.1,417.9,280.1z"
				/>
			<path class="st2" d="M423.9,271.7H418l-1.2-3.6c0-0.1-0.4-1.5-1.9-2.8c-2-1.7-5.4-1.5-5.5-1.5h-6v13.3l-11.3-0.1v3.6h1.4
				c0.1,0,0.2-0.1,0.2-0.2s-0.1-0.2-0.2-0.2h-0.9v-2.6l11.3,0.1v-13.3h5.5c0,0,3.4-0.1,5.2,1.4c1.4,1.2,1.8,2.5,1.8,2.6l1.4,3.9h6
				l2.9,3.8v4.1h-3.4c-0.1,0-0.2,0.1-0.2,0.2s0.1,0.2,0.2,0.2h3.9v-4.8L423.9,271.7z"/>
			<path class="st2" d="M373.6,266.5h-8.1c-0.5,0-0.9,0.2-1.2,0.5c-0.5,0.5-0.5,1.3-0.5,1.3v3.6c0,0.1,0.1,0.2,0.2,0.2
				s0.2-0.1,0.2-0.2v-3.6c0,0,0-0.6,0.3-1c0.2-0.2,0.5-0.3,0.8-0.3h8.1c0.1,0,0.2-0.1,0.2-0.2S373.8,266.5,373.6,266.5z"/>
			<path class="st2" d="M410.2,266.9c0,0,2.9,0,3.7,1.8c0.8,1.9,1.5,3.6,1.5,3.6c0,0.1,0.1,0.2,0.2,0.2h0.1c0.1,0,0.2-0.2,0.2-0.3
				c0,0-0.6-1.8-1.5-3.7c-0.9-2.1-4-2.1-4.1-2.1h-4.5c-0.1,0-0.2,0.1-0.2,0.2s0.1,0.2,0.2,0.2L410.2,266.9L410.2,266.9z"/>
		</g>
		<g>
			<path class="st2" d="M265.2,256.1h-1.6V254c0-0.8-0.7-1.5-1.5-1.5s-1.5,0.7-1.5,1.5v2.1h-13.1V254c0-0.8-0.7-1.5-1.5-1.5
				s-1.5,0.7-1.5,1.5v2.1h-1.3c-1.4,0-2.5,1.1-2.5,2.5v19.1c0,1.4,1.1,2.5,2.5,2.5H265c1.4,0,2.5-1.1,2.5-2.5v-19.1
				C267.7,257.2,266.5,256.1,265.2,256.1z M261,253.9c0-0.6,0.5-1.1,1.1-1.1s1.1,0.5,1.1,1.1v4.8c0,0.6-0.5,1.1-1.1,1.1
				s-1.1-0.5-1.1-1.1V253.9z M245,253.9c0-0.6,0.5-1.1,1.1-1.1s1.1,0.5,1.1,1.1v4.8c0,0.6-0.5,1.1-1.1,1.1s-1.1-0.5-1.1-1.1V253.9z
				 M243.4,256.4h1.3v2.3c0,0.8,0.7,1.5,1.5,1.5s1.5-0.7,1.5-1.5v-2.3h13.1v2.3c0,0.8,0.7,1.5,1.5,1.5s1.5-0.7,1.5-1.5v-2.3h1.6
				c1.2,0,2.2,1,2.2,2.2v2.4h-26.2v-2.4C241.2,257.4,242.1,256.4,243.4,256.4z M265.2,279.9h-21.8c-1.2,0-2.2-1-2.2-2.2v-16.3h26.2
				v16.3C267.4,278.9,266.4,279.9,265.2,279.9z"/>
			<path class="st2" d="M243.4,266.9h3.2v-3.2h-3.2V266.9z M243.7,264h2.6v2.6h-2.6V264z"/>
			<path class="st2" d="M261.8,266.9h3.2v-3.2h-3.2V266.9z M262,264h2.6v2.6H262V264z"/>
			<path class="st2" d="M260.4,263.6h-3.2v3.2h3.2V263.6z M260,266.6h-2.6V264h2.6V266.6z"/>
			<path class="st2" d="M255.8,263.6h-3.2v3.2h3.2V263.6z M255.5,266.6h-2.6V264h2.6V266.6z"/>
			<path class="st2" d="M248,266.9h3.2v-3.2H248V266.9z M248.2,264h2.6v2.6h-2.6V264z"/>
			<path class="st2" d="M243.4,275.5h3.2v-3.2h-3.2V275.5z M243.7,272.6h2.6v2.6h-2.6V272.6z"/>
			<path class="st2" d="M248,275.5h3.2v-3.2H248V275.5z M248.2,272.6h2.6v2.6h-2.6V272.6z"/>
			<path class="st2" d="M243.4,271.2h3.2V268h-3.2V271.2z M243.7,268.3h2.6v2.6h-2.6V268.3z"/>
			<path class="st2" d="M261.8,271.2h3.2V268h-3.2V271.2z M262,268.3h2.6v2.6H262V268.3z"/>
			<path class="st2" d="M260.4,267.9h-3.2v3.2h3.2V267.9z M260,270.8h-2.6v-2.6h2.6V270.8z"/>
			<path class="st2" d="M255.8,267.9h-3.2v3.2h3.2V267.9z M255.5,270.8h-2.6v-2.6h2.6V270.8z"/>
			<path class="st2" d="M248,271.2h3.2V268H248V271.2z M248.2,268.3h2.6v2.6h-2.6V268.3z"/>
			<path class="st2" d="M248.8,257.6H259c0.1,0,0.2-0.1,0.2-0.2s-0.1-0.2-0.2-0.2h-10.2c-0.1,0-0.2,0.1-0.2,0.2
				C248.7,257.5,248.7,257.6,248.8,257.6z"/>
			<path class="st2" d="M263.5,277.9h-10.7c-0.1,0-0.2,0.1-0.2,0.2s0.1,0.2,0.2,0.2h10.7c0.1,0,0.2-0.1,0.2-0.2
				S263.7,277.9,263.5,277.9z"/>
		</g>
		<g>
			<path class="st2" d="M193.5,167.1c0,0,0-0.6,0-1.4c0-0.8,0-1.7,0-2.4s-0.1-1.1-0.2-1.3c-0.1-0.2-0.2-0.3-0.3-0.3l-3.6-2.7v-2.2
				l0,0c0,0-0.3-0.3-0.7-0.4c0-0.1-0.1-0.2-0.1-0.4c-0.1-0.2-0.2-0.5-0.4-0.6c0,0-0.1-0.1-0.2-0.1c-0.1,0-0.2,0-0.2,0.1
				c-0.1,0.1-0.1,0.2-0.2,0.3c-0.1,0.2-0.2,0.6-0.2,0.7c-0.4,0.1-0.7,0.3-0.7,0.3h-0.1v0.2l-1.5-1.2v-2.2l0,0c0,0-0.3-0.3-0.7-0.4
				c0-0.1-0.1-0.2-0.1-0.4c-0.1-0.2-0.2-0.5-0.4-0.6c0,0-0.1-0.1-0.2-0.1s-0.2,0-0.2,0.1c-0.1,0.1-0.1,0.2-0.2,0.3
				c-0.1,0.2-0.2,0.6-0.2,0.7c-0.4,0.1-0.7,0.3-0.7,0.3h-0.1v0.2l-3.1-2.3V146c0-0.2,0-0.6-0.1-1c-0.1-0.6-0.3-1.3-0.6-1.9
				c-0.1-0.3-0.3-0.6-0.4-0.7c-0.1-0.1-0.2-0.2-0.3-0.2c-0.1-0.1-0.2-0.1-0.3-0.1c-0.2,0-0.3,0.1-0.4,0.2c-0.2,0.2-0.4,0.4-0.5,0.8
				c-0.2,0.5-0.4,1.1-0.5,1.7c-0.1,0.6-0.2,1.1-0.2,1.4v5.3l-3.1,2.3v-0.1v-0.1h-0.1c0,0-0.3-0.2-0.7-0.3c0-0.1-0.1-0.3-0.1-0.5
				c0-0.1-0.1-0.3-0.1-0.4c0-0.1-0.1-0.1-0.1-0.2c0,0-0.1-0.1-0.2-0.1c-0.1,0-0.1,0-0.2,0.1c-0.2,0.2-0.3,0.4-0.4,0.6
				c-0.1,0.2-0.1,0.3-0.1,0.4c-0.5,0.2-0.7,0.4-0.7,0.4l0,0v2.1l-1.5,1.2v-0.1v-0.1h-0.1c0,0-0.3-0.2-0.7-0.3c0-0.1-0.1-0.3-0.1-0.5
				c0-0.1-0.1-0.3-0.1-0.4c0-0.1-0.1-0.1-0.1-0.2c0,0-0.1-0.1-0.2-0.1c-0.1,0-0.1,0-0.2,0.1c-0.2,0.2-0.3,0.4-0.4,0.6
				c-0.1,0.2-0.1,0.3-0.1,0.4c-0.5,0.2-0.7,0.4-0.7,0.4l0,0v2.1l-3.6,2.8c-0.1,0-0.2,0.1-0.3,0.3s-0.2,0.6-0.2,1.3s0,1.6,0,2.4
				c0,0.8,0,1.4,0,1.4v0.7l0.3-0.6c0,0,0.1-0.1,0.1-0.3c0.1-0.2,0.3-0.6,0.5-0.9c0.1-0.2,0.2-0.3,0.2-0.4c0-0.1,0.1-0.1,0.1-0.1l0,0
				l0,0l0,0c0,0,0.1,0,0.2-0.1c0.4-0.2,1.4-0.8,2.6-1.6v0.1c0,0.8,0.6,1.4,1.4,1.4s1.4-0.6,1.4-1.4V162c0.5-0.3,1-0.6,1.5-0.9v0.1
				c0,0.8,0.6,1.4,1.4,1.4s1.4-0.6,1.4-1.4v-1.8c0.5-0.3,1-0.6,1.5-0.9c0.5-0.3,1-0.6,1.3-0.8c0.1-0.1,0.2-0.1,0.3-0.2v16.4
				c0,0.4,0.2,0.7,0.4,0.9c0.1,0.1,0.2,0.1,0.2,0s0.1-0.2,0-0.2l0,0c-0.2-0.2-0.3-0.5-0.3-0.7v-28c0-0.2,0-0.5,0.1-0.9
				c0.1-0.6,0.3-1.3,0.5-1.9c0.1-0.3,0.2-0.5,0.4-0.7c0.1-0.1,0.1-0.1,0.2-0.2c0.1,0,0.1,0,0.1,0c0.1,0,0.1,0,0.2,0.1
				c0.1,0.1,0.3,0.4,0.4,0.7c0.2,0.5,0.4,1.1,0.5,1.6s0.2,1,0.2,1.3v28c0,0.3-0.1,0.5-0.4,0.8c-0.1,0.1-0.1,0.2,0,0.2
				c0.1,0.1,0.2,0.1,0.2,0c0.3-0.3,0.5-0.6,0.5-1v-16.4c0.1,0.1,0.2,0.1,0.3,0.2c0.6,0.4,1.6,1,2.7,1.7v1.8c0,0.8,0.6,1.4,1.4,1.4
				s1.4-0.6,1.4-1.4v-0.1c0.5,0.3,1,0.6,1.5,0.9v1.8c0,0.8,0.6,1.4,1.4,1.4s1.4-0.6,1.4-1.4v-0.1c0.4,0.2,0.7,0.5,1.1,0.7
				c0.5,0.3,0.9,0.6,1.2,0.7c0.1,0.1,0.3,0.2,0.4,0.2c0.1,0.1,0.1,0.1,0.1,0.1s0,0,0.1,0.1c0.1,0.2,0.4,0.6,0.6,1
				c0.1,0.2,0.2,0.4,0.3,0.5s0.1,0.2,0.1,0.2l0.3,0.6L193.5,167.1z M171.2,152.7c0.1-0.2,0.2-0.3,0.3-0.4c0,0,0,0.1,0.1,0.1
				c0.1,0.1,0.1,0.3,0.1,0.5c0,0,0,0,0,0.1c-0.1,0-0.2,0-0.3,0h-0.1c-0.1,0-0.2,0-0.2,0C171.1,152.8,171.2,152.7,171.2,152.7z
				 M170.2,153.6c0.1-0.1,0.5-0.4,1.1-0.4h0.1c0.3,0,0.6,0.1,0.8,0.2c0.1,0,0.2,0.1,0.2,0.1l0,0v0.2l-2.2,1.6L170.2,153.6
				L170.2,153.6z M166.9,156c0.1-0.2,0.2-0.3,0.3-0.4c0,0,0,0.1,0.1,0.1c0.1,0.1,0.1,0.3,0.1,0.5c0,0,0,0,0,0.1c-0.1,0-0.2,0-0.3,0
				H167c-0.1,0-0.2,0-0.2,0C166.8,156.2,166.8,156.1,166.9,156z M166,156.9c0.1-0.1,0.5-0.4,1.1-0.4h0.1c0.3,0,0.6,0.1,0.8,0.2
				c0.1,0,0.2,0.1,0.2,0.1l0,0v0.2l-2.2,1.6L166,156.9L166,156.9z M168.1,163.8c0,0.3-0.1,0.6-0.3,0.8s-0.5,0.3-0.8,0.3
				s-0.6-0.1-0.8-0.3s-0.3-0.5-0.3-0.8v-0.3c0.7-0.4,1.4-0.9,2.2-1.3L168.1,163.8L168.1,163.8z M172.5,161.2c0,0.3-0.1,0.6-0.3,0.8
				s-0.5,0.3-0.8,0.3s-0.6-0.1-0.8-0.3s-0.3-0.5-0.3-0.8v-0.3c0.7-0.5,1.5-0.9,2.2-1.3L172.5,161.2L172.5,161.2z M169.4,161.1
				c-1.6,1-3.3,2-4.5,2.8c-0.6,0.4-1.2,0.7-1.5,0.9c-0.2,0.1-0.3,0.2-0.4,0.3c-0.1,0.1-0.2,0.1-0.2,0.1c-0.1,0-0.1,0.1-0.2,0.2
				c-0.2,0.2-0.4,0.7-0.6,1c0,0,0,0.1-0.1,0.1c0-0.8,0-2.2,0-3.1c0-0.7,0.1-1,0.2-1.2c0-0.1,0.1-0.1,0.1-0.1l0,0l0,0l6.2-4.7l0,0
				l7.5-5.7v5.5C175.5,157.3,172.5,159.2,169.4,161.1z M187.8,155.8c0-0.1,0.1-0.2,0.1-0.2c0.1,0.1,0.2,0.3,0.3,0.5
				c0,0.1,0.1,0.1,0.1,0.2c-0.1,0-0.2,0-0.2,0H188c-0.1,0-0.2,0-0.3,0C187.7,156.1,187.8,155.9,187.8,155.8z M186.9,156.8
				c0.1-0.1,0.5-0.3,1-0.3h0.1c0.4,0,0.6,0.1,0.8,0.2c0.1,0.1,0.2,0.1,0.2,0.1l0,0v1.8l-2.2-1.6L186.9,156.8z M183.5,152.4
				c0-0.1,0.1-0.2,0.1-0.2c0.1,0.1,0.2,0.3,0.3,0.5c0,0.1,0.1,0.1,0.1,0.2c-0.1,0-0.2,0-0.2,0h-0.1c-0.1,0-0.2,0-0.3,0
				C183.4,152.8,183.4,152.6,183.5,152.4z M182.6,153.5c0.1-0.1,0.5-0.3,1-0.3h0.1c0.4,0,0.6,0.1,0.8,0.2c0.1,0.1,0.2,0.1,0.2,0.1
				l0,0v1.8l-2.2-1.6L182.6,153.5z M184.7,161.2c0,0.3-0.1,0.6-0.3,0.8s-0.5,0.3-0.8,0.3s-0.6-0.1-0.8-0.3s-0.3-0.5-0.3-0.8v-1.6
				c0.7,0.4,1.4,0.9,2.2,1.3L184.7,161.2z M189.1,163.8c0,0.3-0.1,0.6-0.3,0.8s-0.5,0.3-0.8,0.3s-0.6-0.1-0.8-0.3s-0.3-0.5-0.3-0.8
				v-1.6c0.8,0.5,1.5,0.9,2.2,1.3L189.1,163.8z M193,166.2c-0.1-0.2-0.2-0.4-0.4-0.6c-0.1-0.1-0.1-0.2-0.2-0.2
				c-0.1-0.1-0.1-0.1-0.2-0.2c0,0-0.1-0.1-0.2-0.1c-0.4-0.3-1.5-0.9-2.8-1.7l0,0c-3.7-2.3-9.5-5.8-10.1-6.2v-5.5l13.7,10.4l0,0
				c0,0,0.1,0,0.1,0.2c0.1,0.2,0.1,0.5,0.1,1.1c0,0.9,0,2.3,0,3.1C193.1,166.4,193.1,166.3,193,166.2z"/>
			<path class="st2" d="M178.2,173.9c0-0.4,0-0.7,0-0.7c0-0.1-0.1-0.2-0.2-0.2s-0.2,0.1-0.2,0.2c0,0,0,0.3,0,0.7
				c0,0.6,0,1.5-0.1,2.2c0,0.6-0.2,1.1-0.3,1.5c0,0.1,0,0.2-0.1,0.2c-0.2-0.5-0.4-1.3-0.4-1.8l0,0c0-0.2,0-0.4,0-0.6
				c0-0.5,0-1,0-1.4s0-0.7,0-0.7c0-0.1-0.1-0.2-0.2-0.2c-0.1,0-0.2,0.1-0.2,0.2l0,0c0,0,0,1.2,0,2.2c0,0.2,0,0.5,0,0.6l0,0
				c0,0.5,0.2,1.1,0.3,1.6s0.3,0.8,0.3,0.8l0.2,0.4l0.2-0.4c0,0,0.4-1.2,0.5-2.3C178.2,175.5,178.2,174.6,178.2,173.9z"/>
			<path class="st2" d="M176.4,176.8l-2.6,1.5c0-0.3,0-0.6,0-1c0-0.3,0-0.5,0-0.7l0,0c0-0.2,0-0.3,0-0.4v-0.1l0.1-0.1l0,0
				c0.1-0.1,0.2-0.1,0.4-0.2c0.3-0.2,0.6-0.3,0.8-0.5c0.3-0.1,0.4-0.3,0.4-0.3c0.1,0,0.1-0.1,0.1-0.2s-0.1-0.1-0.2-0.1l0,0
				c0,0-0.3,0.2-0.7,0.4c-0.2,0.1-0.4,0.2-0.6,0.3s-0.3,0.2-0.4,0.3l0,0c-0.1,0.1-0.2,0.1-0.2,0.2c-0.1,0.1-0.1,0.2-0.1,0.3
				s0,0.2,0,0.4l0,0c0,0.1,0,0.4,0,0.7c0,0.6,0,1.3,0,1.3v0.3l3.1-1.8c0.1,0,0.1-0.1,0.1-0.2S176.5,176.7,176.4,176.8z"/>
			<path class="st2" d="M181.2,176.6c0-0.2,0-0.3,0-0.5c0-0.1,0-0.2-0.1-0.2c-0.1-0.1-0.1-0.1-0.2-0.2l0,0c-0.1-0.1-0.2-0.2-0.4-0.3
				c-0.5-0.3-1.3-0.7-1.3-0.7c-0.1,0-0.2,0-0.2,0.1s0,0.2,0.1,0.2l0,0c0,0,0.3,0.2,0.7,0.4c0.2,0.1,0.4,0.2,0.6,0.3
				c0.2,0.1,0.3,0.2,0.4,0.2l0,0c0.1,0.1,0.1,0.1,0.1,0.1c0,0.1,0,0.1,0.1,0.2c0,0.1,0,0.2,0,0.4l0,0c0,0.1,0,0.4,0,0.7s0,0.7,0,1
				l-2.6-1.5c-0.1,0-0.2,0-0.2,0.1s0,0.2,0.1,0.2l3.1,1.8v-0.3c0,0,0-0.7,0-1.3C181.2,177,181.2,176.8,181.2,176.6L181.2,176.6z"/>
			<path class="st2" d="M176.9,146L176.9,146L176.9,146c0-0.2,0.1-0.5,0.2-0.7c0.1-0.1,0.1-0.2,0.2-0.3s0.1-0.1,0.2-0.1
				s0.2,0,0.2,0.1c0.1,0.1,0.2,0.4,0.3,0.6c0,0.1,0.1,0.2,0.1,0.3v0.1l0,0c0,0.1,0.1,0.1,0.2,0.1c0.1,0,0.1-0.1,0.1-0.2
				c0,0-0.1-0.3-0.2-0.7c-0.1-0.2-0.2-0.3-0.3-0.5c-0.1-0.1-0.3-0.3-0.5-0.3s-0.4,0.1-0.5,0.3c-0.2,0.2-0.3,0.5-0.4,0.7
				c-0.1,0.2-0.1,0.4-0.1,0.4c0,0.1,0,0.2,0.1,0.2C176.8,146.2,176.8,146.1,176.9,146z"/>
			<path class="st2" d="M173.9,154.3c-0.1-0.1-0.2-0.1-0.2,0l-10.7,8.1c-0.1,0.1-0.1,0.2,0,0.2c0.1,0.1,0.2,0.1,0.2,0l10.7-8.1
				C173.9,154.5,174,154.4,173.9,154.3z"/>
			<path class="st2" d="M177.1,162.5c-0.1,0-0.2,0.1-0.2,0.2v8.9c0,0.1,0.1,0.2,0.2,0.2s0.2-0.1,0.2-0.2v-8.9
				C177.2,162.6,177.2,162.5,177.1,162.5z"/>
			<path class="st2" d="M177.2,147.4c0-0.1-0.1-0.2-0.2-0.2s-0.2,0.1-0.2,0.2v8c0,0.1,0.1,0.2,0.2,0.2s0.2-0.1,0.2-0.2V147.4z"/>
		</g>
		<g>
			<path class="st2" d="M191.6,221.7h-27.4c-2.2,0-3.9,1.8-3.9,3.9v15.6c0,2.2,1.8,3.9,3.9,3.9h27.4c2.2,0,3.9-1.8,3.9-3.9v-15.6
				C195.5,223.4,193.7,221.7,191.6,221.7z M161.8,243.6c-0.6-0.6-1-1.5-1-2.5v-15.6c0-1,0.4-1.8,1-2.5c0.6-0.6,1.5-1,2.5-1h27.4
				c1,0,1.8,0.4,2.5,1c0.6,0.6,1,1.5,1,2.5v7.6h-4.4l-2.8-2.8c-0.2-0.2-0.5-0.3-0.7-0.3c-0.3,0-0.5,0.1-0.7,0.3l-2,2
				c-0.2,0.2-0.3,0.5-0.3,0.7l0,0h-6.4v-9.1c0-0.1-0.1-0.2-0.2-0.2s-0.2,0.1-0.2,0.2v9.1h-15c-0.1,0-0.2,0.1-0.2,0.2
				s0.1,0.2,0.2,0.2h15v11h-13C163.2,244.6,162.4,244.2,161.8,243.6z M184.7,233.6h5.8l1.2,1.2c0.1,0.1,0.2,0.3,0.2,0.4
				c0,0.2-0.1,0.3-0.2,0.4l-2,2c-0.1,0.1-0.3,0.2-0.4,0.2c-0.2,0-0.3-0.1-0.4-0.2l-0.2,0.2l0.2-0.2L184.7,233.6z M184.5,233.2
				L184.5,233.2c0-0.2,0.1-0.4,0.2-0.5l2-2c0.1-0.1,0.3-0.2,0.4-0.2c0.2,0,0.3,0.1,0.4,0.2l2.5,2.5H184.5z M194,243.6
				c-0.6,0.6-1.5,1-2.5,1h-13.9v-11h6.5c0,0.1,0.1,0.2,0.2,0.3l4.1,4.1l0,0c0.2,0.2,0.5,0.3,0.7,0.3c0.3,0,0.5-0.1,0.7-0.3l2-2
				c0.2-0.2,0.3-0.5,0.3-0.7c0-0.3-0.1-0.5-0.3-0.7l-0.9-0.9h3.9v7.5C195,242.1,194.7,243,194,243.6z"/>
			<path class="st2" d="M165.6,230.5h5.8c0.6,0,1.1-0.5,1.1-1.1v-2.9c0-0.6-0.5-1.1-1.1-1.1h-5.8c-0.6,0-1.1,0.5-1.1,1.1v2.9
				C164.5,230,165,230.5,165.6,230.5z M165,226.5c0-0.3,0.3-0.6,0.6-0.6h5.8c0.3,0,0.6,0.3,0.6,0.6v2.9c0,0.3-0.3,0.6-0.6,0.6h-5.8
				c-0.3,0-0.6-0.3-0.6-0.6V226.5z"/>
			<path class="st2" d="M173.5,242.9c0,0-6.2,0-8.7,0c-0.5,0-0.9-0.1-1.2-0.3c-0.4-0.3-0.7-0.6-0.8-1s-0.1-0.7-0.1-0.8l0,0l0,0l0,0
				v-5.6c0-0.1-0.1-0.2-0.2-0.2s-0.2,0.1-0.2,0.2l0,0v5.6c0,0,0,0,0,0.1c0,0.2,0,0.8,0.4,1.4c0.2,0.3,0.4,0.6,0.8,0.8
				c0.4,0.2,0.8,0.3,1.4,0.3c2.5,0,8.7,0,8.7,0c0.1,0,0.2-0.1,0.2-0.2C173.7,243,173.6,242.9,173.5,242.9z"/>
			<path class="st2" d="M180.1,223.9h10.7c0.1,0,0.2-0.1,0.2-0.2s-0.1-0.2-0.2-0.2h-10.7c-0.1,0-0.2,0.1-0.2,0.2
				S180,223.9,180.1,223.9z"/>
		</g>
		<g>
			<path class="st2" d="M112.6,172.6H97.5c-2.1,0-3.9,1.7-3.9,3.9v28.8c0,2.1,1.7,3.9,3.9,3.9h15.1c2.1,0,3.9-1.7,3.9-3.9v-28.8
				C116.5,174.4,114.7,172.6,112.6,172.6z M115.9,205.3c0,0.9-0.4,1.8-1,2.4c-0.6,0.6-1.4,1-2.4,1h-15c-0.9,0-1.8-0.4-2.4-1
				s-1-1.4-1-2.4v-28.8c0-0.9,0.4-1.8,1-2.4c0.6-0.6,1.4-1,2.4-1h15.1c0.9,0,1.8,0.4,2.4,1s1,1.4,1,2.4L115.9,205.3L115.9,205.3z"/>
			<path class="st2" d="M101.7,175.2h-2.6c-1.5,0-2.8,1.3-2.8,2.8v2.4c0,0.1,0.1,0.3,0.3,0.3c0.1,0,0.3-0.1,0.3-0.3l0,0V178
				c0-0.6,0.3-1.2,0.7-1.6c0.4-0.4,1-0.7,1.6-0.7h2.6c0.1,0,0.3-0.1,0.3-0.3S101.9,175.2,101.7,175.2z"/>
			<path class="st2" d="M105.4,199.2c-1.7,0-3,1.3-3,3s1.3,3,3,3s3-1.3,3-3C108.4,200.6,107.1,199.2,105.4,199.2z M107.2,204
				c-0.5,0.5-1.1,0.7-1.8,0.7s-1.3-0.3-1.8-0.7c-0.5-0.5-0.7-1.1-0.7-1.8s0.3-1.3,0.7-1.8c0.5-0.5,1.1-0.7,1.8-0.7s1.3,0.3,1.8,0.7
				c0.5,0.5,0.7,1.1,0.7,1.8S107.7,203.6,107.2,204z"/>
		</g>
		<g>
			<path class="st2" d="M272.5,185.2C272.5,185.1,272.5,185.1,272.5,185.2v-1.8c0,0,0,0,0-0.1c0-1.6-3.7-2.5-7.2-2.5
				s-7.2,0.9-7.2,2.5v1.8l0,0l0,0v1.8l0,0v1.8l0,0l0,0v1.8l0,0v0.8c-1.1-1-4-1.6-6.8-1.6s-5.7,0.6-6.8,1.6v-1.1c0,0,0,0,0-0.1
				c0-1.6-3.7-2.5-7.2-2.5s-7.2,0.9-7.2,2.5v1.8l0,0l0,0v1.8l0,0v1.8l0,0v1.8l0,0l0,0v1.8c0,1.6,3.7,2.5,7.2,2.5
				c3.3,0,6-0.7,6.9-1.8c0.7,1.3,3.9,2,7.1,2c3.4,0,6.2-0.8,7-1.9c0.8,1.2,4,1.9,7,1.9c3.9,0,7-1,7.2-2.4v-1.8v-0.1c0,0,0,0,0-0.1
				l0,0v-1.6v0.2c0,0,0,0,0-0.1l0,0v-1.6v-0.1c0,0,0,0,0-0.1l0,0v-1.6v-0.1c0,0,0,0,0-0.1l0,0v-1.6v-0.1c0,0,0,0,0-0.1l0,0v-1.7l0,0
				c0,0,0,0,0-0.1l0,0V187l0,0c0,0,0,0,0-0.1l0,0V185.2L272.5,185.2z M258.7,191.6c1.1,1,4,1.6,6.7,1.6c2.9,0,5.4-0.6,6.5-1.4
				c0.1-0.1,0.1-0.1,0.2-0.2v0.8l0,0l0,0c-0.1,0.9-2.8,2-6.7,2c-4,0-6.7-1.1-6.7-2V191.6z M265.4,189.5c2.3,0,4.3-0.4,5.6-0.9
				c0.4-0.2,0.8-0.4,1.1-0.6v0.9l0,0l0,0l0,0c-0.2,0.9-2.9,1.9-6.7,1.9c-4,0-6.7-1.1-6.7-2v-0.9
				C259.8,188.9,262.7,189.5,265.4,189.5z M265.4,191.3c2.7,0,5.6-0.5,6.7-1.6v0.8l0,0l0,0c-0.1,0.9-2.8,2-6.7,2c-4,0-6.7-1.1-6.7-2
				v-0.9C259.8,190.8,262.7,191.3,265.4,191.3z M258.2,196L258.2,196L258.2,196c-0.1,1-2.8,2-6.7,2c-4,0-6.7-1.1-6.7-2v-0.9
				c1.1,1,4,1.6,6.7,1.6s5.6-0.5,6.7-1.6V196z M272.2,196C272.2,196,272,196,272.2,196L272.2,196c-0.1,1-2.8,2-6.7,2
				c-4,0-6.7-1.1-6.7-2v-0.8c1.1,1,4,1.6,6.7,1.6c3.1,0,5.7-0.6,6.7-1.6V196z M272,194.2c-0.1,0.9-2.8,2-6.7,2c-4,0-6.7-1.1-6.7-2
				v-0.8c1.1,1,4,1.6,6.7,1.6c2.9,0,5.4-0.6,6.5-1.4c0.1-0.1,0.1-0.1,0.2-0.2V194.2C272.2,194.2,272,194.2,272,194.2L272,194.2z
				 M244.8,197.8V197c1.1,1,4,1.6,6.7,1.6c2.9,0,5.4-0.6,6.5-1.4c0.1-0.1,0.1-0.1,0.2-0.2v0.8l0,0l0,0c-0.1,0.9-2.8,2-6.7,2
				C247.5,199.8,244.8,198.7,244.8,197.8z M258.7,197.8V197c1.1,1,4,1.6,6.7,1.6c2.9,0,5.4-0.6,6.5-1.4c0.1-0.1,0.1-0.1,0.2-0.2v0.8
				l0,0l0,0c-0.1,0.9-2.8,2-6.7,2C261.5,199.8,258.7,198.7,258.7,197.8z M258.2,194.2L258.2,194.2L258.2,194.2
				C258.2,194.3,258.2,194.3,258.2,194.2c-0.2,1-2.9,2-6.7,2c-4,0-6.7-1.1-6.7-2v-0.9c1.1,1,4,1.6,6.7,1.6s5.6-0.5,6.7-1.6V194.2z
				 M244.2,192.1L244.2,192.1L244.2,192.1C244.2,192.2,244.2,192.2,244.2,192.1c-0.2,1-2.9,2-6.7,2c-4,0-6.7-1.1-6.7-2v-0.9
				c1.1,1,4,1.6,6.7,1.6s5.6-0.5,6.7-1.6V192.1z M237.5,194.6c2.7,0,5.6-0.5,6.7-1.6v0.8l0,0l0,0c-0.1,0.9-2.8,2-6.7,2
				c-4,0-6.7-1.1-6.7-2V193C231.9,194.1,234.8,194.6,237.5,194.6z M237.5,196.4c2.9,0,5.4-0.6,6.5-1.4c0.1-0.1,0.1-0.1,0.2-0.2v0.8
				l0,0l0,0c-0.1,0.9-2.8,2-6.7,2c-4,0-6.7-1.1-6.7-2v-0.8C231.9,195.9,234.8,196.4,237.5,196.4z M237.5,198.2
				c2.9,0,5.4-0.6,6.5-1.4c0.1-0.1,0.1-0.1,0.2-0.2v0.8l0,0l0,0v0.1l0,0l0,0l0,0c-0.2,0.9-2.9,1.9-6.7,1.9c-4,0-6.7-1.1-6.7-2
				c0,0,0,0,0-0.1v-0.1v-0.7C231.9,197.7,234.8,198.2,237.5,198.2z M272.2,187C272.2,187,272,187,272.2,187L272.2,187
				c-0.1,1-2.8,2-6.7,2c-4,0-6.7-1.1-6.7-2v-0.9c1.1,1,4,1.6,6.7,1.6s5.6-0.5,6.7-1.6V187z M272.2,185.1
				C272.2,185.2,272,185.2,272.2,185.1L272.2,185.1c-0.2,1-2.9,2-6.7,2c-4,0-6.7-1.1-6.7-2v-0.9c1.1,1,4,1.6,6.7,1.6
				s5.6-0.5,6.7-1.6V185.1z M265.4,181.2c3.9,0,6.7,1,6.7,2l0,0l0,0c-0.1,0.9-2.8,2-6.7,2c-4,0-6.7-1.1-6.7-2
				S261.5,181.2,265.4,181.2z M251.5,190.3c3.9,0,6.7,1,6.7,2l0,0l0,0c-0.1,0.9-2.8,2-6.7,2c-4,0-6.7-1.1-6.7-2
				C244.8,191.4,247.5,190.3,251.5,190.3z M237.5,188.2c3.9,0,6.7,1,6.7,2l0,0l0,0c-0.1,0.9-2.8,2-6.7,2c-4,0-6.7-1.1-6.7-2
				S233.6,188.2,237.5,188.2z M237.5,201.4c-4,0-6.7-1.1-6.7-2v-0.9c1.1,1,4,1.6,6.7,1.6s5.6-0.5,6.7-1.6v1
				C244.1,200.4,241.4,201.4,237.5,201.4z M251.5,201.6c-4,0-6.7-1.1-6.7-2v-0.9c1.1,1,4,1.6,6.7,1.6c2.9,0,5.4-0.6,6.5-1.4
				c0.1-0.1,0.1-0.1,0.2-0.2v1C258,200.6,255.2,201.6,251.5,201.6z M265.4,201.6c-4,0-6.7-1.1-6.7-2v-0.9c1.1,1,4,1.6,6.7,1.6
				c2.9,0,5.4-0.6,6.5-1.4c0.1-0.1,0.1-0.1,0.2-0.2v1C272,200.6,269.2,201.6,265.4,201.6z"/>
			<path class="st2" d="M261.5,183.8c0.1,0,0.3-0.1,0.3-0.3c0-0.3,1.4-0.9,4-0.9c0.9,0,1.8,0.1,2.5,0.2c0.1,0,0.3-0.1,0.3-0.2
				c0-0.1-0.1-0.3-0.2-0.3c-0.8-0.1-1.6-0.2-2.6-0.2c-2.2,0-4.6,0.4-4.6,1.4C261.2,183.6,261.4,183.8,261.5,183.8z"/>
			<path class="st2" d="M247.2,193c0.1,0,0.3-0.1,0.3-0.3c0-0.3,1.4-0.9,4-0.9c0.9,0,1.8,0.1,2.5,0.2c0.1,0,0.3-0.1,0.3-0.2
				c0-0.1-0.1-0.3-0.2-0.3c-0.8-0.1-1.6-0.2-2.6-0.2c-2.2,0-4.6,0.4-4.6,1.4C247.1,192.9,247.2,193,247.2,193z"/>
			<path class="st2" d="M233.2,190.7c0.1,0,0.3-0.1,0.3-0.3c0-0.3,1.4-0.9,4-0.9c0.9,0,1.8,0.1,2.5,0.2c0.1,0,0.3-0.1,0.3-0.2
				c0-0.1-0.1-0.3-0.2-0.3c-0.8-0.1-1.6-0.2-2.6-0.2c-2.2,0-4.6,0.4-4.6,1.4C232.9,190.6,233,190.7,233.2,190.7z"/>
			<path class="st2" d="M232.2,192.2c-0.1,0-0.3,0.1-0.3,0.3v0.3c0,0.1,0.1,0.3,0.3,0.3c0.1,0,0.3-0.1,0.3-0.3v-0.3
				C232.5,192.3,232.2,192.2,232.2,192.2z"/>
			<path class="st2" d="M233.4,192.5c-0.1,0-0.3,0.1-0.3,0.3v0.3c0,0.1,0.1,0.3,0.3,0.3c0.1,0,0.3-0.1,0.3-0.3v-0.3
				C233.7,192.7,233.6,192.5,233.4,192.5z"/>
			<path class="st2" d="M242.6,194.9c0.1,0,0.3-0.1,0.3-0.3v-0.3c0-0.1-0.1-0.3-0.3-0.3c-0.1,0-0.3,0.1-0.3,0.3v0.3
				C242.4,194.8,242.5,194.9,242.6,194.9z"/>
			<path class="st2" d="M232.2,196.7c0.1,0,0.3-0.1,0.3-0.3v-0.3c0-0.1-0.1-0.3-0.3-0.3s-0.3,0.1-0.3,0.3v0.3
				C231.9,196.6,232,196.7,232.2,196.7z"/>
			<path class="st2" d="M233.2,197.1c0.1,0,0.3-0.1,0.3-0.3v-0.3c0-0.1-0.1-0.3-0.3-0.3c-0.1,0-0.3,0.1-0.3,0.3v0.3
				C233,197,233.2,197.1,233.2,197.1z"/>
			<path class="st2" d="M241.1,199c0.1,0,0.3-0.1,0.3-0.3v-0.3c0-0.1-0.1-0.3-0.3-0.3c-0.1,0-0.3,0.1-0.3,0.3v0.3
				C240.8,198.8,241,199,241.1,199z"/>
			<path class="st2" d="M239.1,199.2c0.1,0,0.3-0.1,0.3-0.3v-0.3c0-0.1-0.1-0.3-0.3-0.3c-0.1,0-0.3,0.1-0.3,0.3v0.3
				C238.8,199.1,238.9,199.2,239.1,199.2z"/>
			<path class="st2" d="M242.6,198.6c0.1,0,0.3-0.1,0.3-0.3V198c0-0.1-0.1-0.3-0.3-0.3s-0.3,0.1-0.3,0.3v0.3
				C242.2,198.5,242.4,198.6,242.6,198.6z"/>
			<path class="st2" d="M241.2,195.3c0.1,0,0.3-0.1,0.3-0.3v-0.3c0-0.1-0.1-0.3-0.3-0.3c-0.1,0-0.3,0.1-0.3,0.3v0.3
				C241,195.2,241.1,195.3,241.2,195.3z"/>
			<path class="st2" d="M254.6,200.2c-0.1,0-0.3,0.1-0.3,0.3v0.3c0,0.1,0.1,0.3,0.3,0.3c0.1,0,0.3-0.1,0.3-0.3v-0.3
				C254.9,200.4,254.8,200.2,254.6,200.2z"/>
			<path class="st2" d="M252.6,200.5c-0.1,0-0.3,0.1-0.3,0.3v0.3c0,0.1,0.1,0.3,0.3,0.3c0.1,0,0.3-0.1,0.3-0.3v-0.3
				C252.9,200.6,252.7,200.5,252.6,200.5z"/>
			<path class="st2" d="M256,200c-0.1,0-0.3,0.1-0.3,0.3v0.3c0,0.1,0.1,0.3,0.3,0.3c0.2,0,0.3-0.1,0.3-0.3v-0.3
				C256.4,200.1,256.2,200,256,200z"/>
			<path class="st2" d="M245.8,194.1c-0.1,0-0.3,0.1-0.3,0.3v0.3c0,0.1,0.1,0.3,0.3,0.3c0.1,0,0.3-0.1,0.3-0.3v-0.3
				C246.1,194.2,246,194.1,245.8,194.1z"/>
			<path class="st2" d="M247.2,194.5c-0.1,0-0.3,0.1-0.3,0.3v0.3c0,0.1,0.1,0.3,0.3,0.3c0.1,0,0.3-0.1,0.3-0.3v-0.3
				C247.4,194.7,247.2,194.5,247.2,194.5z"/>
			<path class="st2" d="M268.9,200.2c-0.1,0-0.3,0.1-0.3,0.3v0.3c0,0.1,0.1,0.3,0.3,0.3c0.1,0,0.3-0.1,0.3-0.3v-0.3
				C269.2,200.4,269,200.2,268.9,200.2z"/>
			<path class="st2" d="M266.5,200.4c-0.1,0-0.3,0.1-0.3,0.3v0.3c0,0.1,0.1,0.3,0.3,0.3c0.1,0,0.3-0.1,0.3-0.3v-0.3
				C266.9,200.5,266.8,200.4,266.5,200.4z"/>
			<path class="st2" d="M270.8,199.7c-0.1,0-0.3,0.1-0.3,0.3v0.3c0,0.1,0.1,0.3,0.3,0.3c0.1,0,0.3-0.1,0.3-0.3V200
				C271,199.8,271,199.7,270.8,199.7z"/>
			<path class="st2" d="M259.8,187c-0.1,0-0.3,0.1-0.3,0.3v0.3c0,0.1,0.1,0.3,0.3,0.3c0.1,0,0.3-0.1,0.3-0.3v-0.3
				C260,187.1,260,187,259.8,187z"/>
			<path class="st2" d="M261,187.4c-0.1,0-0.3,0.1-0.3,0.3v0.3c0,0.1,0.1,0.3,0.3,0.3c0.1,0,0.3-0.1,0.3-0.3v-0.3
				C261.4,187.5,261.2,187.4,261,187.4z"/>
		</g>
		<g>
			<path class="st2" d="M267.2,116.1c-0.1,0-0.2,0.1-0.2,0.2v16.3c0,1.3-1,2.3-2.3,2.3h-16c-1.3,0-2.3-1-2.3-2.3v-19.9
				c0-1.3,1-2.3,2.3-2.3h10.9c0.1,0,0.2-0.1,0.2-0.2s-0.1-0.2-0.2-0.2h-10.9c-1.5,0-2.7,1.2-2.7,2.7v19.9c0,1.5,1.2,2.7,2.7,2.7h16
				c1.5,0,2.7-1.2,2.7-2.7v-16.3C267.4,116.1,267.2,116.1,267.2,116.1z"/>
			<path class="st2" d="M248.9,128.7c-0.1,0-0.2,0.1-0.2,0.2v1.8c0,1.1,0.9,2.1,2.1,2.1h3.7c0.1,0,0.2-0.1,0.2-0.2s-0.1-0.2-0.2-0.2
				h-3.7c-0.9,0-1.7-0.8-1.7-1.7v-1.8C249.1,128.8,249,128.7,248.9,128.7z"/>
			<path class="st2" d="M265.5,125.4l0.1-16.7h-2.5l-0.1,16.6l1.3,2.6L265.5,125.4z M263.4,125.3l0.1-16.2h1.8l-0.1,16.2l-0.9,1.9
				L263.4,125.3z"/>
			<path class="st2" d="M259.5,113H249c-0.1,0-0.2,0.1-0.2,0.2s0.1,0.2,0.2,0.2h10.5c0.1,0,0.2-0.1,0.2-0.2S259.5,113,259.5,113z"/>
			<path class="st2" d="M259.5,115.1H249c-0.1,0-0.2,0.1-0.2,0.2s0.1,0.2,0.2,0.2h10.5c0.1,0,0.2-0.1,0.2-0.2
				S259.5,115.1,259.5,115.1z"/>
			<path class="st2" d="M259.5,117.3H249c-0.1,0-0.2,0.1-0.2,0.2s0.1,0.2,0.2,0.2h10.5c0.1,0,0.2-0.1,0.2-0.2
				S259.5,117.3,259.5,117.3z"/>
			<path class="st2" d="M259.5,119H249c-0.1,0-0.2,0.1-0.2,0.2s0.1,0.2,0.2,0.2h10.5c0.1,0,0.2-0.1,0.2-0.2S259.5,119,259.5,119z"/>
			<path class="st2" d="M259.7,121.3c0-0.1-0.1-0.2-0.2-0.2H249c-0.1,0-0.2,0.1-0.2,0.2s0.1,0.2,0.2,0.2h10.5
				C259.5,121.5,259.7,121.4,259.7,121.3z"/>
			<path class="st2" d="M255.7,123.5c0-0.1-0.1-0.2-0.2-0.2H249c-0.1,0-0.2,0.1-0.2,0.2s0.1,0.2,0.2,0.2h6.5
				C255.7,123.7,255.7,123.6,255.7,123.5z"/>
		</g>
		<g>
			<path class="st2" d="M269.2,32h-26.8c-1.7,0-3.1,1.4-3.1,3.1V51c0,1.7,1.4,3.1,3.1,3.1h26.8c1.7,0,3.1-1.4,3.1-3.1V35.1
				C272.2,33.4,270.9,32,269.2,32z M271.9,51c0,1.5-1.2,2.7-2.7,2.7h-26.8c-1.5,0-2.7-1.2-2.7-2.7V35.1c0-1.5,1.2-2.7,2.7-2.7h26.8
				c1.5,0,2.7,1.2,2.7,2.7V51z"/>
			<path class="st2" d="M269.2,34.5l-10.3,8.3c-1.6,1.3-4.3,1.3-6,0L242,34.2c-0.1-0.1-0.2-0.1-0.3,0s-0.1,0.2,0,0.3l10.9,8.6
				c0.9,0.7,2.1,1.1,3.2,1.1c1.2,0,2.4-0.4,3.3-1.1l10.3-8.3c0.1-0.1,0.1-0.2,0-0.3C269.4,34.5,269.2,34.4,269.2,34.5z"/>
			<path class="st2" d="M245.6,34.2h19.9c0.1,0,0.2-0.1,0.2-0.2s-0.1-0.2-0.2-0.2h-19.9c-0.1,0-0.2,0.1-0.2,0.2
				S245.5,34.2,245.6,34.2z"/>
			<path class="st2" d="M253.8,51.7h-9.6c-2.2,0-2.2-2.1-2.2-2.2V38.6c0-0.1-0.1-0.2-0.2-0.2s-0.2,0.1-0.2,0.2v10.9
				c0,0,0,2.6,2.6,2.6h9.6c0.1,0,0.2-0.1,0.2-0.2C253.9,51.8,253.9,51.7,253.8,51.7z"/>
		</g>
		<g>
			<path class="st2" d="M333.4,229.6h-2.3v-15.3c0-1.5-1.2-2.6-2.6-2.6h-0.7c-0.1,0-0.2,0.1-0.2,0.2s0.1,0.2,0.2,0.2h0.7
				c0.6,0,1.1,0.2,1.5,0.6c0.4,0.4,0.6,0.9,0.6,1.5v15.3h-13v-15.3c0-0.6,0.2-1.1,0.6-1.5s0.9-0.6,1.5-0.6h0.6
				c0.1,0,0.2-0.1,0.2-0.2s-0.1-0.2-0.2-0.2h-0.6c-1.5,0-2.6,1.2-2.6,2.6v15.3h-2c-1.2,0-2.2,1-2.2,2.2v13.9c0,1.2,1,2.2,2.2,2.2
				h0.8c-0.1,0.1-0.1,0.3-0.1,0.5v0.4c0,0.5,0.4,0.9,0.9,0.9h0.6c0.5,0,0.9-0.4,0.9-0.9v-0.4c0-0.2-0.1-0.4-0.1-0.5h12.6
				c-0.1,0.1-0.1,0.3-0.1,0.5v0.4c0,0.5,0.4,0.9,0.9,0.9h0.6c0.5,0,0.9-0.4,0.9-0.9v-0.4c0-0.2-0.1-0.4-0.1-0.5h0.7
				c1.2,0,2.2-1,2.2-2.2v-13.9C335.6,230.6,334.6,229.6,333.4,229.6z M317.7,248.8c0,0.2-0.2,0.4-0.4,0.4h-0.6
				c-0.2,0-0.4-0.2-0.4-0.4v-0.4c0-0.2,0.2-0.4,0.4-0.4h0.6c0.2,0,0.4,0.2,0.4,0.4V248.8z M332.4,248.8c0,0.2-0.2,0.4-0.4,0.4h-0.6
				c-0.2,0-0.4-0.2-0.4-0.4v-0.4c0-0.2,0.2-0.4,0.4-0.4h0.6c0.2,0,0.4,0.2,0.4,0.4V248.8z M335.1,245.7c0,1-0.8,1.7-1.7,1.7H315
				c-1,0-1.7-0.8-1.7-1.7v-13.9c0-1,0.8-1.7,1.7-1.7h2.2h0.1h0.1h16c1,0,1.7,0.8,1.7,1.7L335.1,245.7L335.1,245.7z"/>
			<path class="st2" d="M317.4,244.4h13.9v-0.2v-10.9h-13.9V244.4z M317.9,233.8h12.9v10.1h-12.9V233.8z"/>
			<path class="st2" d="M329.2,236.2h-9.9c-0.1,0-0.2,0.1-0.2,0.2s0.1,0.2,0.2,0.2h0.7l-0.6,1.4c-0.1,0.1,0,0.3,0.1,0.3
				s0.3,0,0.3-0.1l0.7-1.6h8.6c0.1,0,0.2-0.1,0.2-0.2C329.4,236.3,329.5,236.2,329.2,236.2z"/>
			<path class="st2" d="M327.1,212.6v-1.7h-6v2h6V212.6z M321.6,211.4h5.1v1h-5.1V211.4z"/>
		</g>
		<g>
			<path class="st2" d="M324.6,146.4c-8.5,0-15.4,6.9-15.4,15.4s6.9,15.4,15.4,15.4s15.4-6.9,15.4-15.4S333.1,146.4,324.6,146.4z
				 M324.6,176.8c-8.3,0-15-6.7-15-15s6.7-15,15-15s15,6.7,15,15S332.8,176.8,324.6,176.8z"/>
			<path class="st2" d="M324.6,149.1c-7,0-12.8,5.7-12.8,12.8c0,7,5.7,12.8,12.8,12.8c7,0,12.8-5.7,12.8-12.8
				C337.2,154.8,331.6,149.1,324.6,149.1z M324.6,174.1c-6.8,0-12.3-5.5-12.3-12.3s5.5-12.3,12.3-12.3s12.3,5.5,12.3,12.3
				S331.2,174.1,324.6,174.1z"/>
			<path class="st2" d="M324.5,150.9c-0.1,0-0.2,0.1-0.2,0.2v2.2c0,0.1,0.1,0.2,0.2,0.2s0.2-0.1,0.2-0.2v-2.2
				C324.8,151,324.6,150.9,324.5,150.9z"/>
			<path class="st2" d="M324.5,169.2c-0.1,0-0.2,0.1-0.2,0.2v2.2c0,0.1,0.1,0.2,0.2,0.2s0.2-0.1,0.2-0.2v-2.2
				C324.8,169.3,324.6,169.2,324.5,169.2z"/>
			<path class="st2" d="M334.8,161.2h-2.2c-0.1,0-0.2,0.1-0.2,0.2s0.1,0.2,0.2,0.2h2.2c0.1,0,0.2-0.1,0.2-0.2S335,161.2,334.8,161.2
				z"/>
			<path class="st2" d="M316.5,161.2h-2.2c-0.1,0-0.2,0.1-0.2,0.2s0.1,0.2,0.2,0.2h2.2c0.1,0,0.2-0.1,0.2-0.2
				S316.5,161.2,316.5,161.2z"/>
			<path class="st2" d="M318.7,153.3c-0.1-0.1-0.2-0.1-0.3-0.1c-0.1,0.1-0.1,0.2-0.1,0.3l5.3,8.6c0,0.1,0.1,0.1,0.2,0.1h0.1
				c0.1-0.1,0.1-0.2,0.1-0.3L318.7,153.3z"/>
			<path class="st2" d="M325.4,163.1c-0.1-0.1-0.3-0.1-0.3,0c-0.1,0.1-0.1,0.3,0,0.3l4.9,3.8h0.1c0.1,0,0.1,0,0.2-0.1s0.1-0.3,0-0.3
				L325.4,163.1z"/>
		</g>
		<g>
			<path class="st2" d="M324.6,70.7c-2.7,0-4.8,2.2-4.8,4.8s2.2,4.8,4.8,4.8c2.7,0,4.8-2.2,4.8-4.8S327.4,70.7,324.6,70.7z
				 M324.6,79.8c-2.4,0-4.3-1.9-4.3-4.3s1.9-4.3,4.3-4.3s4.3,1.9,4.3,4.3C329.1,77.9,327.1,79.8,324.6,79.8z"/>
			<path class="st2" d="M334.1,70.2c-2.3-2.8-5.8-4.3-9.6-4.3c-3.7,0.1-6.9,1.5-8.9,4c-2.1,2.5-2.8,6-2.1,9.9
				c1.4,7.5,10.4,17.9,10.8,18.3l0.2,0.2l0.2-0.2c0,0,2.7-2.9,5.4-6.5c2.6-3.4,4.4-6.4,5.5-8.9c0.5-1.1,0.8-2,0.9-2.9
				C337.1,76.2,336.2,72.8,334.1,70.2z M336,79.7c-0.2,0.8-0.5,1.8-0.9,2.8c-1.1,2.5-2.9,5.4-5.4,8.8c-2.3,3.1-4.6,5.6-5.2,6.3
				c-1.3-1.5-9.3-11.1-10.5-17.8c-0.7-3.7,0-7,2-9.5c1.9-2.4,5-3.7,8.5-3.8c0.1,0,0.1,0,0.2,0c3.6,0,6.9,1.5,9,4.1
				C335.8,73,336.6,76.3,336,79.7z"/>
			<path class="st2" d="M318.5,69.8c-0.1,0.1-2.4,1.3-3.2,4.9c-0.5,2.4-0.2,4.9,0.9,7.2c0,0.1,0.1,0.1,0.2,0.1h0.1
				c0.1-0.1,0.2-0.2,0.1-0.3c-1.1-2.3-1.4-4.7-0.9-7c0.7-3.4,3-4.6,3-4.6c0.1-0.1,0.1-0.2,0.1-0.3C318.8,69.8,318.5,69.7,318.5,69.8
				z"/>
		</g>
		<g>
			<path class="st2" d="M375,50.3c-1.2,0-2.2-0.2-2.9-0.4c-0.3-0.1-0.6-0.2-0.8-0.3c-0.1,0-0.2-0.1-0.2-0.1l0,0l0,0
				c-0.1-0.1-0.3,0-0.4,0.1s0,0.3,0.1,0.4l0,0c0,0,1.7,1,4.2,1c0.2,0,0.3-0.1,0.3-0.3C375.2,50.5,375.1,50.3,375,50.3z"/>
			<path class="st2" d="M384.4,53.9c-1.2,0-2.2-0.2-2.9-0.4c-0.3-0.1-0.6-0.2-0.8-0.3c-0.1,0-0.2-0.1-0.2-0.1l0,0l0,0
				c-0.1-0.1-0.3,0-0.4,0.1s0,0.3,0.1,0.4l0,0c0,0,1.7,1,4.2,1c0.2,0,0.3-0.1,0.3-0.3C384.6,54,384.5,53.9,384.4,53.9z"/>
			<path class="st2" d="M384.4,48c-1,0-1.9-0.2-2.6-0.3c-0.1,0-0.3,0-0.3,0.2c0,0.1,0,0.3,0.2,0.3l0,0c0.7,0.2,1.6,0.4,2.7,0.4
				c0.2,0,0.3-0.1,0.3-0.3C384.6,48.1,384.5,48,384.4,48z"/>
			<path class="st2" d="M396.9,42.5c0.5-0.7,0.9-1.6,0.9-2.5c0-2.3-1.8-4.1-4.1-4.1c-2.3,0-4.1,1.8-4.1,4.1c0,1,0.4,2,1,2.7
				c-0.2,0.2-0.4,0.4-0.6,0.6c-0.5-1.3-1.4-2.6-2.4-3.3c0.7-0.7,1.1-1.7,1.1-2.7c0-2.3-1.8-4.1-4.1-4.1c-2.3,0-4.1,1.8-4.1,4.1
				c0,1,0.4,2,1,2.7c-0.8,0.7-1.6,1.8-2.1,3c-0.3-0.3-0.6-0.6-1-0.9c0.5-0.7,0.9-1.6,0.9-2.5c0-2.3-1.8-4.1-4.1-4.1
				c-2.3,0-4.1,1.8-4.1,4.1c0,1.1,0.4,2,1.1,2.7c-1.7,1.5-2.8,4-2.9,6.9c0,0.6,0,1.1,0.1,1.6v0.1l0.1,0.1c1.1,0.5,2.8,1.1,5.1,1.2
				c0.1,0,0.1,0,0.2,0c1.3,0,2.6-0.2,3.8-0.5c0,0.3-0.1,0.7-0.1,1c0,0.6,0,1.1,0.1,1.6v0.1l0.1,0.1c1.1,0.5,2.8,1.1,5.1,1.2
				c0.1,0,0.1,0,0.2,0c2.5,0,4.8-0.7,6.4-1.3l0.2-0.1v-0.2c0.1-0.5,0.1-0.9,0.1-1.4c0-0.1,0-0.2,0-0.3c0.7,0.1,1.4,0.2,2.2,0.2
				c0.1,0,0.1,0,0.2,0c2.5,0,4.8-0.7,6.4-1.3l0.2-0.1V51c0.1-0.5,0.1-0.9,0.1-1.4C400,46.6,398.8,43.9,396.9,42.5z M391.1,37.6
				c0.6-0.6,1.5-1,2.5-1s1.9,0.4,2.5,1s1,1.5,1,2.5c0,0.8-0.3,1.6-0.8,2.2l-0.1,0.1c-0.2,0.2-0.3,0.3-0.5,0.5l0,0
				c-0.1,0.1-0.2,0.1-0.3,0.2l0,0c-0.1,0.1-0.2,0.1-0.3,0.1c0,0,0,0-0.1,0s-0.2,0.1-0.3,0.1c0,0,0,0-0.1,0s-0.2,0.1-0.3,0.1h-0.1
				c-0.1,0-0.2,0-0.3,0h-0.1c-0.1,0-0.2,0-0.4,0c-0.1,0-0.2,0-0.4,0c-0.1,0-0.1,0-0.2,0s-0.1,0-0.2,0s-0.2,0-0.2-0.1h-0.1
				c-0.1,0-0.2-0.1-0.3-0.1l0,0c-0.1,0-0.2-0.1-0.3-0.1l0,0c-0.3-0.2-0.6-0.3-0.8-0.6l-0.1-0.1c-0.6-0.6-1-1.5-1-2.5
				C390.1,39.1,390.5,38.2,391.1,37.6z M389.6,43.8c-0.5,0.7-0.9,1.4-1.2,2.3c-0.2-0.2-0.4-0.3-0.5-0.5c0.5-0.7,0.9-1.6,0.9-2.5
				c0-0.6-0.1-1.2-0.4-1.7C388.9,42.1,389.2,42.9,389.6,43.8L389.6,43.8z M386.6,46c-0.1,0.1-0.2,0.1-0.3,0.2l0,0
				c-0.1,0.1-0.2,0.1-0.3,0.1c0,0,0,0-0.1,0s-0.2,0.1-0.3,0.1c0,0,0,0-0.1,0s-0.2,0.1-0.3,0.1h-0.1c-0.1,0-0.2,0-0.3,0h-0.1
				c-0.1,0-0.2,0-0.4,0c-0.1,0-0.2,0-0.4,0c-0.1,0-0.1,0-0.2,0s-0.1,0-0.2,0s-0.2,0-0.2-0.1h-0.1c-0.1,0-0.2-0.1-0.3-0.1l0,0
				c-0.1,0-0.2-0.1-0.3-0.1l0,0c-0.3-0.2-0.6-0.3-0.8-0.6l-0.1-0.1c-0.6-0.6-1-1.5-1-2.5s0.4-1.9,1-2.5s1.5-1,2.5-1s1.9,0.4,2.5,1
				s1,1.5,1,2.5c0,0.8-0.3,1.6-0.8,2.2l-0.1,0.1C387.1,45.7,386.9,45.8,386.6,46L386.6,46z M382.1,34.8c0.6-0.6,1.5-1,2.5-1
				s1.9,0.4,2.5,1s1,1.5,1,2.5s-0.4,1.9-1.1,2.6c-0.7-0.5-1.5-0.8-2.4-0.8s-1.7,0.3-2.4,0.8l0,0l-0.1-0.1c-0.6-0.6-1-1.5-1-2.5
				S381.5,35.4,382.1,34.8z M380.8,41.7c-0.2,0.5-0.3,1-0.3,1.5c0,1.1,0.4,2,1.1,2.7c-0.1,0.1-0.3,0.2-0.4,0.3c-0.3-1-0.8-2-1.3-2.7
				C380.1,42.8,380.4,42.2,380.8,41.7z M372.6,37.1c0.6-0.6,1.5-1,2.5-1s1.9,0.4,2.5,1s1,1.5,1,2.5c0,0.8-0.3,1.6-0.8,2.2l-0.1,0.1
				c-0.2,0.2-0.3,0.3-0.5,0.5l0,0c-0.1,0.1-0.2,0.1-0.3,0.2l0,0c-0.1,0.1-0.2,0.1-0.3,0.1c0,0,0,0-0.1,0s-0.2,0.1-0.3,0.1
				c0,0,0,0-0.1,0s-0.2,0.1-0.3,0.1h-0.1c-0.1,0-0.2,0-0.3,0h-0.1c-0.1,0-0.2,0-0.4,0c-0.1,0-0.2,0-0.4,0c-0.1,0-0.1,0-0.2,0
				s-0.1,0-0.2,0s-0.2,0-0.2-0.1h-0.1c-0.1,0-0.2-0.1-0.3-0.1l0,0c-0.1,0-0.2-0.1-0.3-0.1l0,0c-0.3-0.2-0.6-0.3-0.8-0.6l-0.1-0.1
				c-0.6-0.6-1-1.5-1-2.5C371.6,38.7,372.1,37.8,372.6,37.1z M378.8,51.1c-1.2,0.3-2.5,0.5-3.9,0.5c-0.1,0-0.1,0-0.2,0
				c-2.2,0-3.7-0.6-4.8-1.1c-0.1-0.4-0.1-0.9-0.1-1.4c0-2.8,1.1-5.1,2.7-6.5l0.1,0.1l0,0c0.1,0.1,0.2,0.1,0.3,0.2l0,0
				c0.1,0.1,0.2,0.1,0.3,0.2l0,0c0.1,0.1,0.2,0.1,0.3,0.2c0,0,0,0,0.1,0s0.2,0.1,0.3,0.1h0.1c0.1,0,0.2,0,0.3,0.1c0.1,0,0.1,0,0.2,0
				s0.1,0,0.2,0s0.3,0,0.4,0s0.3,0,0.4,0h0.1c0.1,0,0.2,0,0.3-0.1h0.1c0.1,0,0.2-0.1,0.3-0.1h0.1c0.1,0,0.2-0.1,0.3-0.1
				c0,0,0,0,0.1,0s0.2-0.1,0.3-0.2l0,0c0.1-0.1,0.2-0.1,0.3-0.2l0,0c0.1-0.1,0.2-0.2,0.3-0.2l0,0l0.1-0.1c1.2,0.9,2.2,2.4,2.6,4.2
				C379.8,47.9,379.1,49.4,378.8,51.1L378.8,51.1z M384.1,55.2c-2.2,0-3.7-0.6-4.8-1.1c-0.1-0.4-0.1-0.9-0.1-1.4
				c0-2.8,1.1-5.1,2.7-6.5l0.1,0.1l0,0c0.1,0.1,0.2,0.1,0.3,0.2l0,0c0.1,0.1,0.2,0.1,0.3,0.2l0,0c0.1,0.1,0.2,0.1,0.3,0.2
				c0,0,0,0,0.1,0s0.2,0.1,0.3,0.1h0.1c0.1,0,0.2,0,0.3,0.1c0.1,0,0.1,0,0.2,0s0.1,0,0.2,0s0.3,0,0.4,0s0.3,0,0.4,0h0.1
				c0.1,0,0.2,0,0.3-0.1h0.1c0.1,0,0.2-0.1,0.3-0.1h0.1c0.1,0,0.2-0.1,0.3-0.1c0,0,0,0,0.1,0s0.2-0.1,0.3-0.2l0,0
				c0.1-0.1,0.2-0.1,0.3-0.2l0,0c0.1-0.1,0.2-0.2,0.3-0.2l0,0l0.1-0.1c1.7,1.3,3,3.8,3,6.7c0,0.4,0,0.8-0.1,1.2
				C388.6,54.6,386.4,55.2,384.1,55.2C384.2,55.2,384.1,55.2,384.1,55.2z M393.1,52.1c-0.8,0-1.6-0.1-2.3-0.2c0-0.3-0.1-0.6-0.1-0.9
				c0.7,0.2,1.7,0.3,2.6,0.3c0.2,0,0.3-0.1,0.3-0.3s-0.1-0.3-0.3-0.3c-1,0-2-0.2-2.7-0.4c-0.3-1.5-1-2.8-1.9-3.8
				c0.5-1.4,1.2-2.6,2.2-3.4l0.1,0.1l0,0c0.1,0.1,0.2,0.1,0.3,0.2l0,0c0.1,0.1,0.2,0.1,0.3,0.2l0,0c0.1,0.1,0.2,0.1,0.3,0.2
				c0,0,0,0,0.1,0s0.2,0.1,0.3,0.1h0.1c0.1,0,0.2,0,0.3,0.1c0.1,0,0.1,0,0.2,0s0.1,0,0.2,0s0.3,0,0.4,0s0.3,0,0.4,0h0.1
				c0.1,0,0.2,0,0.3-0.1h0.1c0.1,0,0.2-0.1,0.3-0.1h0.1c0.1,0,0.2-0.1,0.3-0.1c0,0,0,0,0.1,0s0.2-0.1,0.3-0.2l0,0
				c0.1-0.1,0.2-0.1,0.3-0.2l0,0c0.1-0.1,0.2-0.2,0.3-0.2l0,0l0.1-0.1c1.7,1.3,3,3.8,3,6.7c0,0.4,0,0.8-0.1,1.2
				C397.6,51.5,395.5,52.1,393.1,52.1C393.2,52.1,393.2,52.1,393.1,52.1z"/>
		</g>
		<g>
			<path class="st2" d="M399,109.9h-15.5c-0.8,0-1.4,0.6-1.4,1.4V134c0,0.8,0.6,1.4,1.4,1.4H399c0.8,0,1.4-0.6,1.4-1.4v-22.7
				C400.4,110.5,399.8,109.9,399,109.9z M400,133.9c0,0.6-0.5,1-1,1h-15.5c-0.6,0-1-0.5-1-1v-22.7c0-0.6,0.5-1,1-1H399
				c0.6,0,1,0.5,1,1V133.9z"/>
			<path class="st2" d="M384.1,114.8h14.3v-3h-14.3V114.8z M384.5,112.2h13.6v2.3h-13.6V112.2z"/>
			<path class="st2" d="M384.1,121.4h2.1v-2.1h-2.1V121.4z M384.5,119.6h1.4v1.4h-1.4V119.6z"/>
			<path class="st2" d="M387.1,121.4h2.1v-2.1h-2.1V121.4z M387.5,119.6h1.4v1.4h-1.4V119.6z"/>
			<path class="st2" d="M392.1,119.3H390v2.1h2.1V119.3z M391.9,121h-1.4v-1.4h1.4V121z"/>
			<path class="st2" d="M395.1,119.3H393v2.1h2.1V119.3z M394.8,121h-1.4v-1.4h1.4V121z"/>
			<path class="st2" d="M398.1,119.3H396v2.1h2.1V119.3z M397.8,121h-1.4v-1.4h1.4V121z"/>
			<path class="st2" d="M384.1,124.2h2.1v-2.1h-2.1V124.2z M384.5,122.4h1.4v1.4h-1.4V122.4z"/>
			<path class="st2" d="M387.1,124.2h2.1v-2.1h-2.1V124.2z M387.5,122.4h1.4v1.4h-1.4V122.4z"/>
			<path class="st2" d="M390.1,124.2h2.1v-2.1h-2.1V124.2z M390.5,122.4h1.4v1.4h-1.4V122.4z"/>
			<path class="st2" d="M393.1,124.2h2.1v-2.1h-2.1V124.2z M393.4,122.4h1.4v1.4h-1.4V122.4z"/>
			<path class="st2" d="M396.1,124.2h2.1v-2.1h-2.1V124.2z M396.4,122.4h1.4v1.4h-1.4V122.4z"/>
			<path class="st2" d="M384.1,126.9h2.1v-2.1h-2.1V126.9z M384.5,125.2h1.4v1.4h-1.4V125.2z"/>
			<path class="st2" d="M387.1,126.9h2.1v-2.1h-2.1V126.9z M387.5,125.2h1.4v1.4h-1.4V125.2z"/>
			<path class="st2" d="M390.1,126.9h2.1v-2.1h-2.1V126.9z M390.5,125.2h1.4v1.4h-1.4V125.2z"/>
			<path class="st2" d="M393.1,126.9h2.1v-2.1h-2.1V126.9z M393.4,125.2h1.4v1.4h-1.4V125.2z"/>
			<path class="st2" d="M396.1,126.9h2.1v-2.1h-2.1V126.9z M396.4,125.2h1.4v1.4h-1.4V125.2z"/>
			<path class="st2" d="M384.1,129.7h2.1v-2.1h-2.1V129.7z M384.5,128h1.4v1.4h-1.4V128z"/>
			<path class="st2" d="M387.1,129.7h2.1v-2.1h-2.1V129.7z M387.5,128h1.4v1.4h-1.4V128z"/>
			<path class="st2" d="M390.1,129.7h2.1v-2.1h-2.1V129.7z M390.5,128h1.4v1.4h-1.4V128z"/>
			<path class="st2" d="M393.1,129.7h2.1v-2.1h-2.1V129.7z M393.4,128h1.4v1.4h-1.4V128z"/>
			<path class="st2" d="M396.1,129.7h2.1v-2.1h-2.1V129.7z M396.4,128h1.4v1.4h-1.4V128z"/>
			<path class="st2" d="M398.1,133h-7.6c-0.1,0-0.2,0.1-0.2,0.2s0.1,0.2,0.2,0.2h7.6c0.1,0,0.2-0.1,0.2-0.2S398.1,133,398.1,133z"/>
			<path class="st2" d="M389.2,115.8h-5c-0.1,0-0.2,0.1-0.2,0.2s0.1,0.2,0.2,0.2h5c0.1,0,0.2-0.1,0.2-0.2
				C389.4,115.9,389.4,115.8,389.2,115.8z"/>
		</g>
		<g>
			<path class="st2" d="M420.1,184.6h-52.3c-1.6,0-2.9,1.3-2.9,2.9v14.4c0,1.6,1.3,2.9,2.9,2.9h52.3c1.6,0,2.9-1.3,2.9-2.9v-14.4
				C423.1,185.9,421.8,184.6,420.1,184.6z M422.6,201.9c0,0.7-0.3,1.3-0.7,1.8c-0.5,0.5-1.1,0.7-1.8,0.7h-52.3
				c-0.7,0-1.3-0.3-1.8-0.7c-0.5-0.5-0.7-1.1-0.7-1.8v-14.4c0-0.7,0.3-1.3,0.7-1.8c0.5-0.5,1.1-0.7,1.8-0.7h52.3
				c0.7,0,1.3,0.3,1.8,0.7c0.5,0.5,0.7,1.1,0.7,1.8V201.9z"/>
			<path class="st2" d="M370.5,189.5v-2.1H368v2.3h2.5V189.5z M368.5,187.8h1.7v1.5h-1.7V187.8z"/>
			<path class="st2" d="M373.8,189.5v-2.1h-2.3v2.3h2.3V189.5z M371.9,187.8h1.5v1.5h-1.5V187.8z"/>
			<path class="st2" d="M374.6,189.6h2.3v-0.2v-2.1h-2.3V189.6z M375.1,187.8h1.5v1.5h-1.5V187.8z"/>
			<path class="st2" d="M378,189.6h2.3v-0.2v-2.1H378V189.6z M378.2,187.8h1.5v1.5h-1.5V187.8z"/>
			<path class="st2" d="M381.1,189.6h2.3v-0.2v-2.1h-2.3V189.6z M381.6,187.8h1.5v1.5h-1.5V187.8z"/>
			<path class="st2" d="M384.2,189.6h2.3v-0.2v-2.1h-2.3V189.6z M384.6,187.8h1.5v1.5h-1.5V187.8z"/>
			<path class="st2" d="M387.5,189.6h2.3v-0.2v-2.1h-2.3V189.6z M387.9,187.8h1.5v1.5h-1.5V187.8z"/>
			<path class="st2" d="M393,189.5v-2.1h-2.3v2.3h2.3V189.5z M391.1,187.8h1.5v1.5h-1.5V187.8z"/>
			<path class="st2" d="M396.2,189.5v-2.1H394v2.3h2.3L396.2,189.5L396.2,189.5z M394.4,187.8h1.5v1.5h-1.5V187.8z"/>
			<path class="st2" d="M399.6,189.5v-2.1h-2.4v2.3h2.4V189.5z M397.6,187.8h1.7v1.5h-1.7V187.8z"/>
			<path class="st2" d="M370.5,195.3v-2.1H368v2.3h2.5V195.3z M368.5,193.6h1.7v1.5h-1.7V193.6z"/>
			<path class="st2" d="M371.5,195.5h2.3v-0.2v-2.1h-2.3V195.5z M371.9,193.6h1.5v1.5h-1.5V193.6z"/>
			<path class="st2" d="M377,195.3v-2.1h-2.3v2.3h2.3V195.3z M375.1,193.6h1.5v1.5h-1.5V193.6z"/>
			<path class="st2" d="M380.1,195.3v-2.1h-2.3v2.3h2.3V195.3z M378.2,193.6h1.5v1.5h-1.5V193.6z"/>
			<path class="st2" d="M383.5,195.3v-2.1h-2.3v2.3h2.3V195.3z M381.6,193.6h1.5v1.5h-1.5V193.6z"/>
			<path class="st2" d="M386.6,195.3v-2.1h-2.3v2.3h2.3V195.3z M384.6,193.6h1.5v1.5h-1.5V193.6z"/>
			<path class="st2" d="M387.5,195.5h2.3v-0.2v-2.1h-2.3V195.5z M387.9,193.6h1.5v1.5h-1.5V193.6z"/>
			<path class="st2" d="M390.8,195.5h2.3v-0.2v-2.1h-2.3V195.5z M391.1,193.6h1.5v1.5h-1.5V193.6z"/>
			<path class="st2" d="M372.1,192.3v-2.1h-4v2.3h4V192.3z M368.5,190.7h3.2v1.5h-3.2V190.7z"/>
			<path class="st2" d="M375.2,192.3v-2.1H373v2.3h2.3L375.2,192.3L375.2,192.3z M373.4,190.7h1.5v1.5h-1.5V190.7z"/>
			<path class="st2" d="M376.4,192.5h2.3v-0.2v-2.1h-2.3V192.5z M376.6,190.7h1.5v1.5h-1.5V190.7z"/>
			<path class="st2" d="M379.6,192.5h2.3v-0.2v-2.1h-2.3V192.5z M380.1,190.7h1.5v1.5h-1.5V190.7z"/>
			<path class="st2" d="M382.8,192.5h2.3v-0.2v-2.1h-2.3V192.5z M383.1,190.7h1.5v1.5h-1.5V190.7z"/>
			<path class="st2" d="M386,192.5h2.3v-0.2v-2.1H386V192.5z M386.4,190.7h1.5v1.5h-1.5V190.7z"/>
			<path class="st2" d="M389.1,192.5h2.3v-0.2v-2.1h-2.3V192.5z M389.6,190.7h1.5v1.5h-1.5V190.7z"/>
			<path class="st2" d="M394.6,192.3v-2.1h-2.3v2.3h2.3V192.3z M392.8,190.7h1.5v1.5h-1.5V190.7z"/>
			<path class="st2" d="M375.9,198.3v-2.1h-2.3v2.3h2.3V198.3z M374,196.6h1.5v1.5H374V196.6z"/>
			<path class="st2" d="M372.4,198.3v-2.1h-4.3v2.3h4.3V198.3z M368.5,196.6h3.6v1.5h-3.6V196.6z"/>
			<path class="st2" d="M379.1,198.3v-2.1h-2.3v2.3h2.3V198.3z M377.2,196.6h1.5v1.5h-1.5V196.6z"/>
			<path class="st2" d="M380.2,198.5h2.3v-0.2v-2.1h-2.3V198.5z M380.6,196.6h1.5v1.5h-1.5V196.6z"/>
			<path class="st2" d="M385.6,198.3v-2.1h-2.3v2.3h2.3V198.3z M383.8,196.6h1.5v1.5h-1.5V196.6z"/>
			<path class="st2" d="M386.6,198.5h2.3v-0.2v-2.1h-2.3V198.5z M387,196.6h1.5v1.5H387V196.6z"/>
			<path class="st2" d="M389.8,198.5h2.3v-0.2v-2.1h-2.3V198.5z M390.1,196.6h1.5v1.5h-1.5V196.6z"/>
			<path class="st2" d="M395.1,198.3v-2.1h-2.3v2.3h2.3V198.3z M393.4,196.6h1.5v1.5h-1.5V196.6z"/>
			<path class="st2" d="M399.6,192.3v-2.1h-4.2v2.3h4.2V192.3z M395.8,190.7h3.5v1.5h-3.5V190.7z"/>
			<path class="st2" d="M399.6,198.5v-5.2h-0.2h-5.5v2.3h3.2v3h2.5V198.5z M394.4,195.1v-1.5h4.9v4.5h-1.7v-3H394.4z"/>
			<path class="st2" d="M393.1,201.4v-2.1h-17.7v2.3h17.7V201.4z M375.8,199.7h16.9v1.5h-16.9V199.7z"/>
			<path class="st2" d="M413.1,189.5v-2.1h-2.2v2.3h2.3L413.1,189.5L413.1,189.5z M411.2,187.8h1.5v1.5h-1.5V187.8z"/>
			<path class="st2" d="M414.1,189.7h2.3v-0.2v-2.1h-2.3V189.7z M414.5,187.8h1.5v1.5h-1.5V187.8z"/>
			<path class="st2" d="M417.2,189.7h2.3v-0.2v-2.1h-2.3V189.7z M417.6,187.8h1.5v1.5h-1.5V187.8z"/>
			<path class="st2" d="M403.1,189.5v-2.1h-2.3v2.3h2.3V189.5z M401.4,187.8h1.5v1.5h-1.5V187.8z"/>
			<path class="st2" d="M406.5,189.5v-2.1h-2.3v2.3h2.3V189.5z M404.6,187.8h1.5v1.5h-1.5V187.8z"/>
			<path class="st2" d="M409.6,189.5v-2.1h-2.3v2.3h2.3V189.5z M407.8,187.8h1.5v1.5h-1.5V187.8z"/>
			<path class="st2" d="M413.1,192.5v-2.1h-2.2v2.3h2.3L413.1,192.5L413.1,192.5z M411.2,190.8h1.5v1.5h-1.5V190.8z"/>
			<path class="st2" d="M414.1,192.7h2.3v-0.2v-2.1h-2.3V192.7z M414.5,190.8h1.5v1.5h-1.5V190.8z"/>
			<path class="st2" d="M417.2,192.7h2.3v-0.2v-2.1h-2.3V192.7z M417.6,190.8h1.5v1.5h-1.5V190.8z"/>
			<path class="st2" d="M413.1,195.6v-2.1h-2.2v2.3h2.3L413.1,195.6L413.1,195.6z M411.2,193.9h1.5v1.5h-1.5V193.9z"/>
			<path class="st2" d="M414.1,195.7h2.3v-0.2v-2.1h-2.3V195.7z M414.5,193.9h1.5v1.5h-1.5V193.9z"/>
			<path class="st2" d="M417.2,195.7h2.3v-0.2v-2.1h-2.3V195.7z M417.6,193.9h1.5v1.5h-1.5V193.9z"/>
			<path class="st2" d="M413.1,198.6v-2.1h-2.2v2.3h2.3L413.1,198.6L413.1,198.6z M411.2,196.9h1.5v1.5h-1.5V196.9z"/>
			<path class="st2" d="M401.4,201.6h2.3v-0.2v-2.1h-2.3V201.6z M401.8,199.7h1.5v1.5h-1.5V199.7z"/>
			<path class="st2" d="M404.4,201.6h2.3v-0.2v-2.1h-2.3V201.6z M404.8,199.7h1.5v1.5h-1.5V199.7z"/>
			<path class="st2" d="M406.6,198.3v-2.1h-2.3v2.3h2.3V198.3z M404.8,196.6h1.5v1.5h-1.5V196.6z"/>
			<path class="st2" d="M407.4,201.6h2.3v-0.2v-2.1h-2.3V201.6z M407.8,199.7h1.5v1.5h-1.5V199.7z"/>
			<path class="st2" d="M414.1,198.8h2.3v-0.2v-2.1h-2.3V198.8z M414.5,196.9h1.5v1.5h-1.5V196.9z"/>
			<path class="st2" d="M417.2,198.8h2.3v-0.2v-2.1h-2.3V198.8z M417.6,196.9h1.5v1.5h-1.5V196.9z"/>
			<path class="st2" d="M370.1,186.2h18.5c0.1,0,0.2-0.1,0.2-0.2s-0.1-0.2-0.2-0.2h-18.5c-0.1,0-0.2,0.1-0.2,0.2
				S370,186.2,370.1,186.2z"/>
			<path class="st2" d="M414.5,203.2H368c-0.1,0-0.2,0.1-0.2,0.2s0.1,0.2,0.2,0.2h46.5c0.1,0,0.2-0.1,0.2-0.2
				S414.6,203.2,414.5,203.2z"/>
		</g>
		<g>
			<path class="st2" d="M172.7,60.8c-9.9-0.1-18,7.9-18.1,17.8s7.9,18,17.8,18.1s18-7.9,18.1-17.8S182.6,60.9,172.7,60.8z
				 M172.4,96.2c-9.6-0.1-17.4-8-17.3-17.6s8-17.4,17.6-17.3c9.6,0.1,17.4,8,17.3,17.6S182,96.3,172.4,96.2z"/>
			<path class="st2" d="M172.4,93.2c-8-0.1-14.4-6.6-14.3-14.6c0-0.9,0.1-1.7,0.3-2.6c0-0.1-0.1-0.2-0.2-0.2S158,75.9,158,76
				c-0.2,0.9-0.2,1.8-0.3,2.6c-0.1,8.2,6.5,14.9,14.7,15c0.1,0,0.2-0.1,0.2-0.2S172.5,93.2,172.4,93.2z"/>
			<path class="st2" d="M172.7,63.9c-5.2,0-10.1,2.7-12.8,7.1c-0.1,0.1,0,0.2,0.1,0.3c0.1,0.1,0.2,0,0.3-0.1c2.6-4.3,7.4-7,12.4-6.9
				c8,0.1,14.4,6.6,14.3,14.6c0,5-2.6,9.5-6.9,12.2c-0.1,0.1-0.1,0.2-0.1,0.3c0,0.1,0.1,0.1,0.2,0.1h0.1c4.4-2.7,7-7.4,7.1-12.5
				C187.4,70.7,180.8,64,172.7,63.9z"/>
			<path class="st2" d="M172.7,70.2c-4.8,0-8.7,3.8-8.8,8.6c0,4.8,3.8,8.7,8.6,8.8c4.8,0.1,8.7-3.8,8.8-8.6
				C181.4,74.1,177.5,70.2,172.7,70.2z M172.6,87.1c-4.5,0-8.2-3.8-8.1-8.3c0-4.5,3.8-8.2,8.3-8.1c4.5,0,8.2,3.8,8.1,8.3
				S177.1,87.1,172.6,87.1z"/>
			<path class="st2" d="M169.5,63.6c0.1,0,0.2-0.1,0.2-0.2c0-0.7,0.6-1.3,0.6-1.3c0.1-0.1,0.1-0.2,0-0.3s-0.2-0.1-0.3,0
				c0,0-0.8,0.6-0.8,1.6C169.2,63.5,169.4,63.6,169.5,63.6z"/>
			<path class="st2" d="M165.7,64.9L165.7,64.9c0.2,0,0.2-0.1,0.2-0.3c-0.2-0.7,0.3-1.4,0.3-1.4c0.1-0.1,0-0.2,0-0.3
				c-0.1-0.1-0.2,0-0.3,0c0,0-0.6,0.8-0.3,1.7C165.5,64.8,165.6,64.9,165.7,64.9z"/>
			<path class="st2" d="M162.2,67.1L162.2,67.1c0.2-0.1,0.2-0.2,0.2-0.3c-0.4-0.6-0.1-1.4-0.1-1.4c0-0.1,0-0.2-0.1-0.3
				c-0.1,0-0.2,0-0.3,0.1c0,0-0.3,0.9,0.1,1.7C162.2,67.1,162.2,67.1,162.2,67.1z"/>
			<path class="st2" d="M159.6,70.1C159.7,70.1,159.7,70.1,159.6,70.1c0.2-0.2,0.2-0.3,0.1-0.4c-0.5-0.5-0.5-1.3-0.5-1.3
				c0-0.1-0.1-0.2-0.2-0.2c-0.1,0-0.2,0.1-0.2,0.2c0,0-0.1,1,0.6,1.6C159.5,70.1,159.6,70.1,159.6,70.1z"/>
			<path class="st2" d="M157.7,73.7C157.8,73.8,157.8,73.8,157.7,73.7c0.2,0,0.2,0,0.3-0.1s0-0.2-0.1-0.3c-0.6-0.4-0.8-1.2-0.8-1.2
				c0-0.1-0.1-0.2-0.2-0.2c-0.1,0-0.2,0.1-0.2,0.2C156.8,72.3,156.9,73.3,157.7,73.7z"/>
			<path class="st2" d="M157,77.7L157,77.7c0.1,0,0.2-0.1,0.2-0.1c0-0.1,0-0.2-0.1-0.2c-0.7-0.2-1.1-0.9-1.1-0.9
				c0-0.1-0.2-0.1-0.3-0.1s-0.1,0.2-0.1,0.3C155.7,76.6,156.1,77.5,157,77.7z"/>
			<path class="st2" d="M157.4,81.6c0-0.1-0.1-0.2-0.2-0.2c-0.7,0-1.3-0.6-1.3-0.6c-0.1-0.1-0.2-0.1-0.3,0s-0.1,0.2,0,0.3
				c0,0,0.6,0.8,1.6,0.8C157.4,81.8,157.4,81.7,157.4,81.6z"/>
			<path class="st2" d="M158.5,85.2c-0.7,0.2-1.4-0.3-1.4-0.3c-0.1-0.1-0.2,0-0.3,0c-0.1,0.1,0,0.2,0,0.3c0,0,0.5,0.4,1.2,0.4
				c0.2,0,0.3,0,0.5-0.1c0.1,0,0.2-0.1,0.1-0.2C158.7,85.2,158.6,85.2,158.5,85.2z"/>
			<path class="st2" d="M160.6,88.6c-0.6,0.4-1.4,0.1-1.4,0.1c-0.1,0-0.2,0-0.3,0.1c0,0.1,0,0.2,0.1,0.3c0,0,0.3,0.1,0.7,0.1
				c0.3,0,0.7-0.1,1-0.2c0.1-0.1,0.1-0.2,0.1-0.3C160.9,88.6,160.7,88.6,160.6,88.6z"/>
			<path class="st2" d="M163.6,91.3c-0.5,0.5-1.3,0.5-1.3,0.5c-0.1,0-0.2,0.1-0.2,0.2s0.1,0.2,0.2,0.2c0,0,0,0,0.1,0
				c0.3,0,1,0,1.5-0.6c0.1-0.1,0.1-0.2,0-0.3C163.8,91.3,163.7,91.3,163.6,91.3z"/>
			<path class="st2" d="M167.5,93.1c-0.1-0.1-0.2,0-0.3,0.1c-0.4,0.6-1.2,0.8-1.2,0.8c-0.1,0-0.2,0.1-0.2,0.2s0.1,0.2,0.2,0.2l0,0
				c0,0,1-0.2,1.4-1C167.6,93.3,167.6,93.2,167.5,93.1z"/>
			<path class="st2" d="M171.4,93.9c-0.1,0-0.2,0-0.2,0.1c-0.2,0.7-0.9,1.1-0.9,1.1c-0.1,0-0.1,0.2-0.1,0.3c0,0.1,0.1,0.1,0.2,0.1
				h0.1c0,0,0.9-0.4,1.1-1.3C171.6,94.1,171.5,93.9,171.4,93.9z"/>
			<path class="st2" d="M175.4,93.7c-0.1,0-0.2,0.1-0.2,0.2c0,0.7-0.6,1.3-0.6,1.3c-0.1,0.1-0.1,0.2,0,0.3c0,0,0.1,0.1,0.2,0.1h0.1
				c0,0,0.8-0.6,0.8-1.6C175.6,93.8,175.5,93.7,175.4,93.7z"/>
			<path class="st2" d="M179.2,92.4c-0.1,0-0.2,0.1-0.1,0.2c0.2,0.7-0.3,1.4-0.3,1.4c-0.1,0.1,0,0.2,0,0.3h0.1c0.1,0,0.1,0,0.2-0.1
				c0,0,0.6-0.8,0.3-1.7C179.4,92.4,179.2,92.4,179.2,92.4z"/>
			<path class="st2" d="M182.5,90.2c-0.1,0.1-0.1,0.2-0.1,0.3c0.4,0.6,0.1,1.4,0.1,1.4c0,0.1,0,0.2,0.1,0.3c0,0,0,0,0.1,0
				s0.2,0,0.2-0.1c0,0,0.3-0.9-0.1-1.7C182.7,90.2,182.6,90.1,182.5,90.2z"/>
			<path class="st2" d="M185.1,87.2c-0.1,0.1-0.1,0.2,0,0.3c0.5,0.5,0.5,1.3,0.5,1.3c0,0.1,0.1,0.2,0.2,0.2l0,0
				c0.1,0,0.2-0.1,0.2-0.2c0,0,0.1-1-0.6-1.6C185.4,87.1,185.2,87.1,185.1,87.2z"/>
			<path class="st2" d="M187.2,83.6c-0.1-0.1-0.2,0-0.3,0.1s0,0.2,0.1,0.3c0.6,0.4,0.8,1.2,0.8,1.2c0,0.1,0.1,0.2,0.2,0.2l0,0
				c0.1,0,0.2-0.1,0.2-0.2C188.2,85,188,84,187.2,83.6z"/>
			<path class="st2" d="M189.2,80.7c0,0-0.4-0.9-1.3-1.1c-0.1,0-0.2,0-0.2,0.1s0,0.2,0.1,0.2c0.7,0.2,1.1,0.9,1.1,0.9
				c0,0.1,0.1,0.1,0.2,0.1h0.1C189.2,80.9,189.2,80.8,189.2,80.7z"/>
			<path class="st2" d="M187.5,75.7c0,0.1,0.1,0.2,0.2,0.2c0.7,0,1.3,0.6,1.3,0.6s0.1,0.1,0.2,0.1h0.1c0.1-0.1,0.1-0.2,0-0.3
				c0,0-0.6-0.8-1.6-0.8C187.6,75.5,187.5,75.6,187.5,75.7z"/>
			<path class="st2" d="M186.5,72.1c0.7-0.2,1.4,0.3,1.4,0.3h0.1c0.1,0,0.1,0,0.2-0.1c0.1-0.1,0-0.2,0-0.3c0,0-0.8-0.6-1.7-0.3
				c-0.1,0-0.2,0.1-0.1,0.2S186.4,72.1,186.5,72.1z"/>
			<path class="st2" d="M184.2,68.7L184.2,68.7c0.7-0.4,1.5-0.1,1.5-0.1c0.1,0,0.2,0,0.3-0.1c0-0.1,0-0.2-0.1-0.3
				c0,0-0.9-0.3-1.7,0.1C184.1,68.4,184.1,68.5,184.2,68.7C184,68.7,184.1,68.7,184.2,68.7z"/>
			<path class="st2" d="M181.2,66L181.2,66c0.6-0.6,1.4-0.6,1.4-0.6c0.1,0,0.2-0.1,0.2-0.2s-0.1-0.2-0.2-0.2c0,0-1-0.1-1.6,0.6
				c-0.1,0.1-0.1,0.2,0,0.3C181.1,66,181.1,66,181.2,66z"/>
			<path class="st2" d="M177.4,64.2C177.5,64.2,177.5,64.2,177.4,64.2c0.2,0,0.2,0,0.3-0.1c0.4-0.6,1.2-0.8,1.2-0.8
				c0.1,0,0.2-0.1,0.2-0.2s-0.1-0.2-0.2-0.2c0,0-1,0.2-1.4,1C177.2,64,177.4,64.1,177.4,64.2z"/>
			<path class="st2" d="M173.5,63.4C173.6,63.4,173.6,63.4,173.5,63.4c0.1,0,0.2-0.1,0.2-0.1c0.2-0.7,0.9-1.1,0.9-1.1
				c0.1,0,0.1-0.2,0.1-0.3s-0.2-0.1-0.3-0.1c0,0-0.9,0.4-1.1,1.3C173.4,63.2,173.4,63.4,173.5,63.4z"/>
			<path class="st2" d="M170.4,75c0.6,0,1.1-0.5,1.1-1.1s-0.5-1.1-1.1-1.1s-1.1,0.5-1.1,1.1S169.8,75,170.4,75z M170.4,73.2
				c0.4,0,0.7,0.3,0.7,0.7c0,0.4-0.3,0.7-0.7,0.7s-0.7-0.3-0.7-0.7S170,73.2,170.4,73.2z"/>
			<path class="st2" d="M167.7,77c-0.6,0-1.1,0.5-1.1,1.1s0.5,1.1,1.1,1.1s1.1-0.5,1.1-1.1S168.2,77,167.7,77z M167.7,78.8
				c-0.4,0-0.7-0.3-0.7-0.7c0-0.4,0.3-0.7,0.7-0.7s0.7,0.3,0.7,0.7S168.1,78.8,167.7,78.8z"/>
			<path class="st2" d="M169.8,81.9c-0.6,0-1.1,0.5-1.1,1.1s0.5,1.1,1.1,1.1s1.1-0.5,1.1-1.1S170.4,81.9,169.8,81.9z M169.8,83.6
				c-0.4,0-0.7-0.3-0.7-0.7c0-0.4,0.3-0.7,0.7-0.7s0.7,0.3,0.7,0.7C170.5,83.3,170.1,83.6,169.8,83.6z"/>
			<path class="st2" d="M174.9,75c0.6,0,1.1-0.5,1.1-1.1s-0.5-1.1-1.1-1.1s-1.1,0.5-1.1,1.1S174.2,75,174.9,75z M175,73.2
				c0.4,0,0.7,0.3,0.7,0.7c0,0.4-0.3,0.7-0.7,0.7s-0.7-0.3-0.7-0.7S174.6,73.2,175,73.2z"/>
			<path class="st2" d="M177.5,77.1c-0.6,0-1.1,0.5-1.1,1.1s0.5,1.1,1.1,1.1s1.1-0.5,1.1-1.1S178.1,77.1,177.5,77.1z M177.5,78.9
				c-0.4,0-0.7-0.3-0.7-0.7c0-0.4,0.3-0.7,0.7-0.7s0.7,0.3,0.7,0.7S177.9,78.9,177.5,78.9z"/>
			<path class="st2" d="M175.4,81.9c-0.6,0-1.1,0.5-1.1,1.1s0.5,1.1,1.1,1.1s1.1-0.5,1.1-1.1S176,81.9,175.4,81.9z M175.4,83.7
				c-0.4,0-0.7-0.3-0.7-0.7c0-0.4,0.3-0.7,0.7-0.7s0.7,0.3,0.7,0.7C176.1,83.4,175.8,83.7,175.4,83.7z"/>
			<path class="st2" d="M175.2,78.5c0-1.3-1-2.3-2.3-2.3s-2.3,1-2.3,2.3s1,2.3,2.3,2.3S175.2,79.7,175.2,78.5z M172.9,80.4
				c-1.1,0-1.9-0.9-1.9-1.9c0-1.1,0.9-1.9,1.9-1.9c1.1,0,1.9,0.9,1.9,1.9S174,80.4,172.9,80.4z"/>
		</g>
	</g>
</g>
<g id="Layer_2">
	<g>
		<line class="st3" x1="90.3" y1="33.9" x2="111.3" y2="33.9"/>
		<polyline class="st3" points="87.8,36.2 87.8,31.1 114.2,31.1 114.2,35.8 		"/>
		<path class="st3" d="M87.8,33.2c0,0-1.7-0.1-2.3,0.5S85,35.1,85,35.1v2.1c0,0,0,0.8,0.9,0.8s3.6,0,3.6,0s1,0.1,1.1-0.7
			c0.1-0.9-0.4-1.1-0.8-1.1c-0.2,0-3.8,0-3.8,0s-0.7-0.1-0.9-0.6"/>
		<path class="st3" d="M114.2,33.2c0,0,1.7-0.1,2.3,0.5c0.6,0.7,0.5,1.4,0.5,1.4v2.1c0,0,0,0.8-0.9,0.8s-3.6,0-3.6,0s-1,0.1-1.1-0.7
			c-0.1-0.9,0.4-1.1,0.8-1.1c0.2,0,3.8,0,3.8,0s0.7-0.1,0.9-0.6"/>
		<path class="st3" d="M88,38.1v10.1c0,0-0.2,3.9,3.6,3.9c3.8,0,18.6,0,18.6,0s4.1,0,4.1-4.1s0-10,0-10"/>
		<line class="st3" x1="93" y1="49" x2="109.5" y2="49"/>
		<path class="st3" d="M96.5,16.7c0,1.2-2,1.2-2,2.5c0,1.2,2,1.2,2,2.5c0,1.2-2,1.2-2,2.5c0,1.2,2,1.2,2,2.5c0,1.2-2,1.2-2,2.5"/>
		<path class="st3" d="M102.6,16.7c0,1.2-2,1.2-2,2.5c0,1.2,2,1.2,2,2.5c0,1.2-2,1.2-2,2.5c0,1.2,2,1.2,2,2.5c0,1.2-2,1.2-2,2.5"/>
		<path class="st3" d="M108.9,16.7c0,1.2-2,1.2-2,2.5c0,1.2,2,1.2,2,2.5c0,1.2-2,1.2-2,2.5c0,1.2,2,1.2,2,2.5c0,1.2-2,1.2-2,2.5"/>
	</g>
	<g>
		<circle class="st3" cx="172.6" cy="78.7" r="17.8"/>
		<path class="st3" d="M187.1,80.8c-1.1,7.1-7.2,12.5-14.5,12.5c-8,0-14.6-6.4-14.7-14.4"/>
		<path class="st3" d="M159.6,71.6c2.5-4.6,7.3-7.7,12.9-7.7c5.1,0,9.6,2.6,12.3,6.6"/>
		<circle class="st3" cx="172.7" cy="78.8" r="8.5"/>
		<circle class="st3" cx="170.4" cy="73.9" r="0.9"/>
		<circle class="st3" cx="174.9" cy="73.9" r="0.9"/>
		<circle class="st3" cx="175.4" cy="83" r="0.9"/>
		<circle class="st3" cx="175.4" cy="83" r="0.9"/>
		<circle class="st3" cx="175.4" cy="83" r="0.9"/>
		<circle class="st3" cx="169.8" cy="83" r="0.9"/>
		<circle class="st3" cx="167.7" cy="78" r="0.9"/>
		<circle class="st3" cx="177.5" cy="78.2" r="0.9"/>
		<circle class="st3" cx="172.9" cy="78.6" r="2.2"/>
		<path class="st3" d="M165.7,63.1c0,0-0.3,0.3-0.4,0.8c0,0.3,0.1,0.8,0.1,0.8"/>
		<path class="st3" d="M161.9,65.4c0,0-0.2,0.4-0.1,0.9c0,0.3,0.3,0.7,0.3,0.7"/>
		<path class="st3" d="M158.9,68.6c0,0-0.1,0.4,0.1,0.9c0.1,0.3,0.5,0.6,0.5,0.6"/>
		<path class="st3" d="M156.8,72.5c0,0,0,0.4,0.3,0.8c0.2,0.2,0.6,0.5,0.6,0.5"/>
		<path class="st3" d="M155.7,76.8c0,0,0.1,0.4,0.5,0.7c0.2,0.2,0.7,0.3,0.7,0.3"/>
		<path class="st3" d="M155.8,81.2c0,0,0.2,0.4,0.7,0.6c0.3,0.1,0.8,0.1,0.8,0.1"/>
		<path class="st3" d="M157.1,85.4c0,0,0.3,0.3,0.8,0.4c0.3,0,0.8-0.1,0.8-0.1"/>
		<path class="st3" d="M159.2,89.2c0,0,0.4,0.2,0.9,0.1c0.3,0,0.7-0.3,0.7-0.3"/>
		<path class="st3" d="M162.5,92.2c0,0,0.4,0.1,0.9-0.1c0.3-0.1,0.6-0.5,0.6-0.5"/>
		<path class="st3" d="M166.4,94.3c0,0,0.4,0,0.8-0.3c0.2-0.2,0.5-0.6,0.5-0.6"/>
		<path class="st3" d="M170.7,95.4c0,0,0.4-0.1,0.7-0.5c0.2-0.2,0.3-0.7,0.3-0.7"/>
		<path class="st3" d="M175.1,95.3c0,0,0.4-0.2,0.6-0.7c0.1-0.3,0.1-0.8,0.1-0.8"/>
		<path class="st3" d="M179.2,94c0,0,0.3-0.3,0.4-0.8c0-0.3-0.1-0.8-0.1-0.8"/>
		<path class="st3" d="M183.1,91.7c0,0,0.2-0.4,0.1-0.9c0-0.3-0.3-0.7-0.3-0.7"/>
		<path class="st3" d="M186.1,88.5c0,0,0.1-0.4-0.1-0.9c-0.1-0.3-0.5-0.6-0.5-0.6"/>
		<path class="st3" d="M188.2,84.7c0,0,0-0.4-0.3-0.8c-0.2-0.2-0.6-0.5-0.6-0.5"/>
		<path class="st3" d="M189.2,80.4c0,0-0.1-0.4-0.5-0.7c-0.2-0.2-0.7-0.3-0.7-0.3"/>
		<path class="st3" d="M189.2,76c0,0-0.2-0.4-0.7-0.6c-0.3-0.1-0.8-0.1-0.8-0.1"/>
		<path class="st3" d="M187.9,71.8c0,0-0.3-0.3-0.8-0.4c-0.3,0-0.8,0.1-0.8,0.1"/>
		<path class="st3" d="M185.6,68c0,0-0.4-0.2-0.9-0.1c-0.3,0-0.7,0.3-0.7,0.3"/>
		<path class="st3" d="M182.5,65c0,0-0.4-0.1-0.9,0.1c-0.3,0.1-0.6,0.5-0.6,0.5"/>
		<path class="st3" d="M178.6,62.8c0,0-0.4,0-0.8,0.3c-0.2,0.2-0.5,0.6-0.5,0.6"/>
		<path class="st3" d="M174.2,61.8c0,0-0.4,0.1-0.7,0.5c-0.2,0.2-0.3,0.7-0.3,0.7"/>
		<path class="st3" d="M169.9,61.9c0,0-0.4,0.2-0.6,0.7c-0.1,0.3-0.1,0.8-0.1,0.8"/>
	</g>
	<g>
		<path class="st3" d="M269.2,53.9h-27c-1.6,0-2.8-1.3-2.8-2.8V35c0-1.6,1.3-2.8,2.8-2.8h27c1.6,0,2.8,1.3,2.8,2.8v16
			C272,52.6,270.9,53.9,269.2,53.9z"/>
		<path class="st3" d="M241.7,34.3l11.2,8.8c1.6,1.2,3.8,1.2,5.4,0l11-8.5"/>
		<line class="st3" x1="245.5" y1="33.9" x2="265.5" y2="33.9"/>
		<path class="st3" d="M241.8,40.8v8.9c0,1.2,1,2.2,2.2,2.2h9.9"/>
	</g>
	<g>
		<circle class="st3" cx="377" cy="34" r="5"/>
		<path class="st4" d="M386.4,34.8c-1.2-0.9-1.9-2.4-1.9-4c0-2.8,2.3-5.1,5.1-5.1c2.8,0,5.1,2.3,5.1,5.1c0,1.6-0.8,3.1-1.9,4"/>
		<circle class="st4" cx="389.7" cy="38.8" r="5.1"/>
		<circle class="st4" cx="401.8" cy="34.7" r="5.1"/>
		<path class="st4" d="M386.2,34.7c0,0-1.3,0.7-2.4,2.2c-0.9,1.5-1.1,2.7-1.1,2.7"/>
		<path class="st4" d="M393.1,34.7c0,0,1.3,0.7,2.4,2.2c0.9,1.5,1.1,2.7,1.1,2.7"/>
		<path class="st4" d="M373.5,37.6c0,0-2.7,2.3-3.4,5.4c-0.7,3.1-0.3,6-0.3,6s2.8,1.5,6,1.6s6.2-0.7,6.2-0.7"/>
		<path class="st4" d="M380.7,37.5c0,0,1.9,1.3,2.8,3.5c0.8,2,0.9,2.6,0.9,2.6"/>
		<path class="st4" d="M393.5,42.3c0,0,2.8,1.7,3.8,5.4c0.9,3.6,0.3,6,0.3,6s-3.4,1.7-8.1,1.7s-7.3-1.6-7.3-1.6s-0.4-3.2,0.5-6.3
			c1.1-4,3.4-5.1,3.4-5.1"/>
		<path class="st4" d="M398.2,38c0,0-1.1,0.8-1.9,2.4c-0.8,1.6-1.3,3.2-1.3,3.2"/>
		<path class="st4" d="M405.6,38.3c0,0,2.2,1.1,3.4,4.7c1.1,3,0.7,6.6,0.7,6.6s-1.9,1.1-5.5,1.5s-6.6-0.1-6.6-0.1"/>
		<path class="st4" d="M397.2,48.6c0,0,0.9,0.5,3.1,0.8c1.6,0.1,2.6,0,2.6,0"/>
		<path class="st4" d="M384.1,52.7c0,0,0.8,0.4,2.8,0.8c1.5,0.3,2.7,0.3,2.7,0.3"/>
		<path class="st4" d="M371.2,47.7c0,0,0.7,0.4,2.8,0.9c1.5,0.4,2.7,0.4,2.7,0.4"/>
	</g>
	<g>
		<path class="st4" d="M324.2,97.8c0,0-12.1-12.5-10.8-22.9c1.2-9.2,11.4-8.8,11.4-8.8s11.3,0,11.5,11.2
			C336.6,85.7,324.2,97.8,324.2,97.8z"/>
		<circle class="st4" cx="324.8" cy="75.5" r="4.5"/>
		<path class="st4" d="M319.1,69.6c0,0-3.5,1.8-3.7,6.2c-0.2,4.4,1.2,6.4,1.2,6.4"/>
	</g>
	<g>
		<path class="st4" d="M401,138.3h-19.5c-0.8,0-1.4-0.6-1.4-1.4v-28.8c0-0.8,0.6-1.4,1.4-1.4H401c0.8,0,1.4,0.6,1.4,1.4v28.8
			C402.3,137.6,401.7,138.3,401,138.3z"/>
		<rect x="382.4" y="109.2" class="st4" width="17.4" height="3.3"/>
		<line class="st4" x1="382.3" y1="114.1" x2="389.2" y2="114.1"/>
		<line class="st4" x1="393" y1="135.9" x2="399.8" y2="135.9"/>
		<rect x="382.3" y="117.5" class="st4" width="2.4" height="2.4"/>
		<rect x="386.1" y="117.5" class="st4" width="2.4" height="2.4"/>
		<rect x="389.8" y="117.5" class="st4" width="2.4" height="2.4"/>
		<rect x="393.6" y="117.5" class="st4" width="2.4" height="2.4"/>
		<rect x="397.3" y="117.5" class="st4" width="2.4" height="2.4"/>
		<rect x="382.3" y="121.7" class="st4" width="2.4" height="2.4"/>
		<rect x="386.1" y="121.7" class="st4" width="2.4" height="2.4"/>
		<rect x="389.8" y="121.7" class="st4" width="2.4" height="2.4"/>
		<rect x="393.6" y="121.7" class="st4" width="2.4" height="2.4"/>
		<rect x="397.3" y="121.7" class="st4" width="2.4" height="2.4"/>
		<rect x="382.3" y="126" class="st4" width="2.4" height="2.4"/>
		<rect x="386.1" y="126" class="st4" width="2.4" height="2.4"/>
		<rect x="389.8" y="126" class="st4" width="2.4" height="2.4"/>
		<rect x="393.6" y="126" class="st4" width="2.4" height="2.4"/>
		<rect x="397.3" y="126" class="st4" width="2.4" height="2.4"/>
		<rect x="382.3" y="130.1" class="st4" width="2.4" height="2.4"/>
		<rect x="386.1" y="130.1" class="st4" width="2.4" height="2.4"/>
		<rect x="389.8" y="130.1" class="st4" width="2.4" height="2.4"/>
		<rect x="393.6" y="130.1" class="st4" width="2.4" height="2.4"/>
		<rect x="397.3" y="130.1" class="st4" width="2.4" height="2.4"/>
	</g>
	<g>
		<circle class="st4" cx="324.6" cy="161.8" r="15.2"/>
		<circle class="st5" cx="324.5" cy="161.8" r="12.4"/>
		<line class="st5" x1="324.5" y1="151" x2="324.5" y2="153.2"/>
		<line class="st5" x1="334.9" y1="161.3" x2="332.6" y2="161.3"/>
		<line class="st5" x1="324.5" y1="171.7" x2="324.5" y2="169.4"/>
		<line class="st5" x1="314.2" y1="161.4" x2="316.5" y2="161.4"/>
		<line class="st5" x1="318.4" y1="153.4" x2="323.6" y2="162"/>
		<line class="st5" x1="325.1" y1="163.2" x2="330.1" y2="167"/>
	</g>
	<g>
		<path class="st5" d="M419.6,207.2h-58.7c-1.8,0-3.3-1.5-3.3-3.3V188c0-1.8,1.5-3.3,3.3-3.3h58.7c1.8,0,3.3,1.5,3.3,3.3v15.9
			C422.9,205.7,421.4,207.2,419.6,207.2z"/>
		<rect x="361.1" y="187.4" class="st5" width="2.3" height="2.3"/>
		<rect x="361.1" y="191" class="st5" width="4.3" height="2.3"/>
		<rect x="364.8" y="187.4" class="st5" width="2.3" height="2.3"/>
		<rect x="366.7" y="191" class="st5" width="2.3" height="2.3"/>
		<rect x="361.1" y="194.6" class="st5" width="2.3" height="2.3"/>
		<rect x="365" y="194.6" class="st5" width="2.3" height="2.3"/>
		<rect x="368.6" y="194.6" class="st5" width="2.3" height="2.3"/>
		<rect x="372.2" y="194.6" class="st5" width="2.3" height="2.3"/>
		<rect x="375.8" y="194.6" class="st5" width="2.3" height="2.3"/>
		<rect x="379.6" y="194.6" class="st5" width="2.3" height="2.3"/>
		<rect x="383.1" y="194.6" class="st5" width="2.3" height="2.3"/>
		<rect x="386.9" y="194.6" class="st5" width="2.3" height="2.3"/>
		<rect x="389.2" y="198.4" class="st5" width="2.3" height="2.3"/>
		<rect x="398.7" y="202.1" class="st5" width="2.3" height="2.3"/>
		<rect x="402.2" y="202.1" class="st5" width="2.3" height="2.3"/>
		<rect x="405.6" y="202.1" class="st5" width="2.3" height="2.3"/>
		<rect x="402.1" y="198.6" class="st5" width="2.3" height="2.3"/>
		<rect x="385.7" y="198.4" class="st5" width="2.3" height="2.3"/>
		<rect x="382.2" y="198.4" class="st5" width="2.3" height="2.3"/>
		<rect x="378.4" y="198.4" class="st5" width="2.3" height="2.3"/>
		<rect x="374.9" y="198.4" class="st5" width="2.3" height="2.3"/>
		<rect x="371.1" y="198.4" class="st5" width="2.3" height="2.3"/>
		<rect x="367.3" y="198.4" class="st5" width="2.3" height="2.3"/>
		<rect x="361.2" y="198.4" class="st5" width="4.5" height="2.3"/>
		<rect x="369.5" y="202.1" class="st5" width="19.5" height="2.3"/>
		<rect x="370.5" y="191" class="st5" width="2.3" height="2.3"/>
		<rect x="374.3" y="191" class="st5" width="2.3" height="2.3"/>
		<rect x="377.8" y="191" class="st5" width="2.3" height="2.3"/>
		<rect x="381.4" y="191" class="st5" width="2.3" height="2.3"/>
		<rect x="384.9" y="191" class="st5" width="2.3" height="2.3"/>
		<rect x="388.5" y="191" class="st5" width="2.3" height="2.3"/>
		<rect x="392.1" y="191" class="st5" width="4.4" height="2.3"/>
		<rect x="368.4" y="187.4" class="st5" width="2.3" height="2.3"/>
		<rect x="372.1" y="187.4" class="st5" width="2.3" height="2.3"/>
		<rect x="375.7" y="187.4" class="st5" width="2.3" height="2.3"/>
		<rect x="379.6" y="187.4" class="st5" width="2.3" height="2.3"/>
		<rect x="383.3" y="187.4" class="st5" width="2.3" height="2.3"/>
		<rect x="387" y="187.4" class="st5" width="2.3" height="2.3"/>
		<rect x="390.7" y="187.4" class="st5" width="2.3" height="2.3"/>
		<rect x="394.3" y="187.4" class="st5" width="2.3" height="2.3"/>
		<rect x="398.2" y="187.4" class="st5" width="2.3" height="2.3"/>
		<rect x="401.8" y="187.4" class="st5" width="2.3" height="2.3"/>
		<rect x="405.5" y="187.4" class="st5" width="2.3" height="2.3"/>
		<rect x="409.2" y="187.4" class="st5" width="2.3" height="2.3"/>
		<rect x="413" y="187.4" class="st5" width="2.3" height="2.3"/>
		<rect x="416.7" y="187.4" class="st5" width="2.3" height="2.3"/>
		<rect x="409.2" y="191.2" class="st5" width="2.3" height="2.3"/>
		<rect x="413" y="191.2" class="st5" width="2.3" height="2.3"/>
		<rect x="416.7" y="191.2" class="st5" width="2.3" height="2.3"/>
		<rect x="409.2" y="194.6" class="st5" width="2.3" height="2.3"/>
		<rect x="413" y="194.6" class="st5" width="2.3" height="2.3"/>
		<rect x="416.7" y="194.6" class="st5" width="2.3" height="2.3"/>
		<rect x="409.2" y="198.1" class="st5" width="2.3" height="2.3"/>
		<rect x="413" y="198.1" class="st5" width="2.3" height="2.3"/>
		<rect x="416.7" y="198.1" class="st5" width="2.3" height="2.3"/>
		<polygon class="st5" points="390.4,194.7 396.5,194.7 396.5,200.4 394.2,200.4 394.2,196.9 390.4,196.9 		"/>
	</g>
	<g>
		<path class="st5" d="M333.6,247.6h-18.7c-1,0-1.8-0.8-1.8-1.8v-14.2c0-1,0.8-1.8,1.8-1.8h18.7c1,0,1.8,0.8,1.8,1.8v14.2
			C335.4,246.8,334.6,247.6,333.6,247.6z"/>
		<path class="st5" d="M330,244.2h-11.4c-0.6,0-1-0.5-1-1v-8.6c0-0.6,0.5-1,1-1H330c0.6,0,1,0.5,1,1v8.6
			C331,243.7,330.6,244.2,330,244.2z"/>
		<line class="st5" x1="319.2" y1="236.4" x2="329.2" y2="236.4"/>
		<line class="st5" x1="320.4" y1="236.4" x2="319.6" y2="238.1"/>
		<path class="st5" d="M317.4,229.8v-16c0,0,0.1-2,2.8-2"/>
		<path class="st5" d="M330.9,229.8v-16c0,0-0.1-2-2.8-2"/>
		<rect x="321.2" y="210.9" class="st5" width="5.5" height="1.9"/>
		<path class="st5" d="M317.5,249.6h-1.2c-0.2,0-0.4-0.2-0.4-0.4v-1.6h2v1.7C317.9,249.5,317.8,249.6,317.5,249.6z"/>
		<path class="st5" d="M332.5,249.6h-1.2c-0.2,0-0.4-0.2-0.4-0.4v-1.6h2v1.7C332.8,249.5,332.6,249.6,332.5,249.6z"/>
	</g>
	<g>
		<path class="st5" d="M263.4,256.3h2.3c1,0,1.8,0.8,1.8,1.8v20c0,1-0.8,1.8-1.8,1.8h-22.8c-1,0-1.8-0.8-1.8-1.8v-20
			c0-1,0.8-1.8,1.8-1.8h1.7"/>
		<line class="st5" x1="247.4" y1="256.3" x2="260.7" y2="256.3"/>
		<path class="st5" d="M246,259.6L246,259.6c-0.7,0-1.3-0.6-1.3-1.3v-4c0-0.7,0.6-1.3,1.3-1.3l0,0c0.7,0,1.3,0.6,1.3,1.3v4
			C247.2,259,246.7,259.6,246,259.6z"/>
		<path class="st5" d="M262,259.6L262,259.6c-0.7,0-1.3-0.6-1.3-1.3v-4c0-0.7,0.6-1.3,1.3-1.3l0,0c0.7,0,1.3,0.6,1.3,1.3v4
			C263.4,259,262.8,259.6,262,259.6z"/>
		<line class="st5" x1="241.1" y1="261.1" x2="267.4" y2="261.1"/>
		<line class="st5" x1="248.7" y1="257.4" x2="259" y2="257.4"/>
		<rect x="243.5" y="263.8" class="st5" width="2.9" height="2.9"/>
		<rect x="248.1" y="263.8" class="st5" width="2.9" height="2.9"/>
		<rect x="252.7" y="263.8" class="st5" width="2.9" height="2.9"/>
		<rect x="257.2" y="263.8" class="st5" width="2.9" height="2.9"/>
		<rect x="261.9" y="263.8" class="st5" width="2.9" height="2.9"/>
		<rect x="243.5" y="268" class="st5" width="2.9" height="2.9"/>
		<rect x="248.1" y="268" class="st5" width="2.9" height="2.9"/>
		<rect x="252.7" y="268" class="st5" width="2.9" height="2.9"/>
		<rect x="257.2" y="268" class="st5" width="2.9" height="2.9"/>
		<rect x="261.9" y="268" class="st5" width="2.9" height="2.9"/>
		<rect x="243.5" y="272.4" class="st5" width="2.9" height="2.9"/>
		<rect x="248.1" y="272.4" class="st5" width="2.9" height="2.9"/>
		<line class="st5" x1="252.9" y1="278.1" x2="263.5" y2="278.1"/>
	</g>
	<path class="st5" d="M398.6,276.4h-35.5c-0.9,0-1.6-0.7-1.6-1.6v-8.7c0-0.9,0.7-1.6,1.6-1.6h35.5c0.9,0,1.6,0.7,1.6,1.6v8.7
		C400.1,275.6,399.4,276.4,398.6,276.4z"/>
	<circle class="st5" cx="366.6" cy="280.4" r="1.8"/>
	<circle class="st5" cx="371" cy="280.4" r="1.8"/>
	<circle class="st5" cx="395.9" cy="280.4" r="1.8"/>
	<circle class="st5" cx="400.2" cy="280.4" r="1.8"/>
	<circle class="st5" cx="420.5" cy="280.4" r="1.8"/>
	<path class="st5" d="M381.6,281.2h-6.9c-0.3,0-0.5-0.2-0.5-0.5v-1.5c0-0.3,0.2-0.5,0.5-0.5h6.9c0.3,0,0.5,0.2,0.5,0.5v1.5
		C382.1,280.9,381.9,281.2,381.6,281.2z"/>
	<path class="st5" d="M393.5,280.9h-1.3v-3.4h11.4v-12.8h6.9c0,0,3-0.1,4.4,1.4s3,6.2,3,6.2h5.9l3.2,3.9v4.5h-3.4"/>
	<line class="st5" x1="403.5" y1="280.8" x2="416.8" y2="280.8"/>
	<path class="st5" d="M405.8,267.3c0,0,3.1,0,4.6,0s2.8,0.2,3.7,1.9s1.5,3.5,1.5,3.5"/>
	<path class="st5" d="M364.1,271.9v-3.7c0,0-0.1-1.5,1.6-1.5s6.9,0,6.9,0"/>
	<g>
		<ellipse class="st5" cx="237.4" cy="190.1" rx="6.9" ry="2.3"/>
		<ellipse class="st5" cx="237.4" cy="190.1" rx="6.9" ry="2.3"/>
		<ellipse class="st5" cx="251.5" cy="192.2" rx="6.9" ry="2.3"/>
		<ellipse class="st5" cx="251.2" cy="192.2" rx="6.9" ry="2.3"/>
		<ellipse class="st5" cx="265.5" cy="183.2" rx="6.9" ry="2.3"/>
		<ellipse class="st5" cx="265.4" cy="183.2" rx="7" ry="2.3"/>
		<path class="st5" d="M230.4,192.2c0,0,0.5,2,6.6,2.1c5.9,0.1,7.2-1.7,7.2-1.7"/>
		<path class="st5" d="M230.4,193.9c0,0,0.5,2,6.6,2.1c5.9,0.1,7.3-1.7,7.3-1.7"/>
		<path class="st5" d="M230.4,195.8c0,0,0.5,2,6.6,2.1c5.9,0.1,7.2-1.7,7.2-1.7"/>
		<path class="st5" d="M230.5,197.6c0,0,0.5,2,6.6,2.1c5.9,0.1,7.2-1.7,7.2-1.7"/>
		<path class="st5" d="M244.2,199.8c0,0-1.3,1.8-7.2,1.7c-6.1-0.1-6.6-2.1-6.6-2.1"/>
		<line class="st5" x1="230.4" y1="199.2" x2="230.4" y2="190.1"/>
		<line class="st5" x1="244.2" y1="190.1" x2="244.2" y2="199.7"/>
		<path class="st5" d="M244.2,194.2c0,0,0.5,2,6.6,2.1c6,0.1,7.3-1.7,7.3-1.7"/>
		<path class="st5" d="M244.2,195.9c0,0,0.5,2,6.7,2.2c6,0.1,7.3-1.7,7.3-1.7"/>
		<path class="st5" d="M244.2,197.7c0,0,0.5,2,6.6,2.1c6,0.1,7.3-1.7,7.3-1.7"/>
		<path class="st5" d="M244.4,199.6c0,0,0.5,2,6.6,2.1c6,0.1,7.3-1.7,7.3-1.7"/>
		<path class="st5" d="M258.4,199.6c0,0,0.5,2,6.6,2.1c6,0.1,7.3-1.7,7.3-1.7"/>
		<path class="st5" d="M258.4,197.8c0,0,0.5,2,6.6,2.1c6,0.1,7.3-1.7,7.3-1.7"/>
		<path class="st5" d="M258.4,196.1c0,0,0.5,2,6.6,2.1c6,0.1,7.3-1.7,7.3-1.7"/>
		<path class="st5" d="M258.4,194.3c0,0,0.5,2,6.6,2.1c6,0.1,7.3-1.7,7.3-1.7"/>
		<path class="st5" d="M258.4,192.5c0,0,0.5,2,6.6,2.1c6,0.1,7.3-1.7,7.3-1.7"/>
		<path class="st5" d="M258.4,190.7c0,0,0.5,2,6.6,2.1c6,0.1,7.3-1.7,7.3-1.7"/>
		<path class="st5" d="M258.4,188.9c0,0,0.5,2,6.6,2.1c6,0.1,7.3-1.7,7.3-1.7"/>
		<path class="st5" d="M258.4,187.1c0,0,0.5,2,6.6,2.1c6,0.1,7.3-1.7,7.3-1.7"/>
		<path class="st5" d="M258.4,185.2c0,0,0.5,2,6.6,2.1c6,0.1,7.3-1.7,7.3-1.7"/>
		<line class="st5" x1="244.2" y1="199.6" x2="244.2" y2="192.1"/>
		<line class="st5" x1="258.4" y1="183.3" x2="258.2" y2="199.9"/>
		<line class="st5" x1="272.4" y1="183.3" x2="272.4" y2="199.9"/>
		<path class="st5" d="M260.9,183.4v-0.1c0-0.7,2.1-1.2,4.8-1.2c0.8,0,1.6,0.1,2.3,0.1"/>
		<path class="st5" d="M246.7,192.4v-0.1c0-0.7,2.1-1.2,4.8-1.2c0.8,0,1.6,0.1,2.3,0.1"/>
		<path class="st5" d="M232.6,190.3v-0.1c0-0.7,2.1-1.2,4.8-1.2c0.8,0,1.6,0.1,2.3,0.1"/>
		<line class="st5" x1="232.2" y1="192.3" x2="232.2" y2="192.9"/>
		<line class="st5" x1="233.2" y1="192.7" x2="233.2" y2="193.2"/>
		<line class="st5" x1="242.6" y1="194.2" x2="242.6" y2="194.7"/>
		<line class="st5" x1="245.8" y1="194.3" x2="245.8" y2="194.8"/>
		<line class="st5" x1="247.2" y1="194.7" x2="247.2" y2="195.3"/>
		<line class="st5" x1="252.6" y1="200.5" x2="252.6" y2="201.1"/>
		<line class="st5" x1="254.6" y1="200.4" x2="254.6" y2="200.9"/>
		<line class="st5" x1="241.2" y1="194.6" x2="241.2" y2="195.1"/>
		<line class="st5" x1="239.1" y1="198.4" x2="239.1" y2="199"/>
		<line class="st5" x1="241.1" y1="198.2" x2="241.1" y2="198.8"/>
		<line class="st5" x1="242.6" y1="197.8" x2="242.6" y2="198.3"/>
		<line class="st5" x1="232.2" y1="195.9" x2="232.2" y2="196.5"/>
		<line class="st5" x1="233.2" y1="196.2" x2="233.2" y2="196.8"/>
		<line class="st5" x1="256" y1="200" x2="256" y2="200.5"/>
		<line class="st5" x1="266.9" y1="200.5" x2="266.9" y2="201.1"/>
		<line class="st5" x1="259.8" y1="187.1" x2="259.8" y2="187.7"/>
		<line class="st5" x1="268.9" y1="200.4" x2="268.9" y2="200.9"/>
		<line class="st5" x1="270.4" y1="200" x2="270.4" y2="200.5"/>
		<line class="st5" x1="261" y1="187.6" x2="261" y2="188.2"/>
	</g>
	<path class="st5" d="M193.4,244.8h-31c-1,0-1.8-0.8-1.8-1.8v-19.3c0-1,0.8-1.8,1.8-1.8h31.1c1,0,1.8,0.8,1.8,1.8V243
		C195.2,244,194.5,244.8,193.4,244.8z"/>
	<line class="st5" x1="177.6" y1="223.7" x2="177.6" y2="243"/>
	<line class="st5" x1="191.5" y1="233.4" x2="163.7" y2="233.4"/>
	<path class="st5" d="M170.9,230.4h-4.7c-0.7,0-1.4-0.6-1.4-1.4v-2c0-0.7,0.6-1.4,1.4-1.4h4.7c0.7,0,1.4,0.6,1.4,1.4v2
		C172.2,229.8,171.6,230.4,170.9,230.4z"/>
	<path class="st5" d="M188.1,237.6l-3.3-3.3c-0.5-0.5-0.5-1.4,0-1.9l1.4-1.4c0.5-0.5,1.4-0.5,1.9,0l3.3,3.3c0.5,0.5,0.5,1.4,0,1.9
		l-1.4,1.4C189.5,238.1,188.6,238.1,188.1,237.6z"/>
	<line class="st5" x1="180.1" y1="223.7" x2="191.1" y2="223.7"/>
	<path class="st5" d="M162.8,235.8v5.7c0,0.9,0.7,1.7,1.7,1.7h7.5"/>
	<circle class="st5" cx="100.2" cy="264.4" r="12"/>
	<circle class="st5" cx="100.2" cy="264.4" r="8.3"/>
	<path class="st5" d="M91.4,258.8c1.8-2.9,5.1-4.8,8.7-4.8c3,0,5.8,1.3,7.7,3.4"/>
	<path class="st5" d="M109,270.3c-1.6,2.5-4.1,4.2-7.1,4.7"/>
	<path class="st5" d="M82.8,252.2h4.9v6.2c0,0,0,0.6-0.8,1c-0.5,0.2-1.1,2.1-0.9,4.9c0.3,2.6,0.9,8.6,0.7,9.6
		c-0.1,1-0.6,1.1-1.3,1.2c-0.7,0-1.7,0.1-1.6-1.3c0-1.4,0.6-7.5,0.7-9.5c0.1-2.3-0.3-4.2-0.5-4.6s-1.2-0.4-1.2-1.1
		C82.9,257.9,82.8,252.2,82.8,252.2z"/>
	<line class="st5" x1="84" y1="252.2" x2="84" y2="257"/>
	<line class="st5" x1="85.1" y1="252.2" x2="85.1" y2="257"/>
	<line class="st5" x1="86.3" y1="252.2" x2="86.3" y2="257"/>
	<path class="st5" d="M85.4,267.3c0,0,0.4,5.8,0.5,6.2c0,0.4,0.1,0.6-0.5,0.7"/>
	<path class="st5" d="M113.9,252.4l0.3,10.7l-0.6,10.6c0,0-0.1,1.1,1.1,1.2s1.4-0.8,1.4-0.8l-0.2-9.9l-0.6-0.6l0.7-1
		c0,0,0.2-5.8,0.3-7.5S115.1,252.4,113.9,252.4z"/>
	<line class="st5" x1="115.4" y1="254.4" x2="115.3" y2="261.5"/>
	<path class="st5" d="M115.2,267.2c0,0,0.2,5.2,0.2,6.2c0,0.6-0.8,0.6-0.8,0.6"/>
	<path class="st5" d="M114,209H96c-1.2,0-2.2-1-2.2-2.2V175c0-1.2,1-2.2,2.2-2.2h18c1.2,0,2.2,1,2.2,2.2v31.8
		C116.2,208,115.2,209,114,209z"/>
	<path class="st5" d="M96.5,180.4v-2.9c0,0-0.1-2.1,2.4-2.1s3.2,0,3.2,0"/>
	<circle class="st5" cx="105.3" cy="202.2" r="2.9"/>
	<path class="st5" d="M176.2,174.3c-0.3-0.5-0.2-1.2-0.2-1.2s0-26.3,0-27.1c0-3,1.1-3.9,1.5-3.9s1.6,0.8,1.6,3.7
		c0,3.6-0.1,27.4-0.1,27.4s0,0.6-0.1,1.1"/>
	<g>
		<path class="st5" d="M175.9,151.7l-13.7,10.1c0,0-0.5,0.3-0.5,1.8c0,1.4,0,4.1,0,4.1l1.2-2.5l13-7.8"/>
		<path class="st5" d="M170.1,156v-2.2c0,0,0.5-0.7,1.4-0.6c0.9,0.1,1.2,0.4,1.2,0.4v0.6"/>
		<path class="st5" d="M170.2,161c0,0-0.2,1.5,1.3,1.5c1.4,0,1.2-1.7,1.2-1.7v-1.5"/>
		<path class="st5" d="M170.7,153.2c0,0,0.2-1,0.7-1s0.6,1,0.6,1"/>
		<path class="st5" d="M165.9,159.1v-2.2c0,0,0.5-0.7,1.4-0.6c0.9,0.1,1.2,0.4,1.2,0.4v0.6"/>
		<path class="st5" d="M166,163.5c0,0-0.2,1.5,1.3,1.5c1.4,0,1.2-1.7,1.2-1.7v-1.5"/>
		<path class="st5" d="M166.6,156.3c0,0,0.2-1,0.7-1s0.6,1,0.6,1"/>
		<line class="st5" x1="163" y1="162.5" x2="173.9" y2="154.3"/>
	</g>
	<g>
		<path class="st5" d="M179.2,151.7l13.7,10.1c0,0,0.5,0.3,0.5,1.8c0,1.4,0,4.1,0,4.1l-1.2-2.5l-13-7.8"/>
		<path class="st5" d="M185,155.9v-2.2c0,0-0.5-0.7-1.4-0.6s-1.2,0.4-1.2,0.4v0.6"/>
		<path class="st5" d="M185,160.9c0,0,0.2,1.5-1.3,1.5c-1.4,0-1.2-1.7-1.2-1.7v-1.5"/>
		<path class="st5" d="M184.4,153.1c0,0-0.2-1-0.7-1s-0.6,1-0.6,1"/>
		<path class="st5" d="M189.2,159v-2.2c0,0-0.5-0.7-1.4-0.6c-0.9,0.1-1.2,0.4-1.2,0.4v0.6"/>
		<path class="st5" d="M189.1,163.4c0,0,0.2,1.5-1.3,1.5c-1.4,0-1.2-1.7-1.2-1.7v-1.5"/>
		<path class="st5" d="M188.6,156.2c0,0-0.2-1-0.7-1s-0.6,1-0.6,1"/>
	</g>
	<path class="st5" d="M176.8,145.6c0,0,0.2-1.3,0.6-1.3s0.7,1.3,0.7,1.3"/>
	<line class="st5" x1="177" y1="162.4" x2="177" y2="170.9"/>
	<path class="st5" d="M176.8,173.1c0,0-0.1,1.9,0.1,3.2s0.5,2.1,0.5,2.1s0.6-1.3,0.7-2.3s0.1-2.9,0.1-2.9"/>
	<polyline class="st5" points="175.4,174.8 173.6,176 173.6,178.6 176.2,177.1 	"/>
	<polyline class="st5" points="179.4,174.8 181.2,176 181.2,178.6 178.6,177.1 	"/>
	<path class="st5" d="M99.6,113.7c0,0-2.4-0.8-4.5-0.7c-2.1,0.2-4.1,1.1-5.4,3.9s-1.9,8.3-0.4,11.5c1.5,3.2,3.9,5.8,9.8,6.5"/>
	<path class="st5" d="M95.2,115.5c0,0-1.4-0.1-2.7,1.5c-1.3,1.7-0.9,3-0.9,3"/>
	<path class="st5" d="M101.7,113.7c0,0,2.4-0.8,4.5-0.7c2.1,0.2,4.1,1.1,5.4,3.9s1.9,8.3,0.4,11.5c-1.5,3.2-3.9,5.8-9.8,6.5"/>
	<path class="st5" d="M102.8,109.3c0,0-0.7,0.2-1.3-0.3c-0.6-0.5-0.8-0.7-0.8-0.7s-1.6,3-0.8,5.8"/>
	<path class="st5" d="M110.4,123.5c0,0,0.6,2.2-0.2,4c-0.8,1.8-2,2.6-2,2.6"/>
	<path class="st5" d="M98.3,135c0,0,0.5,0.9,2,1.1"/>
	<path class="st5" d="M259.7,109.3h-11.5c0,0-3-0.4-3,2.9c0,3.3,0,20.9,0,20.9s0,3,2.4,3s17.6,0,17.6,0s2.8-0.6,2.8-2.5s0-18,0-18"
		/>
	<path class="st5" d="M263.8,107.8v17.4l1.2,2.7l1.1-2.7v-17.4C265.9,107.8,263.8,107.7,263.8,107.8z"/>
	<line class="st5" x1="248.4" y1="112.4" x2="259.6" y2="112.4"/>
	<line class="st5" x1="248.2" y1="114.8" x2="259.7" y2="114.8"/>
	<line class="st5" x1="248.4" y1="117" x2="259.6" y2="117"/>
	<line class="st5" x1="248.2" y1="119.3" x2="259.7" y2="119.3"/>
	<line class="st5" x1="248.4" y1="121.2" x2="259.6" y2="121.2"/>
	<line class="st5" x1="248.2" y1="123.5" x2="255.6" y2="123.5"/>
	<path class="st5" d="M248.2,129.4v2c0,1.2,1,2.2,2.2,2.2h3.1"/>
</g>
<g>
	<path class="st3" d="M33.7,101.9c-0.1,0-0.1,0-0.2,0c-0.1,0-0.1,0-0.2,0H33.7z"/>
	<path class="st3" d="M36.7,78.2c0-1.5-0.3-1.8-1.3-2.4c-0.1,0-0.2-0.1-0.3-0.1l0.6,0.1v-1.4c0,0-0.1-0.5-0.7-0.8
		c-0.5-0.2-0.8-0.3-0.8-0.3V55.4l1.2-1.4v-6H34h-0.7h-1.4v6.1l1.2,1.4v17.9c0,0-0.4,0.1-0.9,0.3c-0.6,0.2-0.6,0.8-0.6,0.8v1.4
		l0.6-0.1c-0.1,0-0.2,0.1-0.3,0.1c-0.9,0.5-1.3,0.9-1.3,2.4c0,1.3,0,19.3,0,20.5c0,1.1,1,3.1,3.1,3.2c2.1-0.1,3.1-2.1,3.1-3.2
		C36.7,97.5,36.7,79.5,36.7,78.2z"/>
</g>
<path class="st3" d="M31.6,75.9c0,0,1-0.5,2.1-0.5s1.8,0.4,1.8,0.4"/>
<path class="st3" d="M32.7,73.4c0,0,0.4-0.1,0.8-0.1c0.4,0,0.8,0.1,0.8,0.1"/>
<line class="st3" x1="32.1" y1="79.5" x2="32.1" y2="97.3"/>
<line class="st3" x1="34.9" y1="79.5" x2="34.9" y2="97.3"/>
<polyline class="st3" points="37.6,141.2 20.7,165.5 29.6,165.5 32.8,158.8 36.2,165.2 44.9,165.2 28.1,141.3 "/>
<line class="st3" x1="32.7" y1="150.7" x2="24.3" y2="163.3"/>
<path class="st3" d="M34.8,235.3c0,0,5.3-2.1,5-9.7c-0.1-5-3.7-8.1-9.4-8c-6.2,0.1-9,4.1-9.1,8.4c-0.1,7.9,5.7,9.6,5.7,9.6
	s0,1.3,0.7,2.3c0.9,1.3,3,1.2,3,1.2s2.4,0,3.2-1.4C34.9,236.3,34.8,235.3,34.8,235.3z"/>
<path class="st3" d="M27.4,237.1v3c0,0,1.1,1.5,3.5,1.5s3.5-1.6,3.5-1.6l0.1-3.2"/>
<path class="st3" d="M27.6,241.7c0,0,0.9,1.2,3.2,1.2c2.2,0,3.4-1.2,3.4-1.2"/>
<path class="st3" d="M27.6,243c0,0,0.9,1.2,3.2,1.2c2.2,0,3.4-1.2,3.4-1.2"/>
<path class="st3" d="M28.9,244.9c0,0,0.5,1.2,2,1.2c1.5,0,2.2-1.2,2.2-1.2"/>
<path class="st3" d="M29.1,235.9c0,0,0.9,0.2,2.1,0.2c1.2-0.1,1.7-0.3,1.7-0.3"/>
<path class="st3" d="M29.1,219.7c0,0-4.9,0.7-5.5,5.3c-0.7,5.2,2,7,2,7"/>
</svg>
