<?xml version="1.0" encoding="utf-8"?>
<!-- Generator: Adobe Illustrator 21.0.2, SVG Export Plug-In . SVG Version: 6.00 Build 0)  -->
<svg version="1.1" id="header-pattern-background" xmlns="http://www.w3.org/2000/svg" xmlns:xlink="http://www.w3.org/1999/xlink"
	 x="0px" y="0px" viewBox="0 0 271.6 212" style="enable-background:new 0 0 271.6 212;" xml:space="preserve">
<style type="text/css">
	.st0{fill:#4508c1;}
</style>
<g>
	<g>
		<path class="st0" d="M17.5,17c0,0.1,0.1,0.2,0.2,0.2s0.2-0.1,0.2-0.2c0-0.4,0.1-0.6,0.3-0.8c0.2-0.2,0.3-0.5,0.3-1
			c0-0.5-0.2-0.8-0.3-1c-0.1-0.2-0.3-0.4-0.3-0.8c0-0.4,0.1-0.6,0.3-0.8c0.2-0.2,0.3-0.5,0.3-1c0-0.5-0.2-0.8-0.3-1
			c-0.1-0.2-0.3-0.4-0.3-0.8c0-0.4,0.1-0.6,0.3-0.8c0.2-0.2,0.3-0.5,0.3-1c0-0.1-0.1-0.2-0.2-0.2S18.1,7.9,18.1,8h0
			c0,0.4-0.1,0.6-0.3,0.8c-0.2,0.2-0.3,0.5-0.3,1c0,0.5,0.2,0.8,0.3,1c0.1,0.2,0.3,0.4,0.3,0.8c0,0.4-0.1,0.6-0.3,0.8
			c-0.2,0.2-0.3,0.5-0.3,1c0,0.5,0.2,0.8,0.3,1c0.1,0.2,0.3,0.4,0.3,0.8c0,0.4-0.1,0.6-0.3,0.8C17.7,16.2,17.5,16.5,17.5,17z"/>
		<path class="st0" d="M22,17c0,0.1,0.1,0.2,0.2,0.2c0.1,0,0.2-0.1,0.2-0.2c0-0.4,0.1-0.6,0.3-0.8c0.2-0.2,0.3-0.5,0.3-1
			c0-0.5-0.2-0.8-0.3-1c-0.1-0.2-0.3-0.4-0.3-0.8c0-0.4,0.1-0.6,0.3-0.8c0.2-0.2,0.3-0.5,0.3-1c0-0.5-0.2-0.8-0.3-1
			c-0.1-0.2-0.3-0.4-0.3-0.8c0-0.4,0.1-0.6,0.3-0.8C22.8,8.7,23,8.5,23,8c0-0.1-0.1-0.2-0.2-0.2S22.6,7.9,22.6,8h0
			c0,0.4-0.1,0.6-0.3,0.8C22.2,9,22,9.3,22,9.8c0,0.5,0.2,0.8,0.3,1c0.1,0.2,0.3,0.4,0.3,0.8c0,0.4-0.1,0.6-0.3,0.8
			c-0.2,0.2-0.3,0.5-0.3,1c0,0.5,0.2,0.8,0.3,1c0.1,0.2,0.3,0.4,0.3,0.8c0,0.4-0.1,0.6-0.3,0.8C22.2,16.2,22,16.5,22,17z"/>
		<path class="st0" d="M26.6,17c0,0.1,0.1,0.2,0.2,0.2s0.2-0.1,0.2-0.2c0-0.4,0.1-0.6,0.3-0.8c0.2-0.2,0.3-0.5,0.3-1
			c0-0.5-0.2-0.8-0.3-1c-0.1-0.2-0.3-0.4-0.3-0.8c0-0.4,0.1-0.6,0.3-0.8c0.2-0.2,0.3-0.5,0.3-1c0-0.5-0.2-0.8-0.3-1
			c-0.1-0.2-0.3-0.4-0.3-0.8c0-0.4,0.1-0.6,0.3-0.8c0.2-0.2,0.3-0.5,0.3-1c0-0.1-0.1-0.2-0.2-0.2c-0.1,0-0.2,0.1-0.2,0.2h0
			c0,0.4-0.1,0.6-0.3,0.8c-0.2,0.2-0.3,0.5-0.3,1c0,0.5,0.2,0.8,0.3,1c0.1,0.2,0.3,0.4,0.3,0.8c0,0.4-0.1,0.6-0.3,0.8
			c-0.2,0.2-0.3,0.5-0.3,1c0,0.5,0.2,0.8,0.3,1c0.1,0.2,0.3,0.4,0.3,0.8c0,0.4-0.1,0.6-0.3,0.8C26.8,16.2,26.6,16.5,26.6,17z"/>
		<path class="st0" d="M34.3,21.4c0-0.1,0-0.1,0-0.2c0-0.3-0.2-0.5-0.3-0.7c-0.3-0.2-0.6-0.4-1-0.4C32.7,20,32.4,20,32.2,20
			c0,0,0,0,0,0v-1.4l0,0c0-0.1,0-0.1-0.1-0.1c0,0-0.1,0-0.1,0l0,0c0,0-0.1,0-0.2,0c-0.6,0-2.5,0-4.8,0c-5.8,0-14.5,0-14.5,0l-0.2,0
			V20c0,0-0.1,0-0.1,0c-0.2,0-0.7,0-1.1,0.2c-0.2,0.1-0.4,0.2-0.6,0.3c-0.2,0.2-0.3,0.4-0.3,0.7c0,0.1,0,0.1,0,0.2
			c0,0.1,0,0.1,0,0.2c0,0.2,0,0.3,0,0.4c0,0.6,0,1,0.2,1.4c0.1,0.2,0.2,0.3,0.4,0.4c0.2,0.1,0.3,0.1,0.6,0.2c0.2,0,0.6,0,0.9,0
			c0.1,0,0.1,0,0.2,0l0,7.3c0,1.7,1.4,3.2,3.2,3.2H29c1.7,0,3.2-1.4,3.2-3.2V24c0,0,0-0.1,0-0.1c0,0,0.1,0,0.1,0c0.3,0,0.7,0,0.9,0
			c0.2,0,0.4-0.1,0.6-0.2c0.2-0.1,0.4-0.4,0.5-0.7c0.1-0.3,0.1-0.7,0.1-1.1c0-0.1,0-0.3,0-0.4C34.3,21.5,34.3,21.4,34.3,21.4z
			 M32.2,20.4c0.2,0,0.7,0,1,0.1c0.2,0.1,0.4,0.1,0.5,0.3c0.1,0.1,0.2,0.2,0.2,0.3c0,0,0,0,0,0c0,0.1,0,0.3,0,0.4
			c0,0.1,0,0.2-0.1,0.3c-0.1,0.2-0.2,0.3-0.4,0.3c-0.2,0.1-0.4,0.1-0.6,0.1c-0.2,0-0.4,0-0.6,0L32.2,20.4
			C32.2,20.4,32.2,20.4,32.2,20.4z M11.5,20.4c0.3-0.1,0.6-0.1,0.7-0.1c0,0,0.1,0,0.1,0l0,0v1.9c-0.3,0-0.6,0-0.7,0
			c-0.3,0-0.6,0-0.8-0.2c-0.1-0.1-0.2-0.1-0.3-0.3c0-0.1-0.1-0.2-0.1-0.3c0-0.1,0-0.3,0-0.4c0,0,0,0,0,0c0-0.1,0.1-0.3,0.2-0.3
			C10.9,20.6,11.2,20.5,11.5,20.4z M11.3,23.6c-0.2,0-0.3,0-0.4-0.1c-0.1-0.1-0.2-0.2-0.3-0.5c-0.1-0.2-0.1-0.4-0.1-0.7
			c0.1,0.1,0.3,0.2,0.4,0.2c0.2,0.1,0.5,0.1,0.7,0.1c0.2,0,0.5,0,0.9,0l0,0l0,0c0.7,0,1.4,0,1.4,0h0l0,0l0,0c0,0,0.2,0,0.3,0.1
			c0,0,0.1,0.1,0.1,0.1c0,0.1,0.1,0.1,0.1,0.2l0,0c0,0.2-0.1,0.3-0.1,0.4c-0.1,0.1-0.2,0.1-0.4,0.1c-0.2,0-0.8,0-1.3,0
			c0,0,0,0-0.1,0c0,0,0,0-0.1,0c-0.1,0-0.2,0-0.3,0C11.8,23.6,11.5,23.6,11.3,23.6z M31.8,24L31.8,24l0,7.2c0,0.8-0.3,1.5-0.8,2
			c-0.5,0.5-1.2,0.8-2,0.8H15.5c-0.8,0-1.5-0.3-2-0.8c-0.5-0.5-0.8-1.2-0.8-2v-7.3c0.5,0,1,0,1.2,0c0.2,0,0.5-0.1,0.6-0.2
			c0.2-0.2,0.2-0.4,0.2-0.6l0,0l0,0c0-0.2,0-0.3-0.1-0.4c-0.1-0.2-0.2-0.3-0.4-0.3c-0.1,0-0.2-0.1-0.3-0.1l0,0v0c0,0-0.6,0-1.2,0
			v-3.5c0.2,0,0.7,0,1.3,0c2.7,0,8.7,0,13.1,0c1.4,0,2.7,0,3.6,0c0.4,0,0.8,0,1,0c0.1,0,0.2,0,0.2,0v3.5c-0.6,0-1.3,0-1.3,0v0l0,0
			c-0.1,0-0.3,0-0.4,0.1c-0.1,0.1-0.2,0.1-0.2,0.2c-0.1,0.1-0.1,0.2-0.1,0.4l0,0v0c0,0.3,0.1,0.5,0.2,0.6c0.2,0.2,0.4,0.2,0.6,0.2
			C30.8,23.9,31.3,23.9,31.8,24C31.9,24,31.8,24,31.8,24z M33.8,23.2c-0.1,0.1-0.1,0.2-0.2,0.3c-0.1,0.1-0.2,0.1-0.4,0.1
			c-0.2,0-0.5,0-0.9,0c-0.7,0-1.4,0-1.7,0c-0.2,0-0.3,0-0.4-0.1c-0.1-0.1-0.1-0.2-0.1-0.4v0l0,0c0-0.1,0-0.2,0.1-0.2
			c0-0.1,0.1-0.1,0.2-0.1c0.1,0,0.2,0,0.2,0l0,0l0,0l0,0h0c0,0,1.7,0,2.3,0c0.3,0,0.6,0,0.9-0.2c0.1,0,0.1-0.1,0.2-0.1
			C33.9,22.7,33.9,23,33.8,23.2z"/>
		<path class="st0" d="M30.2,20.7c0-0.1-0.1-0.2-0.2-0.2H14.2c-0.1,0-0.2,0.1-0.2,0.2s0.1,0.2,0.2,0.2H30
			C30.1,20.9,30.2,20.8,30.2,20.7z"/>
		<path class="st0" d="M28.5,31.8H16.3c-0.1,0-0.2,0.1-0.2,0.2c0,0.1,0.1,0.2,0.2,0.2h12.2c0.1,0,0.2-0.1,0.2-0.2
			C28.7,31.8,28.6,31.8,28.5,31.8z"/>
	</g>
	<g>
		<path class="st0" d="M28.9,79.9c-2.4-1.7-6.2-0.2-6.4-0.1c-0.1,0-0.1,0.1-0.1,0.2c0,0.1,0.1,0.1,0.2,0.1c0,0,3.8-1.5,6,0.1
			c1.6,1.2,2.5,4,2.5,8.2c0,2.9-2.8,7.1-9,7.2h-0.1c-0.3,0-0.6,0-0.9,0c0,0-0.1,0-0.2,0c0,0,0,0,0,0c-5.3-0.5-7.6-3.9-7.9-7
			c-0.2-1.9,0.2-6.5,2.5-8.2c2-1.4,5.2-0.4,5.9-0.2c0.1,0.5,0.2,0.9,0.2,0.9c0,0.1,0.1,0.1,0.2,0.1c0,0,0,0,0,0
			c0.1,0,0.2-0.1,0.1-0.2c0,0-0.1-0.4-0.2-0.9c0-0.1,0-0.1,0-0.2c-0.1-0.6-0.1-1.3,0-1.9c0.1-0.8,0.4-1.3,0.5-1.6
			c0.2,0.2,0.5,0.5,0.8,0.5c0.1,0,0.2,0,0.2-0.1c0-0.1,0-0.2-0.1-0.2c-0.3-0.1-0.7-0.5-0.8-0.6l-0.2-0.2L22,76c0,0-0.4,0.7-0.6,2
			c-0.1,0.5-0.1,1.2,0,1.7c-1-0.3-4-1.2-6,0.3c-2.4,1.8-2.8,6.6-2.6,8.5c0.5,4.9,4.5,7,8.3,7.4c0.1,0.2,0.4,0.6,1,0.6
			c0.1,0,0.2-0.1,0.2-0.2s-0.1-0.2-0.2-0.2c-0.2,0-0.4-0.1-0.5-0.2c0.2,0,0.4,0,0.6,0h0.1c6.5-0.1,9.4-4.4,9.4-7.5
			C31.5,84.1,30.6,81.1,28.9,79.9z"/>
		<path class="st0" d="M15,84.5c0,0.1,0.1,0.2,0.2,0.2c0,0,0,0,0,0c0.1,0,0.2-0.1,0.2-0.2c0-2.9,2-3.2,2.1-3.2
			c0.1,0,0.2-0.1,0.2-0.2c0-0.1-0.1-0.2-0.2-0.2C17.4,81,15.1,81.3,15,84.5z"/>
		<path class="st0" d="M27.6,91.8c-0.1,0.1-0.1,0.2,0,0.3c0,0,0.1,0.1,0.1,0.1c0,0,0.1,0,0.1,0c2.2-1.8,1.7-4.8,1.6-4.9
			c0-0.1-0.1-0.2-0.2-0.1c-0.1,0-0.2,0.1-0.1,0.2C29.1,87.3,29.6,90.1,27.6,91.8z"/>
	</g>
	<g>
		<path class="st0" d="M21.5,182.6c-5,0-9.1,4.1-9.1,9.1c0,5,4.1,9.1,9.1,9.1c5,0,9.1-4.1,9.1-9.1C30.6,186.7,26.6,182.6,21.5,182.6
			z M27.7,197.9c-1.6,1.6-3.8,2.6-6.2,2.6c-2.4,0-4.6-1-6.2-2.6c-1.6-1.6-2.6-3.8-2.6-6.2c0-2.4,1-4.6,2.6-6.2
			c1.6-1.6,3.8-2.6,6.2-2.6c2.4,0,4.6,1,6.2,2.6c1.6,1.6,2.6,3.8,2.6,6.2C30.3,194.1,29.3,196.3,27.7,197.9z"/>
		<path class="st0" d="M21.5,185.3c-3.6,0-6.4,2.9-6.4,6.4c0,3.6,2.9,6.4,6.4,6.4c3.6,0,6.4-2.9,6.4-6.4
			C28,188.2,25.1,185.3,21.5,185.3z M25.9,196.1c-1.1,1.1-2.6,1.8-4.3,1.8c-1.7,0-3.2-0.7-4.3-1.8c-1.1-1.1-1.8-2.6-1.8-4.3
			c0-1.7,0.7-3.2,1.8-4.3c1.1-1.1,2.6-1.8,4.3-1.8c1.7,0,3.2,0.7,4.3,1.8c1.1,1.1,1.8,2.6,1.8,4.3C27.7,193.4,27,194.9,25.9,196.1z"
			/>
		<path class="st0" d="M11.7,182.5h-0.1h-0.3h-0.4h-0.1h-0.3H9.9H9.8H9.4H9H8.7v0.3v4.5c0,0.3,0.2,0.8,0.8,0.9
			c0.2,0.4,0.5,2.2,0.4,3.6c-0.1,1.3-0.6,6.4-0.6,7c0.1,0.7,0.5,1.1,1.2,1.1h0.1c0.7,0,1.1-0.4,1.2-1.1c0.1-0.6-0.4-5.7-0.6-7
			c-0.2-1.4,0.1-3.2,0.4-3.6c0.6-0.1,0.8-0.5,0.8-0.9l0-4.5v-0.3h-0.3H11.7z M12.1,187.3c0,0,0,0.6-0.6,0.6c-0.4,0-0.8,2.4-0.6,4
			c0.2,1.5,0.6,6.4,0.6,6.9s-0.3,0.8-0.9,0.8h-0.1c-0.6,0-0.8-0.3-0.9-0.8c-0.1-0.5,0.4-5.3,0.6-6.9c0.2-1.5-0.2-4-0.6-4
			c-0.5,0-0.6-0.6-0.6-0.6v-4.5h0.5v3.5h0.5v-3.5h0.4v3.5h0.4v-3.5h0.4v3.5h0.5v-3.5h0.4V187.3z"/>
		<path class="st0" d="M33.7,184.9L33.7,184.9c0-0.2,0-0.8-0.5-1.6c-0.2-0.3-0.4-0.5-0.6-0.6c-0.2-0.1-0.4-0.1-0.6-0.1
			c-0.1,0-0.2,0-0.2,0l-0.1,0l0.1,7.3c-0.1,1.4-0.3,7.2-0.3,8.5c0,0.1,0,0.2,0,0.3c0,0.3,0.1,0.5,0.3,0.7c0.2,0.2,0.4,0.2,0.7,0.2
			h0.1c0.3,0,0.6-0.1,0.7-0.2c0.2-0.2,0.3-0.4,0.3-0.7c0-0.1,0-0.2,0-0.3c0-1.4-0.2-6.4-0.2-7.8v-0.1l-0.1,0l-0.3-0.3l0.5-0.7
			L33.7,184.9L33.7,184.9L33.7,184.9L33.7,184.9L33.7,184.9z M33.4,184.9L33.4,184.9l-0.1,4.6l-0.6,0.9l0.5,0.4
			c0,1.5,0.2,6.4,0.2,7.7c0,0.1,0,0.3,0,0.3c0,0.2-0.1,0.4-0.2,0.5c-0.1,0.1-0.3,0.2-0.5,0.2h-0.1c-0.2,0-0.4-0.1-0.5-0.2
			c-0.1-0.1-0.2-0.2-0.2-0.5c0,0,0-0.1,0-0.2c0-1.3,0.3-7.1,0.3-8.5l0,0l-0.1-7c0,0,0,0,0,0c0.1,0,0.3,0,0.4,0.1
			c0.2,0.1,0.3,0.2,0.5,0.5C33.4,184.2,33.4,184.8,33.4,184.9L33.4,184.9z"/>
		<path class="st0" d="M15.4,187.4L15.4,187.4c1.4-2,3.6-3.3,6.2-3.3c2,0,3.9,0.8,5.2,2.1c0.1,0.1,0.2,0.1,0.2,0
			c0.1-0.1,0.1-0.2,0-0.2c-1.4-1.4-3.3-2.2-5.5-2.2c-2.7,0-5.1,1.3-6.5,3.4c-0.1,0.1,0,0.2,0,0.2C15.2,187.5,15.3,187.5,15.4,187.4z
			"/>
		<path class="st0" d="M27.8,196.3L27.8,196.3c-1.1,1.6-2.9,2.8-5,3.2c-0.1,0-0.2,0.1-0.1,0.2c0,0.1,0.1,0.2,0.2,0.1
			c2.1-0.4,4-1.6,5.2-3.3c0.1-0.1,0-0.2,0-0.2C27.9,196.2,27.8,196.2,27.8,196.3z"/>
		<path class="st0" d="M32.7,184.3v4.7c0,0.1,0.1,0.2,0.2,0.2c0.1,0,0.2-0.1,0.2-0.2v-4.7c0-0.1-0.1-0.2-0.2-0.2
			C32.8,184.2,32.7,184.2,32.7,184.3z"/>
		<path class="st0" d="M10.7,193.7c-0.1,0-0.2,0.1-0.2,0.2l0,0c0,0,0,0.2,0,0.6c0,0.6,0.1,1.4,0.1,2.2c0,0.8,0.1,1.4,0.1,1.6
			c0,0.2,0,0.3-0.1,0.4c0,0,0,0-0.1,0.1c0,0-0.1,0-0.1,0c-0.1,0-0.2,0.1-0.2,0.2c0,0.1,0.1,0.2,0.2,0.2c0.1,0,0.2,0,0.3-0.1
			c0.1-0.1,0.2-0.2,0.2-0.3c0-0.1,0-0.3,0-0.4c0-0.1,0-0.4,0-0.9c-0.1-1.3-0.2-3.5-0.2-3.5C10.9,193.8,10.8,193.7,10.7,193.7z"/>
		<path class="st0" d="M32.6,193.8L32.6,193.8c0,0,0,0.8,0,1.8c0,0.9,0,2,0,2.4c0,0.1,0,0.2,0,0.2c0,0.2,0,0.3-0.1,0.4
			c0,0,0,0-0.1,0.1c0,0,0,0-0.1,0l0,0c-0.1,0-0.2,0.1-0.2,0.2c0,0.1,0.1,0.2,0.2,0.2l0,0c0.1,0,0.2,0,0.3-0.1
			c0.1-0.1,0.2-0.2,0.2-0.3c0-0.1,0-0.3,0.1-0.4c0,0,0-0.1,0-0.2c0-0.9-0.1-4.2-0.1-4.2c0-0.1-0.1-0.2-0.2-0.2
			C32.7,193.7,32.6,193.7,32.6,193.8z"/>
	</g>
	<g>
		<path class="st0" d="M244.4,198.5V194c0-1.3-1-2.3-2.3-2.3h-24.6c-1.3,0-2.3,1-2.3,2.3v4.5c0,1.3,1,2.3,2.3,2.3h24.6
			C243.4,200.8,244.4,199.7,244.4,198.5z M215.6,198.5V194c0-1.1,0.9-1.9,1.9-1.9h24.6c1.1,0,1.9,0.9,1.9,1.9v4.5
			c0,1.1-0.9,1.9-1.9,1.9h-24.6C216.5,200.4,215.6,199.5,215.6,198.5z"/>
		<path class="st0" d="M219.4,201.7c-0.8,0-1.4,0.6-1.4,1.4c0,0.8,0.6,1.4,1.4,1.4c0.8,0,1.4-0.6,1.4-1.4
			C220.8,202.4,220.1,201.7,219.4,201.7z M219.4,204.2c-0.6,0-1.1-0.5-1.1-1.1c0-0.6,0.5-1.1,1.1-1.1s1.1,0.5,1.1,1.1
			C220.4,203.7,219.9,204.2,219.4,204.2z"/>
		<path class="st0" d="M222.5,201.7c-0.8,0-1.4,0.6-1.4,1.4c0,0.8,0.6,1.4,1.4,1.4c0.8,0,1.4-0.6,1.4-1.4
			C223.9,202.4,223.3,201.7,222.5,201.7z M222.5,204.2c-0.6,0-1.1-0.5-1.1-1.1c0-0.6,0.5-1.1,1.1-1.1c0.6,0,1.1,0.5,1.1,1.1
			C223.6,203.7,223.1,204.2,222.5,204.2z"/>
		<path class="st0" d="M259.3,201.7c-0.8,0-1.4,0.6-1.4,1.4c0,0.8,0.6,1.4,1.4,1.4c0.8,0,1.4-0.6,1.4-1.4
			C260.7,202.4,260.1,201.7,259.3,201.7z M259.3,204.2c-0.6,0-1.1-0.5-1.1-1.1c0-0.6,0.5-1.1,1.1-1.1c0.6,0,1.1,0.5,1.1,1.1
			C260.3,203.7,259.9,204.2,259.3,204.2z"/>
		<path class="st0" d="M241.1,201.7c-0.8,0-1.4,0.6-1.4,1.4c0,0.8,0.6,1.4,1.4,1.4c0.8,0,1.4-0.6,1.4-1.4
			C242.5,202.4,241.8,201.7,241.1,201.7z M241.1,204.2c-0.6,0-1.1-0.5-1.1-1.1c0-0.6,0.5-1.1,1.1-1.1s1.1,0.5,1.1,1.1
			C242.1,203.7,241.6,204.2,241.1,204.2z"/>
		<path class="st0" d="M244.2,201.7c-0.8,0-1.4,0.6-1.4,1.4c0,0.8,0.6,1.4,1.4,1.4c0.8,0,1.4-0.6,1.4-1.4
			C245.6,202.4,245,201.7,244.2,201.7z M244.2,204.2c-0.6,0-1.1-0.5-1.1-1.1c0-0.6,0.5-1.1,1.1-1.1s1.1,0.5,1.1,1.1
			C245.2,203.7,244.8,204.2,244.2,204.2z"/>
		<path class="st0" d="M228.7,201.1h-2.7c-0.7,0-1.2,0.5-1.2,1.2s0.5,1.2,1.2,1.2h2.7c0.7,0,1.2-0.5,1.2-1.2
			S229.4,201.1,228.7,201.1z M228.7,203.1h-2.7c-0.5,0-0.8-0.4-0.8-0.8c0-0.5,0.4-0.8,0.8-0.8h2.7c0.5,0,0.8,0.4,0.8,0.8
			C229.6,202.7,229.2,203.1,228.7,203.1z"/>
		<path class="st0" d="M257.3,203.4h-11.1c-0.1,0-0.2,0.1-0.2,0.2c0,0.1,0.1,0.2,0.2,0.2h11.1c0.1,0,0.2-0.1,0.2-0.2
			C257.5,203.4,257.4,203.4,257.3,203.4z"/>
		<path class="st0" d="M261.8,197.1h-4.4l-0.9-2.7c0,0-0.3-1.1-1.4-2.1c-1.4-1.2-4-1.1-4.1-1.1h-4.4v9.9l-8.3-0.1v2.7h1
			c0.1,0,0.2-0.1,0.2-0.2c0-0.1-0.1-0.2-0.2-0.2h-0.7v-1.9l8.3,0.1v-9.9l4.1,0c0,0,2.5-0.1,3.8,1c1.1,0.9,1.3,1.9,1.3,1.9l1,2.9h4.4
			l2.1,2.8v3.1h-2.6c-0.1,0-0.2,0.1-0.2,0.2c0,0.1,0.1,0.2,0.2,0.2h2.9v-3.6L261.8,197.1z"/>
		<path class="st0" d="M224.4,193.2h-6c-0.4,0-0.7,0.1-0.9,0.3c-0.4,0.4-0.3,1-0.3,1v2.7c0,0.1,0.1,0.2,0.2,0.2
			c0.1,0,0.2-0.1,0.2-0.2l0-2.7c0,0,0-0.4,0.2-0.7c0.1-0.2,0.4-0.2,0.6-0.2h6c0.1,0,0.2-0.1,0.2-0.2
			C224.6,193.3,224.5,193.2,224.4,193.2z"/>
		<path class="st0" d="M251.5,193.5c0,0,2.1,0,2.7,1.3c0.6,1.4,1.1,2.7,1.1,2.7c0,0.1,0.1,0.1,0.2,0.1c0,0,0,0,0.1,0
			c0.1,0,0.1-0.1,0.1-0.2c0,0-0.5-1.3-1.1-2.7c-0.7-1.6-3-1.5-3.1-1.5h-3.2c-0.1,0-0.2,0.1-0.2,0.2c0,0.1,0.1,0.2,0.2,0.2H251.5z"/>
	</g>
	<g>
		<path class="st0" d="M144,185.5h-1.2v-1.6c0-0.6-0.5-1.1-1.1-1.1c-0.6,0-1.1,0.5-1.1,1.1v1.6H131v-1.6c0-0.6-0.5-1.1-1.1-1.1
			c-0.6,0-1.1,0.5-1.1,1.1v1.6h-1c-1,0-1.9,0.8-1.9,1.9v14.2c0,1,0.8,1.9,1.9,1.9H144c1,0,1.9-0.8,1.9-1.9v-14.2
			C145.9,186.3,145.1,185.5,144,185.5z M140.9,183.9c0-0.5,0.4-0.8,0.8-0.8c0.5,0,0.8,0.4,0.8,0.8v3.5c0,0.5-0.4,0.8-0.8,0.8
			c-0.5,0-0.8-0.4-0.8-0.8V183.9z M129.1,183.9c0-0.5,0.4-0.8,0.8-0.8c0.5,0,0.8,0.4,0.8,0.8v3.5c0,0.5-0.4,0.8-0.8,0.8
			c-0.5,0-0.8-0.4-0.8-0.8V183.9z M127.9,185.7h1v1.7c0,0.6,0.5,1.1,1.1,1.1c0.6,0,1.1-0.5,1.1-1.1v-1.7h9.7v1.7
			c0,0.6,0.5,1.1,1.1,1.1c0.6,0,1.1-0.5,1.1-1.1v-1.7h1.2c0.9,0,1.6,0.7,1.6,1.6v1.8h-19.5v-1.8C126.2,186.5,127,185.7,127.9,185.7z
			 M144,203.2h-16.2c-0.9,0-1.6-0.7-1.6-1.6v-12.1h19.5v12.1C145.7,202.4,144.9,203.2,144,203.2z"/>
		<path class="st0" d="M127.9,193.5h2.4v-2.4h-2.4V193.5z M128.1,191.4h1.9v1.9h-1.9V191.4z"/>
		<path class="st0" d="M141.5,193.5h2.4v-2.4h-2.4V193.5z M141.8,191.4h1.9v1.9h-1.9V191.4z"/>
		<path class="st0" d="M140.5,191.1h-2.4v2.4h2.4V191.1z M140.3,193.3h-1.9v-1.9h1.9V193.3z"/>
		<path class="st0" d="M137.1,191.1h-2.4v2.4h2.4V191.1z M136.9,193.3h-1.9v-1.9h1.9V193.3z"/>
		<path class="st0" d="M131.3,193.5h2.4v-2.4h-2.4V193.5z M131.5,191.4h1.9v1.9h-1.9V191.4z"/>
		<path class="st0" d="M127.9,199.9h2.4v-2.4h-2.4V199.9z M128.1,197.8h1.9v1.9h-1.9V197.8z"/>
		<path class="st0" d="M131.3,199.9h2.4v-2.4h-2.4V199.9z M131.5,197.8h1.9v1.9h-1.9V197.8z"/>
		<path class="st0" d="M127.9,196.7h2.4v-2.4h-2.4V196.7z M128.1,194.6h1.9v1.9h-1.9V194.6z"/>
		<path class="st0" d="M141.5,196.7h2.4v-2.4h-2.4V196.7z M141.8,194.6h1.9v1.9h-1.9V194.6z"/>
		<path class="st0" d="M140.5,194.3h-2.4v2.4h2.4V194.3z M140.3,196.5h-1.9v-1.9h1.9V196.5z"/>
		<path class="st0" d="M137.1,194.3h-2.4v2.4h2.4V194.3z M136.9,196.5h-1.9v-1.9h1.9V196.5z"/>
		<path class="st0" d="M131.3,196.7h2.4v-2.4h-2.4V196.7z M131.5,194.6h1.9v1.9h-1.9V194.6z"/>
		<path class="st0" d="M131.9,186.6h7.6c0.1,0,0.1-0.1,0.1-0.1c0-0.1-0.1-0.1-0.1-0.1h-7.6c-0.1,0-0.1,0.1-0.1,0.1
			C131.8,186.6,131.8,186.6,131.9,186.6z"/>
		<path class="st0" d="M142.9,201.7h-8c-0.1,0-0.1,0.1-0.1,0.1c0,0.1,0.1,0.1,0.1,0.1h8c0.1,0,0.1-0.1,0.1-0.1
			C143,201.8,142.9,201.7,142.9,201.7z"/>
	</g>
	<g>
		<path class="st0" d="M90.9,119.5c0,0,0-0.4,0-1c0-0.6,0-1.3,0-1.8c0-0.5-0.1-0.8-0.2-1c-0.1-0.1-0.1-0.2-0.2-0.2l-2.7-2v-1.6l0,0
			c0,0-0.2-0.2-0.5-0.3c0,0-0.1-0.2-0.1-0.3c-0.1-0.2-0.2-0.4-0.3-0.5c0,0-0.1,0-0.1,0c-0.1,0-0.1,0-0.2,0.1
			c-0.1,0.1-0.1,0.1-0.1,0.2c-0.1,0.2-0.1,0.4-0.1,0.5c-0.3,0.1-0.5,0.2-0.5,0.2l0,0v0.1l-1.1-0.9v-1.6l0,0c0,0-0.2-0.2-0.5-0.3
			c0,0-0.1-0.2-0.1-0.3c-0.1-0.2-0.2-0.4-0.3-0.5c0,0-0.1,0-0.1,0c-0.1,0-0.1,0-0.2,0.1c-0.1,0.1-0.1,0.1-0.1,0.2
			c-0.1,0.2-0.1,0.4-0.1,0.5c-0.3,0.1-0.5,0.2-0.5,0.2l0,0v0.1l-2.3-1.7v-3.9c0-0.2,0-0.4-0.1-0.7c-0.1-0.4-0.2-1-0.4-1.4
			c-0.1-0.2-0.2-0.4-0.3-0.6c-0.1-0.1-0.1-0.1-0.2-0.2c-0.1,0-0.1-0.1-0.2-0.1c-0.1,0-0.2,0.1-0.3,0.1c-0.2,0.1-0.3,0.3-0.4,0.6
			c-0.2,0.4-0.3,0.8-0.4,1.2c-0.1,0.4-0.2,0.8-0.2,1v3.9l-2.3,1.7v0v-0.1l0,0c0,0-0.2-0.1-0.5-0.2c0-0.1,0-0.2-0.1-0.3
			c0-0.1-0.1-0.2-0.1-0.3c0,0,0-0.1-0.1-0.1c0,0-0.1-0.1-0.2-0.1c0,0-0.1,0-0.1,0c-0.1,0.1-0.2,0.3-0.3,0.5
			c-0.1,0.1-0.1,0.3-0.1,0.3c-0.3,0.1-0.5,0.3-0.5,0.3l0,0v1.6l-1.1,0.9v0v-0.1l0,0c0,0-0.2-0.1-0.5-0.2c0-0.1,0-0.2-0.1-0.3
			c0-0.1-0.1-0.2-0.1-0.3c0,0,0-0.1-0.1-0.1c0,0-0.1-0.1-0.2-0.1c0,0-0.1,0-0.1,0c-0.1,0.1-0.2,0.3-0.3,0.5
			c-0.1,0.1-0.1,0.3-0.1,0.3c-0.3,0.1-0.5,0.3-0.5,0.3l0,0v1.6l-2.7,2c0,0-0.1,0.1-0.2,0.2c-0.1,0.2-0.2,0.5-0.2,1
			c0,0.5,0,1.2,0,1.8c0,0.6,0,1,0,1l0,0.5l0.2-0.5c0,0,0-0.1,0.1-0.2c0.1-0.2,0.2-0.4,0.4-0.7c0.1-0.1,0.1-0.2,0.2-0.3
			c0,0,0.1-0.1,0.1-0.1l0,0l0,0l0,0c0,0,0.1,0,0.1-0.1c0.3-0.2,1-0.6,1.9-1.2v0.1c0,0.6,0.5,1,1,1c0.6,0,1-0.5,1-1v-1.3
			c0.4-0.2,0.8-0.5,1.1-0.7v0.1c0,0.6,0.5,1,1,1c0.6,0,1-0.5,1-1v-1.3c0.4-0.2,0.8-0.5,1.1-0.7c0.4-0.2,0.7-0.5,1-0.6
			c0.1-0.1,0.2-0.1,0.2-0.1v12.2c0,0.3,0.1,0.5,0.3,0.7c0,0,0.1,0.1,0.2,0c0,0,0.1-0.1,0-0.2h0c-0.2-0.2-0.3-0.3-0.3-0.5v-20.8
			c0-0.1,0-0.4,0.1-0.7c0.1-0.4,0.2-1,0.4-1.4c0.1-0.2,0.2-0.4,0.3-0.5c0-0.1,0.1-0.1,0.1-0.1c0,0,0.1,0,0.1,0c0,0,0.1,0,0.1,0.1
			c0.1,0.1,0.2,0.3,0.3,0.5c0.2,0.3,0.3,0.8,0.4,1.2c0.1,0.4,0.1,0.8,0.1,1v20.8c0,0.2-0.1,0.4-0.3,0.6c0,0,0,0.1,0,0.2
			c0,0,0.1,0,0.2,0c0.2-0.2,0.3-0.4,0.3-0.7v-12.2c0.1,0,0.1,0.1,0.2,0.1c0.4,0.3,1.2,0.7,2,1.3v1.3c0,0.6,0.5,1,1,1
			c0.6,0,1-0.5,1-1V115c0.4,0.2,0.8,0.5,1.1,0.7v1.3c0,0.6,0.5,1,1,1c0.6,0,1-0.5,1-1V117c0.3,0.2,0.5,0.3,0.8,0.5
			c0.4,0.2,0.7,0.4,0.9,0.6c0.1,0.1,0.2,0.1,0.3,0.2c0.1,0,0.1,0.1,0.1,0.1c0,0,0,0,0.1,0.1c0.1,0.2,0.3,0.5,0.4,0.7
			c0.1,0.1,0.1,0.3,0.2,0.4c0,0.1,0.1,0.1,0.1,0.1l0.2,0.5L90.9,119.5z M74.3,108.8c0.1-0.1,0.1-0.2,0.2-0.3c0,0,0,0.1,0,0.1
			c0,0.1,0.1,0.2,0.1,0.4c0,0,0,0,0,0c-0.1,0-0.1,0-0.2,0l-0.1,0c-0.1,0-0.1,0-0.2,0C74.3,108.9,74.3,108.9,74.3,108.8z M73.7,109.5
			c0.1-0.1,0.4-0.3,0.8-0.3l0,0c0.2,0,0.4,0.1,0.6,0.1c0.1,0,0.1,0.1,0.2,0.1l0,0v0.2l-1.6,1.2V109.5z M71.1,111.3
			c0.1-0.1,0.1-0.2,0.2-0.3c0,0,0,0.1,0,0.1c0,0.1,0.1,0.2,0.1,0.4c0,0,0,0,0,0c-0.1,0-0.1,0-0.2,0l-0.1,0c-0.1,0-0.1,0-0.2,0
			C71.1,111.4,71.1,111.3,71.1,111.3z M70.4,112c0.1-0.1,0.4-0.3,0.8-0.3l0,0c0.2,0,0.4,0.1,0.6,0.1c0.1,0,0.1,0.1,0.2,0.1l0,0v0.2
			l-1.6,1.2V112z M72,117.1c0,0.2-0.1,0.4-0.2,0.6c-0.1,0.1-0.3,0.2-0.6,0.2c-0.2,0-0.4-0.1-0.6-0.2c-0.1-0.1-0.2-0.3-0.2-0.6v-0.2
			c0.5-0.3,1-0.6,1.6-1V117.1z M75.3,115.1c0,0.2-0.1,0.4-0.2,0.6c-0.1,0.1-0.3,0.2-0.6,0.2c-0.2,0-0.4-0.1-0.6-0.2
			c-0.1-0.1-0.2-0.3-0.2-0.6v-0.2c0.6-0.3,1.1-0.7,1.6-1V115.1z M73,115c-1.2,0.7-2.4,1.5-3.4,2.1c-0.5,0.3-0.9,0.5-1.1,0.7
			c-0.1,0.1-0.3,0.2-0.3,0.2c-0.1,0-0.1,0.1-0.1,0.1c0,0-0.1,0.1-0.1,0.1c-0.1,0.2-0.3,0.5-0.5,0.8c0,0,0,0,0,0.1c0-0.6,0-1.6,0-2.3
			c0-0.5,0.1-0.8,0.1-0.9c0-0.1,0.1-0.1,0.1-0.1l0,0l0,0l4.6-3.5c0,0,0,0,0,0l5.5-4.2v4.1C77.5,112.2,75.3,113.6,73,115z
			 M86.6,111.1c0-0.1,0-0.1,0.1-0.1c0.1,0.1,0.2,0.2,0.2,0.4c0,0,0,0.1,0.1,0.1c-0.1,0-0.1,0-0.2,0l-0.1,0c-0.1,0-0.1,0-0.2,0
			C86.6,111.3,86.6,111.2,86.6,111.1z M86,111.9c0.1-0.1,0.4-0.2,0.8-0.2l0,0c0.3,0,0.5,0.1,0.6,0.2c0.1,0,0.1,0.1,0.2,0.1l0,0v1.3
			l-1.6-1.2L86,111.9z M83.4,108.6c0-0.1,0-0.1,0.1-0.1c0.1,0.1,0.2,0.2,0.2,0.4c0,0,0,0.1,0.1,0.1c-0.1,0-0.1,0-0.2,0l-0.1,0
			c-0.1,0-0.1,0-0.2,0C83.4,108.9,83.4,108.7,83.4,108.6z M82.8,109.4c0.1-0.1,0.4-0.2,0.8-0.2l0,0c0.3,0,0.5,0.1,0.6,0.2
			c0.1,0,0.1,0.1,0.2,0.1l0,0v1.3l-1.6-1.2L82.8,109.4z M84.4,115.1c0,0.2-0.1,0.4-0.2,0.6c-0.1,0.1-0.3,0.2-0.6,0.2
			c-0.2,0-0.4-0.1-0.6-0.2c-0.1-0.1-0.2-0.3-0.2-0.6v-1.2c0.5,0.3,1,0.6,1.6,1L84.4,115.1z M87.6,117.1c0,0.2-0.1,0.4-0.2,0.6
			c-0.1,0.1-0.3,0.2-0.6,0.2c-0.2,0-0.4-0.1-0.6-0.2c-0.1-0.1-0.2-0.3-0.2-0.6v-1.2c0.6,0.3,1.1,0.7,1.6,1L87.6,117.1z M90.5,118.8
			c-0.1-0.2-0.2-0.3-0.3-0.5c0-0.1-0.1-0.1-0.1-0.2c0,0-0.1-0.1-0.1-0.1c0,0-0.1,0-0.1-0.1c-0.3-0.2-1.1-0.7-2.1-1.3c0,0,0,0,0,0
			c-2.7-1.7-7.1-4.3-7.5-4.6V108l10.1,7.7l0,0c0,0,0.1,0,0.1,0.2c0.1,0.1,0.1,0.4,0.1,0.8c0,0.7,0,1.7,0,2.3
			C90.6,119,90.5,118.9,90.5,118.8z"/>
		<path class="st0" d="M79.5,124.6c0-0.3,0-0.5,0-0.5c0-0.1-0.1-0.1-0.1-0.1c-0.1,0-0.1,0.1-0.1,0.1c0,0,0,0.2,0,0.5
			c0,0.5,0,1.1-0.1,1.6c0,0.4-0.1,0.8-0.2,1.1c0,0.1,0,0.1,0,0.2c-0.1-0.4-0.3-0.9-0.3-1.4v0c0-0.1,0-0.3,0-0.5c0-0.4,0-0.7,0-1.1
			c0-0.3,0-0.5,0-0.5c0-0.1-0.1-0.1-0.1-0.1c-0.1,0-0.1,0.1-0.1,0.1h0c0,0,0,0.9,0,1.6c0,0.2,0,0.3,0,0.5v0c0,0.4,0.1,0.8,0.2,1.2
			c0.1,0.4,0.2,0.6,0.2,0.6l0.1,0.3l0.1-0.3c0,0,0.3-0.9,0.4-1.7C79.5,125.7,79.5,125,79.5,124.6z"/>
		<path class="st0" d="M78.2,126.7l-2,1.1c0-0.2,0-0.5,0-0.7c0-0.2,0-0.4,0-0.5l0,0c0-0.2,0-0.3,0-0.3c0,0,0-0.1,0-0.1
			c0,0,0-0.1,0.1-0.1l0,0c0.1,0,0.2-0.1,0.3-0.2c0.2-0.1,0.4-0.3,0.6-0.4c0.2-0.1,0.3-0.2,0.3-0.2c0.1,0,0.1-0.1,0-0.2
			s-0.1-0.1-0.2,0h0c0,0-0.2,0.1-0.5,0.3c-0.1,0.1-0.3,0.2-0.4,0.2c-0.1,0.1-0.2,0.1-0.3,0.2l0,0c-0.1,0.1-0.1,0.1-0.2,0.2
			c-0.1,0.1-0.1,0.2-0.1,0.3c0,0.1,0,0.2,0,0.3l0,0c0,0.1,0,0.3,0,0.5c0,0.4,0,0.9,0,0.9l0,0.2l2.3-1.4c0.1,0,0.1-0.1,0-0.2
			C78.3,126.7,78.3,126.6,78.2,126.7z"/>
		<path class="st0" d="M81.8,126.6c0-0.1,0-0.2,0-0.4c0-0.1,0-0.1-0.1-0.2c0-0.1-0.1-0.1-0.2-0.2l0,0c-0.1-0.1-0.2-0.1-0.3-0.2
			c-0.4-0.2-0.9-0.6-0.9-0.6c-0.1,0-0.1,0-0.2,0s0,0.1,0,0.2h0c0,0,0.2,0.1,0.5,0.3c0.1,0.1,0.3,0.2,0.4,0.2
			c0.1,0.1,0.2,0.1,0.3,0.2l0,0c0.1,0,0.1,0.1,0.1,0.1c0,0,0,0.1,0,0.1c0,0.1,0,0.2,0,0.3l0,0c0,0.1,0,0.3,0,0.5c0,0.3,0,0.5,0,0.7
			l-2-1.1c-0.1,0-0.1,0-0.2,0c0,0.1,0,0.1,0,0.2l2.3,1.4l0-0.2c0,0,0-0.5,0-0.9C81.8,126.9,81.8,126.7,81.8,126.6L81.8,126.6z"/>
		<path class="st0" d="M78.5,103.9L78.5,103.9C78.5,103.9,78.5,103.9,78.5,103.9c0-0.1,0.1-0.3,0.2-0.5c0-0.1,0.1-0.2,0.2-0.2
			C78.9,103,79,103,79,103c0.1,0,0.1,0,0.2,0.1c0.1,0.1,0.2,0.3,0.2,0.4c0,0.1,0,0.1,0.1,0.2c0,0,0,0,0,0.1l0,0
			c0,0.1,0.1,0.1,0.1,0.1c0.1,0,0.1-0.1,0.1-0.1c0,0,0-0.2-0.1-0.5c-0.1-0.1-0.1-0.2-0.2-0.4c-0.1-0.1-0.2-0.2-0.4-0.2
			c-0.2,0-0.3,0.1-0.4,0.2c-0.1,0.2-0.2,0.4-0.3,0.5c-0.1,0.2-0.1,0.3-0.1,0.3c0,0.1,0,0.1,0.1,0.1C78.4,104,78.5,103.9,78.5,103.9z
			"/>
		<path class="st0" d="M76.3,110c0-0.1-0.1-0.1-0.2,0l-7.9,6c-0.1,0-0.1,0.1,0,0.2s0.1,0.1,0.2,0l7.9-6
			C76.4,110.1,76.4,110.1,76.3,110z"/>
		<path class="st0" d="M78.7,116.1c-0.1,0-0.1,0.1-0.1,0.1v6.6c0,0.1,0.1,0.1,0.1,0.1c0.1,0,0.1-0.1,0.1-0.1v-6.6
			C78.8,116.2,78.7,116.1,78.7,116.1z"/>
		<path class="st0" d="M78.8,104.9c0-0.1-0.1-0.1-0.1-0.1c-0.1,0-0.1,0.1-0.1,0.1v5.9c0,0.1,0.1,0.1,0.1,0.1c0.1,0,0.1-0.1,0.1-0.1
			V104.9z"/>
	</g>
	<g>
		<path class="st0" d="M89.4,160H69.1c-1.6,0-2.9,1.3-2.9,2.9v11.5c0,1.6,1.3,2.9,2.9,2.9h20.3c1.6,0,2.9-1.3,2.9-2.9v-11.5
			C92.3,161.3,91,160,89.4,160z M67.3,176.3c-0.5-0.5-0.8-1.1-0.8-1.8v-11.5c0-0.7,0.3-1.4,0.8-1.8c0.5-0.5,1.1-0.8,1.8-0.8h20.3
			c0.7,0,1.4,0.3,1.8,0.8c0.5,0.5,0.8,1.1,0.8,1.8v5.6h-3.2l-2.1-2.1c-0.2-0.2-0.4-0.2-0.6-0.2c-0.2,0-0.4,0.1-0.6,0.2l-1.5,1.5
			c-0.2,0.2-0.2,0.4-0.2,0.6c0,0,0,0,0,0h-4.7v-6.7c0-0.1-0.1-0.2-0.2-0.2c-0.1,0-0.2,0.1-0.2,0.2v6.7H67.7c-0.1,0-0.2,0.1-0.2,0.2
			s0.1,0.2,0.2,0.2h11.1v8.2h-9.7C68.4,177,67.8,176.7,67.3,176.3z M84.3,168.9h4.3l0.9,0.9c0.1,0.1,0.1,0.2,0.1,0.3
			c0,0.1,0,0.2-0.1,0.3l-1.5,1.5c-0.1,0.1-0.2,0.1-0.3,0.1c-0.1,0-0.2,0-0.3-0.1l-0.1,0.1l0.1-0.1L84.3,168.9z M84.2,168.5
			C84.2,168.5,84.2,168.5,84.2,168.5c0-0.1,0-0.3,0.1-0.4l1.5-1.5c0.1-0.1,0.2-0.1,0.3-0.1c0.1,0,0.2,0,0.3,0.1l1.8,1.8H84.2z
			 M91.3,176.3c-0.5,0.5-1.1,0.8-1.8,0.8H79.1v-8.2h4.8c0,0.1,0.1,0.1,0.1,0.2l3,3l0,0c0.2,0.2,0.4,0.2,0.6,0.2
			c0.2,0,0.4-0.1,0.6-0.2l1.5-1.5c0.2-0.2,0.2-0.4,0.2-0.6c0-0.2-0.1-0.4-0.2-0.6l-0.6-0.6H92v5.6C92,175.2,91.7,175.8,91.3,176.3z"
			/>
		<path class="st0" d="M70.2,166.5h4.3c0.4,0,0.8-0.4,0.8-0.8v-2.1c0-0.4-0.4-0.8-0.8-0.8h-4.3c-0.4,0-0.8,0.4-0.8,0.8v2.1
			C69.4,166.2,69.7,166.5,70.2,166.5z M69.7,163.6c0-0.3,0.2-0.5,0.5-0.5h4.3c0.3,0,0.5,0.2,0.5,0.5v2.1c0,0.3-0.2,0.5-0.5,0.5h-4.3
			c-0.3,0-0.5-0.2-0.5-0.5V163.6z"/>
		<path class="st0" d="M76,175.7c0,0-4.6,0-6.5,0c-0.4,0-0.7-0.1-0.9-0.2c-0.3-0.2-0.5-0.5-0.6-0.7c-0.1-0.3-0.1-0.5-0.1-0.6l0,0
			l0,0l0,0V170c0-0.1-0.1-0.2-0.2-0.2c-0.1,0-0.2,0.1-0.2,0.2h0v4.1c0,0,0,0,0,0c0,0.1,0,0.6,0.3,1c0.1,0.2,0.3,0.4,0.6,0.6
			c0.3,0.2,0.6,0.3,1.1,0.3c1.9,0,6.5,0,6.5,0c0.1,0,0.2-0.1,0.2-0.2S76.1,175.7,76,175.7z"/>
		<path class="st0" d="M80.9,161.7h8c0.1,0,0.2-0.1,0.2-0.2c0-0.1-0.1-0.2-0.2-0.2h-8c-0.1,0-0.2,0.1-0.2,0.2
			C80.8,161.6,80.8,161.7,80.9,161.7z"/>
	</g>
	<g>
		<path class="st0" d="M30.8,123.6H19.7c-1.6,0-2.9,1.3-2.9,2.9v21.4c0,1.6,1.3,2.9,2.9,2.9h11.2c1.6,0,2.9-1.3,2.9-2.9v-21.4
			C33.7,124.9,32.4,123.6,30.8,123.6z M33.3,147.9c0,0.7-0.3,1.3-0.7,1.8c-0.5,0.5-1.1,0.7-1.8,0.7H19.7c-0.7,0-1.3-0.3-1.8-0.7
			c-0.5-0.5-0.7-1.1-0.7-1.8v-21.4c0-0.7,0.3-1.3,0.7-1.8c0.5-0.5,1.1-0.7,1.8-0.7h11.2c0.7,0,1.3,0.3,1.8,0.7
			c0.5,0.5,0.7,1.1,0.7,1.8V147.9z"/>
		<path class="st0" d="M22.8,125.5h-1.9c-1.1,0-2.1,0.9-2.1,2.1v1.8c0,0.1,0.1,0.2,0.2,0.2c0.1,0,0.2-0.1,0.2-0.2h0v-1.8
			c0-0.5,0.2-0.9,0.5-1.2c0.3-0.3,0.7-0.5,1.2-0.5h1.9c0.1,0,0.2-0.1,0.2-0.2S22.9,125.5,22.8,125.5z"/>
		<path class="st0" d="M25.5,143.3c-1.2,0-2.2,1-2.2,2.2c0,1.2,1,2.2,2.2,2.2c1.2,0,2.2-1,2.2-2.2C27.8,144.3,26.8,143.3,25.5,143.3
			z M26.9,146.9c-0.3,0.3-0.8,0.5-1.3,0.5c-0.5,0-1-0.2-1.3-0.5c-0.3-0.3-0.5-0.8-0.5-1.3c0-0.5,0.2-1,0.5-1.3
			c0.3-0.3,0.8-0.5,1.3-0.5c0.5,0,1,0.2,1.3,0.5c0.3,0.3,0.5,0.8,0.5,1.3C27.4,146.1,27.2,146.6,26.9,146.9z"/>
	</g>
	<g>
		<path class="st0" d="M149.6,132.9C149.6,132.9,149.6,132.9,149.6,132.9l0-1.4c0,0,0,0,0,0c0-1.2-2.7-1.9-5.3-1.9
			c-2.6,0-5.3,0.6-5.3,1.9v1.4c0,0,0,0,0,0c0,0,0,0,0,0v1.3v0v1.3c0,0,0,0,0,0c0,0,0,0,0,0v1.3v0v0.6c-0.8-0.8-3-1.2-5-1.2
			c-2.1,0-4.2,0.4-5,1.2v-0.8c0,0,0,0,0,0c0-1.2-2.7-1.9-5.3-1.9c-2.6,0-5.3,0.6-5.3,1.9v1.4c0,0,0,0,0,0c0,0,0,0,0,0v1.3v0v1.3v0
			v1.3c0,0,0,0,0,0c0,0,0,0,0,0v1.4c0,1.2,2.7,1.9,5.3,1.9c2.4,0,4.5-0.5,5.1-1.3c0.5,1,2.9,1.5,5.2,1.5c2.5,0,4.6-0.6,5.2-1.4
			c0.6,0.9,3,1.4,5.2,1.4c2.9,0,5.2-0.7,5.3-1.8v-1.3v-0.1c0,0,0,0,0,0c0,0,0,0,0,0V141V141c0,0,0,0,0,0c0,0,0,0,0,0v-1.2v-0.1
			c0,0,0,0,0,0c0,0,0,0,0,0v-1.2v-0.1c0,0,0,0,0,0c0,0,0,0,0,0v-1.2V137c0,0,0,0,0,0c0,0,0,0,0,0v-1.2v0c0,0,0,0,0,0c0,0,0,0,0,0
			v-1.2v-0.1c0,0,0,0,0,0c0,0,0,0,0,0L149.6,132.9C149.6,132.9,149.6,132.9,149.6,132.9z M139.2,137.7c0.8,0.8,2.9,1.2,5,1.2
			c2.2,0,4-0.4,4.8-1.1c0.1,0,0.1-0.1,0.1-0.1l0,0.6c0,0,0,0,0,0l0,0c-0.1,0.7-2.1,1.5-5,1.5c-2.9,0-5-0.8-5-1.5V137.7z
			 M144.2,136.1c1.7,0,3.2-0.3,4.2-0.7c0.3-0.1,0.6-0.3,0.8-0.5l0,0.7c0,0,0,0,0,0l0,0c0,0,0,0,0,0c-0.1,0.7-2.2,1.4-5,1.4
			c-2.9,0-5-0.8-5-1.5V135C140.1,135.7,142.2,136.1,144.2,136.1z M144.2,137.5c2,0,4.2-0.4,5-1.2l0,0.6c0,0,0,0,0,0l0,0
			c-0.1,0.7-2.1,1.5-5,1.5c-2.9,0-5-0.8-5-1.5v-0.6C140.1,137.1,142.2,137.5,144.2,137.5z M138.9,140.9
			C138.9,140.9,138.9,140.9,138.9,140.9L138.9,140.9c-0.1,0.7-2.1,1.5-5,1.5c-2.9,0-5-0.8-5-1.5v-0.6c0.8,0.8,2.9,1.2,5,1.2
			c2,0,4.2-0.4,5-1.2L138.9,140.9z M149.2,140.9C149.2,140.9,149.2,140.9,149.2,140.9L149.2,140.9c-0.1,0.7-2.1,1.5-5,1.5
			c-2.9,0-5-0.8-5-1.5v-0.6c0.8,0.8,2.9,1.2,5,1.2c2.3,0,4.2-0.5,5-1.2L149.2,140.9z M149.2,139.6c-0.1,0.7-2.1,1.5-5,1.5
			c-2.9,0-5-0.8-5-1.5V139c0.8,0.8,2.9,1.2,5,1.2c2.2,0,4-0.4,4.8-1.1c0.1,0,0.1-0.1,0.1-0.1L149.2,139.6
			C149.2,139.6,149.2,139.6,149.2,139.6L149.2,139.6z M128.9,142.3v-0.6c0.8,0.8,2.9,1.2,5,1.2c2.2,0,4-0.4,4.8-1.1
			c0.1,0,0.1-0.1,0.1-0.1l0,0.6c0,0,0,0,0,0l0,0c-0.1,0.7-2.1,1.5-5,1.5C130.9,143.8,128.9,143,128.9,142.3z M139.2,142.3v-0.6
			c0.8,0.8,2.9,1.2,5,1.2c2.2,0,4-0.4,4.8-1.1c0.1,0,0.1-0.1,0.1-0.1l0,0.6c0,0,0,0,0,0l0,0c-0.1,0.7-2.1,1.5-5,1.5
			C141.3,143.8,139.2,143,139.2,142.3z M138.9,139.6C138.9,139.6,138.9,139.6,138.9,139.6L138.9,139.6
			C138.9,139.7,138.9,139.7,138.9,139.6c-0.1,0.8-2.2,1.5-5,1.5c-2.9,0-5-0.8-5-1.5v-0.7c0.8,0.8,2.9,1.2,5,1.2c2,0,4.2-0.4,5-1.2
			L138.9,139.6z M128.5,138.1C128.5,138.1,128.5,138.1,128.5,138.1L128.5,138.1C128.5,138.1,128.5,138.1,128.5,138.1
			c-0.1,0.8-2.2,1.5-5,1.5c-2.9,0-5-0.8-5-1.5v-0.7c0.8,0.8,2.9,1.2,5,1.2c2,0,4.2-0.4,5-1.2L128.5,138.1z M123.5,139.9
			c2,0,4.2-0.4,5-1.2l0,0.6c0,0,0,0,0,0l0,0c-0.1,0.7-2.1,1.5-5,1.5c-2.9,0-5-0.8-5-1.5v-0.6C119.4,139.5,121.5,139.9,123.5,139.9z
			 M123.5,141.3c2.2,0,4-0.4,4.8-1.1c0.1,0,0.1-0.1,0.1-0.1l0,0.6c0,0,0,0,0,0l0,0c-0.1,0.7-2.1,1.5-5,1.5c-2.9,0-5-0.8-5-1.5v-0.6
			C119.4,140.9,121.5,141.3,123.5,141.3z M123.5,142.6c2.2,0,4-0.4,4.8-1.1c0.1,0,0.1-0.1,0.1-0.1l0,0.6l0,0l0,0l0,0c0,0,0,0,0,0
			l0,0c0,0,0,0,0,0c-0.1,0.7-2.2,1.4-5,1.4c-2.9,0-5-0.8-5-1.5c0,0,0,0,0,0c0,0,0,0,0-0.1v-0.5C119.4,142.2,121.5,142.6,123.5,142.6
			z M149.2,134.2C149.2,134.2,149.2,134.2,149.2,134.2L149.2,134.2c-0.1,0.7-2.1,1.5-5,1.5c-2.9,0-5-0.8-5-1.5v-0.7
			c0.8,0.8,2.9,1.2,5,1.2c2,0,4.2-0.4,5-1.2L149.2,134.2z M149.2,132.9C149.2,132.9,149.2,132.9,149.2,132.9L149.2,132.9
			c-0.1,0.7-2.1,1.5-5,1.5c-2.9,0-5-0.8-5-1.5v-0.7c0.8,0.8,2.9,1.2,5,1.2c2,0,4.2-0.4,5-1.2L149.2,132.9z M144.2,130
			c2.9,0,5,0.8,5,1.5c0,0,0,0,0,0l0,0c-0.1,0.7-2.1,1.5-5,1.5c-2.9,0-5-0.8-5-1.5C139.2,130.8,141.3,130,144.2,130z M133.9,136.7
			c2.9,0,5,0.8,5,1.5c0,0,0,0,0,0l0,0c-0.1,0.7-2.1,1.5-5,1.5c-2.9,0-5-0.8-5-1.5C128.9,137.5,130.9,136.7,133.9,136.7z
			 M123.5,135.2c2.9,0,5,0.8,5,1.5c0,0,0,0,0,0l0,0c-0.1,0.7-2.1,1.5-5,1.5c-2.9,0-5-0.8-5-1.5C118.5,136,120.6,135.2,123.5,135.2z
			 M123.5,145c-2.9,0-5-0.8-5-1.5v-0.7c0.8,0.8,2.9,1.2,5,1.2c2,0,4.2-0.4,5-1.2l0,0.7C128.4,144.2,126.4,145,123.5,145z
			 M133.9,145.1c-2.9,0-5-0.8-5-1.5V143c0.8,0.8,2.9,1.2,5,1.2c2.2,0,4-0.4,4.8-1.1c0.1,0,0.1-0.1,0.1-0.1l0,0.7
			C138.8,144.4,136.7,145.1,133.9,145.1z M144.2,145.1c-2.9,0-5-0.8-5-1.5V143c0.8,0.8,2.9,1.2,5,1.2c2.2,0,4-0.4,4.8-1.1
			c0.1,0,0.1-0.1,0.1-0.1l0,0.7C149.1,144.4,147.1,145.1,144.2,145.1z"/>
		<path class="st0" d="M141.3,131.9c0.1,0,0.2-0.1,0.2-0.2c0-0.2,1-0.7,3-0.7c0.7,0,1.3,0.1,1.8,0.2c0.1,0,0.2,0,0.2-0.2
			c0-0.1,0-0.2-0.2-0.2c-0.6-0.1-1.2-0.2-1.9-0.2c-1.6,0-3.4,0.3-3.4,1.1C141.1,131.8,141.2,131.9,141.3,131.9z"/>
		<path class="st0" d="M130.8,138.7c0.1,0,0.2-0.1,0.2-0.2c0-0.2,1-0.7,3-0.7c0.7,0,1.3,0.1,1.8,0.2c0.1,0,0.2,0,0.2-0.2
			c0-0.1,0-0.2-0.2-0.2c-0.6-0.1-1.2-0.2-1.9-0.2c-1.6,0-3.4,0.3-3.4,1.1C130.6,138.6,130.7,138.7,130.8,138.7z"/>
		<path class="st0" d="M120.3,137c0.1,0,0.2-0.1,0.2-0.2c0-0.2,1-0.7,3-0.7c0.7,0,1.3,0.1,1.8,0.2c0.1,0,0.2,0,0.2-0.2
			c0-0.1,0-0.2-0.2-0.2c-0.6-0.1-1.2-0.2-1.9-0.2c-1.6,0-3.4,0.3-3.4,1.1C120.1,136.9,120.2,137,120.3,137z"/>
		<path class="st0" d="M119.6,138.1c-0.1,0-0.2,0.1-0.2,0.2v0.3c0,0.1,0.1,0.2,0.2,0.2s0.2-0.1,0.2-0.2v-0.3
			C119.8,138.2,119.7,138.1,119.6,138.1z"/>
		<path class="st0" d="M120.5,138.4c-0.1,0-0.2,0.1-0.2,0.2v0.3c0,0.1,0.1,0.2,0.2,0.2c0.1,0,0.2-0.1,0.2-0.2v-0.3
			C120.7,138.5,120.6,138.4,120.5,138.4z"/>
		<path class="st0" d="M127.3,140.2c0.1,0,0.2-0.1,0.2-0.2v-0.3c0-0.1-0.1-0.2-0.2-0.2c-0.1,0-0.2,0.1-0.2,0.2v0.3
			C127.1,140.1,127.2,140.2,127.3,140.2z"/>
		<path class="st0" d="M119.5,141.5c0.1,0,0.2-0.1,0.2-0.2V141c0-0.1-0.1-0.2-0.2-0.2s-0.2,0.1-0.2,0.2v0.3
			C119.3,141.4,119.4,141.5,119.5,141.5z"/>
		<path class="st0" d="M120.4,141.7c0.1,0,0.2-0.1,0.2-0.2v-0.3c0-0.1-0.1-0.2-0.2-0.2c-0.1,0-0.2,0.1-0.2,0.2v0.3
			C120.2,141.7,120.3,141.7,120.4,141.7z"/>
		<path class="st0" d="M126.2,143.1c0.1,0,0.2-0.1,0.2-0.2v-0.3c0-0.1-0.1-0.2-0.2-0.2c-0.1,0-0.2,0.1-0.2,0.2v0.3
			C126,143.1,126.1,143.1,126.2,143.1z"/>
		<path class="st0" d="M124.7,143.3c0.1,0,0.2-0.1,0.2-0.2v-0.3c0-0.1-0.1-0.2-0.2-0.2c-0.1,0-0.2,0.1-0.2,0.2v0.3
			C124.5,143.2,124.6,143.3,124.7,143.3z"/>
		<path class="st0" d="M127.3,142.9c0.1,0,0.2-0.1,0.2-0.2v-0.3c0-0.1-0.1-0.2-0.2-0.2c-0.1,0-0.2,0.1-0.2,0.2v0.3
			C127.1,142.8,127.2,142.9,127.3,142.9z"/>
		<path class="st0" d="M126.3,140.4c0.1,0,0.2-0.1,0.2-0.2V140c0-0.1-0.1-0.2-0.2-0.2c-0.1,0-0.2,0.1-0.2,0.2v0.3
			C126.1,140.3,126.2,140.4,126.3,140.4z"/>
		<path class="st0" d="M136.2,144.1c-0.1,0-0.2,0.1-0.2,0.2v0.3c0,0.1,0.1,0.2,0.2,0.2c0.1,0,0.2-0.1,0.2-0.2v-0.3
			C136.4,144.2,136.3,144.1,136.2,144.1z"/>
		<path class="st0" d="M134.7,144.3c-0.1,0-0.2,0.1-0.2,0.2v0.3c0,0.1,0.1,0.2,0.2,0.2s0.2-0.1,0.2-0.2v-0.3
			C134.9,144.4,134.8,144.3,134.7,144.3z"/>
		<path class="st0" d="M137.3,143.9c-0.1,0-0.2,0.1-0.2,0.2v0.3c0,0.1,0.1,0.2,0.2,0.2c0.1,0,0.2-0.1,0.2-0.2v-0.3
			C137.5,144,137.4,143.9,137.3,143.9z"/>
		<path class="st0" d="M129.7,139.5c-0.1,0-0.2,0.1-0.2,0.2v0.3c0,0.1,0.1,0.2,0.2,0.2c0.1,0,0.2-0.1,0.2-0.2v-0.3
			C129.9,139.6,129.8,139.5,129.7,139.5z"/>
		<path class="st0" d="M130.7,139.9c-0.1,0-0.2,0.1-0.2,0.2v0.3c0,0.1,0.1,0.2,0.2,0.2s0.2-0.1,0.2-0.2v-0.3
			C130.9,140,130.8,139.9,130.7,139.9z"/>
		<path class="st0" d="M146.8,144.1c-0.1,0-0.2,0.1-0.2,0.2v0.3c0,0.1,0.1,0.2,0.2,0.2c0.1,0,0.2-0.1,0.2-0.2v-0.3
			C147,144.2,146.9,144.1,146.8,144.1z"/>
		<path class="st0" d="M145.1,144.2c-0.1,0-0.2,0.1-0.2,0.2v0.3c0,0.1,0.1,0.2,0.2,0.2s0.2-0.1,0.2-0.2v-0.3
			C145.3,144.3,145.2,144.2,145.1,144.2z"/>
		<path class="st0" d="M148.2,143.7c-0.1,0-0.2,0.1-0.2,0.2v0.3c0,0.1,0.1,0.2,0.2,0.2s0.2-0.1,0.2-0.2v-0.3
			C148.4,143.8,148.3,143.7,148.2,143.7z"/>
		<path class="st0" d="M140.1,134.2c-0.1,0-0.2,0.1-0.2,0.2v0.3c0,0.1,0.1,0.2,0.2,0.2c0.1,0,0.2-0.1,0.2-0.2v-0.3
			C140.3,134.3,140.2,134.2,140.1,134.2z"/>
		<path class="st0" d="M141,134.6c-0.1,0-0.2,0.1-0.2,0.2v0.3c0,0.1,0.1,0.2,0.2,0.2s0.2-0.1,0.2-0.2v-0.3
			C141.2,134.7,141.2,134.6,141,134.6z"/>
	</g>
	<g>
		<path class="st0" d="M145.5,81.6c-0.1,0-0.1,0.1-0.1,0.1v12.1c0,1-0.8,1.7-1.7,1.7h-11.9c-1,0-1.7-0.8-1.7-1.7V79.1
			c0-1,0.8-1.7,1.7-1.7h8.1c0.1,0,0.1-0.1,0.1-0.1s-0.1-0.1-0.1-0.1h-8.1c-1.1,0-2,0.9-2,2v14.8c0,1.1,0.9,2,2,2h11.9
			c1.1,0,2-0.9,2-2V81.8C145.7,81.7,145.6,81.6,145.5,81.6z"/>
		<path class="st0" d="M131.9,91.1c-0.1,0-0.1,0.1-0.1,0.1v1.4c0,0.8,0.7,1.5,1.5,1.5h2.7c0.1,0,0.1-0.1,0.1-0.1s-0.1-0.1-0.1-0.1
			h-2.7c-0.7,0-1.3-0.6-1.3-1.3v-1.4C132.1,91.1,132,91.1,131.9,91.1z"/>
		<path class="st0" d="M144.3,88.6l0.1-12.4h-1.9l0,12.3l0.9,1.9L144.3,88.6z M142.7,88.5l0-12h1.4l0,12l-0.7,1.4L142.7,88.5z"/>
		<path class="st0" d="M139.9,79.4h-7.8c-0.1,0-0.1,0.1-0.1,0.1s0.1,0.1,0.1,0.1h7.8c0.1,0,0.1-0.1,0.1-0.1S139.9,79.4,139.9,79.4z"
			/>
		<path class="st0" d="M139.9,80.9h-7.8c-0.1,0-0.1,0.1-0.1,0.1c0,0.1,0.1,0.1,0.1,0.1h7.8c0.1,0,0.1-0.1,0.1-0.1
			C140,81,139.9,80.9,139.9,80.9z"/>
		<path class="st0" d="M139.9,82.6h-7.8c-0.1,0-0.1,0.1-0.1,0.1c0,0.1,0.1,0.1,0.1,0.1h7.8c0.1,0,0.1-0.1,0.1-0.1
			C140,82.6,139.9,82.6,139.9,82.6z"/>
		<path class="st0" d="M139.9,83.8h-7.8c-0.1,0-0.1,0.1-0.1,0.1s0.1,0.1,0.1,0.1h7.8c0.1,0,0.1-0.1,0.1-0.1S139.9,83.8,139.9,83.8z"
			/>
		<path class="st0" d="M140,85.5c0-0.1-0.1-0.1-0.1-0.1h-7.8c-0.1,0-0.1,0.1-0.1,0.1c0,0.1,0.1,0.1,0.1,0.1h7.8
			C139.9,85.7,140,85.6,140,85.5z"/>
		<path class="st0" d="M137,87.2c0-0.1-0.1-0.1-0.1-0.1h-4.8c-0.1,0-0.1,0.1-0.1,0.1c0,0.1,0.1,0.1,0.1,0.1h4.8
			C137,87.3,137,87.2,137,87.2z"/>
	</g>
	<g>
		<path class="st0" d="M147,19.3h-19.9c-1.3,0-2.3,1-2.3,2.3v11.8c0,1.3,1,2.3,2.3,2.3H147c1.3,0,2.3-1,2.3-2.3V21.6
			C149.3,20.3,148.3,19.3,147,19.3z M149,33.4c0,1.1-0.9,2-2,2h-19.9c-1.1,0-2-0.9-2-2V21.6c0-1.1,0.9-2,2-2H147c1.1,0,2,0.9,2,2
			V33.4z"/>
		<path class="st0" d="M147,21.1l-7.7,6.1c-1.2,1-3.2,1-4.4,0l-8.1-6.4c-0.1-0.1-0.2,0-0.2,0c-0.1,0.1,0,0.2,0,0.2l8.1,6.4
			c0.7,0.5,1.5,0.8,2.4,0.8c0.9,0,1.8-0.3,2.4-0.8l7.7-6.1c0.1-0.1,0.1-0.1,0-0.2C147.2,21.1,147.1,21.1,147,21.1z"/>
		<path class="st0" d="M129.5,20.9h14.8c0.1,0,0.1-0.1,0.1-0.1c0-0.1-0.1-0.1-0.1-0.1h-14.8c-0.1,0-0.1,0.1-0.1,0.1
			C129.3,20.8,129.4,20.9,129.5,20.9z"/>
		<path class="st0" d="M135.6,33.9h-7.1c-1.6,0-1.6-1.6-1.6-1.6v-8.1c0-0.1-0.1-0.1-0.1-0.1c-0.1,0-0.1,0.1-0.1,0.1v8.1
			c0,0,0,1.9,1.9,1.9h7.1c0.1,0,0.1-0.1,0.1-0.1C135.7,34,135.6,33.9,135.6,33.9z"/>
	</g>
	<g>
		<path class="st0" d="M194.7,165.8H193l0-11.3c0-1.1-0.9-2-2-2h-0.5c-0.1,0-0.2,0.1-0.2,0.2c0,0.1,0.1,0.2,0.2,0.2h0.5
			c0.4,0,0.8,0.2,1.1,0.5c0.3,0.3,0.5,0.7,0.5,1.1v11.3h-9.7v-11.3c0-0.4,0.2-0.8,0.5-1.1c0.3-0.3,0.7-0.5,1.1-0.5h0.5
			c0.1,0,0.2-0.1,0.2-0.2c0-0.1-0.1-0.2-0.2-0.2h-0.5c-1.1,0-2,0.9-2,2v11.3H181c-0.9,0-1.6,0.7-1.6,1.6v10.3c0,0.9,0.7,1.6,1.6,1.6
			h0.6c-0.1,0.1-0.1,0.2-0.1,0.4v0.3c0,0.4,0.3,0.7,0.7,0.7h0.5c0.4,0,0.7-0.3,0.7-0.7v-0.3c0-0.1,0-0.3-0.1-0.4h9.3
			c-0.1,0.1-0.1,0.2-0.1,0.4v0.3c0,0.4,0.3,0.7,0.7,0.7h0.5c0.4,0,0.7-0.3,0.7-0.7v-0.3c0-0.1,0-0.3-0.1-0.4h0.5
			c0.9,0,1.6-0.7,1.6-1.6v-10.3C196.3,166.6,195.6,165.8,194.7,165.8z M183,180.1c0,0.2-0.1,0.3-0.3,0.3h-0.5
			c-0.2,0-0.3-0.1-0.3-0.3v-0.3c0-0.2,0.1-0.3,0.3-0.3h0.5c0.2,0,0.3,0.1,0.3,0.3V180.1z M193.9,180.1c0,0.2-0.1,0.3-0.3,0.3h-0.5
			c-0.2,0-0.3-0.1-0.3-0.3v-0.3c0-0.2,0.1-0.3,0.3-0.3h0.5c0.2,0,0.3,0.1,0.3,0.3V180.1z M195.9,177.8c0,0.7-0.6,1.3-1.3,1.3H181
			c-0.7,0-1.3-0.6-1.3-1.3v-10.3c0-0.7,0.6-1.3,1.3-1.3h1.6c0,0,0.1,0,0.1,0s0.1,0,0.1,0h11.9c0.7,0,1.3,0.6,1.3,1.3V177.8z"/>
		<path class="st0" d="M182.8,176.9h10.3v-0.2v-8.1h-10.3V176.9z M183.2,169h9.6l0,7.5h-9.6V169z"/>
		<path class="st0" d="M191.6,170.7h-7.4c-0.1,0-0.2,0.1-0.2,0.2c0,0.1,0.1,0.2,0.2,0.2h0.5l-0.5,1c0,0.1,0,0.2,0.1,0.2
			c0.1,0,0.2,0,0.2-0.1l0.5-1.2h6.4c0.1,0,0.2-0.1,0.2-0.2C191.8,170.8,191.7,170.7,191.6,170.7z"/>
		<path class="st0" d="M190,153.2V152h-4.5v1.4h4.5V153.2z M185.9,152.3h3.7v0.7h-3.7V152.3z"/>
	</g>
	<g>
		<path class="st0" d="M188.1,104.1c-6.3,0-11.5,5.1-11.5,11.5s5.1,11.5,11.5,11.5s11.5-5.1,11.5-11.5S194.4,104.1,188.1,104.1z
			 M188.1,126.7c-6.1,0-11.1-5-11.1-11.1s5-11.1,11.1-11.1c6.1,0,11.1,5,11.1,11.1S194.2,126.7,188.1,126.7z"/>
		<path class="st0" d="M188.1,106.1c-5.2,0-9.5,4.3-9.5,9.5s4.3,9.5,9.5,9.5s9.5-4.3,9.5-9.5S193.3,106.1,188.1,106.1z M188.1,124.7
			c-5,0-9.1-4.1-9.1-9.1s4.1-9.1,9.1-9.1c5,0,9.1,4.1,9.1,9.1S193.1,124.7,188.1,124.7z"/>
		<path class="st0" d="M188.1,107.5c-0.1,0-0.2,0.1-0.2,0.2v1.7c0,0.1,0.1,0.2,0.2,0.2c0.1,0,0.2-0.1,0.2-0.2v-1.7
			C188.2,107.5,188.2,107.5,188.1,107.5z"/>
		<path class="st0" d="M188.1,121.1c-0.1,0-0.2,0.1-0.2,0.2v1.7c0,0.1,0.1,0.2,0.2,0.2c0.1,0,0.2-0.1,0.2-0.2v-1.7
			C188.2,121.1,188.2,121.1,188.1,121.1z"/>
		<path class="st0" d="M195.7,115.1H194c-0.1,0-0.2,0.1-0.2,0.2s0.1,0.2,0.2,0.2h1.7c0.1,0,0.2-0.1,0.2-0.2S195.8,115.1,195.7,115.1
			z"/>
		<path class="st0" d="M182.1,115.1h-1.7c-0.1,0-0.2,0.1-0.2,0.2s0.1,0.2,0.2,0.2h1.7c0.1,0,0.2-0.1,0.2-0.2
			S182.2,115.1,182.1,115.1z"/>
		<path class="st0" d="M183.8,109.3c-0.1-0.1-0.2-0.1-0.2-0.1c-0.1,0.1-0.1,0.2-0.1,0.2l3.9,6.4c0,0.1,0.1,0.1,0.2,0.1
			c0,0,0.1,0,0.1,0c0.1-0.1,0.1-0.2,0.1-0.2L183.8,109.3z"/>
		<path class="st0" d="M188.7,116.5c-0.1-0.1-0.2,0-0.2,0c-0.1,0.1,0,0.2,0,0.2l3.6,2.8c0,0,0.1,0,0.1,0c0.1,0,0.1,0,0.1-0.1
			c0.1-0.1,0-0.2,0-0.2L188.7,116.5z"/>
	</g>
	<g>
		<path class="st0" d="M188.2,48c-2,0-3.6,1.6-3.6,3.6s1.6,3.6,3.6,3.6c2,0,3.6-1.6,3.6-3.6S190.2,48,188.2,48z M188.2,54.8
			c-1.8,0-3.2-1.4-3.2-3.2c0-1.8,1.4-3.2,3.2-3.2c1.8,0,3.2,1.4,3.2,3.2C191.4,53.3,190,54.8,188.2,54.8z"/>
		<path class="st0" d="M195.1,47.6c-1.7-2.1-4.3-3.2-7.2-3.2c-2.7,0-5.1,1.1-6.6,2.9c-1.5,1.9-2.1,4.5-1.6,7.3
			c1,5.6,7.8,13.2,8,13.6l0.1,0.2l0.1-0.1c0,0,2-2.1,4-4.8c1.9-2.5,3.3-4.7,4.1-6.6c0.3-0.8,0.6-1.5,0.7-2.2
			C197.4,52.1,196.8,49.6,195.1,47.6z M196.5,54.6c-0.1,0.6-0.4,1.3-0.7,2.1c-0.8,1.8-2.1,4-4,6.5c-1.7,2.3-3.4,4.1-3.9,4.7
			c-1-1.1-6.9-8.2-7.8-13.2c-0.5-2.7,0-5.2,1.5-7c1.4-1.8,3.7-2.8,6.3-2.8c0.1,0,0.1,0,0.2,0c2.6,0,5.1,1.1,6.7,3
			C196.4,49.7,197,52.1,196.5,54.6z"/>
		<path class="st0" d="M183.6,47.3c-0.1,0-1.8,1-2.4,3.6c-0.4,1.8-0.1,3.6,0.7,5.4c0,0.1,0.1,0.1,0.1,0.1c0,0,0,0,0.1,0
			c0.1,0,0.1-0.1,0.1-0.2c-0.8-1.7-1-3.5-0.7-5.2c0.5-2.5,2.2-3.4,2.2-3.4c0.1,0,0.1-0.1,0.1-0.2C183.8,47.3,183.7,47.3,183.6,47.3z
			"/>
	</g>
	<g>
		<path class="st0" d="M225.5,32.9c-0.9,0-1.6-0.2-2.1-0.3c-0.3-0.1-0.5-0.2-0.6-0.2c-0.1,0-0.1-0.1-0.1-0.1l0,0l0,0
			c-0.1-0.1-0.2,0-0.3,0.1c-0.1,0.1,0,0.2,0.1,0.3l0,0c0,0,1.2,0.7,3.1,0.7c0.1,0,0.2-0.1,0.2-0.2C225.7,33,225.6,32.9,225.5,32.9z"
			/>
		<path class="st0" d="M232.4,35.5c-0.9,0-1.6-0.2-2.1-0.3c-0.3-0.1-0.5-0.2-0.6-0.2c-0.1,0-0.1-0.1-0.1-0.1l0,0l0,0
			c-0.1-0.1-0.2,0-0.3,0.1c-0.1,0.1,0,0.2,0.1,0.3l0,0c0,0,1.2,0.7,3.1,0.7c0.1,0,0.2-0.1,0.2-0.2C232.7,35.6,232.6,35.5,232.4,35.5
			z"/>
		<path class="st0" d="M232.4,31.1c-0.8,0-1.4-0.1-1.9-0.3c-0.1,0-0.2,0-0.3,0.1c0,0.1,0,0.2,0.1,0.3l0,0c0.5,0.1,1.2,0.3,2,0.3
			c0.1,0,0.2-0.1,0.2-0.2C232.7,31.2,232.6,31.1,232.4,31.1z"/>
		<path class="st0" d="M241.8,27.1c0.4-0.5,0.6-1.2,0.6-1.8c0-1.7-1.4-3-3-3c-1.7,0-3,1.4-3,3c0,0.8,0.3,1.5,0.8,2
			c-0.2,0.1-0.3,0.3-0.4,0.4c-0.4-1-1-1.9-1.8-2.5c0.5-0.5,0.8-1.3,0.8-2c0-1.7-1.4-3-3-3c-1.7,0-3,1.4-3,3c0,0.8,0.3,1.5,0.8,2
			c-0.6,0.5-1.2,1.3-1.6,2.2c-0.2-0.2-0.5-0.5-0.7-0.6c0.4-0.5,0.6-1.2,0.6-1.8c0-1.7-1.4-3-3-3c-1.7,0-3,1.4-3,3
			c0,0.8,0.3,1.5,0.8,2c-1.3,1.1-2.1,3-2.1,5.1c0,0.4,0,0.8,0.1,1.2l0,0.1l0.1,0c0.8,0.4,2.1,0.8,3.8,0.9c0.1,0,0.1,0,0.2,0
			c1,0,2-0.2,2.8-0.4c0,0.3,0,0.5,0,0.8c0,0.4,0,0.8,0.1,1.2l0,0.1l0.1,0c0.8,0.4,2.1,0.8,3.8,0.9c0.1,0,0.1,0,0.2,0
			c1.8,0,3.6-0.5,4.7-1l0.1,0l0-0.1c0-0.3,0.1-0.7,0.1-1.1c0-0.1,0-0.2,0-0.2c0.5,0.1,1,0.2,1.7,0.2c0.1,0,0.1,0,0.2,0
			c1.8,0,3.6-0.5,4.7-1l0.1,0l0-0.1c0-0.3,0.1-0.7,0.1-1.1C244.1,30.1,243.2,28.1,241.8,27.1z M237.5,23.4c0.5-0.5,1.1-0.8,1.8-0.8
			c0.7,0,1.4,0.3,1.8,0.8c0.5,0.5,0.8,1.1,0.8,1.8c0,0.6-0.2,1.2-0.6,1.7l-0.1,0.1c-0.1,0.1-0.3,0.3-0.4,0.4c0,0,0,0,0,0
			c-0.1,0-0.1,0.1-0.2,0.1c0,0,0,0,0,0c-0.1,0-0.1,0.1-0.2,0.1c0,0,0,0,0,0c-0.1,0-0.1,0.1-0.2,0.1c0,0,0,0-0.1,0
			c-0.1,0-0.1,0-0.2,0.1c0,0,0,0-0.1,0c-0.1,0-0.1,0-0.2,0c0,0,0,0-0.1,0c-0.1,0-0.2,0-0.3,0c-0.1,0-0.2,0-0.3,0c0,0-0.1,0-0.1,0
			c0,0-0.1,0-0.1,0c-0.1,0-0.1,0-0.2,0c0,0,0,0-0.1,0c-0.1,0-0.1,0-0.2-0.1c0,0,0,0,0,0c-0.1,0-0.1-0.1-0.2-0.1l0,0
			c-0.2-0.1-0.4-0.3-0.6-0.4l-0.1-0.1c-0.5-0.5-0.7-1.1-0.7-1.8C236.7,24.5,237,23.9,237.5,23.4z M236.4,28.1
			c-0.4,0.5-0.7,1.1-0.9,1.7c-0.1-0.1-0.3-0.2-0.4-0.3c0.4-0.5,0.6-1.2,0.6-1.8c0-0.4-0.1-0.9-0.3-1.2
			C235.8,26.8,236.1,27.4,236.4,28.1C236.3,28,236.3,28,236.4,28.1z M234.2,29.7c-0.1,0-0.1,0.1-0.2,0.1c0,0,0,0,0,0
			c-0.1,0-0.1,0.1-0.2,0.1c0,0,0,0,0,0c-0.1,0-0.1,0.1-0.2,0.1c0,0,0,0-0.1,0c-0.1,0-0.1,0-0.2,0.1c0,0,0,0-0.1,0
			c-0.1,0-0.1,0-0.2,0c0,0,0,0-0.1,0c-0.1,0-0.2,0-0.3,0c-0.1,0-0.2,0-0.3,0c0,0-0.1,0-0.1,0c0,0-0.1,0-0.1,0c-0.1,0-0.1,0-0.2,0
			c0,0,0,0-0.1,0c-0.1,0-0.1,0-0.2-0.1c0,0,0,0,0,0c-0.1,0-0.1-0.1-0.2-0.1l0,0c-0.2-0.1-0.4-0.3-0.6-0.4l-0.1-0.1
			c-0.5-0.5-0.7-1.1-0.7-1.8c0-0.7,0.3-1.4,0.8-1.8c0.5-0.5,1.1-0.8,1.8-0.8c0.7,0,1.4,0.3,1.8,0.8c0.5,0.5,0.8,1.1,0.8,1.8
			c0,0.6-0.2,1.2-0.6,1.7l-0.1,0.1C234.5,29.4,234.3,29.6,234.2,29.7C234.2,29.7,234.2,29.7,234.2,29.7z M230.8,21.3
			c0.5-0.5,1.1-0.8,1.8-0.8c0.7,0,1.4,0.3,1.8,0.8c0.5,0.5,0.8,1.1,0.8,1.8c0,0.8-0.3,1.4-0.8,1.9c-0.5-0.4-1.1-0.6-1.8-0.6
			c-0.7,0-1.3,0.2-1.8,0.6c0,0,0,0,0,0l0,0c-0.5-0.5-0.8-1.1-0.8-1.8C230,22.5,230.3,21.8,230.8,21.3z M229.8,26.5
			c-0.1,0.3-0.2,0.7-0.2,1.1c0,0.8,0.3,1.5,0.8,2c-0.1,0.1-0.2,0.2-0.3,0.3c-0.2-0.8-0.6-1.5-1-2C229.3,27.3,229.5,26.9,229.8,26.5z
			 M223.8,23.1c0.5-0.5,1.1-0.8,1.8-0.8c0.7,0,1.4,0.3,1.8,0.8c0.5,0.5,0.8,1.1,0.8,1.8c0,0.6-0.2,1.2-0.6,1.7l-0.1,0.1
			c-0.1,0.1-0.3,0.3-0.4,0.4c0,0,0,0,0,0c-0.1,0-0.1,0.1-0.2,0.1c0,0,0,0,0,0c-0.1,0-0.1,0.1-0.2,0.1c0,0,0,0,0,0
			c-0.1,0-0.1,0.1-0.2,0.1c0,0,0,0-0.1,0c-0.1,0-0.1,0-0.2,0.1c0,0,0,0-0.1,0c-0.1,0-0.1,0-0.2,0c0,0,0,0-0.1,0c-0.1,0-0.2,0-0.3,0
			c-0.1,0-0.2,0-0.3,0c0,0-0.1,0-0.1,0c0,0-0.1,0-0.1,0c-0.1,0-0.1,0-0.2,0c0,0,0,0-0.1,0c-0.1,0-0.1,0-0.2-0.1c0,0,0,0,0,0
			c-0.1,0-0.1-0.1-0.2-0.1l0,0c-0.2-0.1-0.4-0.3-0.6-0.4l-0.1-0.1c-0.5-0.5-0.7-1.1-0.7-1.8C223.1,24.2,223.4,23.6,223.8,23.1z
			 M228.4,33.5c-0.9,0.2-1.9,0.4-2.9,0.4c0,0-0.1,0-0.1,0c-1.6,0-2.8-0.4-3.5-0.8c0-0.3-0.1-0.7-0.1-1c0-2,0.8-3.8,2-4.8
			c0,0,0,0,0.1,0.1c0,0,0,0,0,0c0.1,0.1,0.1,0.1,0.2,0.2c0,0,0,0,0,0c0.1,0,0.2,0.1,0.2,0.1c0,0,0,0,0,0c0.1,0,0.2,0.1,0.2,0.1
			c0,0,0,0,0,0c0.1,0,0.1,0.1,0.2,0.1c0,0,0.1,0,0.1,0c0.1,0,0.1,0,0.2,0.1c0,0,0.1,0,0.2,0c0,0,0.1,0,0.1,0c0.1,0,0.2,0,0.3,0
			c0.1,0,0.2,0,0.3,0c0,0,0.1,0,0.1,0c0.1,0,0.2,0,0.2,0c0,0,0.1,0,0.1,0c0.1,0,0.1,0,0.2-0.1c0,0,0,0,0.1,0c0.1,0,0.2-0.1,0.2-0.1
			c0,0,0,0,0.1,0c0.1,0,0.2-0.1,0.2-0.1c0,0,0,0,0,0c0.1,0,0.2-0.1,0.2-0.2c0,0,0,0,0,0c0.1-0.1,0.2-0.1,0.2-0.2c0,0,0,0,0,0
			c0,0,0.1,0,0.1-0.1c0.9,0.7,1.6,1.8,2,3.1C229.1,31.1,228.6,32.2,228.4,33.5C228.4,33.5,228.4,33.5,228.4,33.5z M232.3,36.5
			c-1.6,0-2.8-0.4-3.5-0.8c0-0.3-0.1-0.7-0.1-1c0-2,0.8-3.8,2-4.8c0,0,0,0,0.1,0.1c0,0,0,0,0,0c0.1,0.1,0.1,0.1,0.2,0.2c0,0,0,0,0,0
			c0.1,0,0.2,0.1,0.2,0.1c0,0,0,0,0,0c0.1,0,0.2,0.1,0.2,0.1c0,0,0,0,0,0c0.1,0,0.1,0.1,0.2,0.1c0,0,0.1,0,0.1,0
			c0.1,0,0.1,0,0.2,0.1c0,0,0.1,0,0.2,0c0,0,0.1,0,0.1,0c0.1,0,0.2,0,0.3,0c0.1,0,0.2,0,0.3,0c0,0,0.1,0,0.1,0c0.1,0,0.2,0,0.2,0
			c0,0,0.1,0,0.1,0c0.1,0,0.1,0,0.2-0.1c0,0,0,0,0.1,0c0.1,0,0.2-0.1,0.2-0.1c0,0,0,0,0.1,0c0.1,0,0.2-0.1,0.2-0.1c0,0,0,0,0,0
			c0.1,0,0.2-0.1,0.2-0.2c0,0,0,0,0,0c0.1-0.1,0.2-0.1,0.2-0.2c0,0,0,0,0,0c0,0,0.1-0.1,0.1-0.1c1.3,0.9,2.2,2.8,2.2,4.9
			c0,0.3,0,0.6-0.1,0.9c-1.1,0.4-2.8,0.9-4.4,0.9C232.4,36.5,232.3,36.5,232.3,36.5z M239,34.2c-0.6,0-1.2-0.1-1.7-0.2
			c0-0.2,0-0.4-0.1-0.6c0.5,0.2,1.2,0.3,1.9,0.3c0.1,0,0.2-0.1,0.2-0.2c0-0.1-0.1-0.2-0.2-0.2c-0.7,0-1.5-0.1-2-0.3
			c-0.3-1.1-0.7-2.1-1.4-2.8c0.3-1,0.9-1.9,1.6-2.5c0,0,0,0,0.1,0.1c0,0,0,0,0,0c0.1,0.1,0.1,0.1,0.2,0.2c0,0,0,0,0,0
			c0.1,0,0.2,0.1,0.2,0.1c0,0,0,0,0,0c0.1,0,0.2,0.1,0.2,0.1c0,0,0,0,0,0c0.1,0,0.1,0.1,0.2,0.1c0,0,0.1,0,0.1,0
			c0.1,0,0.1,0,0.2,0.1c0,0,0.1,0,0.2,0c0,0,0.1,0,0.1,0c0.1,0,0.2,0,0.3,0c0.1,0,0.2,0,0.3,0c0,0,0.1,0,0.1,0c0.1,0,0.2,0,0.2,0
			c0,0,0.1,0,0.1,0c0.1,0,0.1,0,0.2-0.1c0,0,0,0,0.1,0c0.1,0,0.2-0.1,0.2-0.1c0,0,0,0,0.1,0c0.1,0,0.2-0.1,0.2-0.1c0,0,0,0,0,0
			c0.1,0,0.2-0.1,0.2-0.2c0,0,0,0,0,0c0.1-0.1,0.2-0.1,0.2-0.2c0,0,0,0,0,0c0,0,0.1-0.1,0.1-0.1c1.3,0.9,2.2,2.8,2.2,4.9
			c0,0.3,0,0.6-0.1,0.9c-1.1,0.4-2.8,0.9-4.4,0.9C239.1,34.2,239.1,34.2,239,34.2z"/>
	</g>
	<g>
		<path class="st0" d="M243.3,77h-11.5c-0.6,0-1,0.5-1,1v16.8c0,0.6,0.5,1,1,1h11.5c0.6,0,1-0.5,1-1V78.1
			C244.3,77.5,243.9,77,243.3,77z M244.1,94.9c0,0.4-0.3,0.8-0.8,0.8h-11.5c-0.4,0-0.8-0.3-0.8-0.8V78.1c0-0.4,0.3-0.8,0.8-0.8h11.5
			c0.4,0,0.8,0.3,0.8,0.8V94.9z"/>
		<path class="st0" d="M232.3,80.7h10.6v-2.2h-10.6V80.7z M232.5,78.8h10.1v1.7h-10.1V78.8z"/>
		<path class="st0" d="M232.3,85.6h1.6V84h-1.6V85.6z M232.5,84.3h1v1h-1V84.3z"/>
		<path class="st0" d="M234.5,85.6h1.6V84h-1.6V85.6z M234.8,84.3h1v1h-1V84.3z"/>
		<path class="st0" d="M238.3,84h-1.6v1.6h1.6V84z M238,85.3h-1v-1h1V85.3z"/>
		<path class="st0" d="M240.5,84h-1.6v1.6h1.6V84z M240.2,85.3h-1v-1h1V85.3z"/>
		<path class="st0" d="M242.7,84h-1.6v1.6h1.6V84z M242.5,85.3h-1v-1h1V85.3z"/>
		<path class="st0" d="M232.3,87.6h1.6v-1.6h-1.6V87.6z M232.5,86.4h1v1h-1V86.4z"/>
		<path class="st0" d="M234.5,87.6h1.6v-1.6h-1.6V87.6z M234.8,86.4h1v1h-1V86.4z"/>
		<path class="st0" d="M236.7,87.6h1.6v-1.6h-1.6V87.6z M237,86.4h1v1h-1V86.4z"/>
		<path class="st0" d="M238.9,87.6h1.6v-1.6h-1.6V87.6z M239.2,86.4h1v1h-1V86.4z"/>
		<path class="st0" d="M241.2,87.6h1.6v-1.6h-1.6V87.6z M241.4,86.4h1v1h-1V86.4z"/>
		<path class="st0" d="M232.3,89.7h1.6v-1.6h-1.6V89.7z M232.5,88.4h1v1h-1V88.4z"/>
		<path class="st0" d="M234.5,89.7h1.6v-1.6h-1.6V89.7z M234.8,88.4h1v1h-1V88.4z"/>
		<path class="st0" d="M236.7,89.7h1.6v-1.6h-1.6V89.7z M237,88.4h1v1h-1V88.4z"/>
		<path class="st0" d="M238.9,89.7h1.6v-1.6h-1.6V89.7z M239.2,88.4h1v1h-1V88.4z"/>
		<path class="st0" d="M241.2,89.7h1.6v-1.6h-1.6V89.7z M241.4,88.4h1v1h-1V88.4z"/>
		<path class="st0" d="M232.3,91.8h1.6v-1.6h-1.6V91.8z M232.5,90.5h1v1h-1V90.5z"/>
		<path class="st0" d="M234.5,91.8h1.6v-1.6h-1.6V91.8z M234.8,90.5h1v1h-1V90.5z"/>
		<path class="st0" d="M236.7,91.8h1.6v-1.6h-1.6V91.8z M237,90.5h1v1h-1V90.5z"/>
		<path class="st0" d="M238.9,91.8h1.6v-1.6h-1.6V91.8z M239.2,90.5h1v1h-1V90.5z"/>
		<path class="st0" d="M241.2,91.8h1.6v-1.6h-1.6V91.8z M241.4,90.5h1v1h-1V90.5z"/>
		<path class="st0" d="M242.7,94.2h-5.6c-0.1,0-0.1,0.1-0.1,0.1c0,0.1,0.1,0.1,0.1,0.1h5.6c0.1,0,0.1-0.1,0.1-0.1
			C242.8,94.3,242.8,94.2,242.7,94.2z"/>
		<path class="st0" d="M236.1,81.5h-3.7c-0.1,0-0.1,0.1-0.1,0.1s0.1,0.1,0.1,0.1h3.7c0.1,0,0.1-0.1,0.1-0.1S236.2,81.5,236.1,81.5z"
			/>
	</g>
	<g>
		<path class="st0" d="M259,132.5h-38.8c-1.2,0-2.2,1-2.2,2.2v10.7c0,1.2,1,2.2,2.2,2.2H259c1.2,0,2.2-1,2.2-2.2v-10.7
			C261.2,133.5,260.2,132.5,259,132.5z M260.9,145.3c0,0.5-0.2,1-0.6,1.3c-0.3,0.3-0.8,0.6-1.3,0.6h-38.8c-0.5,0-1-0.2-1.3-0.6
			c-0.3-0.3-0.6-0.8-0.6-1.3v-10.7c0-0.5,0.2-1,0.6-1.3c0.3-0.3,0.8-0.6,1.3-0.6H259c0.5,0,1,0.2,1.3,0.6c0.3,0.3,0.6,0.8,0.6,1.3
			V145.3z"/>
		<path class="st0" d="M222.2,136.1v-1.5h-1.8v1.7h1.8V136.1z M220.7,134.8h1.3l0,1.1h-1.3V134.8z"/>
		<path class="st0" d="M224.6,136.1v-1.5h-1.7v1.7h1.7V136.1z M223.2,134.8h1.1l0,1.1h-1.1V134.8z"/>
		<path class="st0" d="M225.3,136.2h1.7v-0.1v-1.5h-1.7V136.2z M225.6,134.8h1.1l0,1.1h-1.1V134.8z"/>
		<path class="st0" d="M227.7,136.2h1.7v-0.1v-1.5h-1.7V136.2z M228,134.8h1.1l0,1.1H228V134.8z"/>
		<path class="st0" d="M230.1,136.2h1.7v-0.1v-1.5h-1.7V136.2z M230.4,134.8h1.1l0,1.1h-1.1V134.8z"/>
		<path class="st0" d="M232.4,136.2h1.7v-0.1v-1.5h-1.7V136.2z M232.7,134.8h1.1l0,1.1h-1.1V134.8z"/>
		<path class="st0" d="M234.8,136.2h1.7v-0.1v-1.5h-1.7V136.2z M235.1,134.8h1.1l0,1.1h-1.1V134.8z"/>
		<path class="st0" d="M238.9,136.1v-1.5h-1.7v1.7h1.7V136.1z M237.5,134.8h1.1l0,1.1h-1.1V134.8z"/>
		<path class="st0" d="M241.3,136.1v-1.5h-1.7v1.7h1.7V136.1z M239.9,134.8h1.1l0,1.1h-1.1V134.8z"/>
		<path class="st0" d="M243.8,136.1v-1.5H242v1.7h1.8V136.1z M242.3,134.8h1.2l0,1.1h-1.2V134.8z"/>
		<path class="st0" d="M222.2,140.4v-1.5h-1.8v1.7h1.8V140.4z M220.7,139.2h1.3l0,1.1h-1.3V139.2z"/>
		<path class="st0" d="M222.9,140.6h1.7v-0.1v-1.5h-1.7V140.6z M223.2,139.2h1.1l0,1.1h-1.1V139.2z"/>
		<path class="st0" d="M227,140.4v-1.5h-1.7v1.7h1.7V140.4z M225.6,139.2h1.1l0,1.1h-1.1V139.2z"/>
		<path class="st0" d="M229.4,140.4v-1.5h-1.7v1.7h1.7V140.4z M228,139.2h1.1l0,1.1H228V139.2z"/>
		<path class="st0" d="M231.8,140.4v-1.5h-1.7v1.7h1.7V140.4z M230.4,139.2h1.1l0,1.1h-1.1V139.2z"/>
		<path class="st0" d="M234.1,140.4v-1.5h-1.7v1.7h1.7V140.4z M232.7,139.2h1.1l0,1.1h-1.1V139.2z"/>
		<path class="st0" d="M234.8,140.6h1.7v-0.1v-1.5h-1.7V140.6z M235.1,139.2h1.1l0,1.1h-1.1V139.2z"/>
		<path class="st0" d="M237.2,140.6h1.7v-0.1v-1.5h-1.7V140.6z M237.5,139.2h1.1l0,1.1h-1.1V139.2z"/>
		<path class="st0" d="M223.3,138.2v-1.5h-2.9v1.7h2.9V138.2z M220.7,137h2.4l0,1.1h-2.4V137z"/>
		<path class="st0" d="M225.7,138.2v-1.5h-1.7v1.7h1.7V138.2z M224.4,137h1.1l0,1.1h-1.1V137z"/>
		<path class="st0" d="M226.5,138.4h1.7v-0.1v-1.5h-1.7V138.4z M226.8,137h1.1l0,1.1h-1.1V137z"/>
		<path class="st0" d="M229,138.4h1.7v-0.1v-1.5H229V138.4z M229.3,137h1.1l0,1.1h-1.1V137z"/>
		<path class="st0" d="M231.3,138.4h1.7v-0.1v-1.5h-1.7V138.4z M231.6,137h1.1l0,1.1h-1.1V137z"/>
		<path class="st0" d="M233.7,138.4h1.7v-0.1v-1.5h-1.7V138.4z M233.9,137h1.1l0,1.1h-1.1V137z"/>
		<path class="st0" d="M236.1,138.4h1.7v-0.1v-1.5h-1.7V138.4z M236.3,137h1.1l0,1.1h-1.1V137z"/>
		<path class="st0" d="M240.1,138.2v-1.5h-1.7v1.7h1.7V138.2z M238.7,137h1.1l0,1.1h-1.1V137z"/>
		<path class="st0" d="M226.2,142.7v-1.5h-1.7v1.7h1.7V142.7z M224.8,141.4h1.1l0,1.1h-1.1V141.4z"/>
		<path class="st0" d="M223.6,142.7v-1.5h-3.2v1.7h3.2V142.7z M220.7,141.4h2.6l0,1.1h-2.6V141.4z"/>
		<path class="st0" d="M228.6,142.7v-1.5H227v1.7h1.7V142.7z M227.2,141.4h1.1l0,1.1h-1.1V141.4z"/>
		<path class="st0" d="M229.5,142.8h1.7v-0.1v-1.5h-1.7V142.8z M229.7,141.4h1.1l0,1.1h-1.1V141.4z"/>
		<path class="st0" d="M233.4,142.7v-1.5h-1.7v1.7h1.7V142.7z M232,141.4h1.1l0,1.1H232V141.4z"/>
		<path class="st0" d="M234.1,142.8h1.7v-0.1v-1.5h-1.7V142.8z M234.4,141.4h1.1l0,1.1h-1.1V141.4z"/>
		<path class="st0" d="M236.5,142.8h1.7v-0.1v-1.5h-1.7V142.8z M236.8,141.4h1.1l0,1.1h-1.1V141.4z"/>
		<path class="st0" d="M240.5,142.7v-1.5h-1.7v1.7h1.7V142.7z M239.1,141.4h1.1l0,1.1h-1.1V141.4z"/>
		<path class="st0" d="M243.8,138.2v-1.5h-3.1v1.7h3.1V138.2z M240.9,137h2.6l0,1.1h-2.6V137z"/>
		<path class="st0" d="M243.8,142.8v-3.9h-0.1h-4.1v1.7h2.4v2.2H243.8z M239.9,140.3v-1.1h3.6v3.3h-1.2l0-2.2H239.9z"/>
		<path class="st0" d="M238.9,145v-1.5h-13.1v1.7h13.1V145z M226.1,143.7h12.6l0,1.1h-12.6V143.7z"/>
		<path class="st0" d="M253.8,136.1v-1.5h-1.7v1.7h1.7V136.1z M252.4,134.9h1.1l0,1.1h-1.1V134.9z"/>
		<path class="st0" d="M254.5,136.3h1.7v-0.1v-1.5h-1.7V136.3z M254.8,134.9h1.1l0,1.1h-1.1V134.9z"/>
		<path class="st0" d="M256.9,136.3h1.7v-0.1v-1.5h-1.7V136.3z M257.2,134.9h1.1v1.1h-1.1V134.9z"/>
		<path class="st0" d="M246.5,136.1v-1.5h-1.7v1.7h1.7V136.1z M245.1,134.9h1.1l0,1.1h-1.1V134.9z"/>
		<path class="st0" d="M248.9,136.1v-1.5h-1.7v1.7h1.7V136.1z M247.5,134.9h1.1l0,1.1h-1.1V134.9z"/>
		<path class="st0" d="M251.3,136.1v-1.5h-1.7v1.7h1.7V136.1z M249.9,134.9h1.1l0,1.1h-1.1V134.9z"/>
		<path class="st0" d="M253.8,138.4v-1.5h-1.7v1.7h1.7V138.4z M252.4,137.1h1.1l0,1.1h-1.1V137.1z"/>
		<path class="st0" d="M254.5,138.5h1.7v-0.1v-1.5h-1.7V138.5z M254.8,137.1h1.1l0,1.1h-1.1V137.1z"/>
		<path class="st0" d="M256.9,138.5h1.7v-0.1v-1.5h-1.7V138.5z M257.2,137.1h1.1v1.1h-1.1V137.1z"/>
		<path class="st0" d="M253.8,140.6v-1.5h-1.7v1.7h1.7V140.6z M252.4,139.4h1.1l0,1.1h-1.1V139.4z"/>
		<path class="st0" d="M254.5,140.8h1.7v-0.1v-1.5h-1.7V140.8z M254.8,139.4h1.1l0,1.1h-1.1V139.4z"/>
		<path class="st0" d="M256.9,140.8h1.7v-0.1v-1.5h-1.7V140.8z M257.2,139.4h1.1v1.1h-1.1V139.4z"/>
		<path class="st0" d="M253.8,142.9v-1.5h-1.7v1.7h1.7V142.9z M252.4,141.6h1.1l0,1.1h-1.1V141.6z"/>
		<path class="st0" d="M245.1,145.1h1.7v-0.1v-1.5h-1.7V145.1z M245.4,143.7h1.1l0,1.1h-1.1V143.7z"/>
		<path class="st0" d="M247.4,145.1h1.7v-0.1v-1.5h-1.7V145.1z M247.6,143.7h1.1l0,1.1h-1.1V143.7z"/>
		<path class="st0" d="M249,142.7v-1.5h-1.7v1.7h1.7V142.7z M247.6,141.4h1.1l0,1.1h-1.1V141.4z"/>
		<path class="st0" d="M249.6,145.1h1.7v-0.1v-1.5h-1.7V145.1z M249.9,143.7h1.1l0,1.1h-1.1V143.7z"/>
		<path class="st0" d="M254.5,143h1.7v-0.1v-1.5h-1.7V143z M254.8,141.6h1.1l0,1.1h-1.1V141.6z"/>
		<path class="st0" d="M256.9,143h1.7v-0.1v-1.5h-1.7V143z M257.2,141.6h1.1v1.1h-1.1V141.6z"/>
		<path class="st0" d="M221.9,133.7h13.7c0.1,0,0.1-0.1,0.1-0.1c0-0.1-0.1-0.1-0.1-0.1h-13.7c-0.1,0-0.1,0.1-0.1,0.1
			C221.8,133.6,221.8,133.7,221.9,133.7z"/>
		<path class="st0" d="M254.8,146.3h-34.5c-0.1,0-0.1,0.1-0.1,0.1c0,0.1,0.1,0.1,0.1,0.1h34.5c0.1,0,0.1-0.1,0.1-0.1
			C255,146.3,254.9,146.3,254.8,146.3z"/>
	</g>
	<g>
		<path class="st0" d="M75.4,40.7c-7.3-0.1-13.4,5.9-13.4,13.2s5.9,13.4,13.2,13.4c7.3,0.1,13.4-5.9,13.4-13.2
			C88.7,46.8,82.8,40.7,75.4,40.7z M75.2,66.9c-7.1-0.1-12.9-5.9-12.8-13.1C62.4,46.7,68.3,41,75.4,41c7.1,0.1,12.9,5.9,12.8,13.1
			C88.2,61.2,82.3,67,75.2,66.9z"/>
		<path class="st0" d="M75.2,64.7c-5.9-0.1-10.7-4.9-10.6-10.8c0-0.6,0.1-1.3,0.2-1.9c0-0.1,0-0.2-0.1-0.2c-0.1,0-0.2,0-0.2,0.1
			c-0.1,0.6-0.2,1.3-0.2,2c-0.1,6.1,4.8,11,10.9,11.1c0.1,0,0.1-0.1,0.1-0.1C75.4,64.8,75.3,64.7,75.2,64.7z"/>
		<path class="st0" d="M75.4,43c-3.8,0-7.5,2-9.5,5.3c0,0.1,0,0.2,0,0.2c0.1,0,0.2,0,0.2,0c2-3.2,5.5-5.2,9.2-5.1
			c5.9,0.1,10.7,4.9,10.6,10.8c0,3.7-1.9,7.1-5.1,9c-0.1,0-0.1,0.1,0,0.2c0,0,0.1,0.1,0.1,0.1c0,0,0.1,0,0.1,0
			c3.2-2,5.2-5.5,5.2-9.3C86.4,48,81.5,43,75.4,43z"/>
		<path class="st0" d="M75.4,47.6c-3.6,0-6.5,2.8-6.5,6.4c0,3.6,2.8,6.5,6.4,6.5s6.5-2.8,6.5-6.4C81.9,50.6,79,47.6,75.4,47.6z
			 M75.3,60.1c-3.4,0-6.1-2.8-6-6.1c0-3.4,2.8-6.1,6.1-6c3.4,0,6.1,2.8,6,6.1C81.4,57.5,78.7,60.2,75.3,60.1z"/>
		<path class="st0" d="M73.1,42.8c0.1,0,0.1-0.1,0.2-0.1c0-0.6,0.5-0.9,0.5-0.9c0.1-0.1,0.1-0.1,0-0.2c-0.1-0.1-0.1-0.1-0.2,0
			c0,0-0.6,0.5-0.6,1.2C72.9,42.7,73,42.7,73.1,42.8z"/>
		<path class="st0" d="M70.2,43.7C70.3,43.7,70.3,43.7,70.2,43.7c0.1,0,0.2-0.1,0.1-0.2c-0.1-0.5,0.2-1,0.2-1c0-0.1,0-0.2,0-0.2
			c-0.1,0-0.2,0-0.2,0c0,0-0.4,0.6-0.2,1.3C70.1,43.6,70.2,43.7,70.2,43.7z"/>
		<path class="st0" d="M67.7,45.3C67.8,45.3,67.8,45.3,67.7,45.3c0.1-0.1,0.2-0.2,0.1-0.2c-0.3-0.5-0.1-1-0.1-1c0-0.1,0-0.2-0.1-0.2
			c-0.1,0-0.2,0-0.2,0.1c0,0-0.2,0.7,0.1,1.3C67.6,45.3,67.7,45.3,67.7,45.3z"/>
		<path class="st0" d="M65.7,47.6c0,0,0.1,0,0.1,0c0.1-0.1,0.1-0.2,0-0.2c-0.4-0.4-0.3-1-0.3-1c0-0.1-0.1-0.2-0.1-0.2
			c-0.1,0-0.2,0.1-0.2,0.1c0,0-0.1,0.7,0.4,1.2C65.7,47.6,65.7,47.6,65.7,47.6z"/>
		<path class="st0" d="M64.3,50.2C64.3,50.3,64.4,50.3,64.3,50.2c0.1,0,0.2,0,0.2-0.1c0-0.1,0-0.2-0.1-0.2c-0.5-0.3-0.6-0.9-0.6-0.9
			c0-0.1-0.1-0.1-0.2-0.1c-0.1,0-0.1,0.1-0.1,0.2C63.6,49.2,63.7,49.9,64.3,50.2z"/>
		<path class="st0" d="M63.8,53.2C63.8,53.2,63.8,53.2,63.8,53.2c0.1,0,0.2,0,0.2-0.1c0-0.1,0-0.2-0.1-0.2c-0.5-0.1-0.8-0.7-0.8-0.7
			c0-0.1-0.1-0.1-0.2-0.1c-0.1,0-0.1,0.1-0.1,0.2C62.8,52.4,63.1,53,63.8,53.2z"/>
		<path class="st0" d="M64.1,56.1c0-0.1-0.1-0.1-0.1-0.2c-0.6,0-0.9-0.5-0.9-0.5c-0.1-0.1-0.1-0.1-0.2,0c-0.1,0.1-0.1,0.1,0,0.2
			c0,0,0.5,0.6,1.2,0.6C64,56.2,64.1,56.1,64.1,56.1z"/>
		<path class="st0" d="M64.9,58.8c-0.5,0.1-1-0.2-1-0.2c-0.1,0-0.2,0-0.2,0c0,0.1,0,0.2,0,0.2c0,0,0.4,0.3,0.9,0.3
			c0.1,0,0.2,0,0.4,0c0.1,0,0.1-0.1,0.1-0.2S65,58.7,64.9,58.8z"/>
		<path class="st0" d="M66.5,61.3c-0.5,0.3-1,0.1-1,0.1c-0.1,0-0.2,0-0.2,0.1c0,0.1,0,0.2,0.1,0.2c0,0,0.2,0.1,0.5,0.1
			c0.2,0,0.5,0,0.7-0.2c0.1,0,0.1-0.1,0.1-0.2C66.6,61.3,66.6,61.2,66.5,61.3z"/>
		<path class="st0" d="M68.7,63.3c-0.4,0.4-1,0.3-1,0.3c-0.1,0-0.2,0.1-0.2,0.1c0,0.1,0.1,0.2,0.1,0.2c0,0,0,0,0.1,0
			c0.2,0,0.7,0,1.1-0.4c0.1-0.1,0.1-0.2,0-0.2C68.8,63.2,68.8,63.2,68.7,63.3z"/>
		<path class="st0" d="M71.6,64.6c-0.1,0-0.2,0-0.2,0.1c-0.3,0.5-0.9,0.6-0.9,0.6c-0.1,0-0.1,0.1-0.1,0.2c0,0.1,0.1,0.1,0.1,0.1
			c0,0,0,0,0,0c0,0,0.7-0.1,1.1-0.7C71.7,64.8,71.6,64.7,71.6,64.6z"/>
		<path class="st0" d="M74.5,65.2c-0.1,0-0.2,0-0.2,0.1c-0.1,0.5-0.7,0.8-0.7,0.8c-0.1,0-0.1,0.1-0.1,0.2c0,0.1,0.1,0.1,0.1,0.1
			c0,0,0,0,0.1,0c0,0,0.7-0.3,0.8-1C74.6,65.3,74.5,65.2,74.5,65.2z"/>
		<path class="st0" d="M77.4,65c-0.1,0-0.1,0.1-0.2,0.1c0,0.6-0.5,0.9-0.5,0.9c-0.1,0.1-0.1,0.1,0,0.2c0,0,0.1,0.1,0.1,0.1
			c0,0,0.1,0,0.1,0c0,0,0.6-0.5,0.6-1.2C77.6,65.1,77.5,65,77.4,65z"/>
		<path class="st0" d="M80.2,64.1c-0.1,0-0.1,0.1-0.1,0.2c0.1,0.5-0.2,1-0.2,1c0,0.1,0,0.2,0,0.2c0,0,0.1,0,0.1,0c0,0,0.1,0,0.1-0.1
			c0,0,0.4-0.6,0.2-1.3C80.4,64.1,80.3,64.1,80.2,64.1z"/>
		<path class="st0" d="M82.7,62.5c-0.1,0-0.1,0.1-0.1,0.2c0.3,0.5,0.1,1,0.1,1c0,0.1,0,0.2,0.1,0.2c0,0,0,0,0.1,0
			c0.1,0,0.1,0,0.1-0.1c0,0,0.2-0.7-0.1-1.3C82.9,62.4,82.8,62.4,82.7,62.5z"/>
		<path class="st0" d="M84.7,60.2c-0.1,0.1-0.1,0.2,0,0.2c0.4,0.4,0.3,1,0.3,1c0,0.1,0.1,0.2,0.1,0.2c0,0,0,0,0,0
			c0.1,0,0.1-0.1,0.1-0.1c0,0,0.1-0.7-0.4-1.2C84.8,60.2,84.7,60.2,84.7,60.2z"/>
		<path class="st0" d="M86.2,57.5c-0.1,0-0.2,0-0.2,0.1c0,0.1,0,0.2,0.1,0.2c0.5,0.3,0.6,0.9,0.6,0.9c0,0.1,0.1,0.1,0.1,0.1
			c0,0,0,0,0,0c0.1,0,0.1-0.1,0.1-0.2C86.9,58.6,86.8,57.9,86.2,57.5z"/>
		<path class="st0" d="M87.7,55.4c0,0-0.3-0.7-1-0.8c-0.1,0-0.2,0-0.2,0.1c0,0.1,0,0.2,0.1,0.2c0.5,0.1,0.8,0.7,0.8,0.7
			c0,0.1,0.1,0.1,0.1,0.1c0,0,0,0,0.1,0C87.7,55.6,87.8,55.5,87.7,55.4z"/>
		<path class="st0" d="M86.4,51.7c0,0.1,0.1,0.1,0.1,0.2c0.6,0,0.9,0.5,0.9,0.5c0,0,0.1,0.1,0.1,0.1c0,0,0.1,0,0.1,0
			c0.1-0.1,0.1-0.1,0-0.2c0,0-0.5-0.6-1.2-0.6C86.5,51.6,86.4,51.6,86.4,51.7z"/>
		<path class="st0" d="M85.6,49c0.5-0.1,1,0.2,1,0.2c0,0,0.1,0,0.1,0c0,0,0.1,0,0.1-0.1c0-0.1,0-0.2,0-0.2c0,0-0.6-0.4-1.3-0.2
			c-0.1,0-0.1,0.1-0.1,0.2S85.6,49,85.6,49z"/>
		<path class="st0" d="M84,46.5C84,46.5,84,46.5,84,46.5c0.6-0.3,1.1-0.1,1.1-0.1c0.1,0,0.2,0,0.2-0.1c0-0.1,0-0.2-0.1-0.2
			c0,0-0.7-0.2-1.3,0.1c-0.1,0-0.1,0.1-0.1,0.2C83.9,46.5,83.9,46.5,84,46.5z"/>
		<path class="st0" d="M81.7,44.5c0,0,0.1,0,0.1,0c0.4-0.4,1-0.3,1-0.3c0.1,0,0.2-0.1,0.2-0.1c0-0.1-0.1-0.2-0.1-0.2
			c0,0-0.7-0.1-1.2,0.4c-0.1,0.1-0.1,0.2,0,0.2C81.6,44.5,81.7,44.5,81.7,44.5z"/>
		<path class="st0" d="M79,43.2C79,43.2,79,43.2,79,43.2c0.1,0,0.2,0,0.2-0.1c0.3-0.5,0.9-0.6,0.9-0.6c0.1,0,0.1-0.1,0.1-0.2
			c0-0.1-0.1-0.1-0.2-0.1c0,0-0.7,0.1-1.1,0.7C78.9,43,78.9,43.1,79,43.2z"/>
		<path class="st0" d="M76.1,42.6C76.1,42.6,76.1,42.6,76.1,42.6c0.1,0,0.2,0,0.2-0.1c0.1-0.5,0.7-0.8,0.7-0.8
			c0.1,0,0.1-0.1,0.1-0.2c0-0.1-0.1-0.1-0.2-0.1c0,0-0.7,0.3-0.8,1C75.9,42.5,76,42.5,76.1,42.6z"/>
		<path class="st0" d="M73.7,51.2c0.4,0,0.8-0.4,0.8-0.8c0-0.4-0.4-0.8-0.8-0.8c-0.4,0-0.8,0.4-0.8,0.8
			C72.9,50.8,73.2,51.2,73.7,51.2z M73.7,49.8c0.3,0,0.5,0.2,0.5,0.5c0,0.3-0.2,0.5-0.5,0.5s-0.5-0.2-0.5-0.5
			C73.2,50.1,73.4,49.8,73.7,49.8z"/>
		<path class="st0" d="M71.8,52.7c-0.4,0-0.8,0.4-0.8,0.8c0,0.4,0.4,0.8,0.8,0.8c0.4,0,0.8-0.4,0.8-0.8
			C72.6,53.1,72.2,52.7,71.8,52.7z M71.7,54c-0.3,0-0.5-0.2-0.5-0.5c0-0.3,0.2-0.5,0.5-0.5c0.3,0,0.5,0.2,0.5,0.5
			C72.3,53.8,72,54,71.7,54z"/>
		<path class="st0" d="M73.3,56.3c-0.4,0-0.8,0.4-0.8,0.8c0,0.4,0.4,0.8,0.8,0.8c0.4,0,0.8-0.4,0.8-0.8
			C74.1,56.6,73.7,56.3,73.3,56.3z M73.3,57.6c-0.3,0-0.5-0.2-0.5-0.5c0-0.3,0.2-0.5,0.5-0.5c0.3,0,0.5,0.2,0.5,0.5
			C73.8,57.4,73.5,57.6,73.3,57.6z"/>
		<path class="st0" d="M77.1,51.2c0.4,0,0.8-0.4,0.8-0.8c0-0.4-0.4-0.8-0.8-0.8c-0.4,0-0.8,0.4-0.8,0.8
			C76.3,50.8,76.6,51.2,77.1,51.2z M77.1,49.9c0.3,0,0.5,0.2,0.5,0.5c0,0.3-0.2,0.5-0.5,0.5c-0.3,0-0.5-0.2-0.5-0.5
			C76.6,50.1,76.8,49.9,77.1,49.9z"/>
		<path class="st0" d="M79,52.7c-0.4,0-0.8,0.4-0.8,0.8c0,0.4,0.4,0.8,0.8,0.8c0.4,0,0.8-0.4,0.8-0.8C79.8,53.1,79.5,52.7,79,52.7z
			 M79,54.1c-0.3,0-0.5-0.2-0.5-0.5c0-0.3,0.2-0.5,0.5-0.5c0.3,0,0.5,0.2,0.5,0.5C79.5,53.8,79.3,54.1,79,54.1z"/>
		<path class="st0" d="M77.4,56.3c-0.4,0-0.8,0.4-0.8,0.8c0,0.4,0.4,0.8,0.8,0.8c0.4,0,0.8-0.4,0.8-0.8
			C78.2,56.7,77.9,56.3,77.4,56.3z M77.4,57.6c-0.3,0-0.5-0.2-0.5-0.5c0-0.3,0.2-0.5,0.5-0.5s0.5,0.2,0.5,0.5
			C77.9,57.4,77.7,57.6,77.4,57.6z"/>
		<path class="st0" d="M77.3,53.8c0-1-0.8-1.7-1.7-1.7c-1,0-1.7,0.8-1.7,1.7c0,1,0.8,1.7,1.7,1.7C76.5,55.5,77.3,54.7,77.3,53.8z
			 M75.6,55.2c-0.8,0-1.4-0.7-1.4-1.4c0-0.8,0.7-1.4,1.4-1.4S77,53,77,53.8C77,54.5,76.4,55.2,75.6,55.2z"/>
	</g>
</g>
</svg>
