<svg xmlns="http://www.w3.org/2000/svg">
  <symbol viewBox="0 0 200.7 39.5" id="handsontable-logo">
      <path d="M12.5,7.9H4.7V0H0v21.1h4.7V12h7.7v9.1h4.7V0h-4.7V7.9z M34.4,11.4c0-2.2-0.4-3.5-1.5-4.5c-1.2-1-3-1.6-5.3-1.6
      c-4.3,0-6.5,1.7-6.8,5.2h4c0.2-1.2,1.1-1.8,2.7-1.8c1.5,0,2.3,0.5,2.3,1.4c0,0.6-0.3,0.9-1.4,1l-2.4,0.4c-4.3,0.7-6.1,2.2-6.1,5.1
      s2.2,4.8,5.6,4.8c1.8,0,2.9-0.4,4.4-1.6c0.2,0.6,0.2,0.7,0.3,1.2h4.6c-0.5-0.8-0.6-1-0.6-2.6V11.4z M30,16.1
      c-0.7,1.3-1.8,1.9-3.3,1.9c-1.4,0-2.3-0.6-2.3-1.6c0-0.9,0.7-1.5,2.3-1.8l1.6-0.3c0.8-0.2,1.2-0.3,1.6-0.5V16.1z M46.1,5.4
      c-1.6,0-2.5,0.4-4.2,1.9V5.8h-4.4v15.3H42v-8.6c0-1.3,0.2-2,0.7-2.5c0.5-0.5,1.2-0.8,1.9-0.8c0.8,0,1.5,0.3,1.8,0.9
      c0.4,0.6,0.5,1.2,0.5,2.7v8.3h4.5v-9.9C51.4,7.6,49.4,5.4,46.1,5.4z M64.5,7c-1.1-1.1-2.2-1.6-3.9-1.6c-4.1,0-6.8,3.2-6.8,8.1
      c0,4.8,2.7,8,6.7,8c1.9,0,3.1-0.6,4.2-2.1v1.6H69V0h-4.5V7z M61.5,17.9c-2,0-3.2-1.7-3.2-4.4c0-2.7,1.3-4.4,3.2-4.4
      c2,0,3.2,1.8,3.2,4.5C64.7,16.1,63.4,17.9,61.5,17.9z M80.4,11.7l-2.8-0.6c-1.4-0.3-1.9-0.6-1.9-1.2c0-0.8,0.9-1.3,2.1-1.3
      c1.5,0,2.4,0.6,2.6,1.7h4.2c-0.4-3.2-2.8-5-6.7-5c-4.1,0-6.5,1.9-6.5,4.9c0,2.4,1.3,3.7,4.6,4.4l2.8,0.6c1.2,0.3,1.7,0.7,1.7,1.4
      c0,0.9-0.9,1.5-2.3,1.5c-1.8,0-2.7-0.7-3-2.1h-4.2c0.3,3.4,2.9,5.4,7.1,5.4c4.2,0,6.9-2,6.9-5.2c0-1.2-0.4-2.4-1.1-3.1
      C83.2,12.5,82.3,12.1,80.4,11.7z M94.6,5.4c-4.7,0-8.1,3.3-8.1,8c0,4.7,3.3,8.1,8.1,8.1c4.7,0,8.1-3.3,8.1-7.9
      C102.7,8.7,99.5,5.4,94.6,5.4z M94.7,17.9c-2.3,0-3.6-1.6-3.6-4.5c0-2.8,1.3-4.5,3.6-4.5c2.3,0,3.6,1.6,3.6,4.5
      C98.2,16.3,96.9,17.9,94.7,17.9z M113.7,5.4c-1.6,0-2.5,0.4-4.2,1.9V5.8h-4.4v15.3h4.5v-8.6c0-1.3,0.2-2,0.7-2.5
      c0.5-0.5,1.2-0.8,1.9-0.8c0.8,0,1.5,0.3,1.8,0.9c0.4,0.6,0.5,1.2,0.5,2.7v8.3h4.5v-9.9C119,7.6,117,5.4,113.7,5.4z M127.2,1.2h-4.5
      V6h-2.1v3.2h2.1v7c0,2.4,0.2,3.2,0.9,3.9c0.7,0.7,1.6,1,3.6,1h2.7v-3.4h-1.6c-1,0-1.1-0.2-1.1-2.6V9.2h2.7V6h-2.7V1.2z M145.5,11.4
      c0-2.2-0.4-3.5-1.5-4.5c-1.2-1-3-1.6-5.3-1.6c-4.3,0-6.5,1.7-6.8,5.2h4c0.2-1.2,1.1-1.8,2.7-1.8c1.5,0,2.3,0.5,2.3,1.4
      c0,0.6-0.3,0.9-1.4,1l-2.4,0.4c-4.3,0.7-6.1,2.2-6.1,5.1s2.2,4.8,5.6,4.8c1.8,0,2.9-0.4,4.4-1.6c0.2,0.6,0.2,0.7,0.3,1.2h4.6
      c-0.5-0.8-0.6-1-0.6-2.6V11.4z M141.2,16.1c-0.7,1.3-1.8,1.9-3.3,1.9c-1.4,0-2.3-0.6-2.3-1.6c0-0.9,0.7-1.5,2.3-1.8l1.6-0.3
      c0.8-0.2,1.2-0.3,1.6-0.5V16.1z M157.4,5.6c-1.5,0-2.7,0.4-4.2,1.5V0.2h-4.5v21.1h4.3v-1.7c1.2,1.6,2.4,2.2,4.2,2.1
      c3.9,0,6.8-3.2,6.7-8.2C163.9,8.8,161.3,5.6,157.4,5.6z M156.3,18c-2,0-3.3-1.8-3.3-4.4c0-2.6,1.3-4.4,3.3-4.4c2,0,3.2,1.7,3.2,4.5
      C159.5,16.3,158.2,18,156.3,18z M166.3,21.1h4.5V0h-4.5V21.1z M187.8,9.9c-1.1-2.9-3.6-4.5-6.8-4.5c-4.6,0-7.8,3.3-7.8,8.1
      c0,4.8,3.1,8,7.8,8c3.6,0,6.5-1.9,7.3-4.9h-4.6c-0.6,0.9-1.5,1.4-2.7,1.4c-1.9,0-3.2-1.1-3.4-3.2h10.8
      C188.6,12.6,188.4,11.2,187.8,9.9z M177.8,11.6c0.3-1.8,1.5-2.8,3.2-2.8c1.7,0,2.8,1,3,2.8H177.8z M190.9,26.1v9h9v-9H190.9z"/>
  </symbol>
  <symbol viewBox="0 0 250 250" id="bell">
      <g>
          <path  d="M231.2,177.1c-1.1-1.9-9.4-10.4-11.7-13c-3.4-3.9-7.6-9.4-11.9-17.3c-4.4-8-9-18.4-13.1-32.1
          c-3-10.2-4.4-20.5-5.5-30.6c-0.8-7.6-1.5-14.9-2.7-22c-0.9-5.3-2.1-10.4-4-15.2c-1.4-3.6-3.3-7.1-5.7-10.2
          C173,32,168.1,27.9,162,25c-6.2-2.9-10.8-4.7-19.7-5.5c0,0-9-19.2-16.9-19.2c-7.3,0-16.4,19.6-16.4,19.6S96.8,22,91.8,24.1
          c-4.4,1.8-8.3,4.1-11.6,6.8c-5.8,4.8-9.6,10.8-12.2,17.3c-3.9,9.8-5.2,20.6-6.6,31.9c-1.4,11.3-2.8,23.1-6.3,34.6
          c-6.3,20.9-13.6,34.1-19.7,42.6c-3.1,4.3-5.8,7.4-8,9.7c-1.1,1.2-7.7,7.6-8.8,10.1c-0.9,2.1-1.6,4.4-1.6,6.8c0,2.2,0.5,4.4,1.4,6.4
          c1.4,3.1,3.7,5.8,6.8,8.1c3.1,2.3,6.9,4.2,11.5,5.8c9.8,3.3,23.3,7.4,39.7,10.1c28.2,4.6,82.2,5.6,107.1,1.1
          c11.8-2.1,20.9-6.3,29.5-10.1l0,0c6.5-2.8,11.3-5.8,14.7-9.2c1.7-1.7,3.1-3.6,4-5.6c1-2,1.5-4.2,1.5-6.3
          C233.1,181.6,232.3,179.1,231.2,177.1z M216.9,188.5c-1.9,1.5-4.9,3.3-9.1,5c-8.1,3.5-16.1,6.5-26.9,8.5
          c-22.2,4.1-64.5,4.7-102.6-1.2c-15.8-2.4-28.7-5.7-37.6-8.8c-4.9-1.7-7.8-3.6-9.3-5.1c-0.8-0.8-1.9-2.6-1.4-4.1
          c0.2-0.6,2.5-2.8,3.3-3.6c1.5-1.5,3.8-3.7,6.4-6.6c3.9-4.5,8.7-10.8,13.5-19.6c4.8-8.8,9.8-20.1,14.1-34.6
          c3.4-11.2,4.9-22.2,6.2-32.3c1-7.6,1.8-14.6,3-20.9c0.9-4.7,4.2-21.5,17.2-28c6.9-3.4,20.1-5.1,32.9-5.1c13.5,0,22.9,1.8,26.9,3.2
          c3.5,1.3,6.2,2.8,8.5,4.6c3.9,3.1,6.5,6.9,8.4,12c2.9,7.5,4.1,17.6,5.3,29c1.2,11.4,2.5,24.3,6.5,37.4
          c6.6,22.1,14.6,36.7,21.5,46.4c3.5,4.9,6.7,8.5,9.2,11.1c1.3,1.3,6.7,6.8,7,7.3C220.3,184,220.7,185.5,216.9,188.5z"/>
          <path  d="M110.6,228c0,11.9,9.7,21.6,21.6,21.6s21.6-9.7,21.6-21.6c0,0-9.3,1.8-20.9,2C120.5,230.3,110.6,228,110.6,228
  z"/>
      </g>
  </symbol>
  <symbol viewBox="0 0 500 320" id="spreadsheet-experience">
      <style type="text/css">
          .se0{fill:#E4F1FD;}
          .se1{fill:none;stroke:#F9D87F;stroke-linecap:round;stroke-miterlimit:10;}
          .se2{fill:none;stroke:#F9D87F;stroke-width:0.3;stroke-linecap:round;stroke-miterlimit:10;}
          .se3{fill:#7EC795;}
          .se4{fill:none;stroke:#2AB1EB;stroke-linecap:round;stroke-miterlimit:10;}
          .se5{fill:none;stroke:#2AB1EB;stroke-width:0.5;stroke-linecap:round;stroke-miterlimit:10;}
          .se6{fill:none;stroke:#2AB1EB;stroke-width:0.5074;stroke-linecap:round;stroke-miterlimit:10;}
          .se7{fill:#414C5C;}
          .se8{fill:none;stroke:#2AB1EB;stroke-width:0.5223;stroke-linecap:round;stroke-miterlimit:10;}
          .se9{fill:none;stroke:#2AB1EB;stroke-width:0.5225;stroke-linecap:round;stroke-miterlimit:10;}
          .se10{fill:none;stroke:#2AB1EB;stroke-width:0.523;stroke-linecap:round;stroke-miterlimit:10;}
          .se11{fill:#E77577;}
          .se12{fill:none;stroke:#2AB1EB;stroke-width:1.5;stroke-linecap:round;stroke-miterlimit:10;}
          .se13{fill:#2AB1EB;}
          .se14{fill:#F9D87F;}
          .se15{fill:#9FDDA4;}
          .se16{fill:none;stroke:#E4F1FD;stroke-linecap:round;stroke-miterlimit:10;}
          .se17{fill:none;stroke:#7EC795;stroke-width:0.3;stroke-linecap:round;stroke-miterlimit:10;}
          .se18{fill:#FFFFFF;stroke:#F9D87F;stroke-linecap:round;stroke-miterlimit:10;}
          .se19{fill:none;stroke:#E4F1FD;stroke-width:0.5;stroke-linecap:round;stroke-miterlimit:10;}
          .se20{fill:none;stroke:#F9D87F;stroke-width:0.2917;stroke-linecap:round;stroke-miterlimit:10;}
          .se21{fill:none;stroke:#414C5C;stroke-width:0.5;stroke-linecap:round;stroke-miterlimit:10;}
          .se22{fill:none;stroke:#E4F1FD;stroke-width:0.5223;stroke-linecap:round;stroke-miterlimit:10;}
          .se23{fill:#FCFCFC;stroke:#E4F1FD;stroke-width:0.5;stroke-linecap:round;stroke-linejoin:round;stroke-miterlimit:10;}
      </style>
      <g>
          <g>
              <ellipse class="se0" cx="409.5" cy="264" rx="28.2" ry="2.4"/>
              <path class="se0" d="M149.5,254.9l227.8,0.2l0.1-9.7l-224.7,0.4c0,0-0.3,2.2-1,4.8C151,252.8,149.5,254.9,149.5,254.9z"/>
              <g>
                  <path class="se1" d="M411.9,190.5l16.8-28.7c0,0,0.6,1.1,1.5,1.6c1.1,0.6,2.4-0.3,3.3,0.2c0.8,0.4,1.7,1.4,1.7,1.4l-15.1,25.3"/>
              </g>
              <line class="se2" x1="429.6" y1="160.2" x2="436.8" y2="154.3"/>
              <line class="se2" x1="436" y1="164" x2="438.4" y2="155.5"/>
              <path class="se0" d="M92.4,117.2c-3.7,0-6.7,3-6.7,6.7c0,3.7,3,6.7,6.7,6.7h1.8c3.3,0.4,5.9,3.2,5.9,6.6c0,3.4-2.5,6.2-5.8,6.6
    H82.5c-3.7,0-6.7,3-6.7,6.7c0,3.7,3,6.7,6.7,6.7h12c-0.2,0-0.3,0-0.5,0c1.7,0.2,3.2,1,4.3,2.2c0.6-0.4,1.2-0.4,1.2-0.4l36.4,0.1
    l0.6,1.2v-43.2L92.4,117.2z M94,170.6c0.2,0,0.4,0,0.6,0H69.8c-3.7,0-6.7,3-6.7,6.7v0c0,3.7,3,6.7,6.7,6.7h24.8
    c-0.2,0-0.3,0-0.5,0c3.5,0.2,6.2,3.2,6.2,6.7c0,3.4-2.5,6.2-5.8,6.6h-1.5c-3.7,0-6.7,3-6.7,6.7v0c0,3.7,3,6.7,6.7,6.7h13.6
    l-8.2-42.5C97.3,169.6,95.8,170.4,94,170.6z M136.5,210.7v-21.9l-0.1,21.9H136.5z"/>
              <path class="se3" d="M122.9,148.1c0,0,0.4-5.1,2.5-9.6c2.1-4.5,4.7-4,4.7-4h6.1l0.3,24.8l-9-0.3L122.9,148.1z"/>
              <g>
                  <path class="se4" d="M366.6,235.3V97.9c0,0,0.6-6.9-5.9-6.9s-211.8,0-218.3,0s-5.9,6.9-5.9,6.9v137.6"/>
                  <polyline class="se5" points="146.5,235.3 146.5,105.5 356.3,105.5 356.3,235.5 			"/>
                  <line class="se6" x1="146.5" y1="115.3" x2="356.1" y2="115.3"/>
                  <line class="se5" x1="146.8" y1="135.5" x2="356.1" y2="135.5"/>
                  <line class="se5" x1="146.8" y1="145.4" x2="356.1" y2="145.4"/>
                  <line class="se5" x1="279" y1="155.4" x2="356.1" y2="155.4"/>
                  <line class="se5" x1="146.8" y1="155.4" x2="246" y2="155.4"/>
                  <line class="se5" x1="146.8" y1="165.4" x2="356.1" y2="165.4"/>
                  <line class="se5" x1="146.8" y1="175.6" x2="356.1" y2="175.6"/>
                  <line class="se5" x1="356.1" y1="185.2" x2="146.8" y2="185.2"/>
                  <polyline class="se5" points="146.8,195.4 157.7,195.4 197.7,195.4 356.1,195.4 			"/>
                  <polyline class="se5" points="356.1,205.3 158,205.3 146.8,205.3 			"/>
                  <polyline class="se5" points="356.1,215.5 342.9,215.5 146.8,215.5 			"/>
                  <polyline class="se5" points="356.1,225.8 340.8,225.8 286.3,225.8 146.8,225.8 			"/>
                  <line class="se5" x1="146.8" y1="125.3" x2="356.1" y2="125.3"/>
                  <circle class="se7" cx="339.1" cy="110.6" r="1.5"/>
                  <line class="se8" x1="155.8" y1="115.5" x2="155.8" y2="235.1"/>
                  <line class="se8" x1="186.2" y1="115.5" x2="186.2" y2="234.9"/>
                  <line class="se9" x1="216.3" y1="115.5" x2="216.3" y2="234.8"/>
                  <line class="se5" x1="246.1" y1="125.3" x2="246.1" y2="234.8"/>
                  <line class="se9" x1="246.1" y1="115.5" x2="246.1" y2="234.8"/>
                  <line class="se10" x1="276.5" y1="157.8" x2="276.5" y2="234.8"/>
                  <line class="se10" x1="276.5" y1="115.5" x2="276.5" y2="145.2"/>
                  <line class="se5" x1="306.4" y1="125.3" x2="306.4" y2="235.1"/>
                  <line class="se5" x1="336.2" y1="125.3" x2="336.2" y2="234.4"/>
                  <line class="se9" x1="336.2" y1="115.4" x2="336.2" y2="215.6"/>
                  <circle class="se11" cx="348.7" cy="110.6" r="1.7"/>
                  <circle class="se3" cx="344" cy="110.6" r="1.7"/>
                  <polyline class="se12" points="273.6,155.5 246.1,155.5 246.1,145.4 276.5,145.4 276.5,152.7 			"/>
                  <rect x="274.9" y="153.7" class="se13" width="3" height="3"/>
                  <rect x="157.8" y="118.9" class="se0" width="23.7" height="4.1"/>
                  <rect x="157.8" y="129.1" class="se0" width="23.7" height="4.1"/>
                  <rect x="157.8" y="139.1" class="se0" width="23.7" height="4.1"/>
                  <rect x="157.8" y="149.1" class="se0" width="23.7" height="4.1"/>
                  <rect x="248.9" y="188.2" class="se0" width="23.7" height="4.1"/>
                  <rect x="189.4" y="159.5" class="se0" width="11.8" height="4"/>
                  <rect x="148.6" y="119.4" class="se0" width="4.9" height="4"/>
                  <rect x="148.6" y="130.2" class="se0" width="4.9" height="4"/>
                  <rect x="148.6" y="139.4" class="se0" width="4.9" height="4"/>
                  <rect x="148.6" y="149.2" class="se0" width="4.9" height="4"/>
                  <rect x="148.6" y="159.7" class="se0" width="4.9" height="4"/>
                  <rect x="148.6" y="169.8" class="se0" width="4.9" height="4"/>
                  <rect x="148.6" y="179.3" class="se0" width="4.9" height="4"/>
                  <rect x="148.6" y="189.6" class="se0" width="4.9" height="4"/>
                  <rect x="148.6" y="199.6" class="se0" width="4.9" height="4"/>
                  <rect x="148.6" y="209.3" class="se0" width="4.9" height="4"/>
                  <rect x="148.6" y="219.9" class="se0" width="4.9" height="4"/>
                  <rect x="249.3" y="148.5" class="se0" width="23.7" height="4.1"/>
                  <rect x="248.9" y="118.9" class="se0" width="23.7" height="4.1"/>
                  <rect x="189.2" y="118.9" class="se0" width="15.4" height="4.2"/>
                  <rect x="219.2" y="118.9" class="se0" width="15.4" height="4.2"/>
                  <line class="se4" x1="374.3" y1="235.3" x2="377.4" y2="235.3"/>
                  <path class="se4" d="M377.4,245.7c-4,0-17.9,0-35.3,0c0,0-214.1,0-215.7,0c-12.1,0-10.8-10.4-10.8-10.4h258.8"/>
              </g>
              <path class="se5" d="M380,248.7v-54.9c0-0.9,0.7-1.6,1.6-1.6h6.6"/>
              <g>
                  <g>
                      <polygon class="se7" points="395.9,218.3 418.5,218.4 418.5,235.5 421.7,235.5 421.7,215 392.6,215 392.6,241.3 415.8,241.3
        415.8,238.1 395.9,238.1 				"/>
                      <rect x="417.7" y="237.4" class="se7" width="5" height="5"/>
                  </g>
                  <path class="se7" d="M400,223.9v1.7h-0.9v-4h0.9v1.5h1.5v-1.5h0.9v4h-0.9v-1.7H400z"/>
                  <path class="se7" d="M403.1,223.6c0.1-0.7,0.5-1,1.3-1c0.4,0,0.8,0.1,1,0.3c0.2,0.2,0.3,0.4,0.3,0.8v1.3c0,0.3,0,0.4,0.1,0.5
      h-0.9c0-0.1,0-0.1-0.1-0.2c-0.3,0.2-0.5,0.3-0.8,0.3c-0.6,0-1.1-0.4-1.1-0.9s0.3-0.8,1.1-1l0.5-0.1c0.2,0,0.3-0.1,0.3-0.2
      c0-0.2-0.2-0.3-0.4-0.3c-0.3,0-0.5,0.1-0.5,0.3H403.1z M404.8,224.2c-0.1,0-0.2,0.1-0.3,0.1l-0.3,0.1c-0.3,0.1-0.4,0.2-0.4,0.3
      c0,0.2,0.2,0.3,0.4,0.3c0.3,0,0.5-0.1,0.6-0.4V224.2z"/>
                  <path class="se7" d="M407,222.7v0.3c0.3-0.3,0.5-0.4,0.8-0.4c0.6,0,1,0.4,1,1.1v1.9H408V224c0-0.3,0-0.4-0.1-0.5
      c-0.1-0.1-0.2-0.2-0.3-0.2c-0.1,0-0.3,0.1-0.4,0.2c-0.1,0.1-0.1,0.2-0.1,0.5v1.6h-0.8v-2.9H407z"/>
                  <path class="se7" d="M412.2,225.6h-0.8v-0.3c-0.2,0.3-0.4,0.4-0.8,0.4c-0.8,0-1.3-0.6-1.3-1.5c0-0.9,0.5-1.5,1.3-1.5
      c0.3,0,0.5,0.1,0.7,0.3v-1.3h0.8V225.6z M410.1,224.2c0,0.5,0.2,0.8,0.6,0.8c0.4,0,0.6-0.3,0.6-0.8c0-0.5-0.2-0.8-0.6-0.8
      C410.4,223.3,410.1,223.7,410.1,224.2z"/>
                  <path class="se7" d="M414.3,223.6c0-0.2-0.2-0.3-0.5-0.3c-0.2,0-0.4,0.1-0.4,0.2c0,0.1,0.1,0.2,0.4,0.2l0.5,0.1
      c0.4,0.1,0.5,0.1,0.7,0.3c0.1,0.1,0.2,0.3,0.2,0.6c0,0.6-0.5,1-1.3,1c-0.8,0-1.3-0.4-1.3-1h0.8c0,0.3,0.2,0.4,0.6,0.4
      c0.3,0,0.4-0.1,0.4-0.3c0-0.1-0.1-0.2-0.3-0.3l-0.5-0.1c-0.6-0.1-0.9-0.4-0.9-0.8c0-0.6,0.5-0.9,1.2-0.9c0.7,0,1.2,0.3,1.3,0.9
      H414.3z"/>
                  <g>
                      <path class="se7" d="M402.3,228.3c0,0.9-0.6,1.5-1.5,1.5c-0.9,0-1.5-0.6-1.5-1.5c0-0.9,0.6-1.5,1.5-1.5
        C401.6,226.8,402.3,227.4,402.3,228.3z M400.1,228.3c0,0.5,0.2,0.8,0.7,0.8c0.4,0,0.7-0.3,0.7-0.8c0-0.6-0.2-0.9-0.7-0.9
        C400.3,227.5,400.1,227.8,400.1,228.3z"/>
                      <path class="se7" d="M403.5,226.9v0.3c0.3-0.3,0.5-0.4,0.8-0.4c0.6,0,1,0.4,1,1.1v1.9h-0.8v-1.6c0-0.3,0-0.4-0.1-0.5
        c-0.1-0.1-0.2-0.2-0.3-0.2c-0.1,0-0.3,0.1-0.4,0.2c-0.1,0.1-0.1,0.2-0.1,0.5v1.6h-0.8v-2.9H403.5z"/>
                  </g>
                  <g>
                      <path class="se7" d="M401,232.5h-0.5v1.1c0,0.5,0,0.5,0.2,0.5h0.3v0.6h-0.5c-0.4,0-0.6-0.1-0.7-0.2c-0.1-0.1-0.2-0.3-0.2-0.7
        v-1.3h-0.4v-0.6h0.4V231h0.8v0.9h0.5V232.5z"/>
                      <path class="se7" d="M401.4,232.8c0.1-0.7,0.5-1,1.3-1c0.4,0,0.8,0.1,1,0.3c0.2,0.2,0.3,0.4,0.3,0.8v1.3c0,0.3,0,0.4,0.1,0.5
        h-0.9c0-0.1,0-0.1-0.1-0.2c-0.3,0.2-0.5,0.3-0.8,0.3c-0.6,0-1.1-0.4-1.1-0.9s0.3-0.8,1.1-1l0.5-0.1c0.2,0,0.3-0.1,0.3-0.2
        c0-0.2-0.2-0.3-0.4-0.3c-0.3,0-0.5,0.1-0.5,0.3H401.4z M403.1,233.4c-0.1,0-0.2,0.1-0.3,0.1l-0.3,0.1c-0.3,0.1-0.4,0.2-0.4,0.3
        c0,0.2,0.2,0.3,0.4,0.3c0.3,0,0.5-0.1,0.6-0.4V233.4z"/>
                      <path class="se7" d="M404.5,230.8h0.8v1.3c0.3-0.2,0.5-0.3,0.8-0.3c0.7,0,1.2,0.6,1.2,1.5c0,0.9-0.5,1.6-1.3,1.6
        c-0.4,0-0.6-0.1-0.8-0.4v0.3h-0.8V230.8z M405.3,233.3c0,0.5,0.2,0.8,0.6,0.8s0.6-0.3,0.6-0.8c0-0.5-0.2-0.8-0.6-0.8
        C405.6,232.5,405.3,232.8,405.3,233.3z"/>
                      <path class="se7" d="M408.7,234.7h-0.8v-4h0.8V234.7z"/>
                      <path class="se7" d="M410,233.6c0.1,0.4,0.3,0.6,0.6,0.6c0.2,0,0.4-0.1,0.5-0.3h0.9c-0.2,0.6-0.7,0.9-1.4,0.9
        c-0.9,0-1.5-0.6-1.5-1.5c0-0.9,0.6-1.5,1.5-1.5c0.6,0,1.1,0.3,1.3,0.8c0.1,0.3,0.1,0.5,0.1,0.9H410z M411.2,233
        c0-0.3-0.2-0.5-0.6-0.5c-0.3,0-0.5,0.2-0.6,0.5H411.2z"/>
                  </g>
              </g>
              <path class="se13" d="M424.5,263.2h-32.2c-0.8,0-1.4-0.6-1.4-1.4v-0.3c0-0.8,0.6-1.4,1.4-1.4h32.2c0.8,0,1.4,0.6,1.4,1.4v0.3
    C425.8,262.5,425.2,263.2,424.5,263.2z"/>
              <path class="se4" d="M437.6,236.3h13.8c0.9,0,1.6-0.7,1.6-1.6v-23.4c0-0.9-0.7-1.6-1.6-1.6h-13.8"/>
              <path class="se5" d="M437.6,214.6h8.9c0.9,0,1.6,0.7,1.6,1.6v13.3c0,0.9-0.7,1.6-1.6,1.6h-8.9"/>
              <g>
                  <path class="se1" d="M69.8,232.1c0,0,1.9-4.5,30.8-4.6c28.9-0.2,30.4,5,30.4,5"/>
                  <path class="se7" d="M151.1,239.7v-8.5l-43.5,2l-0.6,2.4c0,0-2.4-1.7-5.9-1.8v0c-0.1,0-0.1,0-0.2,0c-0.1,0-0.1,0-0.2,0v0
      c-3.5,0.1-5.9,1.8-5.9,1.8l-1-2.8l-43.1-1.7v8.5c0,0-1.5,23,22.8,22.8c21.3-0.2,21.1-19.8,21.1-19.8s3.4-1.9,6.3-2
      c2.9,0.1,6.3,2,6.3,2s-0.2,19.7,21.1,19.8C152.6,262.7,151.1,239.7,151.1,239.7z"/>
                  <path class="se14" d="M58,235.9h-4.2c-0.4,0-0.8-0.3-0.8-0.8V235c0-0.4,0.3-0.8,0.8-0.8H58c0.4,0,0.8,0.3,0.8,0.8v0.2
      C58.7,235.5,58.4,235.9,58,235.9z"/>
                  <path class="se14" d="M148.3,235.9h-4.2c-0.4,0-0.8-0.3-0.8-0.8V235c0-0.4,0.3-0.8,0.8-0.8h4.2c0.4,0,0.8,0.3,0.8,0.8v0.2
      C149,235.5,148.7,235.9,148.3,235.9z"/>
              </g>
              <path class="se5" d="M109.5,219.3c-0.9,0-1.6-0.7-1.6-1.6L98.3,166"/>
              <path class="se4" d="M97.8,163.3l-0.5-2.5c0-0.9,0.7-1.6,1.6-1.6h37.6c-0.2,0-0.1,60.1,0,60.1h-24.4"/>
              <path class="se0" d="M108,159.7c0,0-1.3,10.2,2.2,25c3.3,14,8.6,21.6,8.6,21.6s3.1-14.5,5-28.5c1.9-14.2,2.1-18.1,2.1-18.1H108z"
              />
              <path class="se3" d="M101.5,158.6c0,0-1.9-6.8-8.7-10.5s-8.7-3-8.7-3l12.8-1.9c0,0,3.2,0,7.6,4.3c4.5,4.3,7.5,11,7.5,11H101.5z"/>
              <path class="se15" d="M114.2,144.4c0,0-5.8,10.8-4,25c1.9,14.9,11.1,38,11.1,38s5.4-19.6,7.8-34.8c2.4-15.2-4.4-27.7-4.9-28.2
    C123.9,144.2,114.2,144.4,114.2,144.4z"/>
              <path class="se15" d="M96.9,143.3c0,0-10.5,0.1-14.3,2.4s-8.6,19.5-8.5,32c0.1,12.5,5.3,25.2,5.3,25.2s8.1-13.8,10.4-22.4
    c2.4-8.6,1.2-22.5,3-30.2C94,145.3,96.9,143.3,96.9,143.3z"/>
              <line class="se16" x1="110.7" y1="211.3" x2="133.3" y2="211.3"/>
              <path class="se17" d="M86.2,146.5c0,0-4.4,11.1-5.7,22.6c-1.3,11.5-0.7,25.2-0.7,25.2"/>
              <path class="se17" d="M85.8,150.7c0,0,0.4,3,1.1,4.4c1.2,2.2,2.2,3.3,2.6,3.5"/>
              <path class="se17" d="M84.6,156.2c0,0,0.9,3.8,3.3,6.3"/>
              <path class="se17" d="M81.9,175.5c0,0,0.8,3.8,2.1,6s1.9,2.9,1.9,2.9"/>
              <path class="se17" d="M119.1,146.1c0,0,2,17.8,2.3,31.8c0.3,14-0.1,21.1-0.1,21.1"/>
              <path class="se17" d="M117.7,152.4c0,0-0.6,4.7-1.8,7.4c-1.3,2.7-3.2,4-3.2,4"/>
              <path class="se17" d="M118.2,160.2c0,0-0.3,8.5-1.7,12c-1.5,3.5-2.6,4.8-2.6,4.8"/>
              <path class="se17" d="M123.3,161.6c0,0,0.8,8,2.1,11.8"/>
              <path class="se7" d="M437.3,153.7c0,0,0,0,0,0.1c0.1,0.2,0.3,0.5,0.6,0.7c0.4,0.2,0.9,0.2,0.9,0.2l1.3-4.2L437.3,153.7z"/>
              <line class="se2" x1="431.1" y1="165" x2="416.7" y2="189.8"/>
              <path class="se4" d="M390.6,192.2h43.1c0.9,0,1.6,0.7,1.6,1.6v65.2c0,0.9-0.7,1.6-1.6,1.6h-52.1c-0.9,0-1.6-0.7-1.6-1.6v-5.9"/>
              <path class="se18" d="M337.9,98.3c0-6.6-4.6-11.2-11.2-11.2c6.6,0,11.2-4.6,11.2-11.2c0,6.6,4.6,11.2,11.2,11.2
    C342.5,87.1,337.9,91.7,337.9,98.3z"/>
              <path class="se18" d="M229.6,77.5c0-10.7-7.4-18.2-18.2-18.2c10.7,0,18.2-7.4,18.2-18.2c0,10.7,7.4,18.2,18.2,18.2
    C237,59.3,229.6,66.8,229.6,77.5z"/>
              <path class="se18" d="M193.3,247.7c0-10.7-7.4-18.2-18.2-18.2c10.7,0,18.2-7.4,18.2-18.2c0,10.7,7.4,18.2,18.2,18.2
    C200.7,229.6,193.3,237,193.3,247.7z"/>
              <path class="se0" d="M407.2,76.9h-48.8c-3.3,0-6-2.7-6-6v-1.4c0-3.3,2.7-6,6-6h48.8c3.3,0,6,2.7,6,6v1.4
    C413.2,74.2,410.5,76.9,407.2,76.9z"/>
          </g>
          <path class="se19" d="M54.2,239.3c0,0-0.8,17.7,15.4,19.7"/>
          <path class="se19" d="M112,239.9c0,0-1.6,16.7,14.6,18.8"/>
      </g>
      <path class="se17" d="M80.7,145.9c0,0-4.9,8.5-6.5,18.5c-3.8,23.9,4.1,39.1,4.1,39.1"/>
      <path class="se17" d="M93.8,150c0,0,1.8,1,3.5,3.4c1.8,2.4,2.3,3.8,2.3,3.8"/>
      <path class="se17" d="M112.2,144.4c0,0-3.5,6.5-3.9,13.7c-0.4,7.2,0.8,18.5,4.2,29c3.3,10.5,7.6,20.3,7.6,20.3"/>
      <path class="se17" d="M122.5,143.2c0,0,1.6-5.5,3.1-7.6c1.3-1.8,2.6-2.4,4.1-2.4c1.1,0,5.6,0,5.6,0"/>
      <path class="se20" d="M76.6,231.4c0,0,7.9-2,22.7-2c15.6-0.1,21.4,1.4,21.4,1.4"/>
      <path class="se21" d="M48.9,234.7c0,0-3.6,15.1,8.5,25.1c5.7,4.7,14,5,18,4.6"/>
      <path class="se21" d="M104.7,243.7c0,0-0.3,7,4.7,13c5,6,11.4,7.5,17.4,7.7"/>
      <path class="se19" d="M382.3,244.2v-47.7c0,0-0.4-1.7,1.5-1.7c1.9,0,45.3,0,45.3,0"/>
      <path class="se19" d="M437.7,211.8h11.9c0,0,1.3-0.3,1.3,1.1c0,1.9,0,13.8,0,13.8"/>
      <line class="se19" x1="382.8" y1="257.8" x2="432" y2="257.8"/>
      <path class="se19" d="M229.4,51.1c0,0,0.1,2.1-2.8,4.9c-2,2-5.1,3-5.1,3"/>
      <path class="se22" d="M332.8,87.3c0,0,2-0.5,3.3-1.9c1.3-1.4,1.6-2.7,1.6-2.7"/>
      <path class="se23" d="M193.2,220.5c0,0-0.7,3.7-3.8,6.2c-3.2,2.5-5.4,2.9-5.4,2.9"/>
  </symbol>
  
  <symbol viewBox="0 0 500 320" id="powerful-features">
      <style type="text/css">
          .pf0{fill:#E4F1FD;}
          .pf1{fill:none;stroke:#2AB1EB;stroke-miterlimit:10;}
          .pf2{fill:none;stroke:#2AB1EB;stroke-width:0.5;stroke-miterlimit:10;}
          .pf3{fill:none;stroke:#2AB1EB;stroke-width:0.523;stroke-miterlimit:10;}
          .pf4{fill:none;stroke:#2AB1EB;stroke-width:0.4535;stroke-miterlimit:10;}
          .pf5{fill:none;stroke:#2AB1EB;stroke-width:0.4667;stroke-miterlimit:10;}
          .pf6{fill:none;stroke:#2AB1EB;stroke-width:0.4276;stroke-miterlimit:10;}
          .pf7{fill:none;stroke:#2AB1EB;stroke-width:0.4267;stroke-miterlimit:10;}
          .pf8{fill:#414C5C;}
          .pf9{fill:none;stroke:#2AB1EB;stroke-width:0.5225;stroke-miterlimit:10;}
          .pf10{fill:none;stroke:#2AB1EB;stroke-width:0.5223;stroke-miterlimit:10;}
          .pf11{fill:none;stroke:#2AB1EB;stroke-width:0.5352;stroke-miterlimit:10;}
          .pf12{fill:#E77577;}
          .pf13{fill:#7EC795;}
          .pf14{fill:#F9D87F;}
          .pf15{fill:#BC626B;}
          .pf16{fill:#7D94AF;}
          .pf17{fill:#EFAC06;}
          .pf18{fill:#CCB06A;}
          .pf19{fill:#DFE3E8;}
          .pf20{fill:none;stroke:#FCFCFC;stroke-width:0.4199;stroke-linecap:round;stroke-miterlimit:10;}
          .pf21{fill:#E0C175;}
          .pf22{fill:none;stroke:#414C5C;stroke-width:0.289;stroke-miterlimit:10;}
          .pf23{fill:none;stroke:#414C5C;stroke-width:1.156;stroke-linecap:round;stroke-miterlimit:10;}
          .pf24{fill:none;stroke:#E0AF41;stroke-width:0.4199;stroke-linecap:round;stroke-miterlimit:10;}
          .pf25{fill:#FFFFFF;}
          .pf26{fill:#FCFCFC;}
          .pf27{fill:#DDDDDD;}
          .pf28{fill:none;stroke:#7F96B2;stroke-width:0.2312;stroke-miterlimit:10;}
          .pf29{fill:none;stroke:#F9D87F;stroke-width:0.2854;stroke-linecap:round;stroke-miterlimit:10;}
          .pf30{fill:none;stroke:#E0C175;stroke-width:0.578;stroke-linecap:round;stroke-miterlimit:10;}
          .pf31{fill:none;stroke:#414C5C;stroke-width:0.4199;stroke-linecap:round;stroke-miterlimit:10;}
          .pf32{fill:#669E76;}
      </style>
      <path class="pf0" d="M129.6,168.6h-3.2c-3-0.4-5.4-2.9-5.4-6c0-3.3,2.7-6.1,6.1-6.1h2.5v-24.3H86.2c-3.3,0-6.1,2.7-6.1,6.1
  s2.7,6.1,6.1,6.1H105c3.3,0,6.1,2.7,6.1,6.1s-2.7,6.1-6.1,6.1H67.6c-3.3,0-6.1,2.7-6.1,6.1s2.7,6.1,6.1,6.1h24.5
  c-3,0.4-5.4,2.9-5.4,6c0,3.3,2.7,6.1,6.1,6.1h36.8V168.6z"/>
      <path class="pf0" d="M272.1,75.2h-37.4c-3.3,0-6.1-2.7-6.1-6.1s2.7-6.1,6.1-6.1h18.8c3.3,0,6.1-2.7,6.1-6.1s-2.7-6.1-6.1-6.1h-44.9
  c-3.3,0-6.1,2.7-6.1,6.1s2.7,6.1,6.1,6.1h-13.6c-3.3,0-6.1,2.7-6.1,6.1s2.7,6.1,6.1,6.1h17.7c3.3,0,6.1,2.7,6.1,6.1
  c0,3.1-2.4,5.7-5.4,6H188c-3.3,0-6.1,2.7-6.1,6.1c0,3.3,2.7,6.1,6.1,6.1h58.9c3.3,0,6.1-2.7,6.1-6.1c0-3.1-2.4-5.7-5.4-6h24.5
  c3.3,0,6.1-2.7,6.1-6.1S275.4,75.2,272.1,75.2z"/>
      <path class="pf0" d="M438.9,112.1h-22.5c0.1,0,0.3,0,0.4,0c-3.1-0.2-5.7-2.9-5.7-6.1c0-3.1,2.3-5.6,5.3-6h1.3c3.3,0,6.1-2.7,6.1-6.1
  v0c0-3.3-2.7-6.1-6.1-6.1l-72.6-0.2c-3.1,0-5.8,2.2-6.2,5.3c-0.5,3.7,2.4,6.9,6,6.9h13.6c2.7,0,4.9,2.2,4.9,4.9v68.2h29.8l25.1,0
  c3.3,0,6.1-2.7,6.1-6.1c0-3.3-2.7-6.1-6.1-6.1h-1.6c-3-0.4-5.3-2.9-5.3-6c0-3.1,2.3-5.6,5.3-6h10.8c3.3,0,6.1-2.7,6.1-6.1
  c0-3.3-2.7-6.1-6.1-6.1h-10.9c0.2,0,0.3,0,0.5,0c-3.1-0.3-5.5-2.9-5.5-6.1v0c0-3.2,2.4-5.8,5.5-6.1c-0.2,0-0.4,0-0.5,0h22.5
  c3.3,0,6.1-2.7,6.1-6.1v0C445,114.9,442.3,112.1,438.9,112.1z"/>
      <path class="pf1" d="M151.4,99.4c-8.9,0-14.6,0-15.6,0c-6.6,0-6,7-6,7v139.8"/>
      <path class="pf1" d="M363.6,246V106.4c0,0,0.6-7-6-7c-5.1,0-130.9,0-190.8,0"/>
      <polyline class="pf2" points="167,114.1 353.1,114.1 353.1,246.2 "/>
      <polyline class="pf2" points="139.9,245.9 139.9,114.1 151.9,114.1 "/>
      <line class="pf3" x1="210.7" y1="144.6" x2="241.1" y2="144.6"/>
      <line class="pf4" x1="179.9" y1="154.6" x2="240.8" y2="154.6"/>
      <line class="pf5" x1="180.3" y1="164.8" x2="272.2" y2="164.8"/>
      <line class="pf2" x1="140.2" y1="164.8" x2="151.1" y2="164.8"/>
      <line class="pf2" x1="166" y1="175" x2="271.9" y2="175"/>
      <line class="pf2" x1="140.2" y1="175" x2="151.1" y2="175"/>
      <line class="pf6" x1="166" y1="185.3" x2="302.7" y2="185.3"/>
      <line class="pf2" x1="140.2" y1="185.3" x2="151.1" y2="185.3"/>
      <line class="pf2" x1="151.1" y1="195.1" x2="140.2" y2="195.1"/>
      <polyline class="pf7" points="302.2,195.1 175.8,195.1 166,195.1 "/>
      <line class="pf2" x1="151.1" y1="205.5" x2="140.2" y2="205.5"/>
      <polyline class="pf2" points="352.9,205.5 192,205.5 166,205.5 "/>
      <line class="pf2" x1="151.1" y1="215.5" x2="140.2" y2="215.5"/>
      <polyline class="pf2" points="352.9,215.5 311.3,215.5 293.3,215.5 191.8,215.5 166,215.5 "/>
      <polyline class="pf2" points="332.5,225.9 335.5,225.9 339.5,225.9 352.9,225.9 "/>
      <polyline class="pf2" points="151.1,225.9 151.1,225.9 140.2,225.9 "/>
      <polyline class="pf2" points="332.7,226 191.8,225.9 166,225.9 "/>
      <line class="pf2" x1="352.9" y1="236.4" x2="210.7" y2="236.4"/>
      <circle class="pf8" cx="335.6" cy="119.3" r="1.5"/>
      <line class="pf3" x1="180.3" y1="123.7" x2="180.3" y2="225.9"/>
      <line class="pf9" x1="210.8" y1="123.9" x2="210.8" y2="245.5"/>
      <line class="pf2" x1="241.1" y1="134.2" x2="241.1" y2="245.5"/>
      <line class="pf10" x1="241.1" y1="144.8" x2="241.1" y2="245.5"/>
      <line class="pf3" x1="272" y1="236.6" x2="272" y2="245.5"/>
      <line class="pf3" x1="272" y1="154.2" x2="272" y2="226"/>
      <line class="pf2" x1="302.4" y1="236.6" x2="302.4" y2="245.9"/>
      <line class="pf2" x1="302.4" y1="185.3" x2="302.4" y2="226"/>
      <line class="pf11" x1="332" y1="199.1" x2="332" y2="245.7"/>
      <circle class="pf12" cx="345.4" cy="119.3" r="1.7"/>
      <circle class="pf13" cx="340.5" cy="119.3" r="1.7"/>
      <rect x="212.5" y="166.4" class="pf12" width="26.6" height="6.9"/>
      <rect x="273.7" y="186.9" class="pf14" width="27.1" height="6.8"/>
      <rect x="242.9" y="206.7" class="pf8" width="27.2" height="7.8"/>
      <rect x="242.5" y="227.3" class="pf0" width="88.8" height="7.8"/>
      <g>
          <rect x="213.9" y="167.1" class="pf15" width="23.7" height="0.6"/>

          <rect x="211.4" y="169.6" transform="matrix(-1.836970e-16 1 -1 -1.836970e-16 384.0752 -44.2819)" class="pf15" width="5.6" height="0.6"/>

          <rect x="234.5" y="169.6" transform="matrix(-1.836970e-16 1 -1 -1.836970e-16 407.2279 -67.4347)" class="pf15" width="5.6" height="0.6"/>
          <rect x="213.9" y="172.1" class="pf15" width="23.7" height="0.6"/>
      </g>
      <g>
          <rect x="244.6" y="207.8" class="pf16" width="23.7" height="0.6"/>

          <rect x="242.1" y="210.3" transform="matrix(-1.836970e-16 1 -1 -1.836970e-16 455.4883 -34.2953)" class="pf16" width="5.6" height="0.6"/>

          <rect x="265.3" y="210.3" transform="matrix(-1.836970e-16 1 -1 -1.836970e-16 478.6411 -57.448)" class="pf16" width="5.6" height="0.6"/>
          <rect x="244.6" y="212.8" class="pf16" width="23.7" height="0.6"/>
      </g>
      <g>
          <rect x="275.2" y="187.5" class="pf17" width="23.7" height="0.6"/>

          <rect x="272.7" y="190" transform="matrix(-1.836970e-16 1 -1 -1.836970e-16 465.8282 -85.1938)" class="pf17" width="5.6" height="0.6"/>

          <rect x="295.9" y="190" transform="matrix(-1.836970e-16 1 -1 -1.836970e-16 488.981 -108.3465)" class="pf17" width="5.6" height="0.6"/>
          <rect x="275.2" y="192.5" class="pf17" width="23.7" height="0.6"/>
      </g>
      <polygon class="pf14" points="140.3,242.9 181.9,242.9 181.9,240 199.4,240 199.4,242.9 204.4,242.9 204.4,229.1 167.2,229.1
  167.2,234.7 151.4,234.7 151.4,229.1 140.3,229.1 "/>
      <rect x="140.2" y="240.8" class="pf18" width="39.9" height="2.1"/>
      <rect x="195.6" y="240.8" class="pf18" width="8.8" height="2.1"/>
      <rect x="178.9" y="237.9" class="pf18" width="22.6" height="2.1"/>
      <line class="pf3" x1="149.4" y1="124.2" x2="149.4" y2="226"/>
      <polygon class="pf19" points="352.7,40 296.2,40 296.2,34 343.1,34 "/>
      <path class="pf20" d="M337.3,40c-0.1-0.1-41.1-6-41.1-6v5.9"/>
      <rect x="156.7" y="70.3" class="pf21" width="29.9" height="5.5"/>
      <line class="pf22" x1="154.3" y1="6.9" x2="108.6" y2="31.9"/>
      <line class="pf22" x1="164.2" y1="6.8" x2="343.8" y2="31.5"/>
      <line class="pf22" x1="323.5" y1="42.9" x2="323.5" y2="164.4"/>
      <line class="pf22" x1="344.5" y1="42.9" x2="344.5" y2="164.4"/>
      <polygon class="pf14" points="186.6,69.1 156.8,69.1 156.8,51.8 180,51.8 186.6,58.2 "/>
      <polygon class="pf21" points="185.4,63.4 177.9,63.4 176.4,63.4 176.3,53.1 178.9,53.1 185.3,59.1 "/>
      <rect x="176.4" y="64.7" class="pf21" width="9" height="3.5"/>
      <polygon class="pf21" points="175.8,63.5 160.8,63.5 160.7,53 175.8,53 "/>
      <path class="pf8" d="M164.4,32.6h179.2l14.3,8.9l2.9,0L344.3,31l-180.2-0.1L164.4,32.6z M154.2,30.9l-45.9,0v1.6h46L154.2,30.9z"/>
      <polyline class="pf23" points="56.3,34.5 56.3,26.4 108.1,26.4 108.1,35.7 "/>
      <polyline class="pf24" points="108.1,37.9 108.1,45.3 56.3,45.3 56.3,36.7 "/>
      <polygon class="pf25" points="179.4,53.1 185.4,58.9 185.4,62.5 177.2,62.5 177.2,53.1 "/>
      <rect x="177.2" y="64.7" class="pf25" width="8.1" height="2.7"/>
      <rect x="161.7" y="53" class="pf25" width="14.1" height="9.5"/>
      <path class="pf14" d="M58.8,43.7h9.5V28.6h-9.5V43.7z M69.5,43.7h22.6V28.6H69.5V43.7z M93.5,28.6v15.1h12.2V28.6H93.5z"/>
      <rect x="153.3" y="5.9" class="pf8" width="12" height="1.5"/>
      <path class="pf8" d="M153.3,6v26.5h1.6V6H153.3z"/>
      <polygon class="pf8" points="165.4,49.7 163.8,49.7 163.8,6 165.4,6 "/>
      <rect x="110.4" y="34" class="pf19" width="41.1" height="6"/>
      <rect x="156.4" y="8.7" class="pf19" width="5.8" height="20.5"/>
      <rect x="156.4" y="34" class="pf19" width="5.8" height="5.9"/>
      <polygon class="pf0" points="170.6,61.9 175,55.7 175,53.5 173.5,53.5 167.6,62 "/>
      <polygon class="pf0" points="175,56.2 171,62 172.1,62 175,57.6 "/>
      <polygon class="pf0" points="170.1,53.5 163.5,62.1 164.4,62.1 170.9,53.4 "/>
      <polygon class="pf0" points="179.9,54.3 177.6,57.4 177.6,58.1 180.2,54.6 "/>
      <polygon class="pf0" points="182.6,57.1 178.5,62 181.6,62 184.5,58.7 "/>
      <polygon class="pf0" points="177.5,66.7 177.5,67.1 178,67.1 180.1,64.9 179.2,64.9 "/>
      <polygon class="pf0" points="178.4,67.1 180.5,64.9 182.2,64.9 180,67.1 "/>
      <polygon class="pf26" points="65.8,31.4 59.5,31.4 61.2,29.4 67.6,29.4 "/>
      <polygon class="pf26" points="103,31.4 94.5,31.4 96.2,29.4 104.8,29.4 "/>
      <polygon class="pf26" points="89.1,31.4 70.4,31.4 72.1,29.4 90.9,29.4 "/>
      <circle class="pf8" cx="340.7" cy="42.6" r="3.8"/>
      <circle class="pf8" cx="327.2" cy="42.6" r="3.8"/>
      <g>
          <rect x="183.1" y="242.6" class="pf27" width="13.2" height="1.4"/>
          <circle class="pf8" cx="181.6" cy="242.6" r="3.8"/>
          <circle class="pf28" cx="181.7" cy="242.6" r="2.9"/>
          <circle class="pf8" cx="198.7" cy="242.6" r="3.8"/>
          <circle class="pf28" cx="198.7" cy="242.6" r="2.9"/>
          <rect x="183.1" y="241.1" class="pf27" width="15" height="0.9"/>
      </g>
      <path class="pf1" d="M119.4,256.6c-12.2,0-10.9-10.6-10.9-10.6h28.1h247.4c0,10.7-10.4,10.6-10.4,10.6s-12.6,0-35,0
  C338.6,256.6,121.1,256.6,119.4,256.6z"/>
      <g>
          <line class="pf29" x1="157.7" y1="75.2" x2="159.9" y2="70.9"/>
          <line class="pf29" x1="158.9" y1="75.2" x2="161.1" y2="70.9"/>
          <line class="pf29" x1="160.1" y1="75.2" x2="162.3" y2="70.9"/>
          <line class="pf29" x1="161.3" y1="75.2" x2="163.5" y2="70.9"/>
          <line class="pf29" x1="162.5" y1="75.2" x2="164.7" y2="70.9"/>
          <line class="pf29" x1="163.7" y1="75.2" x2="165.9" y2="70.9"/>
          <line class="pf29" x1="164.9" y1="75.2" x2="167.1" y2="70.9"/>
          <line class="pf29" x1="166.1" y1="75.2" x2="168.4" y2="70.9"/>
          <line class="pf29" x1="167.4" y1="75.2" x2="169.6" y2="70.9"/>
          <line class="pf29" x1="168.6" y1="75.2" x2="170.8" y2="70.9"/>
      </g>
      <rect x="181.5" y="70.9" class="pf29" width="4.2" height="4.2"/>
      <line class="pf30" x1="172.4" y1="65.1" x2="174.6" y2="65.1"/>
      <line class="pf30" x1="172.4" y1="66.4" x2="174.6" y2="66.4"/>
      <polyline class="pf29" points="185,71.7 182.2,71.7 182.2,74.3 "/>
      <path class="pf20" d="M151.5,40c-0.1-0.1-41.1-6-41.1-6v6"/>
      <g>
          <rect x="167.5" y="34" class="pf19" width="41.1" height="6"/>
          <path class="pf20" d="M208.6,40c-0.1-0.1-41.1-6-41.1-6v5.9"/>
      </g>
      <g>

          <rect x="138.9" y="94.8" transform="matrix(-1.836970e-16 1 -1 -1.836970e-16 257.1875 -61.6941)" class="pf19" width="41.1" height="6"/>
          <path class="pf20" d="M156.5,118.3c0.1-0.1,6-41.1,6-41.1h-5.9"/>
      </g>
      <g>

          <rect x="138.9" y="138.1" transform="matrix(-1.836970e-16 1 -1 -1.836970e-16 300.4801 -18.4016)" class="pf19" width="41.1" height="6"/>
          <path class="pf20" d="M156.5,161.6c0.1-0.1,6-41.1,6-41.1h-5.9"/>
      </g>
      <g>

          <rect x="138.9" y="181.3" transform="matrix(-1.836970e-16 1 -1 -1.836970e-16 343.7726 24.8909)" class="pf19" width="41.1" height="6"/>
          <path class="pf20" d="M156.5,204.9c0.1-0.1,6-41.1,6-41.1h-5.9"/>
      </g>
      <g>

          <rect x="147.3" y="215.8" transform="matrix(-1.836970e-16 1 -1 -1.836970e-16 378.2588 59.3771)" class="pf19" width="24.3" height="6"/>
          <path class="pf20" d="M156.5,230.9c0.1-0.1,6-24.2,6-24.2h-5.9"/>
      </g>
      <g>
          <rect x="210.4" y="34" class="pf19" width="41.1" height="6"/>
          <path class="pf20" d="M251.6,40c-0.1-0.1-41.1-6-41.1-6v6"/>
      </g>
      <g>
          <rect x="253.3" y="34" class="pf19" width="41.1" height="6"/>
          <path class="pf20" d="M294.4,40c-0.1-0.1-41.1-6-41.1-6v5.9"/>
      </g>
      <path class="pf19" d="M156.9,44.1v6.5h5.3v-6.5H156.9z"/>
      <polyline class="pf20" points="156.4,8.7 162.2,8.7 156.6,29 "/>
      <path class="pf12" d="M155.5,4.8V3.1c0-0.6-0.5-1-1-1s-1,0.5-1,1v1.7H155.5z"/>
      <path class="pf12" d="M57.9,24.6v-1.7c0-0.6-0.5-1-1-1c-0.6,0-1,0.5-1,1v1.7H57.9z"/>
      <path class="pf12" d="M108.6,24.6v-1.7c0-0.6-0.5-1-1-1c-0.6,0-1,0.5-1,1v1.7H108.6z"/>
      <path class="pf12" d="M165.3,4.8V3.1c0-0.6-0.5-1-1-1c-0.6,0-1,0.5-1,1v1.7H165.3z"/>
      <path class="pf12" d="M343.5,29.9v-1.7c0-0.6-0.5-1-1-1s-1,0.5-1,1v1.7H343.5z"/>
      <circle class="pf28" cx="327.3" cy="42.6" r="2.9"/>
      <circle class="pf28" cx="340.8" cy="42.6" r="2.9"/>
      <circle class="pf8" cx="153.3" cy="7.5" r="0.7"/>
      <circle class="pf8" cx="110.4" cy="30.9" r="0.7"/>
      <circle class="pf8" cx="112.8" cy="29.7" r="0.7"/>
      <circle class="pf8" cx="165.5" cy="7" r="0.7"/>
      <circle class="pf8" cx="168.2" cy="7.3" r="0.7"/>
      <circle class="pf8" cx="170.7" cy="7.7" r="0.7"/>
      <circle class="pf8" cx="340.6" cy="31" r="0.7"/>
      <circle class="pf8" cx="316" cy="27.7" r="0.7"/>
      <line class="pf31" x1="156.5" y1="31.6" x2="162.4" y2="31.6"/>
      <line class="pf31" x1="164.2" y1="77.4" x2="164.2" y2="231"/>
      <polyline class="pf24" points="166.1,77.5 188.3,77.5 188.3,57.6 180.4,49.9 166.3,49.9 "/>
      <line class="pf31" x1="167.6" y1="42.2" x2="321.7" y2="42.2"/>
      <line class="pf31" x1="156.5" y1="42.2" x2="162.4" y2="42.2"/>
      <line class="pf31" x1="109.7" y1="42.2" x2="151.2" y2="41.9"/>
      <line class="pf31" x1="332.1" y1="42" x2="335.7" y2="42"/>
      <line class="pf31" x1="345.7" y1="42" x2="357.4" y2="42"/>
      <line class="pf31" x1="154.5" y1="34.6" x2="154.5" y2="230.8"/>
      <rect x="320.5" y="161.1" class="pf13" width="26.6" height="7.8"/>
      <g>
          <rect x="321.9" y="162.1" class="pf32" width="23.7" height="0.6"/>

          <rect x="319.4" y="164.6" transform="matrix(-1.836970e-16 1 -1 -1.836970e-16 487.0025 -157.29)" class="pf32" width="5.6" height="0.6"/>

          <rect x="342.5" y="164.6" transform="matrix(-1.836970e-16 1 -1 -1.836970e-16 510.1553 -180.4428)" class="pf32" width="5.6" height="0.6"/>

          <rect x="321.7" y="164.5" transform="matrix(-1.836970e-16 1 -1 -1.836970e-16 488.2567 -158.662)" class="pf32" width="3.4" height="0.6"/>
          <rect x="321.9" y="167" class="pf32" width="23.7" height="0.6"/>
      </g>
      <polyline class="pf24" points="140.1,228 152.4,228 152.4,233.5 166.2,233.5 166.2,227.8 205.7,227.8 205.7,242.8 "/>
      <rect x="59.8" y="41.1" class="pf21" width="7.3" height="1.7"/>
      <rect x="94.6" y="41.1" class="pf21" width="9.9" height="1.7"/>
      <rect x="70.8" y="41.1" class="pf21" width="20.1" height="1.7"/>
  </symbol>

  <symbol viewBox="0 0 500 320" id="powerful-experience">
      <style type="text/css">
          .pe0{fill:none;stroke:#2AB1EB;stroke-width:0.8817;stroke-linecap:round;stroke-miterlimit:10;}
          .pe1{fill:none;stroke:#2AB1EB;stroke-width:0.4293;stroke-linecap:round;stroke-miterlimit:10;}
          .pe2{fill:none;stroke:#2AB1EB;stroke-width:0.6221;stroke-linecap:round;stroke-miterlimit:10;}
          .pe3{fill:#D6E8FC;}
          .pe4{fill:#FFFFFF;}
          .pe5{fill:none;stroke:#2AB1EB;stroke-width:1.0393;stroke-linecap:round;stroke-miterlimit:10;}
          .pe6{fill:#EDF6FC;}
          .pe7{fill:none;stroke:#2AB1EB;stroke-width:0.3374;stroke-linecap:round;stroke-linejoin:round;stroke-miterlimit:10;}
          .pe8{fill:#E77577;}
          .pe9{fill:none;stroke:#A0535B;stroke-width:0.5;stroke-linecap:round;stroke-miterlimit:10;}
          .pe10{fill:none;stroke:#A0535B;stroke-linecap:round;stroke-miterlimit:10;}
          .pe11{fill:none;stroke:#A85860;stroke-linecap:round;stroke-miterlimit:10;}
          .pe12{fill:none;stroke:#FFFFFF;stroke-width:1.949;stroke-linecap:round;stroke-linejoin:round;stroke-miterlimit:10;}
          .pe13{fill:none;stroke:#2AB1EB;stroke-linecap:round;stroke-miterlimit:10;}
          .pe14{fill:none;stroke:#2AB1EB;stroke-width:0.5;stroke-linecap:round;stroke-miterlimit:10;}
          .pe15{fill:none;stroke:#2AB1EB;stroke-width:0.5074;stroke-linecap:round;stroke-miterlimit:10;}
          .pe16{fill:none;stroke:#2AB1EB;stroke-width:0.5;stroke-miterlimit:10;}
          .pe17{fill:none;stroke:#2AB1EB;stroke-miterlimit:10;}
          .pe18{fill:#414C5C;}
          .pe19{fill:none;stroke:#2AB1EB;stroke-width:0.523;stroke-miterlimit:10;}
          .pe20{fill:#7EC795;}
          .pe21{fill:#D5D7ED;}
          .pe22{fill:#E4F1FD;}
          .pe23{fill:none;stroke:#2AB1EB;stroke-width:1.5198;stroke-linecap:round;stroke-miterlimit:10;}
          .pe24{fill:none;stroke:#2AB1EB;stroke-width:0.4933;stroke-linecap:round;stroke-linejoin:round;stroke-miterlimit:10;}
          .pe25{fill:none;stroke:#E4F1FD;stroke-width:1.5198;stroke-linecap:round;stroke-miterlimit:10;}
          .pe26{fill:#E4F1FD;stroke:#FFFFFF;stroke-miterlimit:10;}
          .pe27{fill:#CE6A6F;}
          .pe28{fill:none;stroke:#2AB1EB;stroke-width:0.166;stroke-linecap:round;stroke-linejoin:round;stroke-miterlimit:10;}
          .pe29{fill:none;stroke:#E4F1FD;stroke-width:1.506;stroke-linecap:round;stroke-miterlimit:10;}
          .pe30{fill:none;stroke:#FFB0C1;stroke-width:0.6;stroke-linecap:round;stroke-linejoin:round;stroke-miterlimit:10;}
          .pe31{fill:#FFF5C6;}
          .pe32{fill:none;stroke:#FAAB53;stroke-width:0.2561;stroke-linecap:round;stroke-linejoin:round;stroke-miterlimit:10;}
          .pe33{fill:none;stroke:#FAAB53;stroke-width:0.8817;stroke-linecap:round;stroke-miterlimit:10;}
          .pe34{fill:none;stroke:#FFFFFF;stroke-width:0.5;stroke-linecap:round;stroke-miterlimit:10;}
          .pe35{fill:none;stroke:#FFFFFF;stroke-width:0.25;stroke-linecap:round;stroke-miterlimit:10;}
          .pe36{fill:none;stroke:#E4F1FD;stroke-width:0.75;stroke-linecap:round;stroke-miterlimit:10;}
          .pe37{fill:none;stroke:#E4F1FD;stroke-width:0.575;stroke-linecap:round;stroke-miterlimit:10;}
          .pe38{fill:none;stroke:#2AB1EB;stroke-width:0.3613;stroke-linecap:round;stroke-miterlimit:10;}
          .pe39{fill:none;stroke:#2AB1EB;stroke-width:1.3665;stroke-linecap:round;stroke-miterlimit:10;}
          .pe40{fill:none;stroke:#2AB1EB;stroke-width:0.6833;stroke-linecap:round;stroke-miterlimit:10;}
          .pe41{fill:#B0BDE1;}
          .pe42{fill:#EFEFE4;}
      </style>
      <g>
          <path class="pe0" d="M258.3,4.6c31.9-3.3,63.4,14.5,76.1,45.6c3.6,8.9,5.4,18,5.5,27"/>
          <path class="pe1" d="M192.9,67.2c3.6-23.9,18.9-45.5,42.3-56.3"/>
          <g>
              <path class="pe2" d="M318.7,142c2.6,1.5,4.5,4.2,4.9,7.3 M272.2,156.1c-1.1-2.1-1.5-4.6-1.1-7.1c0.9-5.1,5-9,10.1-9.5
    c1.6-4.6,6.3-7.4,11.2-6.6c0.3,0.1,0.6,0.1,0.9,0.2"/>
          </g>
          <path class="pe3" d="M82.9,121.6L82.9,121.6l-10.3,0c-3.8,0-7,3.1-7,7c0,3.8,3.1,7,7,7l34.4,0v0c3.7,0.1,6.7,3.2,6.7,7v0
  c0,3.8-3,6.8-6.7,6.9H66.4v-0.1h-4.2c-3.8,0-7,3.1-7,7c0,3.8,3.1,7,7,7h4.2v0h5.8v0c3.7,0.1,6.7,3.2,6.7,7v0c0,3.8-3,6.8-6.7,6.9
  L49,177.3c-3.8,0-7,3.1-7,7v0c0,3.8,3.1,7,7,7l34.6,0v0c3.7,0.1,6.7,3.2,6.7,7v0c0,3.8-3,6.8-6.7,6.9h-11c-3.5,0.3-6.3,3.4-6.3,7v0
  c0,3.8,3,6.8,6.7,7v0l45.6,0v-97.6L82.9,121.6z"/>
          <g>
              <path class="pe4" d="M188.8,117.3c4.2,0.7,7.7,3.4,9.5,7.2l0.8,1.7l1.9,0.1c0.6,0,1.2,0.1,1.7,0.2c4.1,0.7,7.7,2.6,10.5,5.7
    l1.9,2.1l2.3-1.7c2.8-2,6.2-2.8,9.6-2.3c7,1.2,11.7,7.8,10.6,14.8c-1.2,7-7.8,11.7-14.8,10.6c-1.4-0.2-2.8-0.7-4.1-1.4l-2.5-1.4
    l-1.7,2.3c-4.1,5.7-11,8.5-17.9,7.4c-4.4-0.7-8.4-3-11.2-6.5l-1.9-2.3l-2.4,1.7c-3.2,2.3-7.2,3.1-11,2.5
    c-8.2-1.4-13.7-9.1-12.3-17.2c1.1-6.9,6.8-12,13.8-12.5l2.2-0.1l0.7-2.1C176.4,120,182.5,116.3,188.8,117.3 M189.2,113.6
    c-8.1-1.4-15.8,3.6-18.2,11.2c-8.4,0.6-15.6,6.8-17,15.4c-1.7,10.1,5.1,19.6,15.2,21.3c5,0.8,9.8-0.4,13.6-3.1
    c3.3,4,7.9,6.9,13.4,7.8c8.5,1.4,16.7-2.3,21.4-8.9c1.6,0.9,3.3,1.5,5.2,1.8c8.9,1.5,17.3-4.5,18.8-13.4
    c1.5-8.9-4.5-17.3-13.4-18.8c-4.5-0.7-8.8,0.4-12.2,2.9c-3.2-3.5-7.5-6-12.6-6.8c-0.7-0.1-1.4-0.2-2.1-0.2
    C199.1,118.1,194.7,114.6,189.2,113.6L189.2,113.6z"/>
              <path class="pe5" d="M155.8,152c-1.8-3.5-2.6-7.6-1.9-11.8c1.4-8.5,8.3-15,16.9-15.8c2.7-7.6,10.6-12.4,18.6-11
    c5.3,0.9,9.9,4.3,12.3,9.1c0.6,0.1,1.1,0.1,1.7,0.2c4.7,0.8,9,3,12.3,6.4c3.6-2.4,7.8-3.3,12-2.6c7.4,1.2,12.9,7.1,13.9,14.2"/>
          </g>
          <path class="pe6" d="M217.9,131.4c0,0-3.8,0.3-7.2,2.4s-6.7,7.3-6.7,7.3s-3.8,0.1-7.7,1.5s-7.9,5.5-9.6,8.3
  c-2.2,3.5-2.5,7.5-2.5,7.5s2.6,2.9,4.4,7.4s2.3,6.9,2.3,6.9l1.8,0.8l2.6-17.1l9.5-6.5c0,0,3.1-7.3,6.7-10.6s6.3-4.3,6.3-4.3
  l0.8-3.6L217.9,131.4z"/>
          <g>
              <path class="pe7" d="M256.7,152.3c2,0,3.6,2.6,3.7,5.8s-1.7,5.4-4.6,6.4"/>
              <path class="pe7" d="M259.7,151.1c2,0,3.6,2.6,3.7,5.8s-1.7,5.4-4.6,6.4"/>
              <g>
                  <g>
                      <path class="pe8" d="M248.4,199.9c-0.1-0.4-0.4-0.6-0.7-0.7c0,0-2.6-0.6-4.2-2.1c-1.3-1.2-2.5-4.1-2.9-5.1
        c-0.1-0.4-0.5-0.6-0.9-0.6c0,0-0.1,0-0.1,0c-0.4,0-0.8,0.4-0.9,0.8l-1.3,8.6c-0.4-0.6-1-1.2-1.7-1.9c-3.7-3.6-4.5-4.1-6.7-5.6
        c-2.6-1.7-5.3-3.8-5.3-3.9c-0.1-0.1-0.2-0.1-0.2-0.1l-3.9-1.6c-0.1,0-0.2-0.1-0.4-0.1c-0.4,0-0.7,0.2-0.9,0.6c0,0-1,2.1-3.6,3.5
        c-1.7,0.9-3.3,1-3.7,1l-0.1,0l-2.2-0.5l-4.2-1.4l-1.7-1.8c0,0-0.1-0.1-0.1-0.1c0,0-0.7-0.6-1.6-2.2c-0.8-1.4-1.3-2-1.7-2.3
        l-6.3-7.4l1-6.7l2.3-13.7l9.3-6.5c0.2-0.1,0.3-0.3,0.4-0.6c0,0,1.2-4.4,4.3-7.9c2.9-3.3,7.9-5.7,8-5.8c0.3-0.1,0.5-0.4,0.5-0.7
        l9.4-57c0-0.1,0.3-2.1,3-8.1c3.2-6.9,6.5-12.5,12.3-17.2c4.6-3.7,8.3-5.2,9.6-5.6c0.4,0.3,1.2,1.1,3,2.7
        c2.8,2.6,6.7,8.8,8.8,16.5c2,7.4,1.6,17.1,1.6,17.9l-9.7,57.2c-0.1,0.4,0.2,0.9,0.5,1c0,0,3.1,1.6,5.5,7.8
        c2,5.2,1.8,8.5,1.8,8.5c0,0.2,0,0.5,0.2,0.6l6.6,9.6l-4.4,26.6l-7.2-1c0,0-0.1,0-0.1,0c-0.4,0-0.8,0.3-0.9,0.7
        c-0.1,0.4-0.4,1-0.7,1.2c-0.8,0.7-2,1.3-2,1.3c-0.3,0.1-0.4,0.4-0.5,0.7l-1.7,10.3l-2.9,1.2L248.4,199.9z M243.8,94
        c-6,0-11,4.3-12,10.2c-0.5,3.2,0.2,6.4,2.1,9.1c1.9,2.6,4.7,4.4,7.9,4.9c0.7,0.1,1.3,0.2,2,0.2c6,0,11-4.3,12-10.2
        c0.5-3.2-0.2-6.4-2.1-9.1c-1.9-2.6-4.7-4.4-7.9-4.9C245.2,94,244.5,94,243.8,94z"/>
                  </g>
                  <g>
                      <path class="pe4" d="M253.1,48.3c0.5,0.4,1.3,1.1,2.5,2.3c2.7,2.6,6.4,8.5,8.5,16c1.9,7.1,1.6,16.4,1.6,17.5l-9.6,57.1
        c-0.1,0.9,0.3,1.7,1.1,2.1c0,0,2.8,1.5,5.1,7.3c1.9,4.9,1.7,8,1.7,8c0,0.5,0.1,0.9,0.3,1.3l6.4,9.3l-4.2,25.3l-6.3-0.9
        c-0.1,0-0.2,0-0.3,0c-0.9,0-1.6,0.6-1.9,1.4c-0.1,0.2-0.3,0.6-0.4,0.7c-0.6,0.5-1.6,1-1.9,1.2c-0.5,0.3-0.9,0.8-1,1.4L253,208
        l-1.4,0.6l-2.3-8.9c-0.2-0.7-0.8-1.3-1.5-1.4c-0.6-0.1-2.6-0.8-3.7-1.9c-1-1-2.1-3.4-2.6-4.7c-0.3-0.8-1-1.3-1.8-1.3
        c-0.1,0-0.1,0-0.2,0c-0.9,0.1-1.6,0.8-1.7,1.6l-1,6.5c-0.1-0.1-0.3-0.3-0.4-0.4c-3.8-3.6-4.6-4.2-6.8-5.7
        c-2.5-1.7-5.2-3.8-5.2-3.8c-0.1-0.1-0.3-0.2-0.5-0.3l-3.9-1.6c-0.2-0.1-0.5-0.1-0.7-0.1c-0.7,0-1.4,0.4-1.8,1.1
        c0,0-0.9,1.8-3.1,3c-1.4,0.8-2.8,0.8-3.3,0.9l-2.1-0.4l-3.9-1.3l-1.5-1.6c-0.1-0.1-0.1-0.1-0.2-0.2c-0.1-0.1-0.6-0.7-1.4-1.9
        c-0.7-1.2-1.3-2.1-1.8-2.5l-5.9-7l0.9-6.3l2.2-13.3l9-6.3c0.4-0.3,0.7-0.7,0.8-1.1c0,0,1.2-4.2,4.1-7.5c2.8-3.1,7.6-5.5,7.7-5.5
        c0.6-0.3,1-0.8,1.1-1.4l9.4-57c0,0,0-0.1,0-0.1c0,0,0.3-2,2.9-7.7c3.1-6.8,6.4-12.3,12-16.9C248.3,50.3,251.6,48.8,253.1,48.3
         M243.9,119.3c6.5,0,11.9-4.6,13-11c0.6-3.5-0.2-6.9-2.3-9.8c-2-2.9-5.1-4.7-8.5-5.3c-0.7-0.1-1.4-0.2-2.2-0.2
        c-6.5,0-11.9,4.6-13,11c-1.2,7.2,3.7,13.9,10.8,15.1C242.4,119.3,243.2,119.3,243.9,119.3 M253.5,46.1c0,0-4.6,1.2-10.4,5.9
        c-5.9,4.8-9.3,10.5-12.5,17.6c-2.9,6.3-3.1,8.3-3.1,8.3l-9.4,57c0,0-5.2,2.5-8.3,6c-3.3,3.7-4.5,8.3-4.5,8.3l-9.7,6.8l-2.4,14.2
        l-1.1,7.2l6.7,7.9c0,0,0,0,0,0c0,0,0.3,0.1,1.4,2c1.1,1.9,1.8,2.5,1.8,2.5l1.9,2l4.4,1.5l2.4,0.5c0,0,0.1,0,0.2,0
        c0.6,0,2.3-0.1,4.2-1.1c2.9-1.5,4-3.9,4-3.9l3.9,1.6c0,0,2.7,2.2,5.4,3.9c2.1,1.4,2.8,1.9,6.5,5.4c2.3,2.2,2.9,4,2.9,4l1.8-11.2
        c0,0,1.4,3.8,3.1,5.5c1.8,1.8,4.6,2.4,4.6,2.4l2.9,11.1l4.5-1.8l1.8-10.8c0,0,1.3-0.7,2.2-1.4c0.7-0.5,1-1.7,1-1.7l8.2,1.2
        l4.6-28l-6.8-9.9c0,0,0.3-3.4-1.8-8.9c-2.6-6.7-6-8.3-6-8.3l9.7-57.2c0,0,0.5-10.3-1.6-18.2c-2.2-7.9-6.1-14.2-9-16.9
        C254,46.3,253.5,46.1,253.5,46.1L253.5,46.1z M243.9,117.4c-0.6,0-1.2,0-1.9-0.2c-6.1-1-10.2-6.8-9.2-12.9
        c0.9-5.5,5.7-9.4,11-9.4c0.6,0,1.2,0,1.9,0.2c6.1,1,10.2,6.8,9.2,12.9C254,113.5,249.3,117.4,243.9,117.4L243.9,117.4z"/>
                  </g>
              </g>
              <line class="pe9" x1="219.1" y1="189" x2="222.8" y2="167"/>
              <path class="pe10" d="M205.9,147.5c-0.7,1.7-1,2.8-1,2.8l-5.4,31.6"/>
              <path class="pe10" d="M267.9,80.7c0-7.4-1.4-24.2-14.1-34.6l-0.4-0.1c-20,7.5-25.8,31.6-25.8,31.6l-9.5,57.3
    c-4.2,1.7-7.1,4.4-9.1,7.1"/>
              <path class="pe11" d="M257,198.5c2.3-1.5,3.1-3.1,3.1-3.1l5.7-35c0,0,1.1-11.3-7.6-18.8l9-54"/>
              <path class="pe9" d="M247.3,200c-7-2-7.5-7.6-7.5-7.6l3.6-22"/>
              <line class="pe9" x1="237.9" y1="203.8" x2="240.3" y2="189.3"/>
              <polyline class="pe9" points="207.1,186.3 209.8,169.7 216.5,160.8 214.8,160 		"/>
              <polyline class="pe10" points="212.9,159.2 206.2,168 204,181.7 		"/>
              <polyline class="pe9" points="230.4,192 232.6,179.1 233.5,175.8 		"/>
              <polyline class="pe10" points="236.5,165.9 232.1,164.8 227.9,178.2 226,189.3 		"/>
              <line class="pe9" x1="212.5" y1="186.9" x2="216.5" y2="160.8"/>
              <polyline class="pe10" points="252.6,210.2 250.8,211 256,178.5 252.7,168 		"/>
              <polyline class="pe9" points="254.7,167.8 256.5,167.6 260,178.1 254.7,209.6 		"/>
              <polyline class="pe10" points="250.3,211.3 247.3,199.6 252.6,168 		"/>

              <ellipse transform="matrix(0.1639 -0.9865 0.9865 0.1639 99.1577 329.3159)" class="pe11" cx="243.9" cy="106.2" rx="16.5" ry="16.5"/>

              <ellipse transform="matrix(0.1639 -0.9865 0.9865 0.1639 99.1577 329.3159)" class="pe9" cx="243.9" cy="106.2" rx="10.7" ry="10.7"/>
              <line class="pe9" x1="232.3" y1="193.1" x2="236.7" y2="167.5"/>
              <polyline class="pe10" points="200.4,152.4 195.6,156 192.7,173.2 		"/>
              <polyline class="pe9" points="268.8,163.1 272.7,168.8 268.1,196.7 262.2,195.8 		"/>
              <path class="pe12" d="M218.6,137.9c0,0,3.1,8.9,17.5,11.5c14.3,2.5,21.7-4.2,21.7-4.2"/>
              <path class="pe12" d="M230.2,75.5c0,0,2.5,6.3,17.1,8.7c14.3,2.4,19.5-2.2,19.5-2.2"/>
              <path class="pe9" d="M219.5,136.9c0,0,2.5,8.4,16.9,11c14.3,2.5,21.1-4.1,21.1-4.1"/>
              <path class="pe9" d="M230.8,74.8c0,0,3,5.9,16.4,8.2c13.2,2.3,18.6-1.5,18.6-1.5"/>

              <ellipse transform="matrix(0.1639 -0.9865 0.9865 0.1639 114.3767 319.8865)" class="pe9" cx="245.9" cy="92.5" rx="1.2" ry="1.2"/>

              <ellipse transform="matrix(0.8135 -0.5816 0.5816 0.8135 -11.7142 154.4031)" class="pe9" cx="234.9" cy="95.5" rx="1.2" ry="1.2"/>
              <ellipse transform="matrix(0.1639 -0.9865 0.9865 0.1639 88.6125 314.7632)" class="pe9" cx="230" cy="105.1" rx="1.2" ry="1.2"/>

              <ellipse transform="matrix(0.8135 -0.5816 0.5816 0.8135 -23.3661 156.7502)" class="pe9" cx="232.7" cy="114.8" rx="1.2" ry="1.2"/>
              <ellipse transform="matrix(0.1639 -0.9865 0.9865 0.1639 83.5172 337.7862)" class="pe9" cx="241" cy="119.6" rx="1.2" ry="1.2"/>

              <ellipse transform="matrix(0.8135 -0.5816 0.5816 0.8135 -22.0886 167.9848)" class="pe9" cx="250.8" cy="118.4" rx="1.2" ry="1.2"/>
              <ellipse transform="matrix(0.1639 -0.9865 0.9865 0.1639 106.379 345.3996)" class="pe9" cx="257" cy="109.9" rx="1.2" ry="1.2"/>

              <ellipse transform="matrix(0.8135 -0.5816 0.5816 0.8135 -9.8718 167.0596)" class="pe9" cx="255.5" cy="98.9" rx="1.2" ry="1.2"/>
          </g>
          <line class="pe13" x1="118.6" y1="211.1" x2="118.6" y2="244.5"/>
          <path class="pe13" d="M222.2,94.3c-49.3,0-94.4,0-97.5,0c-6.8,0-6.2,7.2-6.2,7.2v67.7"/>
          <path class="pe13" d="M358.6,244.8V101.5c0,0,0.6-7.2-6.2-7.2c-2.7,0-40.9,0-83.9,0"/>
          <polyline class="pe14" points="267.2,109.4 347.8,109.4 347.8,244.9 	"/>
          <polyline class="pe14" points="129,163.1 129,109.4 219.8,109.4 	"/>
          <line class="pe14" x1="129" y1="244.7" x2="129" y2="215.8"/>
          <line class="pe15" x1="266.9" y1="119.6" x2="347.6" y2="119.6"/>
          <line class="pe15" x1="202.8" y1="119.6" x2="217.8" y2="119.6"/>
          <line class="pe15" x1="129" y1="119.6" x2="169.6" y2="119.6"/>
          <line class="pe16" x1="295.5" y1="140.7" x2="347.6" y2="140.7"/>
          <line class="pe16" x1="129.3" y1="140.7" x2="138.5" y2="140.7"/>
          <line class="pe16" x1="326.9" y1="151" x2="347.6" y2="151"/>
          <line class="pe16" x1="129.3" y1="151" x2="138.5" y2="151"/>
          <line class="pe16" x1="326.7" y1="161.4" x2="347.6" y2="161.4"/>
          <line class="pe16" x1="129.3" y1="161.4" x2="138.7" y2="161.4"/>
          <line class="pe16" x1="326.7" y1="171.8" x2="347.6" y2="171.8"/>
          <line class="pe16" x1="326.7" y1="182.5" x2="347.6" y2="182.5"/>
          <line class="pe14" x1="347.6" y1="192.5" x2="327" y2="192.5"/>
          <line class="pe16" x1="138.7" y1="213.4" x2="129.3" y2="213.4"/>
          <polyline class="pe16" points="326.7,224.1 329.7,224.1 333.8,224.1 347.6,224.1 	"/>
          <line class="pe16" x1="138.5" y1="224.1" x2="129.3" y2="224.1"/>
          <line class="pe14" x1="162.2" y1="234.9" x2="129.3" y2="234.9"/>
          <line class="pe14" x1="202.7" y1="234.9" x2="192.4" y2="234.9"/>
          <line class="pe14" x1="347.6" y1="234.9" x2="231.2" y2="234.9"/>
          <line class="pe16" x1="295.5" y1="130.1" x2="347.6" y2="130.1"/>
          <line class="pe16" x1="129.3" y1="130.1" x2="138.7" y2="130.1"/>
          <path class="pe17" d="M107.9,255.6c-12.6,0-11.2-10.8-11.2-10.8h28.8h253.9c0,11-10.6,10.8-10.6,10.8s-12.9,0-35.9,0
  C333,255.6,109.7,255.6,107.9,255.6z"/>
          <circle class="pe18" cx="329.8" cy="114.7" r="1.6"/>
          <line class="pe19" x1="138.7" y1="217.6" x2="138.7" y2="244.7"/>
          <line class="pe19" x1="138.7" y1="119.8" x2="138.7" y2="162.3"/>
          <line class="pe16" x1="295.7" y1="130.1" x2="295.7" y2="140.7"/>
          <line class="pe14" x1="326.9" y1="119.6" x2="326.9" y2="244.8"/>
          <circle class="pe8" cx="339.9" cy="114.7" r="1.8"/>
          <circle class="pe20" cx="334.9" cy="114.7" r="1.8"/>
          <path class="pe21" d="M185.7,84H93.3c-3.3,0-6-2.7-6-6v-1.9c0-3.3,2.7-6,6-6h92.4c3.3,0,6,2.7,6,6V78C191.7,81.3,189,84,185.7,84z"
          />
          <line class="pe14" x1="327.1" y1="213.8" x2="347.6" y2="213.8"/>
          <line class="pe14" x1="326.9" y1="203.2" x2="347.6" y2="203.2"/>
          <rect x="297.7" y="131.6" class="pe22" width="27.4" height="7.6"/>
          <g>
              <path class="pe4" d="M176.8,155c-10.9-5.2-23.7-1.5-30.2,8.2c-12-2.7-24.7,3.1-30.2,14.7c-6.5,13.5-0.9,29.7,12.6,36.2
    c6.6,3.2,13.9,3.5,20.4,1.3c2.9,7,8.3,12.9,15.6,16.5c11.4,5.5,24.4,3.7,33.7-3.6c1.9,1.9,4,3.5,6.6,4.7
    c11.9,5.7,26.2,0.8,31.9-11.1c5.7-11.9,0.8-26.2-11.1-31.9c-6-2.9-12.8-3.7-18.6-1.7c-3-6.2-7.9-10.8-14.6-14.1
    c-0.9-0.4-1.9-0.8-2.8-1.2C188.9,165.5,184.2,158.6,176.8,155L176.8,155z"/>
              <path class="pe23" d="M114.2,195.1c-1.1-5.7-0.5-11.8,2.2-17.4c5.5-11.4,17.9-17.6,30.2-15.2c6.9-9.6,20-13,30.7-7.8
    c7.1,3.4,12.1,10.1,13.5,17.8c0.8,0.3,1.5,0.6,2.2,1c6.3,3.1,11.4,7.9,14.6,14.1c6-1.8,12.3-1.4,17.9,1.4
    c9.9,4.8,15.1,15.3,13.7,25.6"/>
              <path class="pe24" d="M237.1,221.9c-5.9,12.2-20.7,17.4-32.9,11.5c-2.2-1.1-4.2-2.4-6-4.1c-9.8,7.2-22.5,8.4-33.5,3.1
    c-6.9-3.3-12.3-8.9-15.5-15.8c-6.6,2-13.7,1.4-19.9-1.6c-4.4-2.1-7.9-5.2-10.5-8.9"/>
          </g>
          <path class="pe25" d="M207.7,228.1c1.7,0.8,3.7,1.4,5.9,1.5c10.9,0.6,15.2-3.6,16.7-6.7"/>
          <path class="pe25" d="M155.5,211.9c0.3,3.6,1.8,9.1,8,13c14.2,8.9,25.1,3.3,30.7-1.4"/>
          <path class="pe25" d="M120.7,181.4c0,0-3,11.6,3.2,20c5.6,7.5,11.9,10,17.4,10.4"/>
          <rect x="328.3" y="131.6" class="pe22" width="17.9" height="7.6"/>
          <rect x="328.3" y="120.9" class="pe22" width="17.9" height="7.6"/>
          <rect x="328.3" y="142" class="pe26" width="17.9" height="7.6"/>
          <rect x="328.3" y="152.4" class="pe22" width="17.9" height="7.6"/>
          <rect x="328.3" y="162.8" class="pe22" width="17.9" height="7.6"/>
          <rect x="328.3" y="173.3" class="pe22" width="17.9" height="7.6"/>
          <rect x="328.7" y="225.5" class="pe22" width="17.5" height="7.6"/>
          <rect x="328.6" y="235.9" class="pe22" width="17.6" height="7.6"/>
          <path class="pe22" d="M328.6,194c0,3.6,0,7.4,0,7.6h17.7V194H328.6z"/>
          <path class="pe22" d="M328.8,204.6c0,1.6,0,6.5,0,7.6h17.4v-7.6H328.8z"/>
          <path class="pe22" d="M328.3,183.5c0,0,0,6,0,7.6h17.9v-7.6H328.3z"/>
          <path class="pe22" d="M328.8,215.1c-0.1,0.2,0,4.8,0,7.6v0h17.4v-7.6H328.8z"/>
          <path class="pe22" d="M230.6,235.9c-3.9,1.4-6.6,2.2-14,2.2c-3.7,0-9.7-1.4-11.3-2.2h-13.6c-4.1,1.5-9.2,2.4-14.9,2.1
  c-4.1-0.2-7.4-1.2-9.7-2.1h-27.2v7.6h185.2v-7.6H230.6z"/>
          <path class="pe22" d="M243.5,96.6l-8,13.5c0,0,0.2,0.9,0.8,1.6c0.4,0.5,1.1,1.2,1.1,1.2l9.6-15.9c0,0-0.6-0.3-1.7-0.4
  C244.3,96.5,243.5,96.6,243.5,96.6z"/>
          <path class="pe22" d="M238.2,113.7c0,0,0.4,0.5,0.7,0.7s0.5,0.3,0.5,0.3l9.7-16.8c0,0-0.5-0.4-0.9-0.5s-0.5,0-0.5,0L238.2,113.7z"
          />
          <path class="pe22" d="M244.7,116c0,0,0.4,0.1,1.1,0c0.4-0.1,0.9-0.3,0.9-0.3l5.3-12.6L244.7,116z"/>
          <path class="pe27" d="M252.2,123.4l-3.4,21.7c0,0,1.4,0,2.8-0.3c1.6-0.4,2.3-1.4,2.3-1.4l4-25.1C257.9,118.2,257,121.4,252.2,123.4
  z"/>
          <path class="pe27" d="M262.3,86.9l-1.5,10.6c0,0-0.3-1.5-1.4-3.1c-1.8-2.7-4.4-3.5-4.4-3.5l0.6-3.5
  C255.5,87.5,258.7,88.4,262.3,86.9z"/>
          <path class="pe27" d="M246.9,153c0,0,2.6,0.2,5.8-1.1c3.2-1.4,6-3.9,6-3.9s2.4,4,2.8,7.9c0.4,4,0.1,4.7,0.1,4.7l1.5,2.9l-1.9,12.4
  l-3.6-10.2l-6.3,0.8C251.3,166.6,252.3,160.9,246.9,153z"/>
          <path class="pe27" d="M252.8,50.4c0,0,1.7,3.9,2.6,12.9c1.1,10.2-0.4,18.8-0.4,18.8s2.7,0.2,4.9-0.1s3.3-0.8,3.3-0.8
  s-0.5-15.3-4.1-22.4C255.8,52.2,252.8,50.4,252.8,50.4z"/>
          <path class="pe28" d="M288.2,163.2c-1.1,0.2-2.3,0.2-3.4,0c-1.6-0.3-3-1-4.2-1.9"/>
          <path class="pe28" d="M320.3,154.3c-0.8,4.5-5.2,7.5-9.6,6.7c-0.8-0.1-1.6-0.4-2.3-0.8c-1.4,1.7-3.2,3-5.2,3.6"/>
          <path class="pe29" d="M272.1,195.9c7.8,0,7.8,5,15.5,5c7.8,0,7.8-5,15.6-5s7.8,5,15.6,5"/>
          <path class="pe29" d="M147.3,132.3c7.8,0,7.8,5,15.5,5c7.8,0,7.8-5,15.6-5c7.8,0,7.8,5,15.6,5"/>
          <path class="pe30" d="M215.4,142.4c-3.1,2.4-5.6,5.7-6.1,9.8c0,0-1.8,1.5-2.4,3.1s-1.8,9.9-1.8,9.9"/>
          <line class="pe30" x1="222" y1="137" x2="225.6" y2="114.4"/>
          <path class="pe30" d="M228.9,133.4"/>
          <line class="pe30" x1="229.7" y1="92.9" x2="231.3" y2="82.6"/>
          <path class="pe30" d="M234.1,73.9c0,0,3.6-13.1,16.1-22"/>
          <path class="pe30" d="M229,119.2c0,0,2.1,3.6,7.2,5.4c5,1.8,10.2,0.8,10.2,0.8"/>
          <path class="pe30" d="M236.8,76.1c0,0,3,3,9.3,4.2"/>
          <g>
              <path class="pe31" d="M245.2,233.3c0.2-16.5,3.5-21,3.5-21l1.3,3.3l4.1-0.9l0.3-1.9c0,0,2.1,6.8,0.7,15.7c-0.2,1.5-0.6,3-1,4.6
    L245.2,233.3z"/>
          </g>
          <path class="pe32" d="M258.8,233.3c0.2-1.1,0.4-2.1,0.6-3.1c2.2-14.9,0.4-23.2,0.4-23.2"/>
          <path class="pe33" d="M243.1,210c0,0-2.7,8.9-3.2,22.7"/>
          <g>
              <g>
                  <line class="pe34" x1="297.7" y1="131.6" x2="304.8" y2="139.2"/>
                  <line class="pe34" x1="304.9" y1="131.6" x2="311.2" y2="139.2"/>
                  <line class="pe34" x1="311.8" y1="131.5" x2="317.8" y2="139.2"/>
                  <line class="pe34" x1="318.5" y1="131.6" x2="325" y2="139.2"/>
              </g>
              <g>
                  <line class="pe35" x1="320.8" y1="136" x2="318.6" y2="138.4"/>
                  <line class="pe35" x1="325" y1="131.6" x2="322.3" y2="134.4"/>
                  <line class="pe35" x1="313.9" y1="136.6" x2="312.1" y2="138.5"/>
                  <line class="pe35" x1="317.7" y1="132.5" x2="315.6" y2="134.7"/>
                  <line class="pe35" x1="307.4" y1="136.4" x2="305.5" y2="138.4"/>
                  <line class="pe35" x1="311" y1="132.5" x2="309" y2="134.6"/>
                  <line class="pe35" x1="300.4" y1="136.4" x2="297.7" y2="139.2"/>
                  <line class="pe35" x1="304" y1="132.5" x2="302" y2="134.6"/>
              </g>
          </g>
          <g>
              <g>
                  <line class="pe35" x1="331.1" y1="125.7" x2="328.5" y2="128.5"/>
                  <line class="pe35" x1="334.7" y1="121.9" x2="332.8" y2="123.9"/>
                  <g>
                      <line class="pe35" x1="344.7" y1="125.9" x2="342.8" y2="127.9"/>
                      <line class="pe35" x1="338.1" y1="125.7" x2="336.2" y2="127.8"/>
                      <line class="pe35" x1="341.8" y1="121.8" x2="339.8" y2="123.9"/>
                  </g>
              </g>
              <g>
                  <g>
                      <line class="pe34" x1="328.5" y1="120.9" x2="335.6" y2="128.5"/>
                      <line class="pe34" x1="335.6" y1="120.9" x2="342" y2="128.5"/>
                      <line class="pe34" x1="342.6" y1="120.8" x2="346.2" y2="125.3"/>
                  </g>
              </g>
          </g>
          <g>
              <g>
                  <line class="pe34" x1="328.5" y1="131.7" x2="335.6" y2="139.3"/>
                  <line class="pe34" x1="335.6" y1="131.7" x2="342" y2="139.3"/>
                  <line class="pe34" x1="342.6" y1="131.6" x2="346.2" y2="136.1"/>
              </g>
              <g>
                  <line class="pe35" x1="344.7" y1="136.7" x2="342.8" y2="138.6"/>
                  <line class="pe35" x1="338.1" y1="136.5" x2="336.2" y2="138.5"/>
                  <line class="pe35" x1="341.8" y1="132.6" x2="339.8" y2="134.7"/>
                  <line class="pe35" x1="331.1" y1="136.5" x2="328.5" y2="139.3"/>
                  <line class="pe35" x1="334.7" y1="132.6" x2="332.8" y2="134.7"/>
              </g>
          </g>
          <g>
              <g>
                  <line class="pe34" x1="328.5" y1="142.2" x2="335.6" y2="149.8"/>
                  <line class="pe34" x1="335.6" y1="142.2" x2="342" y2="149.8"/>
                  <line class="pe34" x1="342.6" y1="142.1" x2="346.2" y2="146.6"/>
              </g>
              <g>
                  <line class="pe35" x1="344.7" y1="147.2" x2="342.8" y2="149.1"/>
                  <line class="pe35" x1="338.1" y1="147" x2="336.2" y2="149"/>
                  <line class="pe35" x1="341.8" y1="143.1" x2="339.8" y2="145.2"/>
                  <line class="pe35" x1="331.1" y1="147" x2="328.5" y2="149.8"/>
                  <line class="pe35" x1="334.7" y1="143.1" x2="332.8" y2="145.2"/>
              </g>
          </g>
          <g>
              <g>
                  <line class="pe34" x1="328.5" y1="152.4" x2="335.6" y2="160"/>
                  <line class="pe34" x1="335.6" y1="152.4" x2="342" y2="160"/>
                  <line class="pe34" x1="342.6" y1="152.4" x2="346.2" y2="156.8"/>
              </g>
              <g>
                  <line class="pe35" x1="344.7" y1="157.4" x2="342.8" y2="159.4"/>
                  <line class="pe35" x1="338.1" y1="157.2" x2="336.2" y2="159.3"/>
                  <line class="pe35" x1="341.8" y1="153.3" x2="339.8" y2="155.5"/>
                  <line class="pe35" x1="331.1" y1="157.2" x2="328.5" y2="160"/>
                  <line class="pe35" x1="334.7" y1="153.4" x2="332.8" y2="155.5"/>
              </g>
          </g>
          <g>
              <g>
                  <line class="pe34" x1="328.5" y1="162.9" x2="335.6" y2="170.5"/>
                  <line class="pe34" x1="335.6" y1="162.9" x2="342" y2="170.5"/>
                  <line class="pe34" x1="342.6" y1="162.9" x2="346.2" y2="167.3"/>
              </g>
              <g>
                  <line class="pe35" x1="344.7" y1="167.9" x2="342.8" y2="169.9"/>
                  <line class="pe35" x1="338.1" y1="167.7" x2="336.2" y2="169.8"/>
                  <line class="pe35" x1="341.8" y1="163.8" x2="339.8" y2="166"/>
                  <line class="pe35" x1="331.1" y1="167.7" x2="328.5" y2="170.5"/>
                  <line class="pe35" x1="334.7" y1="163.9" x2="332.8" y2="166"/>
              </g>
          </g>
          <g>
              <g>
                  <line class="pe34" x1="328.5" y1="173.2" x2="335.6" y2="180.9"/>
                  <line class="pe34" x1="335.6" y1="173.2" x2="342" y2="180.9"/>
                  <line class="pe34" x1="342.6" y1="173.2" x2="346.2" y2="177.6"/>
              </g>
              <g>
                  <line class="pe35" x1="344.7" y1="178.2" x2="342.8" y2="180.2"/>
                  <line class="pe35" x1="338.1" y1="178.1" x2="336.2" y2="180.1"/>
                  <line class="pe35" x1="341.8" y1="174.2" x2="339.8" y2="176.3"/>
                  <line class="pe35" x1="331.1" y1="178.1" x2="328.5" y2="180.9"/>
                  <line class="pe35" x1="334.7" y1="174.2" x2="332.8" y2="176.3"/>
              </g>
          </g>
          <g>
              <g>
                  <line class="pe34" x1="328.5" y1="183.5" x2="335.6" y2="191.1"/>
                  <line class="pe34" x1="335.6" y1="183.5" x2="342" y2="191.1"/>
                  <line class="pe34" x1="342.6" y1="183.4" x2="346.2" y2="187.9"/>
              </g>
              <g>
                  <line class="pe35" x1="344.7" y1="188.5" x2="342.8" y2="190.5"/>
                  <line class="pe35" x1="338.1" y1="188.3" x2="336.2" y2="190.4"/>
                  <line class="pe35" x1="341.8" y1="184.4" x2="339.8" y2="186.5"/>
                  <line class="pe35" x1="331.1" y1="188.3" x2="328.5" y2="191.1"/>
                  <line class="pe35" x1="334.7" y1="184.5" x2="332.8" y2="186.6"/>
              </g>
          </g>
          <g>
              <g>
                  <line class="pe34" x1="328.5" y1="194.1" x2="335.6" y2="201.8"/>
                  <line class="pe34" x1="335.6" y1="194.1" x2="342" y2="201.8"/>
                  <line class="pe34" x1="342.6" y1="194.1" x2="346.2" y2="198.5"/>
              </g>
              <g>
                  <line class="pe35" x1="344.7" y1="199.1" x2="342.8" y2="201.1"/>
                  <line class="pe35" x1="338.1" y1="198.9" x2="336.2" y2="201"/>
                  <line class="pe35" x1="341.8" y1="195.1" x2="339.8" y2="197.2"/>
                  <line class="pe35" x1="331.1" y1="199" x2="328.5" y2="201.8"/>
                  <line class="pe35" x1="334.7" y1="195.1" x2="332.8" y2="197.2"/>
              </g>
          </g>
          <g>
              <g>
                  <line class="pe34" x1="328.5" y1="204.7" x2="335.6" y2="212.3"/>
                  <line class="pe34" x1="335.6" y1="204.7" x2="342" y2="212.3"/>
                  <line class="pe34" x1="342.6" y1="204.6" x2="346.2" y2="209.1"/>
              </g>
              <g>
                  <line class="pe35" x1="344.7" y1="209.7" x2="342.8" y2="211.6"/>
                  <line class="pe35" x1="338.1" y1="209.5" x2="336.2" y2="211.5"/>
                  <line class="pe35" x1="341.8" y1="205.6" x2="339.8" y2="207.7"/>
                  <line class="pe35" x1="331.1" y1="209.5" x2="328.5" y2="212.3"/>
                  <line class="pe35" x1="334.7" y1="205.6" x2="332.8" y2="207.7"/>
              </g>
          </g>
          <g>
              <g>
                  <line class="pe34" x1="328.5" y1="215" x2="335.6" y2="222.6"/>
                  <line class="pe34" x1="335.6" y1="215" x2="342" y2="222.6"/>
                  <line class="pe34" x1="342.6" y1="214.9" x2="346.2" y2="219.4"/>
              </g>
              <g>
                  <line class="pe35" x1="344.7" y1="220" x2="342.8" y2="221.9"/>
                  <line class="pe35" x1="338.1" y1="219.8" x2="336.2" y2="221.8"/>
                  <line class="pe35" x1="341.8" y1="215.9" x2="339.8" y2="218"/>
                  <line class="pe35" x1="331.1" y1="219.8" x2="328.5" y2="222.6"/>
                  <line class="pe35" x1="334.7" y1="215.9" x2="332.8" y2="218"/>
              </g>
          </g>
          <g>
              <g>
                  <line class="pe34" x1="328.5" y1="225.5" x2="335.6" y2="233.1"/>
                  <line class="pe34" x1="335.6" y1="225.5" x2="342" y2="233.1"/>
                  <line class="pe34" x1="342.6" y1="225.4" x2="346.2" y2="229.9"/>
              </g>
              <g>
                  <line class="pe35" x1="344.7" y1="230.5" x2="342.8" y2="232.4"/>
                  <line class="pe35" x1="338.1" y1="230.3" x2="336.2" y2="232.3"/>
                  <line class="pe35" x1="341.8" y1="226.4" x2="339.8" y2="228.5"/>
                  <line class="pe35" x1="331.1" y1="230.3" x2="328.5" y2="233.1"/>
                  <line class="pe35" x1="334.7" y1="226.4" x2="332.8" y2="228.5"/>
              </g>
          </g>
          <g>
              <g>
                  <line class="pe34" x1="328.5" y1="235.9" x2="335.6" y2="243.5"/>
                  <line class="pe34" x1="335.6" y1="235.9" x2="342" y2="243.5"/>
                  <line class="pe34" x1="342.6" y1="235.8" x2="346.2" y2="240.3"/>
              </g>
              <g>
                  <line class="pe35" x1="344.7" y1="240.8" x2="342.8" y2="242.8"/>
                  <line class="pe35" x1="338.1" y1="240.7" x2="336.2" y2="242.7"/>
                  <line class="pe35" x1="341.8" y1="236.8" x2="339.8" y2="238.9"/>
                  <line class="pe35" x1="331.1" y1="240.7" x2="328.5" y2="243.5"/>
                  <line class="pe35" x1="334.7" y1="236.8" x2="332.8" y2="238.9"/>
              </g>
          </g>
          <path class="pe36" d="M274.9,151.5c0,0-0.6,4.8,6.1,7.7c5,2.2,8.1,0.1,8.1,0.1"/>
          <path class="pe37" d="M306.4,156.4c0,0,2.4,2.8,7.5,0.6c3.9-1.7,4.3-4.5,4.3-4.5"/>
          <path class="pe32" d="M262.2,224.3c1.4-3.4,3.4-7.6,4.1-11.1c1.6-8.3,1.1-13.7,1.1-13.7"/>
          <path class="pe33" d="M259.5,199.4c0,0-1.7,3.9-2.7,11.1"/>
          <g>
              <path class="pe31" d="M265.1,198.4l0,0.6l-2.3,0l-0.3-1c0,0-0.7,0.8-1.6,6.6c0.6,1.6,1.9,4.9,1.4,9.9c1.1-2.6,2.3-5.6,2.8-7.7
    C266.1,202,265.1,198.4,265.1,198.4z"/>
          </g>
          <circle class="pe38" cx="390.6" cy="58.3" r="1.5"/>
          <circle class="pe39" cx="162.6" cy="51.3" r="5.6"/>
          <circle class="pe40" cx="87.2" cy="121.4" r="2.8"/>
          <path class="pe41" d="M445.4,108.4h-25.9c0.2,0,0.3,0,0.5,0c-3.6-0.3-6.5-3.3-6.5-7c0-3.5,2.6-6.9,6-7.4h1.5c3.8,0,7-2.7,7-6.5
  v-0.5c0-3.8-3.1-7-7-7l-106.2-0.2c-3.5,0-6.7,2.5-7.2,6c-0.6,4.2,2.8,7.9,6.9,7.9h38c4,0,6.5,3.2,6.5,6.3v78H393c0,0,28.8,0,28.8,0
  c3.8,0,7-3.1,7-7c0-3.8-3.1-7-7-7h-1.9c-3.4-0.4-6.1-3.4-6.1-6.9c0-3.5,2.6-6.4,6-6.9h12.3c3.8,0,7-3.1,7-7c0-3.8-3.1-7-7-7h-12.5
  c0.2,0,0.3,0,0.5,0c-3.6-0.3-6.4-3.3-6.4-7v0c0-3.6,2.8-6.6,6.4-7c-0.2,0-0.4,0-0.6,0h25.9c3.8,0,7-3.1,7-7v0
  C452.4,111.6,449.2,108.4,445.4,108.4z"/>
          <g>
              <path class="pe42" d="M305,90.9c-0.6-0.9-1-2.1-1-3.5c0-4.3,3.3-10.6,12.3-10.5c5,0.1,13.8,0,20.6,0c0-8.5-2.2-16-5.9-25.1
    c-14.6-35.9-55.6-53.1-91.5-38.5c-32.3,13.2-49.9,44.6-42.3,77.5c0,0.1,2,0.1,2,0.1c-4.1-12.9-0.5-24.8,11.6-31.4
    c6.5-3.6,14.3-3.7,21.2-0.6c0.8-1.2,1.6-2.5,2.4-3.6c-4.4-0.1-8.1-2.7-9.4-6.7c-1.8-5.7,1.6-12,7.4-14.6
    c5.9-2.6,12.3-0.7,14.6,4.8c0.6,1.5,0.8,3.2,0.7,4.8c4.2-2.3,7.7-3.5,7.7-3.5s11.9,7.1,15.3,24.2c2.7,13.7,1.9,23.4,1.5,26.7
    L305,90.9z M308.6,34.4c6.6-1.7,13.2,3.3,16.3,10.5c3.1,7.2,2.1,14.9-4,17.7c-6,2.8-14.9-1.4-18.5-9.8
    C298.9,44.6,302.1,36.2,308.6,34.4z"/>
          </g>
      </g>
  </symbol>
</svg>