<svg xmlns="http://www.w3.org/2000/svg">
  <symbol viewBox="0 0 200.7 39.5" id="handsontable-logo">
      <path d="M12.5,7.9H4.7V0H0v21.1h4.7V12h7.7v9.1h4.7V0h-4.7V7.9z M34.4,11.4c0-2.2-0.4-3.5-1.5-4.5c-1.2-1-3-1.6-5.3-1.6
      c-4.3,0-6.5,1.7-6.8,5.2h4c0.2-1.2,1.1-1.8,2.7-1.8c1.5,0,2.3,0.5,2.3,1.4c0,0.6-0.3,0.9-1.4,1l-2.4,0.4c-4.3,0.7-6.1,2.2-6.1,5.1
      s2.2,4.8,5.6,4.8c1.8,0,2.9-0.4,4.4-1.6c0.2,0.6,0.2,0.7,0.3,1.2h4.6c-0.5-0.8-0.6-1-0.6-2.6V11.4z M30,16.1
      c-0.7,1.3-1.8,1.9-3.3,1.9c-1.4,0-2.3-0.6-2.3-1.6c0-0.9,0.7-1.5,2.3-1.8l1.6-0.3c0.8-0.2,1.2-0.3,1.6-0.5V16.1z M46.1,5.4
      c-1.6,0-2.5,0.4-4.2,1.9V5.8h-4.4v15.3H42v-8.6c0-1.3,0.2-2,0.7-2.5c0.5-0.5,1.2-0.8,1.9-0.8c0.8,0,1.5,0.3,1.8,0.9
      c0.4,0.6,0.5,1.2,0.5,2.7v8.3h4.5v-9.9C51.4,7.6,49.4,5.4,46.1,5.4z M64.5,7c-1.1-1.1-2.2-1.6-3.9-1.6c-4.1,0-6.8,3.2-6.8,8.1
      c0,4.8,2.7,8,6.7,8c1.9,0,3.1-0.6,4.2-2.1v1.6H69V0h-4.5V7z M61.5,17.9c-2,0-3.2-1.7-3.2-4.4c0-2.7,1.3-4.4,3.2-4.4
      c2,0,3.2,1.8,3.2,4.5C64.7,16.1,63.4,17.9,61.5,17.9z M80.4,11.7l-2.8-0.6c-1.4-0.3-1.9-0.6-1.9-1.2c0-0.8,0.9-1.3,2.1-1.3
      c1.5,0,2.4,0.6,2.6,1.7h4.2c-0.4-3.2-2.8-5-6.7-5c-4.1,0-6.5,1.9-6.5,4.9c0,2.4,1.3,3.7,4.6,4.4l2.8,0.6c1.2,0.3,1.7,0.7,1.7,1.4
      c0,0.9-0.9,1.5-2.3,1.5c-1.8,0-2.7-0.7-3-2.1h-4.2c0.3,3.4,2.9,5.4,7.1,5.4c4.2,0,6.9-2,6.9-5.2c0-1.2-0.4-2.4-1.1-3.1
      C83.2,12.5,82.3,12.1,80.4,11.7z M94.6,5.4c-4.7,0-8.1,3.3-8.1,8c0,4.7,3.3,8.1,8.1,8.1c4.7,0,8.1-3.3,8.1-7.9
      C102.7,8.7,99.5,5.4,94.6,5.4z M94.7,17.9c-2.3,0-3.6-1.6-3.6-4.5c0-2.8,1.3-4.5,3.6-4.5c2.3,0,3.6,1.6,3.6,4.5
      C98.2,16.3,96.9,17.9,94.7,17.9z M113.7,5.4c-1.6,0-2.5,0.4-4.2,1.9V5.8h-4.4v15.3h4.5v-8.6c0-1.3,0.2-2,0.7-2.5
      c0.5-0.5,1.2-0.8,1.9-0.8c0.8,0,1.5,0.3,1.8,0.9c0.4,0.6,0.5,1.2,0.5,2.7v8.3h4.5v-9.9C119,7.6,117,5.4,113.7,5.4z M127.2,1.2h-4.5
      V6h-2.1v3.2h2.1v7c0,2.4,0.2,3.2,0.9,3.9c0.7,0.7,1.6,1,3.6,1h2.7v-3.4h-1.6c-1,0-1.1-0.2-1.1-2.6V9.2h2.7V6h-2.7V1.2z M145.5,11.4
      c0-2.2-0.4-3.5-1.5-4.5c-1.2-1-3-1.6-5.3-1.6c-4.3,0-6.5,1.7-6.8,5.2h4c0.2-1.2,1.1-1.8,2.7-1.8c1.5,0,2.3,0.5,2.3,1.4
      c0,0.6-0.3,0.9-1.4,1l-2.4,0.4c-4.3,0.7-6.1,2.2-6.1,5.1s2.2,4.8,5.6,4.8c1.8,0,2.9-0.4,4.4-1.6c0.2,0.6,0.2,0.7,0.3,1.2h4.6
      c-0.5-0.8-0.6-1-0.6-2.6V11.4z M141.2,16.1c-0.7,1.3-1.8,1.9-3.3,1.9c-1.4,0-2.3-0.6-2.3-1.6c0-0.9,0.7-1.5,2.3-1.8l1.6-0.3
      c0.8-0.2,1.2-0.3,1.6-0.5V16.1z M157.4,5.6c-1.5,0-2.7,0.4-4.2,1.5V0.2h-4.5v21.1h4.3v-1.7c1.2,1.6,2.4,2.2,4.2,2.1
      c3.9,0,6.8-3.2,6.7-8.2C163.9,8.8,161.3,5.6,157.4,5.6z M156.3,18c-2,0-3.3-1.8-3.3-4.4c0-2.6,1.3-4.4,3.3-4.4c2,0,3.2,1.7,3.2,4.5
      C159.5,16.3,158.2,18,156.3,18z M166.3,21.1h4.5V0h-4.5V21.1z M187.8,9.9c-1.1-2.9-3.6-4.5-6.8-4.5c-4.6,0-7.8,3.3-7.8,8.1
      c0,4.8,3.1,8,7.8,8c3.6,0,6.5-1.9,7.3-4.9h-4.6c-0.6,0.9-1.5,1.4-2.7,1.4c-1.9,0-3.2-1.1-3.4-3.2h10.8
      C188.6,12.6,188.4,11.2,187.8,9.9z M177.8,11.6c0.3-1.8,1.5-2.8,3.2-2.8c1.7,0,2.8,1,3,2.8H177.8z M190.9,26.1v9h9v-9H190.9z"/>
  </symbol>
  <symbol viewBox="0 0 250 250" id="bell">
      <g>
          <path  d="M231.2,177.1c-1.1-1.9-9.4-10.4-11.7-13c-3.4-3.9-7.6-9.4-11.9-17.3c-4.4-8-9-18.4-13.1-32.1
          c-3-10.2-4.4-20.5-5.5-30.6c-0.8-7.6-1.5-14.9-2.7-22c-0.9-5.3-2.1-10.4-4-15.2c-1.4-3.6-3.3-7.1-5.7-10.2
          C173,32,168.1,27.9,162,25c-6.2-2.9-10.8-4.7-19.7-5.5c0,0-9-19.2-16.9-19.2c-7.3,0-16.4,19.6-16.4,19.6S96.8,22,91.8,24.1
          c-4.4,1.8-8.3,4.1-11.6,6.8c-5.8,4.8-9.6,10.8-12.2,17.3c-3.9,9.8-5.2,20.6-6.6,31.9c-1.4,11.3-2.8,23.1-6.3,34.6
          c-6.3,20.9-13.6,34.1-19.7,42.6c-3.1,4.3-5.8,7.4-8,9.7c-1.1,1.2-7.7,7.6-8.8,10.1c-0.9,2.1-1.6,4.4-1.6,6.8c0,2.2,0.5,4.4,1.4,6.4
          c1.4,3.1,3.7,5.8,6.8,8.1c3.1,2.3,6.9,4.2,11.5,5.8c9.8,3.3,23.3,7.4,39.7,10.1c28.2,4.6,82.2,5.6,107.1,1.1
          c11.8-2.1,20.9-6.3,29.5-10.1l0,0c6.5-2.8,11.3-5.8,14.7-9.2c1.7-1.7,3.1-3.6,4-5.6c1-2,1.5-4.2,1.5-6.3
          C233.1,181.6,232.3,179.1,231.2,177.1z M216.9,188.5c-1.9,1.5-4.9,3.3-9.1,5c-8.1,3.5-16.1,6.5-26.9,8.5
          c-22.2,4.1-64.5,4.7-102.6-1.2c-15.8-2.4-28.7-5.7-37.6-8.8c-4.9-1.7-7.8-3.6-9.3-5.1c-0.8-0.8-1.9-2.6-1.4-4.1
          c0.2-0.6,2.5-2.8,3.3-3.6c1.5-1.5,3.8-3.7,6.4-6.6c3.9-4.5,8.7-10.8,13.5-19.6c4.8-8.8,9.8-20.1,14.1-34.6
          c3.4-11.2,4.9-22.2,6.2-32.3c1-7.6,1.8-14.6,3-20.9c0.9-4.7,4.2-21.5,17.2-28c6.9-3.4,20.1-5.1,32.9-5.1c13.5,0,22.9,1.8,26.9,3.2
          c3.5,1.3,6.2,2.8,8.5,4.6c3.9,3.1,6.5,6.9,8.4,12c2.9,7.5,4.1,17.6,5.3,29c1.2,11.4,2.5,24.3,6.5,37.4
          c6.6,22.1,14.6,36.7,21.5,46.4c3.5,4.9,6.7,8.5,9.2,11.1c1.3,1.3,6.7,6.8,7,7.3C220.3,184,220.7,185.5,216.9,188.5z"/>
          <path  d="M110.6,228c0,11.9,9.7,21.6,21.6,21.6s21.6-9.7,21.6-21.6c0,0-9.3,1.8-20.9,2C120.5,230.3,110.6,228,110.6,228
  z"/>
      </g>
  </symbol>
  <symbol viewBox="0 0 438 438" id="check">
      <path d="M434.5,98.5l-38.8-38.8c-5.3-5.3-11.8-8-19.4-8c-7.6,0-14.1,2.7-19.4,8L169.6,247.2L85.7,163c-5.3-5.3-11.8-8-19.4-8
      c-7.6,0-14.1,2.7-19.4,8L8,201.9c-5.3,5.3-8,11.8-8,19.4c0,7.6,2.7,14.1,8,19.4L111.3,344l38.8,38.8c5.3,5.3,11.8,8,19.4,8
      c7.6,0,14.1-2.7,19.4-8l38.8-38.8l206.7-206.7c5.3-5.3,8-11.8,8-19.4C442.5,110.3,439.9,103.8,434.5,98.5z"/>
  </symbol>
  
  <symbol viewBox="0 0 181 300" id="wallet">
      <style type="text/css">
          .wal0{fill:#34B0E5;}
          .wal1{fill:#E4F1FD;}
      </style>
      <g>
          <g>
              <path class="wal0" d="M143.5,5.7l-13.8-5.5L10.5,67.4l0.2,70.5l12.7,6.8h0.1l0,0l120-69.1V5.7z M14.2,135.7V69.5l116-65.4l8.2,3.6
    L23.5,74.1v66.5L14.2,135.7z M24.7,142.6V74.8L140.5,8.5v67.4L24.7,142.6z"/>
          </g>
          <g>
              <path class="wal1" d="M138.1,17.8v-5.2l-3.1,1.8C136.3,15.1,137.3,16.3,138.1,17.8z"/>
              <path class="wal1" d="M90.4,39.9l-4.2,2.4L27.1,76.2V120c0.4-5.9,2.4-11.5,6.5-11.5c4.6,0,6.6,6.8,6.6,13.2c0,4-0.8,8-2.5,10.7
    l54.8-31.5c-2,1.1-4.2,1.6-6.5,1.6C75,102.4,66.5,89.9,66.5,74S75,45.5,86,45.5S105.4,58,105.4,74c0,11.8-4.7,21.6-11.4,26
    l44-25.3v-38c-1.1,2.3-2.6,3.7-4.8,3.7c-4.6,0-6.6-6.8-6.6-13.2c0-3.2,0.5-6.5,1.6-9l-31.4,18L90.4,39.9z"/>
              <path class="wal1" d="M27.1,138.5l6.2-3.6c-4-0.2-5.9-5.9-6.2-11.5V138.5z"/>
          </g>
          <g>
              <path class="wal1" d="M38.1,252.3L37.7,278c0,0,0,11.5,10.8,5.3s112.2-63.9,112.2-63.9s10.8-5.9,10.8-18.6s0-62.1,0-62.1v-12.7
    c0,0,0-12.5-10.8-6.2c-10.8,6.2-112.2,63.9-112.2,63.9s-10.8,7.1-10.8,18.6v0.7v25.8l16.1-9.6v24L38.1,252.3z"/>
          </g>
          <path class="wal0" d="M70.7,165.6l-2.2,1.2c-0.2,0.1-0.4,0.5-0.2,0.8c0.1,0.2,0.4,0.4,0.5,0.4s0.2,0,0.2-0.1l2.2-1.2
  c0.2-0.1,0.4-0.5,0.2-0.8C71.3,165.6,71,165.5,70.7,165.6z M74.2,270.4l-2.2,1.2c-0.2,0.1-0.4,0.5-0.2,0.8c0.1,0.2,0.4,0.4,0.5,0.4
  s0.2,0,0.2-0.1l2.2-1.2c0.2-0.1,0.4-0.5,0.2-0.8C74.8,270.3,74.4,270.2,74.2,270.4z M63.3,169.8l-2.2,1.2c-0.2,0.1-0.4,0.5-0.2,0.8
  c0.1,0.2,0.4,0.4,0.5,0.4s0.2,0,0.2-0.1l2.2-1.2c0.2-0.1,0.4-0.5,0.2-0.8C63.9,169.8,63.5,169.7,63.3,169.8z M59.3,278.8l-2.2,1.2
  c-0.2,0.1-0.4,0.5-0.2,0.8c0.1,0.2,0.4,0.4,0.5,0.4s0.2,0,0.2-0.1l2.2-1.2c0.2-0.1,0.4-0.5,0.2-0.8C60,278.7,59.6,278.6,59.3,278.8
  z M78.2,161.4l-2.2,1.2c-0.2,0.1-0.4,0.5-0.2,0.8c0.1,0.2,0.4,0.4,0.5,0.4s0.2,0,0.2-0.1l2.2-1.2c0.2-0.1,0.4-0.5,0.2-0.8
  C78.8,161.4,78.4,161.3,78.2,161.4z M66.8,274.6l-2.2,1.2c-0.2,0.1-0.4,0.5-0.2,0.8c0.1,0.2,0.4,0.4,0.5,0.4s0.2,0,0.2-0.1l2.2-1.2
  c0.2-0.1,0.4-0.5,0.2-0.8C67.4,274.5,67,274.4,66.8,274.6z M96.4,257.9l-2.2,1.2c-0.2,0.1-0.4,0.5-0.2,0.8c0.1,0.2,0.4,0.4,0.5,0.4
  c0.1,0,0.2,0,0.2-0.1l2.2-1.2c0.2-0.1,0.4-0.5,0.2-0.8C97.1,257.9,96.8,257.7,96.4,257.9z M55.9,174l-2.2,1.2
  c-0.2,0.1-0.4,0.5-0.2,0.8c0.1,0.2,0.4,0.4,0.5,0.4s0.2,0,0.2-0.1l2.2-1.2c0.2-0.1,0.4-0.5,0.2-0.8C56.5,173.9,56.1,173.8,55.9,174
  z M93,153.1l-2.2,1.2c-0.2,0.1-0.4,0.5-0.2,0.8c0.1,0.2,0.4,0.4,0.5,0.4s0.2,0,0.2-0.1l2.2-1.2c0.2-0.1,0.4-0.5,0.2-0.8
  C93.6,153,93.3,153,93,153.1z M100.4,148.9l-2.2,1.2c-0.2,0.1-0.4,0.5-0.2,0.8c0.1,0.2,0.4,0.4,0.5,0.4c0.1,0,0.2,0,0.2-0.1
  l2.2-1.2c0.2-0.1,0.4-0.5,0.2-0.8C101.1,148.9,100.7,148.8,100.4,148.9z M85.6,157.3l-2.2,1.2c-0.2,0.1-0.4,0.5-0.2,0.8
  c0.1,0.2,0.4,0.4,0.5,0.4c0.1,0,0.2,0,0.2-0.1l2.2-1.2c0.2-0.1,0.4-0.5,0.2-0.8C86.2,157.2,85.8,157.1,85.6,157.3z M81.6,266.3
  l-2.2,1.2c-0.2,0.1-0.4,0.5-0.2,0.8c0.1,0.2,0.4,0.4,0.5,0.4s0.2,0,0.2-0.1l2.2-1.2c0.2-0.1,0.4-0.5,0.2-0.8
  C82.2,266.1,81.9,266.1,81.6,266.3z M89.1,262.1l-2.2,1.2c-0.2,0.1-0.4,0.5-0.2,0.8c0.1,0.2,0.4,0.4,0.5,0.4s0.2,0,0.2-0.1l2.2-1.2
  c0.2-0.1,0.4-0.5,0.2-0.8C89.7,262.1,89.3,261.9,89.1,262.1z M36.4,189.4c-0.2-0.1-0.6-0.1-0.8,0.2c-0.5,0.7-0.8,1.4-1.2,2.2
  c-0.1,0.2,0,0.7,0.2,0.8c0.1,0,0.1,0.1,0.2,0.1c0.2,0,0.5-0.1,0.6-0.4c0.4-0.7,0.7-1.4,1.2-2C36.8,189.8,36.7,189.5,36.4,189.4z
   M33.2,197c-0.4-0.1-0.6,0.1-0.7,0.5c-0.1,0.8-0.2,1.7-0.2,2.5c0,0.4,0.2,0.6,0.6,0.6l0,0c0.4,0,0.6-0.2,0.6-0.6
  c0-0.7,0.1-1.6,0.2-2.3C33.7,197.5,33.4,197.2,33.2,197z M32.7,279.8L32.7,279.8c-0.4,0-0.6,0.2-0.6,0.6v1.9c0,0,0,0.2,0,0.6
  c0,0.4,0.2,0.6,0.6,0.6l0,0c0.4,0,0.6-0.4,0.6-0.6s0-0.5,0-0.5v-1.9C33.3,280.2,33.1,279.8,32.7,279.8z M48.4,178.2l-2.2,1.2
  c-0.2,0.1-0.4,0.5-0.2,0.8c0.1,0.2,0.4,0.4,0.5,0.4s0.2,0,0.2-0.1l2.2-1.2c0.2-0.1,0.4-0.5,0.2-0.8C49,178.1,48.7,178,48.4,178.2z
   M103.8,253.8l-2.2,1.2c-0.2,0.1-0.4,0.5-0.2,0.8c0.1,0.2,0.4,0.4,0.5,0.4c0.1,0,0.2,0,0.2-0.1l2.2-1.2c0.2-0.1,0.4-0.5,0.2-0.8
  C104.6,253.7,104.2,253.5,103.8,253.8z M32.7,214.1c-0.4,0-0.6,0.2-0.6,0.6v2.4c0,0.4,0.2,0.6,0.6,0.6s0.6-0.2,0.6-0.6v-2.4
  C33.3,214.3,33.1,214.1,32.7,214.1z M32.7,222.6c-0.4,0-0.6,0.2-0.6,0.6v2.4c0,0.4,0.2,0.6,0.6,0.6s0.6-0.2,0.6-0.6v-2.4
  C33.3,222.8,33.1,222.6,32.7,222.6z M32.7,205.6c-0.4,0-0.6,0.2-0.6,0.6v2.4c0,0.4,0.2,0.6,0.6,0.6s0.6-0.2,0.6-0.6v-2.4
  C33.3,205.8,33.1,205.6,32.7,205.6z M44.5,287.2l-0.5,0.2c-0.6,0.4-1.1,0.6-1.6,0.8c-0.4,0.1-0.5,0.5-0.2,0.8
  c0.1,0.2,0.4,0.4,0.6,0.4c0.1,0,0.1,0,0.2,0c0.5-0.2,1.1-0.6,1.7-0.8l0.5-0.2c0.2-0.1,0.4-0.5,0.2-0.8
  C45.2,287.1,44.8,287,44.5,287.2z M51.9,283l-2.2,1.2c-0.2,0.1-0.4,0.5-0.2,0.8c0.1,0.2,0.4,0.4,0.5,0.4s0.2,0,0.2-0.1l2.2-1.2
  c0.2-0.1,0.4-0.5,0.2-0.8C52.6,282.9,52.3,282.8,51.9,283z M32.8,271.4c-0.4,0-0.6,0.2-0.6,0.6v2.4c0,0.4,0.2,0.6,0.6,0.6l0,0
  c0.4,0,0.6-0.2,0.6-0.6V272C33.4,271.6,33.2,271.4,32.8,271.4z M41.2,182.9c-0.6,0.6-1.2,1.1-1.8,1.7c-0.2,0.2-0.2,0.6,0,0.8
  c0.1,0.1,0.2,0.1,0.4,0.1c0.1,0,0.4-0.1,0.5-0.2c0.6-0.6,1.1-1.1,1.7-1.7c0.2-0.2,0.2-0.6,0-0.8S41.5,182.6,41.2,182.9z
   M36.9,289.2c-0.7-0.2-1.2-0.6-1.8-1.1c-0.2-0.2-0.6-0.2-0.8,0s-0.2,0.6,0,0.8c0.6,0.7,1.4,1.2,2.3,1.4h0.1c0.2,0,0.5-0.1,0.6-0.5
  C37.5,289.6,37.3,289.3,36.9,289.2z M32.9,262.9c-0.4,0-0.6,0.2-0.6,0.6v2.4c0,0.4,0.2,0.6,0.6,0.6l0,0c0.4,0,0.6-0.2,0.6-0.6v-2.4
  C33.5,263.1,33.3,262.9,32.9,262.9z M122.7,136.5l-2.2,1.2c-0.2,0.1-0.4,0.5-0.2,0.8c0.1,0.2,0.4,0.4,0.5,0.4c0.1,0,0.2,0,0.2-0.1
  l2.2-1.2c0.2-0.1,0.4-0.5,0.2-0.8C123.4,136.3,123,136.2,122.7,136.5z M168.4,112.4c0-0.4-0.4-0.6-0.7-0.5
  c-0.7,0.1-1.6,0.4-2.4,0.7c-0.4,0.1-0.5,0.5-0.4,0.8c0.1,0.2,0.4,0.4,0.6,0.4c0.1,0,0.1,0,0.2,0c0.7-0.4,1.6-0.6,2.2-0.6
  C168.2,113,168.5,112.7,168.4,112.4z M174.8,190.2c-0.4,0-0.6,0.2-0.6,0.6v2.4c0,0.4,0.2,0.6,0.6,0.6c0.4,0,0.6-0.2,0.6-0.6v-2.4
  C175.4,190.4,175.2,190.2,174.8,190.2z M174.8,181.7c-0.4,0-0.6,0.2-0.6,0.6v2.4c0,0.4,0.2,0.6,0.6,0.6c0.4,0,0.6-0.2,0.6-0.6v-2.4
  C175.4,181.9,175.2,181.7,174.8,181.7z M169.4,214.8c-0.5,0.6-1,1.2-1.6,1.8c-0.2,0.2-0.2,0.6,0,0.8c0.1,0.1,0.2,0.1,0.4,0.1
  c0.1,0,0.4-0.1,0.5-0.2c0.6-0.6,1.1-1.2,1.7-1.9c0.2-0.2,0.1-0.6-0.1-0.8C170,214.6,169.7,214.6,169.4,214.8z M174,207.1
  c-0.4-0.1-0.6,0.1-0.7,0.4c-0.2,0.7-0.5,1.4-0.8,2.2c-0.1,0.4,0,0.7,0.4,0.8c0.1,0,0.1,0,0.2,0c0.2,0,0.5-0.1,0.6-0.4
  c0.4-0.7,0.6-1.6,0.8-2.3C174.5,207.6,174.4,207.2,174,207.1z M174.8,173.2c-0.4,0-0.6,0.2-0.6,0.6v2.4c0,0.4,0.2,0.6,0.6,0.6
  c0.4,0,0.6-0.2,0.6-0.6v-2.4C175.4,173.4,175.2,173.2,174.8,173.2z M173.5,116.9c0.1,0.2,0.4,0.4,0.6,0.4c0.1,0,0.1,0,0.2,0
  c0.4-0.1,0.5-0.5,0.4-0.7c-0.4-0.8-0.7-1.7-1.2-2.3c-0.2-0.2-0.6-0.4-0.8-0.1c-0.2,0.2-0.4,0.6-0.1,0.8
  C173,115.5,173.3,116.1,173.5,116.9z M174.8,198.7c-0.4,0-0.6,0.2-0.6,0.6v1.7c0,0.2,0,0.5,0,0.7c0,0.4,0.2,0.6,0.6,0.6l0,0
  c0.4,0,0.6-0.2,0.6-0.6c0-0.2,0-0.5,0-0.7v-1.7C175.4,199,175.2,198.7,174.8,198.7z M174.8,139.1c-0.4,0-0.6,0.2-0.6,0.6v2.4
  c0,0.4,0.2,0.6,0.6,0.6c0.4,0,0.6-0.2,0.6-0.6v-2.4C175.4,139.3,175.2,139.1,174.8,139.1z M174.8,164.7c-0.4,0-0.6,0.2-0.6,0.6v2.4
  c0,0.4,0.2,0.6,0.6,0.6c0.4,0,0.6-0.2,0.6-0.6v-2.4C175.4,164.9,175.2,164.7,174.8,164.7z M174.8,122.1c-0.4,0-0.6,0.2-0.6,0.6v2.4
  c0,0.4,0.2,0.6,0.6,0.6c0.4,0,0.6-0.2,0.6-0.6v-2.4C175.4,122.3,175.2,122.1,174.8,122.1z M107.8,144.7l-2.2,1.2
  c-0.2,0.1-0.4,0.5-0.2,0.8c0.1,0.2,0.4,0.4,0.5,0.4c0.1,0,0.2,0,0.2-0.1l2.2-1.2c0.2-0.1,0.4-0.5,0.2-0.8
  C108.5,144.7,108.1,144.6,107.8,144.7z M174.8,156.1c-0.4,0-0.6,0.2-0.6,0.6v2.4c0,0.4,0.2,0.6,0.6,0.6c0.4,0,0.6-0.2,0.6-0.6v-2.4
  C175.4,156.4,175.2,156.1,174.8,156.1z M174.8,147.6c-0.4,0-0.6,0.2-0.6,0.6v2.4c0,0.4,0.2,0.6,0.6,0.6c0.4,0,0.6-0.2,0.6-0.6v-2.4
  C175.4,147.9,175.2,147.6,174.8,147.6z M174.8,130.6c-0.4,0-0.6,0.2-0.6,0.6v2.4c0,0.4,0.2,0.6,0.6,0.6c0.4,0,0.6-0.2,0.6-0.6v-2.4
  C175.4,130.8,175.2,130.6,174.8,130.6z M130.1,132.3l-2.2,1.2c-0.2,0.1-0.4,0.5-0.2,0.8c0.1,0.2,0.4,0.4,0.5,0.4
  c0.1,0,0.2,0,0.2-0.1l2.2-1.2c0.2-0.1,0.4-0.5,0.2-0.8C130.8,132.1,130.3,132.1,130.1,132.3z M126.1,241.2l-2.2,1.2
  c-0.2,0.1-0.4,0.5-0.2,0.8c0.1,0.2,0.4,0.4,0.5,0.4c0.1,0,0.2,0,0.2-0.1l2.2-1.2c0.2-0.1,0.4-0.5,0.2-0.8
  C126.7,241.2,126.4,241.1,126.1,241.2z M137.5,128.1l-2.2,1.2c-0.2,0.1-0.4,0.5-0.2,0.8c0.1,0.2,0.4,0.4,0.5,0.4s0.2,0,0.2-0.1
  l2.2-1.2c0.2-0.1,0.4-0.5,0.2-0.8C138.1,128.1,137.8,127.9,137.5,128.1z M133.6,237.1l-2.2,1.2c-0.2,0.1-0.4,0.5-0.2,0.8
  c0.1,0.2,0.4,0.4,0.5,0.4c0.1,0,0.2,0,0.2-0.1l2.2-1.2c0.2-0.1,0.4-0.5,0.2-0.8C134.2,237,133.8,236.9,133.6,237.1z M118.7,245.4
  l-2.2,1.2c-0.2,0.1-0.4,0.5-0.2,0.8c0.1,0.2,0.4,0.4,0.5,0.4c0.1,0,0.2,0,0.2-0.1l2.2-1.2c0.2-0.1,0.4-0.5,0.2-0.8
  C119.3,245.4,118.9,245.3,118.7,245.4z M111.3,249.6l-2.2,1.2c-0.2,0.1-0.4,0.5-0.2,0.8c0.1,0.2,0.4,0.4,0.5,0.4
  c0.1,0,0.2,0,0.2-0.1l2.2-1.2c0.2-0.1,0.4-0.5,0.2-0.8C112,249.5,111.6,249.5,111.3,249.6z M115.2,140.7l-2.2,1.2
  c-0.2,0.1-0.4,0.5-0.2,0.8c0.1,0.2,0.4,0.4,0.5,0.4c0.1,0,0.2,0,0.2-0.1l2.2-1.2c0.2-0.1,0.4-0.5,0.2-0.8
  C115.9,140.5,115.6,140.4,115.2,140.7z M152.4,119.7l-2.2,1.2c-0.2,0.1-0.4,0.5-0.2,0.8c0.1,0.2,0.4,0.4,0.5,0.4
  c0.1,0,0.2,0,0.2-0.1l2.2-1.2c0.2-0.1,0.4-0.5,0.2-0.8C153,119.7,152.7,119.6,152.4,119.7z M163.3,220.3c-0.1,0.1-0.2,0.1-0.2,0.1
  l-0.4,0.1l0,0c-0.2,0.1-0.8,0.5-1.6,0.8c-0.2,0.1-0.4,0.5-0.2,0.8c0.1,0.2,0.4,0.4,0.5,0.4c0.1,0,0.2,0,0.2-0.1
  c1-0.6,1.6-0.8,1.8-1.1l0,0c0,0,0.1-0.1,0.4-0.2s0.4-0.6,0.2-0.8C163.9,220.3,163.6,220.2,163.3,220.3z M141,232.9l-2.2,1.2
  c-0.2,0.1-0.4,0.5-0.2,0.8c0.1,0.2,0.4,0.4,0.5,0.4s0.2,0,0.2-0.1l2.2-1.2c0.2-0.1,0.4-0.5,0.2-0.8
  C141.6,232.8,141.3,232.7,141,232.9z M155.9,224.5l-2.2,1.2c-0.2,0.1-0.4,0.5-0.2,0.8c0.1,0.2,0.4,0.4,0.5,0.4s0.2,0,0.2-0.1
  l2.2-1.2c0.2-0.1,0.4-0.5,0.2-0.8C156.5,224.5,156.1,224.4,155.9,224.5z M159.8,115.5l-2.2,1.2c-0.2,0.1-0.4,0.5-0.2,0.8
  c0.1,0.2,0.4,0.4,0.5,0.4c0.1,0,0.2,0,0.2-0.1l2.2-1.2c0.2-0.1,0.4-0.5,0.2-0.8C160.4,115.5,160.1,115.4,159.8,115.5z M145,123.9
  l-2.2,1.2c-0.2,0.1-0.4,0.5-0.2,0.8c0.1,0.2,0.4,0.4,0.5,0.4c0.1,0,0.2,0,0.2-0.1l2.2-1.2c0.2-0.1,0.4-0.5,0.2-0.8
  C145.6,123.9,145.2,123.7,145,123.9z M148.5,228.7l-2.2,1.2c-0.2,0.1-0.4,0.5-0.2,0.8c0.1,0.2,0.4,0.4,0.5,0.4c0.1,0,0.2,0,0.2-0.1
  l2.2-1.2c0.2-0.1,0.4-0.5,0.2-0.8C149.1,228.7,148.7,228.6,148.5,228.7z M6.1,280.9c-1.9-2.9-1.9-5.8-1.9-5.8v-27.9l23.8,13.6
  l-0.4,28.9c0,0.1,0,2.3,0.8,4.4C20,290.2,6.7,282,6.1,280.9z M4.2,243.1v-20.8l24.5,14l23.4-14v21.1l-23.6,13.4L4.2,243.1z
   M177.7,210.5c-0.6,0-1.4,0.5-1.7,1.2c-3.2,8.3-11.2,12.6-11.4,12.6c-49.9,28.1-124.9,69.9-130.1,72c-0.7,0.2-2.3-0.2-4.6-1.2
  c-1.3-2.3-1.3-5.2-1.3-5.3l0.4-28.9l26.6-15.4V216l-27,16.2v-32.9c0-13.3,12.5-21.7,12.6-21.8c1.1-0.6,112.9-63.5,125.6-70.8
  c3.6-2,6.5-2.5,8.5-1.3c3.5,2,3.5,8.3,3.5,8.3v89.2c0,0.8,0,1.6-0.1,2.4c0,0-0.1,0.6,0.5,0.7c0.7,0.1,0.7-0.5,0.7-0.5
  c0.1-0.8,0.1-1.7,0.1-2.5v-89.4c0-0.2,0-6.5-3.6-9l0,0l-0.1-0.1c-0.1-0.1-0.2-0.1-0.4-0.2c-0.1-0.1-0.2-0.1-0.4-0.2l-25.4-14.3l0,0
  c-1.1-0.6-2.5-1-4.3-0.7c0,0-0.6,0.1-0.4,0.6c0.2,0.6,0.8,0.5,0.8,0.5c1.1-0.1,1.9,0,2.8,0.4l23.3,13c-1.7,0.1-3.7,0.8-5.9,2.2
  c-12.7,7.3-124.5,70.2-125.7,70.8c-0.1,0.1-13.2,8.9-13.2,22.8v32.3L4.2,218v-33.5c0-0.1-0.1-13.9,12-20.8
  c13-7.1,125-70.3,126.1-70.9c0,0,1.1-0.8,0.7-1.7l-0.5-1.1c-0.6-0.8-2-0.4-2-0.4c-6,3.4-115.3,65-126.2,71.1
  c-13.9,7.8-13.8,23.3-13.8,23.9v90.4c0,0.1,0,3.8,2.5,7.7c1.4,2.3,28.5,17.2,31.1,17.2c0.1,0,0.2,0,0.4,0
  c2.8-0.1,84-45.6,132.1-72.6c0.4-0.2,9.1-4.9,13-14.5c0.2-0.7,0-1.6-0.6-2C178.8,210.8,178.3,210.5,177.7,210.5z M43.4,229.7
  c-3.6,0-6.5,3.6-6.5,8c0,4.4,2.9,8,6.5,8c3.6,0,6.5-3.6,6.5-8C49.7,233.3,46.9,229.7,43.4,229.7z M43.4,244.5
  c-2.9,0-5.3-3.1-5.3-6.8c0-3.7,2.4-6.8,5.3-6.8c2.9,0,5.3,3.1,5.3,6.8C48.5,241.4,46.3,244.5,43.4,244.5z"/>
      </g>
  </symbol>

  <symbol viewBox="0 0 199 300" id="resellers">
      <!--each path in each symbol needs to have unique css class-->
      <style type="text/css">
          .res0{fill:#E4F1FD;}
          .res1{fill:#34A9DC;}
      </style>
      <path class="res0" d="M98,75.3l-0.4,0.1l-0.2-0.1c-0.4,0-1,0.1-1.4,0.4c-1,0.5-4.3,2.6-6.8,4.2l-10.7,28.5l1.7,4.4l-9,13.3l-11.7-5.7
l1-4.7L44,105.1c-0.4,0.1-0.6,0.4-1,0.5c-2,1.1-4.1,2.2-4.8,3c-2,2.3-1.9,5.5-1.9,5.5v0.1v0.1L36.1,131l2.4,7.7l16.1,11.9l3.2,2.4
l-2.2,1l6,4.1c1-0.5,2.4-1,4.3-1.4c0.4-0.2,1.3-0.7,2.4-1.3l0,0l2-1.2l5.2-2.9l24-13.7c-0.1-8.4-0.6-53.9-0.6-59.2
C98.8,76.5,98.5,75.4,98,75.3z M192.4,205.6c-0.6,0-1.6,0.1-4.2,1.8c-9.6,6.1-38.2,21.3-50.4,27.9c-2.5,1.3-4.3,2.3-5.2,2.8
c-0.7,0.4-1.3,0.7-2,1.1c-5.3,2.6-9,4.7-9.5,15.3c-0.2,6.8-0.7,30.7-0.8,40L193,255v-46.8C193,208.1,193,205.7,192.4,205.6z"/>
      <path class="res1" d="M59.8,4.5c6.1,2,11,5.3,14.6,9.3l0,0c0,0,0,0,0.1,0.1c3.5,4.1,5.4,8.9,5.4,13.9c0,14-14.7,25.4-32.9,25.4
c-14.9,0-27.9-7.8-31.7-18.8c-0.1-0.2-0.5-0.5-0.7-0.4c-0.2,0.1-0.5,0.5-0.4,0.7c4,11.5,17.5,19.5,32.8,19.5c18.8,0,34-11.9,34-26.5
c0-2-0.4-4.1-1-6.1c1.9,3.6,3.6,8,3.6,12.7c0,0.2-0.5,26.2-0.5,30.3c0,5.4-6.5,27.1-36.2,27.1C30.7,91.8,21.7,84.9,17,79
c-0.2-0.2-0.6-0.2-0.8-0.1c-0.2,0.2-0.2,0.6-0.1,0.8c4.8,6,14.1,13.3,30.8,13.3c30.7,0,37.4-22.5,37.4-28.1c0-4.1,0.5-29.9,0.5-30.3
c0-10.9-8.3-20-9.5-21.3C71.6,8.9,66.4,5.6,60,3.4c-0.2-0.1-0.6,0.1-0.7,0.4C59.3,4.1,59.6,4.4,59.8,4.5z M73,73.1
c-4.7,3-8.6,0.1-8.9,0c-0.5-0.4-1.2-0.2-1.6,0.2s-0.2,1.2,0.2,1.6c1.1,0.8,3.2,1.8,5.7,1.8c1.8,0,3.7-0.5,5.6-1.7
c6.1-4,7.3-12.3,7.4-12.7c0.1-0.6-0.4-1.2-1-1.3s-1.2,0.4-1.3,1C79.3,62.1,78.2,69.8,73,73.1z M61.1,60.9c-1.3,0-2.4,1.4-2.4,3.4
c0,1.8,1.1,3.4,2.4,3.4c1.3,0,2.4-1.4,2.4-3.4C63.4,62.3,62.4,60.9,61.1,60.9z M80.4,53.8c0-1.8-1.1-3.4-2.4-3.4
c-1.3,0-2.4,1.4-2.4,3.4c0,1.9,1.1,3.4,2.4,3.4C79.3,57.2,80.4,55.6,80.4,53.8z M7.6,87.5l6.7-3.5c0.8-0.5,1.2-1.4,0.7-2.3
c-0.5-0.8-1.4-1.2-2.3-0.7L6,84.5C-0.1,87.6-0.1,96-0.1,96.4v74.3c0,1,0.7,1.7,1.7,1.7c1,0,1.7-0.7,1.7-1.7V96.4
C3.4,96.2,3.4,89.8,7.6,87.5z M74.3,98.3l3.8,8l7.5-23.6c0.1-0.2-0.1-0.6-0.4-0.7c-0.2-0.1-0.6,0.1-0.7,0.4l-6.7,21l-2.5-5.2
L78,83.9l17-10.3c0,0,2.6-1.2,4.3,0c1.1,0.7,1.7,2.3,1.7,4.6v56.9c0,0.4,0.2,0.6,0.6,0.6s0.6-0.2,0.6-0.6V78.2
c0-2.8-0.7-4.6-2.2-5.5c-2.3-1.4-5.3-0.1-5.5,0L77,83.3L74.3,98.3z M174.7,200.2c-0.2-0.1-0.6,0-0.7,0.4
c-7.3,20.2-28.6,21.8-35,21.8c-24.1,0-32.9-14.1-35.5-22.4c0-0.2,0-0.4-0.1-0.6c-0.5-1.7-0.7-3.1-0.7-4.1c0-4.1-0.5-29.9-0.5-30.3
c0-4.7,1.7-9.2,3.6-12.7c-0.6,1.9-1,4-1,6.1c0,14.6,15.2,26.5,34,26.5c16.8,0,30.9-9.3,33.5-22.3c0.1-0.4-0.1-0.6-0.5-0.7
c-0.2,0-0.6,0.1-0.7,0.5c-2.5,12.3-16.2,21.3-32.5,21.3c-18.1,0-32.9-11.4-32.9-25.4c0-10.1,7.8-19.3,19.8-23.2
c0.2-0.1,0.5-0.4,0.4-0.7c-0.1-0.2-0.4-0.5-0.7-0.4c-6.1,2-11.1,5.4-14.7,9.5l0,0c-0.4,0.4-9.7,9.9-9.7,21.4c0,0.1,0.1,5.6,0.2,11.9
l-3-1.4l-0.4,0.1c-0.1,0-0.6,0.1-1.3,0.5l-6.1-3.5c0.5-1.1,1.1-2.8,0.5-4.7c-0.6-2.2-2.4-3.7-5.4-4.9c-8.7-3.4-13.8,2.6-13.9,2.6
c-0.4,0.5-0.4,1.2,0.1,1.6c0.5,0.4,1.2,0.4,1.6-0.1c0.1-0.2,4.1-4.8,11.3-2c2.3,0.8,3.6,2,4.1,3.5c0.6,1.9-0.7,3.7-0.8,3.8l-0.7,1
l7.1,4.1c-1.7,1.3-3.6,3.6-4.2,7.2c0,0.1,0,0.1,0,0.2c0,0.2-0.1,0.5-0.1,0.7c-0.1,0.7-0.1,1.4-0.1,2.2l-6.8-2.9V199
c-2.2,0.4-6.3,1-9.8,0.6c-3.5-0.4-5.6-3-6.2-4v-0.7c4.4-0.1,8-1.3,8.3-1.3l0.7-0.2v-13.2c1.2,0.2,2.3,0.4,3.1,0.4
c4.2,0,6.3-2.3,6.5-2.4c0.4-0.5,0.4-1.2-0.1-1.6c-0.5-0.5-1.2-0.4-1.6,0.1c-0.1,0.1-2.6,2.6-8,1.2v-9.8l-1.8,1.4c0,0-3.5,2.8-8.1,2
c-3.7-0.6-8-2-7.7-5.2c0.1-0.8,1.1-2.3,3.4-3.7c2.9-1.8,7.7-3.2,12-1.7c0.6,0.2,1.2-0.1,1.4-0.7c0.2-0.6-0.1-1.2-0.7-1.4
c-4.6-1.7-9.6-0.5-12.9,1.3l-10.7-7.1c0.7-0.4,1.3-0.6,1.3-0.6l1-0.4L36,139.7l-2.8-8.6c0-0.1,0.1-0.2,0.1-0.2l1-17.1
c0,0-0.6-5.6,4.8-8.5l13.5-7.5l8.4,7.9l-0.7,6.1l-13.4-9c-0.2-0.1-0.6-0.1-0.8,0.1c-0.1,0.2-0.1,0.6,0.1,0.8l15,9.9l1.1-8.5
l-9.3-8.9l-14.3,7.9c-6,3.4-5.4,9.6-5.3,9.6l-0.5,14.4l-4.2-13.5c0-0.1-3.7-12.1-15.5-8.7c-11,3.1-7.5,17.8-7.4,18l0,0
c0,0,0.1,0.6,0.7,0.5s0.4-0.7,0.4-0.7c-0.1-0.2-3.2-13.8,6.7-16.6c10.7-3,13.9,7.5,14,8l8,25.6l15.3,11.5c-1.3,0.7-4,2.3-5.7,5
c-1,1.6-1.7,3.6-2,5.6l-1.4-1l-0.4,4l-15.6-8.5c-4.8-2.9-8.3-6.1-11.7-14.4c-3.4-8.1-4.9-14.7-4.9-14.9c-0.1-0.7-0.8-1.4-1.6-1.3
L6.5,127c-0.6,0.2-0.8,1.1-0.7,1.8c0.1,0.2,1.7,6.9,5.2,15.5c3.7,9,7.8,12.8,13.2,16.1l20.2,11l0.2-3.4l4.2,2.9v11.7
c-0.1,1-0.1,6.1,6.2,10.1c3.5,2.2,6.7,2.9,8.6,3v1.2l0.2,0.4c0.1,0.2,3.1,5.4,9.1,6c0.8,0.1,1.8,0.1,2.6,0.1c4.7,0,9.3-1,9.6-1.1
l1.3-0.2v-12l3.4,1.4l1.1,1.9l11.3,8.9c0.2,0.2,0.8,0.7,1.3,1.1c3.7,8.6,13.3,20.4,35.5,20.4c10.2,0,18.8-2.6,25.4-7.9
c6.5-5.2,9.5-11.4,10.7-14.7C175.1,200.6,175,200.2,174.7,200.2z M56.8,189.7c-2.3-1.7-3.6-3.2-4.2-4.6c-0.2-0.6-0.4-1.1-0.5-1.6
c-0.1-0.6-0.1-0.8,0-1v-13.8l-8.1-5.6c0.4-2,1-4.2,2-5.6c1.1-1.7,2.5-2.9,3.7-3.7l10.7,7.1c-2.5,1.6-4.1,3.5-4.3,5.3
c-0.4,2.8,1.1,6.2,9.5,7.7c3.5,0.6,6.3-0.5,8-1.3v18.9C71.5,192,62.5,193.9,56.8,189.7z M93.6,190.9l-1.2-2c-0.1-0.6-0.1-1.2-0.1-2
c0-0.6,0.1-1.2,0.2-1.9c0-0.1,0-0.1,0-0.2c0.5-2.2,1.9-4.4,5-6.2l0.8-0.5l2.4,1.2c0.2,0.1,0.4,0.1,0.6,0.1
c0.1,6.8,0.2,14.1,0.2,16.1c0,0.6,0.1,1.2,0.2,2L93.6,190.9z M135.4,229.7l-12.1,7.2c-1,0.5-7.5,4.3-7.8,17.6l-0.8,42.9
c0,1,0.7,1.7,1.7,1.7l0,0c1,0,1.7-0.7,1.7-1.7l0.8-42.9c0.2-11.9,5.7-14.6,6-14.6l12.3-7.3c0.8-0.5,1.1-1.6,0.6-2.3
S136.2,229.2,135.4,229.7z M195.3,200.5c-2.8-1.7-6,0-6.3,0.2l-15.2,8.6c-0.8,0.5-1.1,1.4-0.6,2.3c0.5,0.8,1.4,1.1,2.3,0.6l15.2-8.6
c0.4-0.2,1.9-0.8,3-0.2c1,0.6,1.6,2.4,1.6,5.2v46.6c0,1,0.7,1.7,1.7,1.7c1,0,1.7-0.7,1.7-1.7v-46.6
C198.4,204.4,197.3,201.7,195.3,200.5z M97.6,247.3L87,249.7v-18c0-0.1-0.2-6.1,4.8-10.1l10.3-6.3c0.5-0.4,0.7-1.1,0.4-1.6
c-0.4-0.5-1.1-0.7-1.6-0.4l-10.4,6.5l-0.1,0.1c-6,4.7-5.7,11.6-5.7,11.9v18.4l-12.9,3l-19.2-8l0.1,1c0,0,0.6,4.1-1.2,7.8
c-0.8,1.7-2.5,3.4-4.2,4.8l-9.5-4.4l-0.7,0.5c-0.1,0-6.1,3.8-10.4,6.1c-4,2.2-8.6,0.7-12.9-3.8c-4.1-4.3-5.2-9.2-5.3-10.1l16.2-9.5
c0.1,1.9,0.7,4.9,2.9,7.7c5.5,6.6,9.2,6,11.4,4.3c1.4-1.1,2.3-3.5,2.4-6.5c0.1-4.1-1.3-9.6-5.4-13.1c-0.5-0.4-1.2-0.4-1.6,0.1
c-0.4,0.5-0.4,1.2,0.1,1.6c3.5,2.9,4.7,7.9,4.7,11.3c0,2.8-0.8,4.3-1.4,4.8c-2.5,1.9-5.9-1.1-8.3-4c-3-3.6-2.4-8-2.4-8l0.4-2.4
L6.7,245.5H6.6c-1,0.1-1.6,1-1.4,1.9c0,0.2,1.1,6.3,6.2,12c5.3,5.6,11.6,7.4,16.9,4.6c3.6-1.9,8.1-4.7,9.8-5.7l4.9,2.3l-1.8,1.9
l1.6,1.1c0.6,0.5,16.2,11.7,26,13.8c4,0.8,8.6,1.2,13.4,1.2c0.8,0,1.6,0,2.4,0v1.4c0,0.6,0.5,1.1,1.1,1.1c0.6,0,1.1-0.5,1.1-1.1
v-1.4c5.7-0.2,11.3-1,15.7-1.8c0.8-0.1,1.3-0.8,1.3-1.7c3.6-1.6,12-6.5,8.9-18.7C110,244.4,97.8,247.3,97.6,247.3z M103.8,273.9
c-0.4-0.5-1-0.7-1.7-0.6c-8.7,1.8-23.1,2.6-32.3,0.7c-7.4-1.4-18.9-9.2-23.1-12.1l2.3-2.5l-0.2-0.1c1.6-1.4,3.1-3.1,4.1-4.8
c1.6-3,1.6-6,1.4-7.5l17.6,7.4l26.1-6c0,0,2.9-0.7,6,0c4.2,0.8,6.8,3.6,8,8.1C114.9,268,107.1,272.4,103.8,273.9z M64.7,91.8
l-0.5,12.6l8.1-4.4l-3.2-10.3L64.7,91.8z M73.1,102.5l-8.9,4.7l-0.7,13.1l7.2,3.4l6.3-10.8L73.1,102.5z M73.1,133.7
c1.6,0,2.8-1.6,2.8-3.4c0-1.8-1.2-3.4-2.8-3.4s-2.8,1.6-2.8,3.4C70.2,132.3,71.5,133.7,73.1,133.7z M73.1,137.8
c-1.6,0-2.8,1.6-2.8,3.4c0,1.8,1.2,3.4,2.8,3.4s2.8-1.6,2.8-3.4C76,139.4,74.6,137.8,73.1,137.8z M73.1,147.2
c-1.6,0-2.8,1.6-2.8,3.4c0,1.8,1.2,3.4,2.8,3.4s2.8-1.6,2.8-3.4C75.8,148.7,74.6,147.2,73.1,147.2z M10.8,73.2c0.2,0.6,0.8,1,1.6,1
c0.2,0,0.5,0,0.7-0.1c0.8-0.4,1.2-1.4,0.8-2.3c-1.3-2.8-2-5.5-2-7.9c-0.1-8.6-0.4-30.4-0.4-30.4c0-0.1,0.6-9.6,8.5-18.3
c5.3-5.9,11.9-9.6,19.4-10.9C33.8,6.4,30,11,30,16.1c0,0.4,0,0.7,0.1,1H30v11.7v0.2c0,0.1,3.6,9.8,17,9.8c7.7,0,11.9-2.6,14-4.9
c2.4-2.4,2.9-4.9,2.9-5V17.1h-0.1c0-0.4,0.1-0.7,0.1-1c0-7.3-7.7-13.3-17-13.3c-0.7,0-1.4,0-2.2,0.1c0.2-0.4,0.4-0.6,0.4-1.1
c-0.1-1-0.8-1.7-1.8-1.6C33,1,24.3,5.2,17.5,12.9c-8.7,9.7-9.3,20-9.3,20.5c0,0,0.2,21.9,0.2,30.5C8.5,66.9,9.2,70,10.8,73.2z
 M62.9,28.8c-0.2,0.8-2.4,8.9-15.8,8.9c-12.2,0-15.6-7.9-15.9-9v-7.9c2.4,5,8.6,8.6,15.8,8.6s13.4-3.6,15.8-8.6v8H62.9z M47,3.9
c8.7,0,15.9,5.5,15.9,12.2S55.7,28.2,47,28.2S31.2,22.7,31.2,16S38.2,3.9,47,3.9z M133.3,134.1c-6.6,1.8-11.4,6.7-11.4,12.6
c0,0.4,0,0.7,0.1,1H122v11.7v0.1c0.1,0.4,2.3,9,17,9c13.5,0,16.8-8.5,17-8.9v-11.9h-0.1c0-0.4,0.1-0.7,0.1-1
c0-5.6-4.4-10.4-10.8-12.3c4.3,0.7,9.7,2.6,15.7,6.6c14.6,9.8,13.5,27.2,13.5,27.4l-0.5,28.4c0,1,0.7,1.7,1.7,1.7l0,0
c1,0,1.7-0.7,1.7-1.7l0.5-28.3c0-0.8,1.2-19.5-15-30.4c-16.1-10.8-28.4-7.1-29-6.9c-0.8,0.2-1.4,1.2-1.1,2.2
C132.7,133.6,133,133.9,133.3,134.1z M154.8,159.3c-0.4,1-3.7,8.1-15.8,8.1c-13.3,0-15.7-7.3-15.8-8v-7.9c2.4,5,8.6,8.6,15.8,8.6
c7.2,0,13.4-3.6,15.8-8.6V159.3z M139,134.5c8.7,0,15.8,5.5,15.8,12.2c0,6.7-7.1,12.2-15.8,12.2s-15.8-5.5-15.8-12.2
C123,140,130.2,134.5,139,134.5z"/>
  </symbol>

  <symbol viewBox="0 0 300 166" id="help">
      <!--each path in each symbol needs to have unique css class-->
      <style type="text/css">
          .hp0{fill:#2AB1EB;}
          .hp1{fill:#E4F1FD;}
      </style>
      <g>
          <path class="hp0" d="M199.3,54.2l-1.4-0.7c0.1-0.4,4.4-9,15.1-16.2c11.8-7.9,20.1-6.1,20.4-6.1l-0.4,1.6c-0.1,0-7.9-1.7-19.1,5.9
  C203.5,45.7,199.3,54.2,199.3,54.2z"/>
      </g>
      <g>
          <path class="hp0" d="M245.4,162.8c-9.2,0-13.9-3.6-18.4-7.2c-4.4-3.5-8.8-6.8-17.4-6.8c-0.5,0-0.8-0.4-0.8-0.8
  c0-0.5,0.4-0.8,0.8-0.8c9.2,0,13.9,3.6,18.4,7.2c4.4,3.5,8.8,6.8,17.4,6.8c8.6,0,13-3.4,17.4-6.8c4.6-3.5,9.1-7.2,18.4-7.2
  c8.4,0,13,3,17.4,6.4c0.4,0.2,0.5,0.8,0.1,1.1c-0.2,0.4-0.8,0.5-1.1,0.1c-4.1-3.1-8.4-6-16.3-6c-8.6,0-13,3.4-17.4,6.8
  C259.4,159,254.7,162.8,245.4,162.8z"/>
      </g>
      <path class="hp0" d="M141.1,0.4c-18.9,0-36.8,2.9-52.7,8.2C84.5,5.8,80,3.6,72.8,3.6c-9.2,0-13.9,3.6-18.4,7.2
c-4.4,3.5-8.8,6.8-17.4,6.8s-13-3.4-17.4-6.8c-4.6-3.5-9.1-7.2-18.4-7.2C0.8,3.6,0.4,4,0.4,4.5s0.4,0.8,0.8,0.8
c8.6,0,13,3.4,17.4,6.8c4.6,3.5,9.1,7.2,18.4,7.2s13.9-3.6,18.4-7.2c4.4-3.5,8.8-6.8,17.4-6.8C79,5.3,83,7,86.4,9.3
C46.8,22.8,19.6,50.7,19.6,82.9c0,45.4,54.4,82.4,121.4,82.4c66.9,0,121.4-37,121.4-82.4C262.5,37.2,208,0.4,141.1,0.4z M257.6,82.8
c0,9.1-2.4,18-6.8,26.2c-1.7-5-6.4-13.2-18.4-18.5c-11.8-5.2-24.3-1.2-29.3,0.8c2.8-5,4.3-10.3,4.3-16c0-5.8-1.6-11.2-4.4-16.2
c0-0.1-0.1-0.2-0.1-0.2c-9.4-16.3-32.2-28.2-59.2-29.3c0.2-2.4,0.6-9.5-3.4-16.7c-1.9-3.5-4.3-5.9-6.6-7.3c2.5-0.1,4.9-0.1,7.4-0.1
C205.3,5.2,257.6,40,257.6,82.8z M139.5,119.4c-25.3,0-47.3-9.5-58.4-23.5c2.2-1.2,4.1-2.6,5.9-4.1c4.4-3.5,8.8-6.8,17.4-6.8
s13,3.4,17.4,6.8c4.6,3.5,9.1,7.2,18.4,7.2c9.2,0,13.9-3.6,18.4-7.2c4.4-3.5,8.8-6.8,17.4-6.8c0.5,0,0.8-0.4,0.8-0.8
c0-0.5-0.4-0.8-0.8-0.8c-9.2,0-13.9,3.6-18.4,7.2c-4.4,3.5-8.8,6.8-17.4,6.8c-8.6,0-13-3.4-17.4-6.8c-4.6-3.5-9.1-7.2-18.4-7.2
c-9.2,0-13.9,3.6-18.4,7.2c-1.9,1.4-3.7,2.9-5.9,4.1c-4.3-5.9-6.7-12.4-6.7-19.3c0-7.8,3-15.1,8.4-21.5H82c0,0,0,0,0-0.1
C93.3,40.1,114.9,31,139.6,31c27.3,0,50.8,11.2,60.9,26.9c-4.1-1.2-7.1-3.5-10.3-5.8c-5-3.6-10.2-7.3-19.5-7.3s-13.9,3.6-18.4,7.2
c-4.4,3.5-8.8,6.8-17.4,6.8c-4.4,0-8.2-0.8-11.7-2.8c-0.4-0.2-0.8-0.1-1.1,0.4c-0.2,0.4-0.1,0.8,0.4,1.1c3.7,2,7.7,3,12.4,3
c9.2,0,13.9-3.6,18.4-7.2c4.4-3.5,8.8-6.8,17.4-6.8c8.8,0,13.6,3.4,18.5,7c3.6,2.5,7.2,5.2,12.4,6.4c2.6,4.8,4.1,9.8,4.1,15.3
C205.7,99.6,176,119.4,139.5,119.4z M130.6,5.5c2.6,1.2,5.9,3.6,8.3,7.9c3.7,7,3.4,13.8,3.1,15.9c-0.8,0-1.6,0-2.4,0
c-24.9,0-46.5,9-58.4,22.6c-1.7-3.7-7.1-12.1-20.2-14.4c-6.6-1.1-12.9,0.7-17.7,3.1C62.3,21.1,94.1,7.7,130.6,5.5z M24.5,82.8
c0-13.9,5.5-26.9,15.3-38.2c4.8-3.1,12.6-6.7,21-5.4c13.7,2.3,18.3,11.3,19.3,14.2c-5.3,6.5-8.3,13.9-8.3,21.9
c0,7.4,2.6,14.5,7.3,20.8l0,0c0,0.1,0.1,0.2,0.2,0.2c1.6,2,3.4,4,5.3,5.8c-4.6-0.6-13.7-0.4-22.2,8.3c-7.4,7.4-9.2,17.7-9.6,23.1
C35.2,119.8,24.5,102.1,24.5,82.8z M54.3,134.5c0.2-4.7,1.7-15.5,9.2-23.1c11.3-11.3,22.8-7.6,23.5-7.2
c12.5,10.2,31.4,16.8,52.4,16.8c6.4,0,12.5-0.6,18.4-1.7c1.2,0.2,15,3.2,20.5,13.5c4,7.4,2.6,18.4,1.8,23.1
c-12.3,2.9-25.5,4.6-39.3,4.6C106.7,160.2,75.7,150.3,54.3,134.5z M182.1,155.3c0.8-5.2,1.9-15.9-2.2-23.4
c-4.4-8.2-13.5-11.9-18.4-13.5c17.9-4.2,32.4-13.2,40-24.9c1.4-0.7,16.6-7.7,30.2-1.8c12.7,5.6,16.7,14.7,17.9,19.1
C237.6,131.3,213,147.6,182.1,155.3z"/>
      <path class="hp1" d="M158,122.5c-2.2,0.5-8,1.7-17.3,1.7c-6.2,0-12.9-0.6-19.7-1.6c-19.2-3-32.6-13.1-35.6-15.5
c-0.7-0.1-2.2-0.4-4-0.4c-3,0-7.6,0.7-12.1,4c-9,6.5-11.3,18-11.8,22.3c5.5,3.6,25.1,15.6,49,20.7c11.1,2.3,22.6,3.5,34.5,3.5
c10.2,0,18-0.8,21.7-1.4c4.1-0.6,11.1-1.9,14.5-2.6c0.6-4.9,1-13.6-1.4-18.4C171.6,126.1,160.8,123.1,158,122.5z M81.7,46.6
c4.3-4.1,13-10.9,25.6-15.3c13.7-4.7,25.1-5.3,30.8-5.3c0.2,0,0.6,0,0.8,0c0-2.5-0.5-6.6-2.9-10.8c-1.7-3.1-4.7-5.5-6-6.5
c-4.3,0.2-22.2,1.6-43.1,8.8c-13.5,4.7-24,11.3-31.1,16.6c0.7,0,1.3-0.1,2-0.1C70.7,34,78.2,41.7,81.7,46.6z M245.7,54.1
c-4.8-7.9-13.9-15.7-16.8-18c-1.8,0.1-6.2,1-12.9,5.3c-6.8,4.4-10.9,9.8-12.7,12.5c1.9,2.6,5.2,7.9,6.4,13.5c1.7,7.8,0.7,13,0,16.3
c-0.1,0.8-0.4,1.7-0.7,2.4c3-0.7,6.7-1.3,10.7-1.3c3,0,5.8,0.4,8.4,1.1c12.3,3.1,19.1,10.8,22.6,16.3c1.8-4.3,3.8-11.1,3.7-18.6
C254.2,69.4,251.6,63.7,245.7,54.1z"/>
  </symbol>
  
  <symbol viewBox="0 0 192.5 300" id="envelope">
          <!--each path in each symbol needs to have unique css class-->
          <style type="text/css">
              .qu0{fill:#E4F1FD;}
              .qu1{fill:none;stroke:#34B0E5;stroke-width:1.2057;stroke-miterlimit:10;}
              .qu2{fill:#34B0E5;}
          </style>
          <g>
              <g>
                  <path class="qu0" d="M128.4,34.5c-1.1-0.2-2.2-0.4-3.4-0.6l2.3,1.2L128.4,34.5z"/>
              </g>
          </g>
          <path class="qu0" d="M66.8,12L14.1,119.8l7.1,10.2l11.4-5.8v-35l87-49.7L66.8,12z M117,207.4l-70.4-43.7v130.4l135.9-78.6l0.4-125
  	L117,207.4z"/>
          <g>
              <path class="qu1" d="M165.2,54.6"/>
          </g>
          <path class="qu2" d="M157,85.6l-95.2,55.1c-0.4,0.2-0.5,0.6-0.2,1c0.1,0.2,0.4,0.4,0.6,0.4c0.1,0,0.2,0,0.4-0.1l95.2-54.9
  	c0.4-0.2,0.5-0.6,0.2-1C157.9,85.6,157.4,85.5,157,85.6z M157,100L61.8,155c-0.4,0.2-0.5,0.6-0.2,1c0.1,0.2,0.4,0.4,0.6,0.4
  	c0.1,0,0.2,0,0.4-0.1l95.2-54.9c0.4-0.2,0.5-0.6,0.2-1C157.9,99.9,157.4,99.8,157,100z M157,58.2l-95.2,54.9c-0.4,0.2-0.5,0.6-0.2,1
  	c0.1,0.2,0.4,0.4,0.6,0.4c0.1,0,0.2,0,0.4-0.1l95.2-54.8c0.4-0.2,0.5-0.6,0.2-1C157.9,58.2,157.4,58,157,58.2z M157,72.4l-95.2,55.1
  	c-0.4,0.2-0.5,0.6-0.2,1c0.1,0.2,0.4,0.4,0.6,0.4c0.1,0,0.2,0,0.4-0.1l95.2-54.9c0.4-0.2,0.5-0.6,0.2-1
  	C157.9,72.4,157.4,72.3,157,72.4z M70,7.5l55.7,27.8L31.6,89l0,0c-0.1,0-0.1,0.1-0.2,0.2c0,0,0,0,0,0.1s-0.1,0.2-0.1,0.4v39.9
  	l-12.8,7.4L5.5,120.5l35.7-73L63,4.1c0.5-1,0.4-1.4,0.4-1.4c-0.1-0.7-0.5-1.3-1.2-1.7c-1.1-0.6-2.4-0.1-2.9,1L-0.1,120.2l15,19.3
  	V284l26.9,15.5l150.3-86.7v-145l-15.8-9.1V19.8l0,0c0-0.1,0-0.1-0.1-0.2c0,0,0,0,0-0.1c0-0.1-0.1-0.1-0.2-0.2l-10.2-6.2
  	c-0.2-0.1-0.5-0.1-0.7,0l-37.7,21.5L70.6,6.2c0,0-0.7-0.4-1,0.4C69.4,7.2,70,7.5,70,7.5 M39.6,161.9L40.9,294l-21.7-12.6V142.2
  	l96.2,55.5l0,0l0,0l0,0l0.6,0.4l0.4-0.6l0,0l65.9-116.4c0.1-0.2,0.4-0.8-0.1-1.1c-0.7-0.4-1.2,0.4-1.2,0.4l-4.9,8.6V63.6l11.5,6.7
  	v139.9l-145.1,84l-1.2-131.7c0,0,0-0.8-0.7-1.1C39.6,161.1,39.6,161.9,39.6,161.9 M158,113.5c-0.2-0.4-0.6-0.5-1-0.2l-93,52.9
  	l-19.7-11.5V96.2l130.1-75.1v70.7l-59.1,104.5L65.5,167l92.2-52.5C158.1,114.2,158.2,113.8,158,113.5z M165.1,14.5l8.8,5.4L43.7,95
  	l-10.2-5.4L165.1,14.5z M39.5,152.2l-6.8-3.8V90.8L43,96.2v57.9l-2.4-1.3l0,0l0,0L39.5,152.2L39.5,152.2z M31.2,134.6v13l-11.2-6.4
  	c0-0.1,0.1-0.2,0.1-0.4L31.2,134.6z"/>
      </symbol>
</svg>